<svg width="24" height="24" viewBox="0 0 24 24"  xmlns="http://www.w3.org/2000/svg">
<path d="M5 10.5C4.59 10.5 4.25 10.16 4.25 9.75C4.25 9.34 4.59 9 5 9H6.25C6.8 9 7.25 9.45 7.25 10V14.25C7.25 14.66 6.91 15 6.5 15C6.09 15 5.75 14.66 5.75 14.25V10.5H5ZM10 9C9.59 9 9.25 9.34 9.25 9.75C9.25 10.16 9.59 10.5 10 10.5H12.25V11.5H10.25C9.7 11.5 9.25 11.95 9.25 12.5V14C9.25 14.55 9.7 15 10.25 15H13C13.41 15 13.75 14.66 13.75 14.25C13.75 13.84 13.41 13.5 13 13.5H10.75V12.5H12.75C13.3 12.5 13.75 12.05 13.75 11.5V10C13.75 9.45 13.3 9 12.75 9H10ZM18.75 15C19.3 15 19.75 14.55 19.75 14V10C19.75 9.45 19.3 9 18.75 9H16C15.59 9 15.25 9.34 15.25 9.75C15.25 10.16 15.59 10.5 16 10.5H18.25V11.5H16.75C16.47 11.5 16.25 11.72 16.25 12C16.25 12.28 16.47 12.5 16.75 12.5H18.25V13.5H16C15.59 13.5 15.25 13.84 15.25 14.25C15.25 14.66 15.59 15 16 15H18.75Z" />
</svg>
