<svg width="24" height="24" viewBox="0 0 24 24"  xmlns="http://www.w3.org/2000/svg">
<g clip-path="url(#clip0_2402_15862)">
<path d="M8.41001 14.965C8.22001 14.965 8.04001 14.935 7.89001 14.885C7.73001 14.825 7.60001 14.755 7.49001 14.645C7.38001 14.545 7.29001 14.425 7.23001 14.275C7.17001 14.135 7.14001 13.975 7.14001 13.805H5.84001C5.84001 14.165 5.91001 14.485 6.05001 14.755C6.19001 15.025 6.38001 15.255 6.61001 15.445C6.85001 15.625 7.12001 15.765 7.43001 15.855C7.73001 15.955 8.05001 16.005 8.39001 16.005C8.76001 16.005 9.11001 15.955 9.42001 15.855C9.74001 15.755 10.02 15.605 10.25 15.415C10.48 15.225 10.67 14.985 10.8 14.695C10.93 14.405 11 14.085 11 13.725C11 13.535 10.98 13.345 10.93 13.165C10.88 12.985 10.81 12.815 10.7 12.655C10.6 12.495 10.46 12.355 10.3 12.225C10.13 12.095 9.93001 11.995 9.69001 11.915C9.89001 11.825 10.06 11.715 10.21 11.585C10.36 11.455 10.48 11.315 10.58 11.165C10.68 11.015 10.75 10.865 10.8 10.705C10.85 10.545 10.87 10.385 10.87 10.225C10.87 9.865 10.81 9.545 10.69 9.265C10.57 8.985 10.4 8.755 10.18 8.575C9.98001 8.385 9.71001 8.245 9.41001 8.145C9.10001 8.055 8.76001 8.005 8.39001 8.005C8.03001 8.005 7.70001 8.055 7.39001 8.165C7.09001 8.275 6.82001 8.425 6.60001 8.615C6.39001 8.805 6.22001 9.025 6.09001 9.285C5.97001 9.545 5.91001 9.825 5.91001 10.135H7.21001C7.21001 9.965 7.24001 9.815 7.30001 9.685C7.36001 9.555 7.44001 9.435 7.55001 9.345C7.66001 9.255 7.78001 9.175 7.93001 9.125C8.08001 9.075 8.23001 9.045 8.41001 9.045C8.81001 9.045 9.11001 9.145 9.30001 9.355C9.49001 9.555 9.59001 9.845 9.59001 10.215C9.59001 10.395 9.56001 10.555 9.51001 10.705C9.46001 10.855 9.37001 10.975 9.26001 11.075C9.15001 11.175 9.01001 11.255 8.85001 11.315C8.69001 11.375 8.49001 11.405 8.27001 11.405H7.50001V12.435H8.27001C8.49001 12.435 8.69001 12.455 8.87001 12.505C9.05001 12.555 9.20001 12.635 9.32001 12.735C9.44001 12.845 9.54001 12.975 9.61001 13.135C9.68001 13.295 9.71001 13.485 9.71001 13.705C9.71001 14.115 9.59001 14.425 9.36001 14.635C9.13001 14.865 8.81001 14.965 8.41001 14.965ZM17.71 10.245C17.53 9.775 17.28 9.375 16.96 9.045C16.64 8.715 16.26 8.455 15.82 8.275C15.39 8.095 14.9 8.005 14.36 8.005H12V16.005H14.3C14.85 16.005 15.36 15.915 15.81 15.735C16.26 15.555 16.65 15.305 16.97 14.975C17.29 14.645 17.54 14.245 17.71 13.785C17.88 13.315 17.97 12.795 17.97 12.215V11.815C17.97 11.235 17.88 10.715 17.71 10.245ZM16.58 12.205C16.58 12.625 16.53 12.995 16.44 13.335C16.34 13.665 16.2 13.955 16.01 14.185C15.82 14.415 15.58 14.595 15.3 14.715C15.01 14.835 14.68 14.895 14.31 14.895H13.4V9.115H14.37C15.09 9.115 15.64 9.345 16.01 9.805C16.39 10.265 16.58 10.925 16.58 11.795V12.205ZM15.15 3.845L16.48 2.515C19.57 3.975 21.82 6.885 22.37 10.375C22.43 10.785 22.81 11.065 23.23 10.995C23.64 10.935 23.92 10.545 23.85 10.135C23.25 6.325 20.89 3.125 17.61 1.385C15.94 0.495003 13.78 -0.124997 11.34 0.0250027L15.15 3.845ZM8.85001 20.155L7.52001 21.485C4.43001 20.025 2.18001 17.115 1.63001 13.625C1.57001 13.215 1.19001 12.935 0.770013 13.005C0.360013 13.065 0.0800133 13.455 0.150013 13.865C0.750013 17.675 3.11001 20.875 6.39001 22.615C8.06001 23.505 10.22 24.125 12.66 23.975L8.85001 20.155Z" />
</g>
<defs>
<clipPath id="clip0_2402_15862">
<rect width="24" height="24" fill="white"/>
</clipPath>
</defs>
</svg>
