<svg width="24" height="24" viewBox="0 0 24 24"  xmlns="http://www.w3.org/2000/svg">
<path d="M14.96 10.7C14.87 10.18 14.6 9.71 14.16 9.4L9.16 5.83C8.46 5.33 7.53 5.33 6.84 5.83L1.84 9.4C1.31 9.78 1 10.38 1 11.03V18C1 19.1 1.9 20 3 20H6V14H10V20H11.68C11.25 19.09 11 18.08 11 17C11 14.22 12.62 11.83 14.96 10.7Z" />
<path d="M23 12.11V3.97C23 2.88 22.12 2 21.03 2H11.97C10.88 2 10 2.88 10 3.97L10.02 4.02C10.12 4.08 10.23 4.13 10.32 4.2L15.32 7.77C16.11 8.33 16.66 9.17 16.88 10.09C17.25 10.04 17.62 10 18 10C19.96 10 21.73 10.81 23 12.11ZM17 6H19V8H17V6Z" />
<path d="M23 17C23 14.24 20.76 12 18 12C15.24 12 13 14.24 13 17C13 19.76 15.24 22 18 22C20.76 22 23 19.76 23 17ZM17.5 20V17.5H15V16.5H17.5V14H18.5V16.5H21V17.5H18.5V20H17.5Z" />
</svg>
