<svg width="24" height="24" viewBox="0 0 24 24"  xmlns="http://www.w3.org/2000/svg">
<path d="M20.2916 5.89205L10.2916 15.8921C9.90159 16.2821 9.27159 16.2821 8.88159 15.8921L6.05159 13.0621C5.66159 12.6721 5.66159 12.0421 6.05159 11.6521C6.44159 11.2621 7.07159 11.2621 7.46159 11.6521L9.58159 13.7721L18.8716 4.48205C19.2616 4.09205 19.8916 4.09205 20.2816 4.48205C20.6816 4.87205 20.6816 5.50205 20.2916 5.89205ZM11.0016 20.0021C6.29159 20.0021 2.52159 15.9121 3.05159 11.1021C3.44159 7.58205 6.17159 4.69205 9.66159 4.11205C11.4716 3.81205 13.1916 4.13205 14.6516 4.89205C15.0416 5.09205 15.5116 5.02205 15.8216 4.71205C16.3016 4.23205 16.1816 3.42205 15.5816 3.11205C14.1116 2.36205 12.4516 1.95205 10.6816 2.00205C5.54159 2.16205 1.27159 6.34205 1.01159 11.4721C0.721588 17.2421 5.30159 22.0021 11.0016 22.0021C12.2016 22.0021 13.3416 21.792 14.4116 21.4021C15.0916 21.1521 15.2816 20.2721 14.7616 19.7521C14.4916 19.482 14.0816 19.3821 13.7216 19.5221C12.8716 19.8321 11.9516 20.0021 11.0016 20.0021ZM18.0016 15.0021H16.0016C15.4516 15.0021 15.0016 15.4521 15.0016 16.0021C15.0016 16.5521 15.4516 17.0021 16.0016 17.0021H18.0016V19.0021C18.0016 19.552 18.4516 20.0021 19.0016 20.0021C19.5516 20.0021 20.0016 19.552 20.0016 19.0021V17.0021H22.0016C22.5516 17.0021 23.0016 16.5521 23.0016 16.0021C23.0016 15.4521 22.5516 15.0021 22.0016 15.0021H20.0016V13.0021C20.0016 12.4521 19.5516 12.0021 19.0016 12.0021C18.4516 12.0021 18.0016 12.4521 18.0016 13.0021V15.0021Z" />
</svg>
