<svg width="24" height="24" viewBox="0 0 24 24"  xmlns="http://www.w3.org/2000/svg">
<path d="M19.8476 21V18H22.8476V16H19.8476V13H17.8476V16H14.8476V18H17.8476V21H19.8476ZM14.8776 21.5H5.50764C4.78764 21.5 4.12764 21.12 3.77764 20.5L1.41764 16.4C1.05764 15.78 1.06764 15.02 1.42764 14.4L7.76764 3.49C8.12764 2.88 8.78764 2.5 9.49764 2.5H14.1976C14.9076 2.5 15.5676 2.88 15.9276 3.49L20.4076 11.2C19.9076 11.07 19.3876 11 18.8476 11C18.5676 11 18.2876 11.02 18.0076 11.06L14.1976 4.5H9.49764L3.15764 15.41L5.50764 19.5H13.3976C13.7476 20.27 14.2476 20.95 14.8776 21.5ZM13.1876 15C12.9676 15.63 12.8476 16.3 12.8476 17H7.09764L6.36764 15.73L10.9476 7.75H12.7476L15.2776 12.17C14.7176 12.59 14.2276 13.1 13.8376 13.68L11.8376 10.19L9.09764 15H13.1876Z" />
</svg>
