<svg width="24" height="24" viewBox="0 0 24 24"  xmlns="http://www.w3.org/2000/svg">
<path d="M15.03 9.90875C16.26 9.64875 17.43 9.72875 18.5 10.0488V8.74875C18.5 8.11875 18.2 7.52875 17.7 7.14875L11.7 2.64875C10.99 2.11875 10.01 2.11875 9.3 2.64875L3.3 7.14875C2.8 7.52875 2.5 8.11875 2.5 8.74875V17.7488C2.5 18.8488 3.4 19.7488 4.5 19.7488H10.18C9.57 18.4688 9.32 16.9788 9.63 15.3988C10.15 12.6788 12.32 10.4888 15.03 9.90875Z" />
<path d="M16.5 11.7488C13.74 11.7488 11.5 13.9888 11.5 16.7488C11.5 19.5088 13.74 21.7488 16.5 21.7488C19.26 21.7488 21.5 19.5088 21.5 16.7488C21.5 13.9888 19.26 11.7488 16.5 11.7488ZM19.5 17.2488H17V19.7488H16V17.2488H13.5V16.2488H16V13.7488H17V16.2488H19.5V17.2488Z" />
</svg>
