<svg width="24" height="24" viewBox="0 0 24 24"  xmlns="http://www.w3.org/2000/svg">
<path d="M9.78 11.0596L8.36 12.4796C7.68 11.7896 7.02 10.8996 6.57 9.53961L8.51 9.04961C8.83 9.93961 9.28 10.5496 9.78 11.0596ZM10.15 5.04961L7.35 2.24961C7.15 2.04961 6.84 2.04961 6.64 2.24961L3.85 5.04961C3.54 5.35961 3.76 5.89961 4.21 5.89961H6.02C6.04 6.70961 6.1 7.43961 6.21 8.06961L8.15 7.57961C8.08 7.09961 8.03 6.52961 8.02 5.89961H9.8C10.24 5.89961 10.46 5.35961 10.15 5.04961ZM20.15 5.04961L17.36 2.25961C17.16 2.05961 16.85 2.05961 16.65 2.25961L13.86 5.04961C13.54 5.35961 13.76 5.89961 14.21 5.89961H15.99C15.89 9.57961 14.71 10.6496 13.45 11.7796C12.95 12.2196 12.44 12.6996 12 13.3296C11.66 12.8396 11.27 12.4496 10.87 12.0896L9.46 13.4996C10.39 14.3496 11 15.0396 11 16.8996V20.8996C11 21.4496 11.45 21.8996 12 21.8996C12.55 21.8996 13 21.4496 13 20.8996V16.8996C13 14.8796 13.71 14.2396 14.79 13.2696C16.17 12.0296 17.87 10.4896 17.99 5.89961H19.79C20.24 5.89961 20.46 5.35961 20.15 5.04961Z" />
</svg>
