<svg width="24" height="24" viewBox="0 0 24 24"  xmlns="http://www.w3.org/2000/svg">
<path d="M15.1699 18H5.16992V6H15.1699V7H17.1699V3C17.1699 1.9 16.2699 1 15.1699 1H5.16992C4.06992 1 3.16992 1.9 3.16992 3V21C3.16992 22.1 4.06992 23 5.16992 23H15.1699C16.2699 23 17.1699 22.1 17.1699 21V17H15.1699V18Z" />
<path d="M18.5499 9.62L18.9499 10.49C19.0399 10.69 19.3199 10.69 19.4099 10.49L19.8099 9.62L20.6799 9.22C20.8799 9.13 20.8799 8.85 20.6799 8.76L19.8099 8.36L19.4099 7.49C19.3199 7.29 19.0399 7.29 18.9499 7.49L18.5499 8.36L17.6799 8.76C17.4799 8.85 17.4799 9.13 17.6799 9.22L18.5499 9.62Z" />
<path d="M13.7099 9L12.9199 10.75L11.1699 11.54C10.7799 11.72 10.7799 12.27 11.1699 12.45L12.9199 13.24L13.7099 15C13.8899 15.39 14.4399 15.39 14.6199 15L15.4099 13.25L17.1699 12.46C17.5599 12.28 17.5599 11.73 17.1699 11.55L15.4199 10.76L14.6299 9C14.4499 8.61 13.8899 8.61 13.7099 9Z" />
<path d="M18.9399 13.5L18.5399 14.37L17.6699 14.77C17.4699 14.86 17.4699 15.14 17.6699 15.23L18.5399 15.63L18.9399 16.5C19.0299 16.7 19.3099 16.7 19.3999 16.5L19.7999 15.63L20.6699 15.23C20.8699 15.14 20.8699 14.86 20.6699 14.77L19.7999 14.37L19.3999 13.5C19.3099 13.31 19.0299 13.31 18.9399 13.5Z" />
</svg>
