<svg width="24" height="24" viewBox="0 0 24 24"  xmlns="http://www.w3.org/2000/svg">
<path d="M12.9806 6.99023C14.0852 6.99023 14.9806 6.0948 14.9806 4.99023C14.9806 3.88566 14.0852 2.99023 12.9806 2.99023C11.876 2.99023 10.9806 3.88566 10.9806 4.99023C10.9806 6.0948 11.876 6.99023 12.9806 6.99023Z" />
<path d="M20.2506 18.2102L19.6106 11.8402C19.5406 11.0702 18.8906 10.4902 18.1206 10.4902H16.4806C14.9806 10.4702 13.6206 9.95023 12.7206 9.05023L10.7206 7.07023C10.5606 6.91023 10.1006 6.49023 9.31061 6.49023C8.80061 6.49023 8.29061 6.69023 7.90061 7.08023L4.56061 10.4002C4.03061 11.0802 4.05061 11.9702 4.35061 12.5302L5.78061 15.3302L3.23061 18.5902C2.89061 19.0202 2.97061 19.6502 3.40061 19.9902C3.84061 20.3302 4.47061 20.2502 4.81061 19.8202L7.37061 16.5302C7.70061 16.1102 7.84061 15.5802 7.78061 15.0502L7.71061 14.5202L8.48061 15.2402V19.4902C8.48061 20.0402 8.93061 20.4902 9.48061 20.4902C10.0306 20.4902 10.4806 20.0402 10.4806 19.4902V15.2002C10.4806 14.6702 10.2706 14.1602 9.89061 13.7902L8.36061 12.2602L10.7206 9.90023C11.6606 10.8402 12.4406 11.7202 14.3106 12.2202L13.5606 19.6802C13.5206 20.1202 13.8606 20.5102 14.3106 20.5102C14.6906 20.5102 15.0106 20.2202 15.0606 19.8502L15.3906 17.0102H18.5706L18.7106 18.2302C18.2706 18.4902 17.9806 18.9702 17.9806 19.5102C17.9806 20.3402 18.6506 21.0102 19.4806 21.0102C20.3106 21.0102 20.9806 20.3402 20.9806 19.5102C20.9806 18.9502 20.6906 18.4702 20.2506 18.2102ZM15.5706 15.4902L15.9806 11.9902H17.9806L18.3906 15.4902H15.5706Z" />
</svg>
