<svg width="24" height="24" viewBox="0 0 24 24"  xmlns="http://www.w3.org/2000/svg">
<path d="M5 16.38C5.55 16.38 6 15.93 6 15.38V10.38C6 9.83 5.55 9.38 5 9.38C4.45 9.38 4 9.83 4 10.38V15.38C4 15.93 4.45 16.38 5 16.38Z" />
<path d="M11 16.38C11.55 16.38 12 15.93 12 15.38V10.38C12 9.83 11.55 9.38 11 9.38C10.45 9.38 10 9.83 10 10.38V15.38C10 15.93 10.45 16.38 11 16.38Z" />
<path d="M20.32 5.03999L11.9 0.829995C11.34 0.549995 10.67 0.549995 10.11 0.829995L1.68 5.03999C1.26 5.24999 1 5.68 1 6.14C1 6.83 1.55 7.37999 2.24 7.37999H19.77C20.45 7.37999 21 6.83 21 6.14C21 5.68 20.74 5.24999 20.32 5.03999Z" />
<path d="M1 19.38C1 19.93 1.45 20.38 2 20.38H13.4C13.19 19.74 13.08 19.07 13.04 18.38H2C1.45 18.38 1 18.83 1 19.38Z" />
<path d="M18 11.64V10.38C18 9.83 17.55 9.38 17 9.38C16.45 9.38 16 9.83 16 10.38V12.64L18 11.64Z" />
<path d="M18.55 13.6L15.55 15.1C15.21 15.27 15 15.62 15 16V17.93C15 20.45 16.71 22.81 19 23.38C21.29 22.81 23 20.45 23 17.93V16C23 15.62 22.79 15.27 22.45 15.11L19.45 13.61C19.17 13.46 18.83 13.46 18.55 13.6ZM17.58 19.68L16.78 18.88C16.49 18.59 16.49 18.11 16.78 17.82C17.07 17.53 17.55 17.53 17.84 17.82L18.28 18.26L20.16 16.41C20.45 16.12 20.93 16.12 21.22 16.41C21.51 16.7 21.51 17.18 21.22 17.47L18.99 19.68C18.6 20.07 17.97 20.07 17.58 19.68Z" />
</svg>
