<svg width="24" height="24" viewBox="0 0 24 24"  xmlns="http://www.w3.org/2000/svg">
<path d="M10.435 18.75C10.805 18.29 11.375 18 12.005 18C12.635 18 13.195 18.29 13.565 18.75C13.955 18.66 14.325 18.54 14.685 18.39L13.265 15.21C12.875 15.36 12.445 15.44 12.005 15.44C11.545 15.44 11.105 15.35 10.705 15.19L9.27499 18.38C9.64499 18.54 10.025 18.67 10.435 18.75ZM5.15499 10C4.99499 10.59 4.905 11.21 4.905 11.85C4.905 12.6 5.02499 13.32 5.23499 14C5.865 14.05 6.455 14.4 6.795 14.99C7.125 15.56 7.14499 16.22 6.90499 16.78C7.17499 17.05 7.465 17.31 7.775 17.54L9.295 14.15C8.825 13.57 8.545 12.83 8.545 12.02C8.545 10.13 10.095 8.61 12.005 8.61C13.915 8.61 15.465 10.14 15.465 12.02C15.465 12.84 15.175 13.59 14.685 14.18L16.185 17.53C16.505 17.29 16.805 17.03 17.085 16.74C16.865 16.19 16.885 15.54 17.205 14.99C17.535 14.42 18.105 14.07 18.725 14C18.945 13.32 19.065 12.59 19.065 11.84C19.065 11.2 18.975 10.57 18.815 9.98C18.175 9.94 17.555 9.59 17.215 8.98C16.855 8.36 16.865 7.62 17.185 7.03C16.275 6.05 15.085 5.32 13.745 4.98C13.395 5.6 12.735 6 12.005 6C11.275 6 10.615 5.59 10.265 4.99C8.925 5.33 7.73499 6.04 6.825 7.02C7.15499 7.62 7.17499 8.37 6.805 9C6.44499 9.62 5.815 9.97 5.15499 10ZM3.855 9.58C3.075 8.98 2.835 7.88 3.345 7C3.855 6.12 4.925 5.77 5.835 6.15C6.945 4.98 8.395 4.12 10.015 3.73C10.145 2.75 10.985 2 12.005 2C13.025 2 13.855 2.75 13.985 3.73C15.615 4.12 17.055 4.97 18.165 6.15C19.075 5.77 20.155 6.12 20.655 7C21.165 7.88 20.925 8.98 20.145 9.58C20.375 10.35 20.495 11.16 20.495 12C20.495 12.84 20.375 13.65 20.145 14.42C20.925 15.02 21.165 16.12 20.655 17C20.145 17.88 19.075 18.23 18.165 17.85C17.765 18.28 17.315 18.66 16.825 19L17.635 20.8C17.885 21.36 17.475 22 16.855 22C16.525 22 16.215 21.8 16.075 21.5L15.325 19.83C14.895 20.01 14.445 20.16 13.985 20.27C13.855 21.25 13.015 22 12.005 22C10.995 22 10.155 21.25 10.025 20.27C9.54499 20.15 9.08499 20 8.64499 19.81L7.88499 21.5C7.745 21.8 7.445 22 7.105 22H7.095C6.475 22 6.065 21.36 6.325 20.8L7.145 18.97C6.675 18.64 6.23499 18.26 5.845 17.85C4.92499 18.23 3.855 17.88 3.345 17C2.835 16.12 3.075 15.02 3.855 14.42C3.615 13.65 3.505 12.84 3.505 12C3.505 11.16 3.615 10.35 3.855 9.58Z" />
</svg>
