<svg width="24" height="24" viewBox="0 0 24 24"  xmlns="http://www.w3.org/2000/svg">
<path d="M22.5013 1.49805L20.0013 2.89805L17.5013 1.49805L18.9013 3.99805L17.5013 6.49805L20.0013 5.09805L22.5013 6.49805L21.1013 3.99805L22.5013 1.49805ZM14.8713 6.78805C14.4813 6.39805 13.8513 6.39805 13.4613 6.78805L1.79128 18.458C1.40128 18.848 1.40128 19.478 1.79128 19.868L4.13128 22.208C4.52128 22.598 5.15128 22.598 5.54128 22.208L17.2013 10.548C17.5913 10.158 17.5913 9.52805 17.2013 9.13805L14.8713 6.78805ZM13.8413 12.278L11.7213 10.158L14.1613 7.71805L16.2813 9.83805L13.8413 12.278Z" />
</svg>
