<svg width="24" height="24" viewBox="0 0 24 24"  xmlns="http://www.w3.org/2000/svg">
<path d="M21.9499 3.60422L20.8899 3.11422L20.3999 2.05422C20.2199 1.66422 19.6699 1.66422 19.4899 2.05422L18.9999 3.11422L17.9499 3.60422C17.5599 3.78422 17.5599 4.33422 17.9499 4.51422L19.0099 5.00422L19.4999 6.05422C19.6799 6.44422 20.2299 6.44422 20.4099 6.05422L20.8999 4.99422L21.9499 4.50422C22.3399 4.33422 22.3399 3.77422 21.9499 3.60422Z" />
<path d="M14.1199 8.47422L15.5299 9.88422L14.0699 11.3442L15.4799 12.7542L17.6499 10.5842C18.0399 10.1942 18.0399 9.56422 17.6499 9.17422L14.8199 6.34422C14.4299 5.95422 13.7999 5.95422 13.4099 6.34422L11.2399 8.51422L12.6499 9.92422L14.1199 8.47422Z" />
<path d="M2.04995 4.98422L8.40995 11.3442L2.23995 17.5142C1.84995 17.9042 1.84995 18.5342 2.23995 18.9242L5.06995 21.7542C5.45995 22.1442 6.08995 22.1442 6.47995 21.7542L12.6499 15.5842L19.0099 21.9442C19.3999 22.3342 20.0299 22.3342 20.4199 21.9442C20.8099 21.5542 20.8099 20.9242 20.4199 20.5342L3.45995 3.56422C3.06995 3.17422 2.43995 3.17422 2.04995 3.56422C1.65995 3.96422 1.65995 4.59422 2.04995 4.98422Z" />
</svg>
