<svg width="24" height="24" viewBox="0 0 24 24"  xmlns="http://www.w3.org/2000/svg">
<path d="M18.1643 2.72936C17.0143 1.95936 15.7043 1.40936 14.3043 1.11936C13.6843 0.999359 13.1043 1.46936 13.1043 2.10936C13.1043 2.56936 13.4143 2.98936 13.8643 3.07936C15.0343 3.30936 16.1243 3.77936 17.0743 4.41936C17.4643 4.67936 17.9743 4.60936 18.3043 4.27936C18.7643 3.82936 18.6943 3.07936 18.1643 2.72936Z" />
<path d="M11.1043 2.10936C11.1043 1.46936 10.5243 0.999359 9.90431 1.11936C8.50431 1.40936 7.19431 1.95936 6.04431 2.72936C5.52431 3.07936 5.45431 3.82936 5.89431 4.26936C6.22431 4.59936 6.73431 4.66936 7.12431 4.40936C8.08431 3.76936 9.16431 3.30936 10.3343 3.06936C10.7943 2.98936 11.1043 2.56936 11.1043 2.10936Z" />
<path d="M4.48431 5.68936C4.03431 5.23936 3.28431 5.31936 2.94431 5.83936C2.17431 6.98936 1.61431 8.28936 1.33431 9.69936C1.20431 10.3194 1.68431 10.8994 2.31431 10.8994C2.77431 10.8994 3.19431 10.5894 3.28431 10.1394C3.51431 8.96936 3.98431 7.87936 4.62431 6.91936C4.87431 6.53936 4.80431 6.01936 4.48431 5.68936Z" />
<path d="M21.8943 10.8994C22.5243 10.8994 23.0043 10.3194 22.8743 9.69936C22.5843 8.29936 22.0343 6.99936 21.2643 5.83936C20.9143 5.31936 20.1643 5.23936 19.7243 5.68936C19.3943 6.01936 19.3243 6.52936 19.5843 6.91936C20.2243 7.87936 20.6843 8.96936 20.9243 10.1394C21.0143 10.5894 21.4343 10.8994 21.8943 10.8994Z" />
<path d="M8.10431 12.3594L10.5443 13.4694L11.6443 15.8994C11.8243 16.2894 12.3743 16.2894 12.5543 15.8994L13.6643 13.4594L16.1043 12.3594C16.4943 12.1794 16.4943 11.6294 16.1043 11.4494L13.6643 10.3394L12.5643 7.89936C12.3843 7.50936 11.8343 7.50936 11.6543 7.89936L10.5443 10.3394L8.10431 11.4394C7.71431 11.6194 7.71431 12.1794 8.10431 12.3594Z" />
<path d="M12.1043 20.8994C8.99431 20.8994 6.25431 19.3094 4.64431 16.8994H6.10431C6.65431 16.8994 7.10431 16.4494 7.10431 15.8994C7.10431 15.3494 6.65431 14.8994 6.10431 14.8994H2.10431C1.55431 14.8994 1.10431 15.3494 1.10431 15.8994V19.8994C1.10431 20.4494 1.55431 20.8994 2.10431 20.8994C2.65431 20.8994 3.10431 20.4494 3.10431 19.8994V18.1994C5.09431 21.0394 8.37431 22.8994 12.1043 22.8994C16.5543 22.8994 20.3743 20.2594 22.1043 16.4694C22.3643 15.8994 22.0243 15.2194 21.4143 15.0794C20.9643 14.9794 20.4843 15.1894 20.2943 15.6194C18.8743 18.7294 15.7443 20.8994 12.1043 20.8994Z" />
</svg>
