<svg width="24" height="24" viewBox="0 0 24 24"  xmlns="http://www.w3.org/2000/svg">
<path d="M22.5013 1.49805L20.0013 2.89805L17.5013 1.49805L18.9013 3.99805L17.5013 6.49805L20.0013 5.09805L22.5013 6.49805L21.1013 3.99805L22.5013 1.49805ZM14.1613 7.71805L16.2813 9.83805L13.8413 12.278L14.6513 13.088L17.2013 10.538C17.5913 10.148 17.5913 9.51805 17.2013 9.12805L14.8613 6.78805C14.4713 6.39805 13.8413 6.39805 13.4513 6.78805L10.9013 9.33805L11.7113 10.148L14.1613 7.71805ZM2.77128 3.75805L1.50128 5.02805L8.36128 11.888L1.79128 18.458C1.40128 18.848 1.40128 19.478 1.79128 19.868L4.13128 22.208C4.52128 22.598 5.15128 22.598 5.54128 22.208L12.1113 15.638L18.9713 22.498L20.2413 21.228L2.77128 3.75805Z" />
</svg>
