<svg width="24" height="24" viewBox="0 0 24 24"  xmlns="http://www.w3.org/2000/svg">
<path d="M13.8911 10.5475L12.8311 10.0575C12.4411 9.87746 12.4411 9.32746 12.8311 9.14746L13.8911 8.65746L14.3811 7.60746C14.5611 7.21746 15.1111 7.21746 15.2911 7.60746L15.7811 8.66746L16.8311 9.15746C17.2211 9.33746 17.2211 9.88746 16.8311 10.0675L15.7711 10.5575L15.2811 11.6075C15.1011 11.9975 14.5511 11.9975 14.3711 11.6075L13.8911 10.5475ZM4.28107 13.6075L4.77107 12.5475L5.83107 12.0575C6.22107 11.8775 6.22107 11.3275 5.83107 11.1475L4.77107 10.6575L4.28107 9.60746C4.11107 9.21746 3.55107 9.21746 3.38107 9.60746L2.89107 10.6675L1.83107 11.1575C1.44107 11.3375 1.44107 11.8875 1.83107 12.0675L2.89107 12.5575L3.38107 13.6075C3.55107 13.9975 4.11107 13.9975 4.28107 13.6075ZM8.79107 8.59746L9.42107 7.19746L10.8211 6.56746C11.2111 6.38746 11.2111 5.83746 10.8211 5.65746L9.42107 5.02746L8.79107 3.62746C8.61107 3.23746 8.06107 3.23746 7.88107 3.62746L7.25107 5.02746L5.85107 5.65746C5.46107 5.83746 5.46107 6.38746 5.85107 6.56746L7.25107 7.19746L7.88107 8.59746C8.05107 8.98746 8.61107 8.98746 8.79107 8.59746ZM22.1711 8.87746C21.7711 8.47746 21.1011 8.48746 20.7211 8.91746L14.3311 16.0975L11.0411 12.8075C10.6511 12.4175 10.0211 12.4175 9.63107 12.8075L3.59107 18.8575C3.18107 19.2675 3.18107 19.9475 3.59107 20.3575C4.00107 20.7675 4.68107 20.7675 5.09107 20.3575L10.3411 15.0975L13.5911 18.3475C14.0011 18.7575 14.6611 18.7375 15.0411 18.3075L22.2111 10.2375C22.5611 9.84746 22.5411 9.24746 22.1711 8.87746Z" />
</svg>
