<svg width="24" height="24" viewBox="0 0 24 24"  xmlns="http://www.w3.org/2000/svg">
<path d="M19.055 3.53539C17.385 2.14539 15.315 1.23539 13.025 1.02539V3.03539C14.755 3.22539 16.335 3.91539 17.635 4.95539L19.055 3.53539Z" />
<path d="M11.025 3.03539V1.02539C8.735 1.22539 6.665 2.14539 4.995 3.53539L6.415 4.95539C7.715 3.91539 9.295 3.22539 11.025 3.03539Z" />
<path d="M5.005 6.36539L3.585 4.94539C2.195 6.61539 1.285 8.68539 1.075 10.9754H3.085C3.275 9.24539 3.965 7.66539 5.005 6.36539Z" />
<path d="M20.965 10.9754H22.975C22.765 8.68539 21.855 6.61539 20.465 4.94539L19.045 6.36539C20.085 7.66539 20.775 9.24539 20.965 10.9754Z" />
<path d="M7.025 11.9754L10.465 13.5354L12.025 16.9754L13.585 13.5354L17.025 11.9754L13.585 10.4154L12.025 6.97539L10.465 10.4154L7.025 11.9754Z" />
<path d="M12.025 20.9754C8.915 20.9754 6.175 19.3854 4.565 16.9754H7.025V14.9754H1.025V20.9754H3.025V18.2754C5.015 21.1154 8.295 22.9754 12.025 22.9754C16.895 22.9754 21.025 19.8054 22.465 15.4154L20.505 14.9654C19.275 18.4554 15.945 20.9754 12.025 20.9754Z" />
</svg>
