<svg width="24" height="24" viewBox="0 0 24 24"  xmlns="http://www.w3.org/2000/svg">
<path d="M18.15 2.74813L14.15 6.74813C14.05 6.84813 14 6.96813 14 7.10813V15.2781C14 15.7081 14.51 15.9381 14.83 15.6481L18.83 12.0481C18.94 11.9581 19 11.8181 19 11.6781V3.10813C19 2.65813 18.46 2.43813 18.15 2.74813ZM22.47 6.59813C22 6.35813 21.51 6.15813 21 5.98813V18.0181C19.86 17.6081 18.69 17.3981 17.5 17.3981C15.6 17.3981 13.72 17.9381 12 18.9781V6.87813C10.38 5.94813 8.51 5.39813 6.5 5.39813C4.71 5.39813 3.02 5.83813 1.53 6.59813C1.2 6.75813 1 7.10813 1 7.47813V19.5581C1 20.3181 1.81 20.7881 2.48 20.4281C3.69 19.7981 5.05 19.3981 6.5 19.3981C8.57 19.3981 10.48 20.2181 12 21.3981C13.52 20.2181 15.43 19.3981 17.5 19.3981C18.95 19.3981 20.31 19.7981 21.52 20.4381C22.19 20.7981 23 20.3281 23 19.5681V7.47813C23 7.10813 22.8 6.75813 22.47 6.59813Z" />
</svg>
