<svg width="24" height="24" viewBox="0 0 24 24"  xmlns="http://www.w3.org/2000/svg">
<path d="M12.365 3.31968C12.635 2.60968 12.005 1.86968 11.245 1.97968C9.76502 2.18968 8.39502 2.73968 7.20502 3.51968L11.795 8.10968C11.595 6.54968 11.755 4.90968 12.365 3.31968ZM2.81502 3.36968C2.42502 3.75968 2.42502 4.38968 2.81502 4.77968L4.37502 6.33968C2.97502 8.44968 2.35502 11.1097 2.91502 13.8997C3.70502 17.8397 6.90502 20.9697 10.855 21.6797C13.595 22.1697 16.155 21.5297 18.205 20.1697L19.775 21.7397C20.165 22.1297 20.795 22.1297 21.185 21.7397C21.575 21.3497 21.575 20.7197 21.185 20.3297L4.22502 3.36968C3.83502 2.97968 3.20502 2.97968 2.81502 3.36968Z" />
</svg>
