<svg width="24" height="24" viewBox="0 0 24 24"  xmlns="http://www.w3.org/2000/svg">
<path d="M9.97998 4.17922C9.84998 4.76922 9.77998 5.32922 9.73998 5.88922L11.79 7.93922C11.52 5.88922 11.89 3.71922 13.05 1.70922C12.93 1.70922 12.82 1.69922 12.7 1.69922C10.65 1.69922 8.76998 2.30922 7.19998 3.34922L8.65998 4.80922C9.07998 4.56922 9.51998 4.34922 9.97998 4.17922ZM2.09998 3.90922L4.36998 6.17922C3.31998 7.75922 2.70998 9.65922 2.70998 11.6892C2.70998 17.2092 7.18998 21.6892 12.71 21.6892C14.75 21.6892 16.63 21.0592 18.21 20.0192L20.49 22.2992L21.9 20.8892L3.51998 2.49922L2.09998 3.90922ZM5.83998 7.64922L16.76 18.5692C15.55 19.2892 14.16 19.6892 12.71 19.6892C8.29998 19.6892 4.70998 16.0992 4.70998 11.6892C4.70998 10.2092 5.12998 8.83922 5.83998 7.64922Z" />
</svg>
