<svg width="24" height="24" viewBox="0 0 24 24"  xmlns="http://www.w3.org/2000/svg">
<path d="M20 18.125V4.125C20 3.025 19.1 2.125 18 2.125H6C4.9 2.125 4 3.025 4 4.125V18.125H3C2.45 18.125 2 18.575 2 19.125C2 19.675 2.45 20.125 3 20.125H13.25C13.25 21.095 14.03 21.875 15 21.875C15.97 21.875 16.75 21.095 16.75 20.125H21C21.55 20.125 22 19.675 22 19.125C22 18.575 21.55 18.125 21 18.125H20ZM18 10.125H16V8.125H18V10.125ZM14 10.125H6V8.125H14V10.125ZM14 12.125V14.125H6V12.125H14ZM16 12.125H18V14.125H16V12.125ZM18 6.125H16V4.125H18V6.125ZM14 4.125V6.125H6V4.125H14ZM6 18.125V16.125H14V18.125H6ZM16 18.125V16.125H18V18.125H16Z" />
</svg>
