<svg width="24" height="24" viewBox="0 0 24 24"  xmlns="http://www.w3.org/2000/svg">
<path d="M10.8354 5.25C11.94 5.25 12.8354 4.35457 12.8354 3.25C12.8354 2.14543 11.94 1.25 10.8354 1.25C9.73088 1.25 8.83545 2.14543 8.83545 3.25C8.83545 4.35457 9.73088 5.25 10.8354 5.25Z" />
<path d="M11.4654 6.87C11.2954 6.52 11.0254 6.22 10.6654 6.02C10.0554 5.66 9.32545 5.68 8.73545 5.99V5.98L4.34545 8.48C3.72545 8.83 3.33545 9.49 3.33545 10.21V12.75C3.33545 13.3 3.78545 13.75 4.33545 13.75C4.88545 13.75 5.33545 13.3 5.33545 12.75V10.21L6.83545 9.36C6.51545 10.46 6.33545 11.6 6.33545 12.75V18.08L4.33545 20.75C4.00545 21.19 4.09545 21.82 4.53545 22.15C4.97545 22.48 5.60545 22.39 5.93545 21.95L7.97545 19.23C8.20545 18.92 8.34545 18.54 8.37545 18.15L8.55545 15.21L10.3354 17.75V21.75C10.3354 22.3 10.7854 22.75 11.3354 22.75C11.8854 22.75 12.3354 22.3 12.3354 21.75V16.88C12.3354 16.47 12.2054 16.07 11.9754 15.73L10.3754 13.44C10.3754 13.44 10.3754 13.44 10.3754 13.43C10.2654 12.27 10.4454 11.11 10.8354 10.03C11.5854 11.17 12.7154 12.01 14.0354 12.44L19.7354 22.31C19.8754 22.55 20.1754 22.63 20.4154 22.49C20.6554 22.35 20.7354 22.05 20.5954 21.81L15.3454 12.75C15.8854 12.75 16.3254 12.31 16.3254 11.77V11.72C16.3254 11.22 15.9555 10.78 15.4555 10.73C14.5055 10.63 13.0854 10.21 12.2454 8.55" />
</svg>
