<svg width="24" height="24" viewBox="0 0 24 24"  xmlns="http://www.w3.org/2000/svg">
<path d="M3.31876 5.25763C3.31876 4.15763 4.21876 3.25763 5.31876 3.25763H12.3188C11.6888 4.09763 11.3188 5.12763 11.3188 6.25763C11.3188 9.01763 13.5588 11.2576 16.3188 11.2576C16.6588 11.2576 16.9988 11.2276 17.3188 11.1576V19.7376C17.3188 20.4576 16.5888 20.9376 15.9288 20.6576L10.3188 18.2576L4.70876 20.6576C4.04876 20.9476 3.31876 20.4576 3.31876 19.7376V5.25763ZM20.3888 3.59763C20.7788 3.98763 20.7788 4.61763 20.3888 5.00763L16.8488 8.54763C16.4588 8.93763 15.8288 8.93763 15.4388 8.54763L14.0288 7.13763C13.6388 6.74763 13.6388 6.11763 14.0288 5.72763C14.4188 5.33763 15.0488 5.33763 15.4388 5.72763L16.1488 6.43763L18.9788 3.60763C19.3688 3.20763 19.9988 3.20763 20.3888 3.59763Z" />
</svg>
