<svg width="24" height="24" viewBox="0 0 24 24"  xmlns="http://www.w3.org/2000/svg">
<g clip-path="url(#clip0_2402_23531)">
<path d="M20 8.68945V3.99945H15.31L12 0.689453L8.69 3.99945H4V8.68945L0.690002 11.9995L4 15.3095V19.9995H8.69L12 23.3095L15.31 19.9995H20V15.3095L23.31 11.9995L20 8.68945ZM12 17.9995C11.11 17.9995 10.26 17.7995 9.5 17.4495C11.56 16.4995 13 14.4195 13 11.9995C13 9.57945 11.56 7.49945 9.5 6.54945C10.26 6.19945 11.11 5.99945 12 5.99945C15.31 5.99945 18 8.68945 18 11.9995C18 15.3095 15.31 17.9995 12 17.9995Z" />
</g>
<defs>
<clipPath id="clip0_2402_23531">
<rect width="24" height="24" fill="white"/>
</clipPath>
</defs>
</svg>
