<svg width="24" height="24" viewBox="0 0 24 24"  xmlns="http://www.w3.org/2000/svg">
<g clip-path="url(#clip0_2402_23547)">
<path d="M19.9999 8.68945V3.99945H15.3099L11.9999 0.689453L8.68994 3.99945H3.99994V8.68945L0.689941 11.9995L3.99994 15.3095V19.9995H8.68994L11.9999 23.3095L15.3099 19.9995H19.9999V15.3095L23.3099 11.9995L19.9999 8.68945ZM17.9999 14.4795V17.9995H14.4799L11.9999 20.4795L9.51994 17.9995H5.99994V14.4795L3.51994 11.9995L5.99994 9.51945V5.99945H9.51994L11.9999 3.51945L14.4799 5.99945H17.9999V9.51945L20.4799 11.9995L17.9999 14.4795ZM11.9999 6.49945C8.96994 6.49945 6.49994 8.96945 6.49994 11.9995C6.49994 15.0295 8.96994 17.4995 11.9999 17.4995C15.0299 17.4995 17.4999 15.0295 17.4999 11.9995C17.4999 8.96945 15.0299 6.49945 11.9999 6.49945ZM11.9999 15.4995C10.0699 15.4995 8.49994 13.9295 8.49994 11.9995C8.49994 10.0695 10.0699 8.49945 11.9999 8.49945C13.9299 8.49945 15.4999 10.0695 15.4999 11.9995C15.4999 13.9295 13.9299 15.4995 11.9999 15.4995Z" />
<path d="M11.9999 13.9995C13.1045 13.9995 13.9999 13.104 13.9999 11.9995C13.9999 10.8949 13.1045 9.99945 11.9999 9.99945C10.8954 9.99945 9.99994 10.8949 9.99994 11.9995C9.99994 13.104 10.8954 13.9995 11.9999 13.9995Z" />
</g>
<defs>
<clipPath id="clip0_2402_23547">
<rect width="24" height="24" fill="white"/>
</clipPath>
</defs>
</svg>
