<svg width="24" height="24" viewBox="0 0 24 24"  xmlns="http://www.w3.org/2000/svg">
<g clip-path="url(#clip0_2402_23529)">
<path d="M20 8.68945V3.99945H15.31L12 0.689453L8.69 3.99945H4V8.68945L0.690002 11.9995L4 15.3095V19.9995H8.69L12 23.3095L15.31 19.9995H20V15.3095L23.31 11.9995L20 8.68945ZM18 14.4795V17.9995H14.48L12 20.4795L9.52 17.9995H6V14.4795L3.52 11.9995L6 9.51945V5.99945H9.52L12 3.51945L14.48 5.99945H18V9.51945L20.48 11.9995L18 14.4795ZM12.29 6.99945C11.55 6.99945 10.84 7.16945 10.21 7.45945C11.93 8.24945 13.13 9.98945 13.13 11.9995C13.13 14.0095 11.93 15.7495 10.21 16.5395C10.84 16.8295 11.55 16.9995 12.29 16.9995C15.05 16.9995 17.29 14.7595 17.29 11.9995C17.29 9.23945 15.05 6.99945 12.29 6.99945Z" />
</g>
<defs>
<clipPath id="clip0_2402_23529">
<rect width="24" height="24" fill="white"/>
</clipPath>
</defs>
</svg>
