<svg width="24" height="24" viewBox="0 0 24 24"  xmlns="http://www.w3.org/2000/svg">
<path d="M20 8.68965V5.99965C20 4.89965 19.1 3.99965 18 3.99965H15.31L13.41 2.09965C12.63 1.31965 11.36 1.31965 10.58 2.09965L8.69001 3.99965H6.00001C4.90001 3.99965 4.00001 4.89965 4.00001 5.99965V8.68965L2.10001 10.5896C1.32001 11.3696 1.32001 12.6396 2.10001 13.4196L4.00001 15.3196V17.9996C4.00001 19.0996 4.90001 19.9996 6.00001 19.9996H8.69001L10.59 21.8996C11.37 22.6796 12.64 22.6796 13.42 21.8996L15.32 19.9996H18C19.1 19.9996 20 19.0996 20 17.9996V15.3096L21.9 13.4096C22.68 12.6296 22.68 11.3596 21.9 10.5796L20 8.68965ZM12 17.9996C8.69001 17.9996 6.00001 15.3096 6.00001 11.9996C6.00001 8.68965 8.69001 5.99965 12 5.99965C15.31 5.99965 18 8.68965 18 11.9996C18 15.3096 15.31 17.9996 12 17.9996ZM12 7.99965C9.79001 7.99965 8.00001 9.78965 8.00001 11.9996C8.00001 14.2096 9.79001 15.9996 12 15.9996C14.21 15.9996 16 14.2096 16 11.9996C16 9.78965 14.21 7.99965 12 7.99965Z" />
</svg>
