<svg width="24" height="24" viewBox="0 0 24 24"  xmlns="http://www.w3.org/2000/svg">
<g clip-path="url(#clip0_2402_23535)">
<path d="M20 8.68945V3.99945H15.31L12 0.689453L8.69 3.99945H4V8.68945L0.690002 11.9995L4 15.3095V19.9995H8.69L12 23.3095L15.31 19.9995H20V15.3095L23.31 11.9995L20 8.68945ZM18 14.4795V17.9995H14.48L12 20.4795L9.52 17.9995H6V14.4795L3.52 11.9995L6 9.51945V5.99945H9.52L12 3.51945L14.48 5.99945H18V9.51945L20.48 11.9995L18 14.4795ZM12 6.49945C8.97 6.49945 6.5 8.96945 6.5 11.9995C6.5 15.0295 8.97 17.4995 12 17.4995C15.03 17.4995 17.5 15.0295 17.5 11.9995C17.5 8.96945 15.03 6.49945 12 6.49945ZM12 15.4995C10.07 15.4995 8.5 13.9295 8.5 11.9995C8.5 10.0695 10.07 8.49945 12 8.49945C13.93 8.49945 15.5 10.0695 15.5 11.9995C15.5 13.9295 13.93 15.4995 12 15.4995Z" />
</g>
<defs>
<clipPath id="clip0_2402_23535">
<rect width="24" height="24" fill="white"/>
</clipPath>
</defs>
</svg>
