<svg width="24" height="24" viewBox="0 0 24 24"  xmlns="http://www.w3.org/2000/svg">
<g clip-path="url(#clip0_2402_23550)">
<path opacity="0.3" d="M18 9.51953V5.99953H14.48L12 3.51953L9.52002 5.99953H6.00002V9.51953L3.52002 11.9995L6.00002 14.4795V17.9995H9.52002L12 20.4795L14.48 17.9995H18V14.4795L20.48 11.9995L18 9.51953ZM12 17.4995C8.97002 17.4995 6.50002 15.0295 6.50002 11.9995C6.50002 8.96953 8.97002 6.49953 12 6.49953C15.03 6.49953 17.5 8.96953 17.5 11.9995C17.5 15.0295 15.03 17.4995 12 17.4995Z" />
<path d="M19.9999 8.68945V3.99945H15.3099L11.9999 0.689453L8.68994 3.99945H3.99994V8.68945L0.689941 11.9995L3.99994 15.3095V19.9995H8.68994L11.9999 23.3095L15.3099 19.9995H19.9999V15.3095L23.3099 11.9995L19.9999 8.68945ZM17.9999 14.4795V17.9995H14.4799L11.9999 20.4795L9.51994 17.9995H5.99994V14.4795L3.51994 11.9995L5.99994 9.51945V5.99945H9.51994L11.9999 3.51945L14.4799 5.99945H17.9999V9.51945L20.4799 11.9995L17.9999 14.4795ZM11.9999 6.49945C8.96994 6.49945 6.49994 8.96945 6.49994 11.9995C6.49994 15.0295 8.96994 17.4995 11.9999 17.4995C15.0299 17.4995 17.4999 15.0295 17.4999 11.9995C17.4999 8.96945 15.0299 6.49945 11.9999 6.49945ZM11.9999 15.4995C10.0699 15.4995 8.49994 13.9295 8.49994 11.9995C8.49994 10.0695 10.0699 8.49945 11.9999 8.49945C13.9299 8.49945 15.4999 10.0695 15.4999 11.9995C15.4999 13.9295 13.9299 15.4995 11.9999 15.4995Z" />
<path d="M12 14C13.1046 14 14 13.1046 14 12C14 10.8954 13.1046 10 12 10C10.8954 10 10 10.8954 10 12C10 13.1046 10.8954 14 12 14Z" />
</g>
<defs>
<clipPath id="clip0_2402_23550">
<rect width="24" height="24" fill="white"/>
</clipPath>
</defs>
</svg>
