<svg width="24" height="24" viewBox="0 0 24 24"  xmlns="http://www.w3.org/2000/svg">
<path d="M21.25 5C21.25 3.9 20.35 3 19.25 3H4.25C3.7 3 3.25 3.45 3.25 4C3.25 4.55 3.7 5 4.25 5H19.25V7.59C19.98 7.88 20.65 8.28 21.25 8.76V5Z" />
<path d="M7.25 8H2.25C1.75 8 1.25 8.5 1.25 9V18C1.25 18.5 1.75 19 2.25 19H7.25C7.75 19 8.25 18.5 8.25 18V9C8.25 8.5 7.75 8 7.25 8ZM6.25 17H3.25V10H6.25V17Z" />
<path d="M17 15.97C17.3 15.74 17.5 15.4 17.5 15C17.5 14.31 16.94 13.75 16.25 13.75C15.56 13.75 15 14.31 15 15C15 15.4 15.2 15.75 15.5 15.97V20.25C15.5 20.66 15.84 21 16.25 21C16.66 21 17 20.66 17 20.25V15.97Z" />
<path d="M16.79 12.56C17.77 12.77 18.55 13.59 18.72 14.58C18.83 15.22 18.69 15.83 18.38 16.32C18.2 16.61 18.25 16.99 18.5 17.23C18.84 17.56 19.4 17.52 19.66 17.11C20.17 16.29 20.39 15.28 20.19 14.21C19.89 12.65 18.63 11.38 17.07 11.08C14.49 10.58 12.25 12.53 12.25 15C12.25 15.78 12.47 16.5 12.85 17.11C13.1 17.52 13.68 17.57 14.01 17.23C14.25 16.99 14.3 16.6 14.12 16.31C13.88 15.93 13.75 15.48 13.75 15C13.75 13.45 15.18 12.22 16.79 12.56Z" />
<path d="M15.5 8.54C12.56 8.87 10.18 11.22 9.81 14.15C9.58 15.97 10.1 17.66 11.11 18.97C11.38 19.32 11.91 19.34 12.23 19.03C12.5 18.76 12.51 18.33 12.28 18.03C11.48 16.98 11.08 15.6 11.33 14.14C11.67 12.11 13.28 10.47 15.31 10.09C18.47 9.5 21.25 11.93 21.25 15C21.25 16.13 20.87 17.18 20.23 18.02C20 18.32 20.02 18.75 20.29 19.02C20.6 19.33 21.13 19.32 21.4 18.96C22.25 17.87 22.75 16.49 22.75 15C22.75 11.16 19.42 8.1 15.5 8.54Z" />
</svg>
