<svg width="24" height="24" viewBox="0 0 24 24"  xmlns="http://www.w3.org/2000/svg">
<path opacity="0.3" d="M11.9199 8.28C12.1599 6.88 11.7599 5.39 10.6799 4.32C9.73989 3.37 8.47989 2.93 7.23988 3L10.3299 6.09L6.08988 10.33L2.99988 7.24C2.92988 8.48 3.36988 9.73 4.30988 10.68C5.34988 11.72 6.77989 12.13 8.13989 11.93C8.84989 11.83 9.53989 11.55 10.1399 11.11L19.5999 20.57L20.4799 19.69L11.0299 10.24C11.4999 9.64 11.7999 8.98 11.9199 8.28Z" />
<path d="M22.61 18.97L13.54 9.90002C14.47 7.56002 13.99 4.80002 12.1 2.90002C9.79996 0.600023 6.21996 0.390022 3.66996 2.25002L7.49996 6.08002L6.07996 7.50002L2.24996 3.67002C0.389961 6.21002 0.599962 9.79002 2.89996 12.09C4.75996 13.95 7.46996 14.44 9.78996 13.57L18.9 22.68C19.29 23.07 19.92 23.07 20.31 22.68L22.61 20.38C23.01 20 23.01 19.36 22.61 18.97ZM19.61 20.57L10.15 11.11C9.53996 11.56 8.85996 11.83 8.14996 11.93C6.78996 12.13 5.35996 11.72 4.31996 10.68C3.36996 9.74002 2.92996 8.48002 2.99996 7.24002L6.08996 10.33L10.33 6.09002L7.23996 3.00002C8.47996 2.93002 9.72996 3.37002 10.68 4.31002C11.76 5.39002 12.17 6.88002 11.92 8.27002C11.8 8.97002 11.5 9.63002 11.04 10.22L20.49 19.67L19.61 20.57Z" />
</svg>
