<svg width="24" height="24" viewBox="0 0 24 24"  xmlns="http://www.w3.org/2000/svg">
<path d="M17 0.353516H7C5.9 0.353516 5 1.25352 5 2.35352V16.3535C5 17.4535 5.9 18.3535 7 18.3535H17C18.1 18.3535 19 17.4535 19 16.3535V2.35352C19 1.25352 18.1 0.353516 17 0.353516ZM17 12.8535C17 11.1835 13.67 10.3535 12 10.3535C10.33 10.3535 7 11.1835 7 12.8535V3.35352C7 2.80352 7.45 2.35352 8 2.35352H16C16.55 2.35352 17 2.80352 17 3.35352V12.8535ZM10.85 19.2035C10.54 18.8935 10 19.1135 10 19.5635V20.3535H6C5.45 20.3535 5 20.8035 5 21.3535C5 21.9035 5.45 22.3535 6 22.3535H10V23.1435C10 23.5935 10.54 23.8135 10.85 23.4935L12.64 21.7035C12.84 21.5035 12.84 21.1935 12.64 20.9935L10.85 19.2035ZM18 20.3535H15C14.45 20.3535 14 20.8035 14 21.3535C14 21.9035 14.45 22.3535 15 22.3535H18C18.55 22.3535 19 21.9035 19 21.3535C19 20.8035 18.55 20.3535 18 20.3535ZM12 8.35352C13.1 8.35352 14 7.45352 14 6.35352C14 5.25352 13.1 4.35352 12 4.35352C10.9 4.35352 10.01 5.25352 10.01 6.35352C10.01 7.45352 10.9 8.35352 12 8.35352Z" />
</svg>
