<svg width="24" height="24" viewBox="0 0 24 24"  xmlns="http://www.w3.org/2000/svg">
<path d="M7.9 13.4672L7.99 13.3772C8.26 13.1072 8.31 12.6672 8.07 12.3672C7.36 11.4572 7 10.3772 7 9.36724C7 8.28724 7.35 7.20724 8.04 6.35724C8.29 6.05724 8.25 5.60724 7.97 5.33724L7.9 5.26724C7.56 4.92724 7 4.96724 6.7 5.34724C5.79 6.52724 5.3 7.94724 5.3 9.36724C5.3 10.7872 5.79 12.2072 6.7 13.3872C7 13.7672 7.56 13.8072 7.9 13.4672Z" />
<path d="M18.51 2.85724L18.43 2.93724C18.13 3.23724 18.14 3.69724 18.4 4.01724C19.66 5.54724 20.3 7.49724 20.3 9.36724C20.3 11.2372 19.67 13.1772 18.4 14.7172C18.12 15.0472 18.17 15.5472 18.48 15.8572C18.83 16.2072 19.41 16.1672 19.72 15.7872C21.29 13.9072 22 11.6772 22 9.36724C22 7.04724 21.21 4.81724 19.69 2.93724C19.39 2.56724 18.84 2.52724 18.51 2.85724Z" />
<path d="M5.57 2.93724L5.49 2.85724C5.16 2.52724 4.61 2.56724 4.31 2.93724C2.79 4.81724 2 7.04724 2 9.36724C2 11.6872 2.79 13.9172 4.31 15.7972C4.61 16.1672 5.16 16.2172 5.49 15.8772L5.57 15.7972C5.87 15.4972 5.86 15.0372 5.6 14.7172C4.33 13.1772 3.7 11.2372 3.7 9.36724C3.7 7.49724 4.33 5.55724 5.6 4.01724C5.86 3.69724 5.87 3.23724 5.57 2.93724Z" />
<path d="M16.07 13.4372C16.43 13.7972 17.02 13.7572 17.33 13.3472C18.23 12.1672 18.7 10.7672 18.7 9.36724C18.62 7.95724 18.19 6.53724 17.3 5.35724C17.01 4.96724 16.44 4.92724 16.1 5.26724L16.02 5.34724C15.75 5.61724 15.7 6.05724 15.94 6.35724C16.64 7.27724 17 8.35724 17 9.36724C17 10.4372 16.66 11.4972 15.99 12.3472C15.73 12.6672 15.77 13.1372 16.07 13.4372Z" />
<path d="M14.5 9.36724C14.5 7.76724 12.99 6.51724 11.32 6.95724C10.52 7.16724 9.86 7.80724 9.62 8.60724C9.3 9.66724 9.68 10.6472 10.38 11.2472L7.42 20.1172C7.21 20.7372 7.67 21.3672 8.32 21.3672C8.73 21.3672 9.09 21.1072 9.22 20.7172L9.67 19.3672H14.34L14.79 20.7172C14.92 21.1072 15.28 21.3672 15.69 21.3672C16.34 21.3672 16.79 20.7372 16.59 20.1172L13.63 11.2472C14.16 10.7872 14.5 10.1272 14.5 9.36724ZM10.33 17.3672L12 12.3672L13.67 17.3672H10.33Z" />
</svg>
