<svg width="24" height="24" viewBox="0 0 24 24"  xmlns="http://www.w3.org/2000/svg">
<path d="M19.0945 7.18113L6.50446 19.7911C5.87446 20.4211 6.32446 21.5011 7.21446 21.5011H19.8045C20.3545 21.5011 20.8045 21.0511 20.8045 20.5011V7.89113C20.8045 7.00113 19.7245 6.55113 19.0945 7.18113ZM18.8045 19.5011H16.8045V12.2811L18.8045 10.2811V19.5011Z" />
<path d="M8.41446 10.1811C8.13446 10.3511 8.09446 10.7411 8.32446 10.9711L9.14446 11.7911C9.53446 12.1811 10.1645 12.1811 10.5545 11.7911L11.3745 10.9711C11.6045 10.7411 11.5545 10.3511 11.2845 10.1811C10.4145 9.64113 9.29446 9.64113 8.41446 10.1811Z" />
<path d="M7.22446 8.80113C8.79446 7.68113 10.9245 7.68113 12.4945 8.80113C12.8545 9.06113 13.3445 9.02113 13.6545 8.70113C14.0445 8.31113 14.0045 7.64113 13.5545 7.32113C11.3545 5.75113 8.36446 5.75113 6.15446 7.32113C5.70446 7.64113 5.65446 8.31113 6.05446 8.70113C6.37446 9.02113 6.86446 9.06113 7.22446 8.80113Z" />
<path d="M15.0645 6.19113C15.4045 6.47113 15.8945 6.47113 16.2045 6.16113L16.3245 6.04113C16.6745 5.69113 16.6345 5.12113 16.2445 4.80113C12.5745 1.75113 7.22446 1.73113 3.54446 4.74113C3.11446 5.09113 3.07446 5.73113 3.46446 6.11113C3.78446 6.44113 4.30446 6.48113 4.65446 6.19113C7.66446 3.71113 12.0545 3.71113 15.0645 6.19113Z" />
</svg>
