<svg width="24" height="24" viewBox="0 0 24 24"  xmlns="http://www.w3.org/2000/svg">
<path d="M5.03509 21.501H21.0351V5.47104L5.03509 21.501ZM19.0351 19.501H17.0351V12.281L19.0351 10.281V19.501ZM4.25509 6.72104L2.96509 5.43104C6.86509 1.52104 13.2051 1.52104 17.1151 5.43104L15.8251 6.72104C12.6351 3.53103 7.44509 3.53103 4.25509 6.72104ZM11.9651 10.571L10.0351 12.501L8.10509 10.571C9.17509 9.51104 10.8951 9.51104 11.9651 10.571ZM13.2551 9.29104C11.4751 7.52104 8.59509 7.52104 6.82509 9.29104L5.53509 8.00104C8.01509 5.52104 12.0551 5.52104 14.5351 8.00104L13.2551 9.29104Z" />
</svg>
