<svg width="24" height="24" viewBox="0 0 24 24"  xmlns="http://www.w3.org/2000/svg">
<path d="M20.71 5.63055L18.37 3.29055C17.98 2.90055 17.35 2.90055 16.96 3.29055L13.84 6.41055L12.61 5.20055C12.22 4.81055 11.59 4.82055 11.2 5.20055C10.81 5.59055 10.81 6.22055 11.2 6.61055L11.92 7.33055L3.15 16.1005C3.05 16.2005 3 16.3205 3 16.4605V20.5005C3 20.7805 3.22 21.0005 3.5 21.0005H7.54C7.67 21.0005 7.8 20.9505 7.89 20.8505L16.66 12.0805L17.38 12.8005C17.77 13.1905 18.4 13.1905 18.79 12.8005C19.18 12.4105 19.18 11.7805 18.79 11.3905L17.57 10.1705L20.69 7.05055C21.1 6.65055 21.1 6.02055 20.71 5.63055ZM6.92 19.0005L5 17.0805L13.06 9.02055L14.98 10.9405L6.92 19.0005Z" />
</svg>
