<svg width="24" height="24" viewBox="0 0 24 24"  xmlns="http://www.w3.org/2000/svg">
<path d="M7.005 4C7.005 2.89 6.11501 2 5.005 2C3.895 2 3.005 2.89 3.005 4C3.005 5.11 3.895 6 5.005 6C6.11501 6 7.005 5.11 7.005 4ZM10.195 4.5C9.785 4.5 9.43501 4.75 9.27501 5.13C8.83501 6.23 7.76501 7 6.505 7H3.505C2.675 7 2.005 7.67 2.005 8.5V11H8.005V8.74C9.435 8.29 10.585 7.21 11.125 5.83C11.385 5.19 10.885 4.5 10.195 4.5ZM19.005 17C20.115 17 21.005 16.11 21.005 15C21.005 13.89 20.115 13 19.005 13C17.895 13 17.005 13.89 17.005 15C17.005 16.11 17.895 17 19.005 17ZM20.505 18H17.505C16.245 18 15.175 17.23 14.735 16.13C14.585 15.75 14.225 15.5 13.815 15.5C13.125 15.5 12.625 16.19 12.875 16.83C13.425 18.21 14.565 19.29 15.995 19.74V22H21.995V19.5C22.005 18.67 21.335 18 20.505 18ZM17.255 11.09C17.255 11.09 17.255 11.08 17.265 11.09C16.205 11.36 15.365 12.2 15.095 13.26V13.25C14.985 13.68 14.585 14 14.115 14C13.565 14 13.115 13.55 13.115 13C13.115 12.95 13.135 12.86 13.135 12.86C13.565 11.01 15.025 9.55 16.885 9.13C16.925 9.13 16.965 9.12 17.005 9.12C17.555 9.12 18.005 9.57 18.005 10.12C18.005 10.58 17.685 10.98 17.255 11.09ZM18.005 6.06C18.005 6.57 17.635 6.98 17.145 7.05C13.955 7.44 11.445 9.96 11.055 13.15C10.985 13.63 10.565 14 10.065 14C9.51501 14 9.06501 13.55 9.06501 13C9.06501 12.98 9.06501 12.96 9.06501 12.94C9.06501 12.93 9.06501 12.92 9.06501 12.91C9.56501 8.79 12.855 5.53 16.985 5.06H16.995C17.555 5.06 18.005 5.51 18.005 6.06Z" />
</svg>
