<svg width="24" height="24" viewBox="0 0 24 24"  xmlns="http://www.w3.org/2000/svg">
<path d="M21.0076 18.4068L16.0676 13.4668L13.9476 15.5868L18.8876 20.5268C19.4776 21.1168 20.4276 21.1168 21.0076 20.5268C21.5876 19.9368 21.5876 18.9868 21.0076 18.4068Z" />
<path d="M17.6676 10.4168C19.5976 10.4168 21.1676 8.8468 21.1676 6.9168C21.1676 6.3368 21.0076 5.7968 20.7576 5.3168L18.0576 8.0168L16.5676 6.5268L19.2676 3.8268C18.7876 3.5768 18.2476 3.4168 17.6676 3.4168C15.7376 3.4168 14.1676 4.9868 14.1676 6.9168C14.1676 7.3268 14.2476 7.7168 14.3776 8.0768L12.5276 9.9268L10.7476 8.1468C11.1376 7.7568 11.1376 7.1268 10.7476 6.7368L10.0376 6.0268L12.1576 3.9068C10.9876 2.7368 9.08762 2.7368 7.91762 3.9068L5.09762 6.7368C4.70762 7.1268 4.70762 7.7568 5.09762 8.1468L5.80762 8.8568H3.26762C3.07762 8.8568 2.89762 8.9268 2.76762 9.0668C2.48762 9.3468 2.48762 9.7868 2.76762 10.0668L5.30762 12.6068C5.58762 12.8868 6.02762 12.8868 6.30762 12.6068C6.43762 12.4768 6.51762 12.2968 6.51762 12.1068V9.5668L7.21762 10.2668C7.60762 10.6568 8.23762 10.6568 8.62762 10.2668L10.4076 12.0468L4.05762 18.3968C3.46762 18.9868 3.46762 19.9368 4.05762 20.5168C4.64762 21.1068 5.59762 21.1068 6.17762 20.5168L16.4976 10.2068C16.8676 10.3368 17.2576 10.4168 17.6676 10.4168Z" />
</svg>
