<svg width="24" height="24" viewBox="0 0 24 24"  xmlns="http://www.w3.org/2000/svg">
<path d="M23.9949 3H0.00488281V21H23.9949V3ZM9.00488 8C10.6549 8 12.0049 9.35 12.0049 11C12.0049 12.65 10.6549 14 9.00488 14C7.35488 14 6.00488 12.65 6.00488 11C6.00488 9.35 7.35488 8 9.00488 8ZM2.08488 19C3.46488 16.61 6.04488 15 9.00488 15C11.9649 15 14.5449 16.61 15.9249 19H2.08488ZM20.9749 9.85L20.2249 11.15L18.7549 10.3V12H17.2549V10.3L15.7849 11.15L15.0349 9.85L16.5049 9L15.0349 8.15L15.7849 6.85L17.2549 7.7V6H18.7549V7.7L20.2249 6.85L20.9749 8.15L19.5049 9L20.9749 9.85Z" />
</svg>
