<svg width="24" height="24" viewBox="0 0 24 24"  xmlns="http://www.w3.org/2000/svg">
<path d="M22 3H2C0.9 3 0 3.9 0 5V19C0 20.1 0.9 21 2 21H22C23.1 21 23.99 20.1 23.99 19L24 5C24 3.9 23.1 3 22 3ZM9 8C10.65 8 12 9.35 12 11C12 12.65 10.65 14 9 14C7.35 14 6 12.65 6 11C6 9.35 7.35 8 9 8ZM2.08 19C3.46 16.61 6.04 15 9 15C11.96 15 14.54 16.61 15.92 19H2.08ZM20.6 10.5C20.39 10.86 19.93 10.98 19.58 10.77L18.76 10.29V11.24C18.76 11.65 18.42 11.99 18.01 11.99C17.6 11.99 17.26 11.65 17.26 11.24V10.3L16.44 10.78C16.08 10.99 15.62 10.86 15.42 10.51C15.21 10.15 15.34 9.69 15.69 9.49L16.5 9L15.68 8.52C15.32 8.31 15.2 7.85 15.41 7.5C15.62 7.14 16.08 7.02 16.43 7.23L17.25 7.71V6.75C17.25 6.34 17.59 6 18 6C18.41 6 18.75 6.34 18.75 6.75V7.7L19.57 7.22C19.93 7.01 20.39 7.14 20.59 7.49C20.8 7.85 20.67 8.31 20.32 8.51L19.5 9L20.32 9.48C20.68 9.68 20.81 10.14 20.6 10.5Z" />
</svg>
