<svg width="24" height="24" viewBox="0 0 24 24"  xmlns="http://www.w3.org/2000/svg">
<path d="M21.0863 20.8933L4.10631 3.91332C3.71631 3.52332 3.08631 3.52332 2.69631 3.91332C2.30631 4.30332 2.30631 4.93332 2.69631 5.32332L3.59631 6.23332V19.4033C3.59631 20.5033 4.49631 21.4033 5.59631 21.4033H18.7663L19.6663 22.3033C20.0563 22.6933 20.6863 22.6933 21.0763 22.3033C21.4763 21.9133 21.4763 21.2833 21.0863 20.8933ZM5.59631 19.4033V8.23332L16.7663 19.4033H5.59631ZM17.5963 8.40332V5.40332H19.5963V16.5733L21.5963 18.5733V5.40332C21.5963 4.30332 20.6963 3.40332 19.5963 3.40332H15.4163C14.9963 2.24332 13.8963 1.40332 12.5963 1.40332C11.2963 1.40332 10.1963 2.24332 9.77631 3.40332H6.42631L11.4263 8.40332H17.5963ZM12.5963 3.40332C13.1463 3.40332 13.5963 3.85332 13.5963 4.40332C13.5963 4.95332 13.1463 5.40332 12.5963 5.40332C12.0463 5.40332 11.5963 4.95332 11.5963 4.40332C11.5963 3.85332 12.0463 3.40332 12.5963 3.40332Z" />
</svg>
