<svg width="24" height="24" viewBox="0 0 24 24"  xmlns="http://www.w3.org/2000/svg">
<path d="M10.4997 10.0119C11.3281 10.0119 11.9997 9.3403 11.9997 8.51188C11.9997 7.68345 11.3281 7.01188 10.4997 7.01188C9.67129 7.01188 8.99972 7.68345 8.99972 8.51188C8.99972 9.3403 9.67129 10.0119 10.4997 10.0119Z" />
<path d="M8.49972 15.0119C9.32815 15.0119 9.99972 14.3403 9.99972 13.5119C9.99972 12.6834 9.32815 12.0119 8.49972 12.0119C7.67129 12.0119 6.99972 12.6834 6.99972 13.5119C6.99972 14.3403 7.67129 15.0119 8.49972 15.0119Z" />
<path d="M14.9997 16.0119C15.552 16.0119 15.9997 15.5642 15.9997 15.0119C15.9997 14.4596 15.552 14.0119 14.9997 14.0119C14.4474 14.0119 13.9997 14.4596 13.9997 15.0119C13.9997 15.5642 14.4474 16.0119 14.9997 16.0119Z" />
<path d="M21.9497 11.0019C20.1597 10.9719 18.2497 9.05188 19.2697 6.78188C16.2997 7.78188 13.4897 5.19188 14.0797 2.22188C7.10972 0.751877 1.99972 6.42188 1.99972 12.0119C1.99972 17.5319 6.47972 22.0119 11.9997 22.0119C17.8897 22.0119 22.5397 16.9319 21.9497 11.0019ZM11.9997 20.0119C7.58972 20.0119 3.99972 16.4219 3.99972 12.0119C3.99972 8.70188 6.72972 3.83188 12.0797 3.99188C12.4997 6.53188 14.5197 8.55188 17.0697 8.93188C17.1397 9.29188 17.5897 11.4819 19.9897 12.5619C19.6997 16.8719 16.0597 20.0119 11.9997 20.0119Z" />
</svg>
