<svg width="24" height="24" viewBox="0 0 24 24"  xmlns="http://www.w3.org/2000/svg">
<path d="M21.9497 11.0043C20.1597 10.9743 18.2497 9.05429 19.2697 6.78429C16.2897 7.78429 13.4997 5.19429 14.0797 2.22429C6.94972 0.724288 1.99972 6.59429 1.99972 12.0143C1.99972 17.5343 6.47972 22.0143 11.9997 22.0143C17.8897 22.0143 22.5397 16.9343 21.9497 11.0043ZM8.49972 15.0143C7.66972 15.0143 6.99972 14.3443 6.99972 13.5143C6.99972 12.6843 7.66972 12.0143 8.49972 12.0143C9.32972 12.0143 9.99972 12.6843 9.99972 13.5143C9.99972 14.3443 9.32972 15.0143 8.49972 15.0143ZM10.4997 10.0143C9.66972 10.0143 8.99972 9.34429 8.99972 8.51429C8.99972 7.68429 9.66972 7.01429 10.4997 7.01429C11.3297 7.01429 11.9997 7.68429 11.9997 8.51429C11.9997 9.34429 11.3297 10.0143 10.4997 10.0143ZM14.9997 16.0143C14.4497 16.0143 13.9997 15.5643 13.9997 15.0143C13.9997 14.4643 14.4497 14.0143 14.9997 14.0143C15.5497 14.0143 15.9997 14.4643 15.9997 15.0143C15.9997 15.5643 15.5497 16.0143 14.9997 16.0143Z" />
</svg>
