<svg width="24" height="24" viewBox="0 0 24 24"  xmlns="http://www.w3.org/2000/svg">
<g clip-path="url(#clip0_2402_23734)">
<path d="M16 8.99021V13.9902H18V7.99021C18 6.89021 17.1 5.99021 16 5.99021H9.99996V7.99021H15C15.55 7.99021 16 8.44021 16 8.99021ZM19 15.9902H8.99996C8.44996 15.9902 7.99996 15.5402 7.99996 14.9902V4.99021C7.99996 4.44021 7.54996 3.99021 6.99996 3.99021C6.44996 3.99021 5.99996 4.44021 5.99996 4.99021V5.99021H4.99996C4.44996 5.99021 3.99996 6.44021 3.99996 6.99021C3.99996 7.54021 4.44996 7.99021 4.99996 7.99021H5.99996V15.9902C5.99996 17.0902 6.89996 17.9902 7.99996 17.9902H16V18.9902C16 19.5402 16.45 19.9902 17 19.9902C17.55 19.9902 18 19.5402 18 18.9902V17.9902H19C19.55 17.9902 20 17.5402 20 16.9902C20 16.4402 19.55 15.9902 19 15.9902ZM17.66 1.39021C15.99 0.500214 13.83 -0.119786 11.39 0.0302135L15.2 3.84021L16.53 2.51021C19.62 3.97021 21.87 6.88021 22.42 10.3702C22.48 10.7802 22.86 11.0602 23.28 10.9902C23.69 10.9302 23.97 10.5402 23.9 10.1302C23.3 6.33021 20.94 3.13021 17.66 1.39021ZM7.46996 21.4802C4.37996 20.0202 2.12996 17.1102 1.57996 13.6202C1.51996 13.2102 1.13996 12.9302 0.719965 13.0002C0.309965 13.0602 0.0299645 13.4502 0.0999645 13.8602C0.699965 17.6702 3.05996 20.8702 6.33996 22.6102C8.00996 23.5002 10.17 24.1202 12.61 23.9702L8.79996 20.1502L7.46996 21.4802Z" />
</g>
<defs>
<clipPath id="clip0_2402_23734">
<rect width="24" height="24" fill="white"/>
</clipPath>
</defs>
</svg>
