<svg width="24" height="24" viewBox="0 0 24 24"  xmlns="http://www.w3.org/2000/svg">
<path d="M17.3303 17.86C16.8603 17.62 16.3003 17.81 16.0203 18.26C15.6603 18.86 15.0503 19.25 14.1203 19.25H9.2203C10.0503 18.25 10.7203 16.91 10.7203 15.25C10.7203 14.9 10.6903 14.56 10.6403 14.25H13.1203C13.6703 14.25 14.1203 13.8 14.1203 13.25C14.1203 12.7 13.6703 12.25 13.1203 12.25H9.9403C9.1203 10.67 8.1203 9.85 8.1203 8.25C8.1203 6.32 9.6903 4.75 11.6203 4.75C12.8203 4.75 13.8803 5.36 14.5103 6.28C14.7803 6.68 15.2803 6.87 15.7303 6.68C16.3303 6.43 16.5303 5.69 16.1603 5.15C15.1703 3.7 13.5003 2.75 11.6203 2.75C8.5803 2.75 6.1203 5.21 6.1203 8.25C6.1203 10.03 6.9103 11.15 7.6103 12.25H7.1203C6.5703 12.25 6.1203 12.7 6.1203 13.25C6.1203 13.8 6.5703 14.25 7.1203 14.25H8.5903C8.6703 14.56 8.7203 14.89 8.7203 15.25C8.7203 17.15 7.4303 18.36 6.6603 18.91C6.3203 19.15 6.1203 19.54 6.1203 19.96C6.1203 20.67 6.7003 21.25 7.4103 21.25H14.1203C15.6703 21.25 17.0703 20.49 17.7503 19.25C18.0303 18.74 17.8403 18.11 17.3303 17.86Z" />
</svg>
