<svg width="24" height="24" viewBox="0 0 24 24"  xmlns="http://www.w3.org/2000/svg">
<path d="M8.00153 21C8.55153 21 9.00153 20.55 9.00153 20V18H12.0015C12.5515 18 13.0015 17.55 13.0015 17C13.0015 16.45 12.5515 16 12.0015 16H9.00153V14H13.5015C16.7215 14 19.2915 11.24 18.9715 7.96C18.7015 5.1 16.1415 3 13.2615 3H8.00153C7.45153 3 7.00153 3.45 7.00153 4V12H6.00153C5.45153 12 5.00153 12.45 5.00153 13C5.00153 13.55 5.45153 14 6.00153 14H7.00153V16H6.00153C5.45153 16 5.00153 16.45 5.00153 17C5.00153 17.55 5.45153 18 6.00153 18H7.00153V20C7.00153 20.55 7.45153 21 8.00153 21ZM13.5015 12H9.00153V5H13.5015C15.4315 5 17.0015 6.57 17.0015 8.5C17.0015 10.43 15.4315 12 13.5015 12Z" />
</svg>
