<svg width="24" height="24" viewBox="0 0 24 24"  xmlns="http://www.w3.org/2000/svg">
<path d="M9.5 7H13.5C14.6 7 15.5 7.9 15.5 9C15.5 10.1 14.6 11 13.5 11H9.5V7ZM14.5 17H9.5V13H14.5C15.6 13 16.5 13.9 16.5 15C16.5 16.1 15.6 17 14.5 17ZM14.5 4C14.5 3.45 14.05 3 13.5 3C12.95 3 12.5 3.45 12.5 4V5H10.5V4C10.5 3.45 10.05 3 9.5 3C8.95 3 8.5 3.45 8.5 4V5H6.5C5.95 5 5.5 5.45 5.5 6C5.5 6.55 5.95 7 6.5 7H7.5V17H6.5C5.95 17 5.5 17.45 5.5 18C5.5 18.55 5.95 19 6.5 19H8.5V20C8.5 20.55 8.95 21 9.5 21C10.05 21 10.5 20.55 10.5 20V19H12.5V20C12.5 20.55 12.95 21 13.5 21C14.05 21 14.5 20.55 14.5 20V19C16.71 19 18.5 17.21 18.5 15C18.5 13.55 17.72 12.27 16.56 11.57C17.15 10.88 17.5 9.98 17.5 9C17.5 7.14 16.23 5.57 14.5 5.13V4Z" />
</svg>
