<svg width="24" height="24" viewBox="0 0 24 24"  xmlns="http://www.w3.org/2000/svg">
<path d="M13.0011 3.69071V3.71071C13.0011 4.38071 13.4511 4.94071 14.0811 5.14071C16.9311 6.03071 19.0011 8.68071 19.0011 11.8207C19.0011 12.3407 18.9411 12.8307 18.8311 13.3107C18.6911 13.9507 18.9511 14.6107 19.5211 14.9507L19.5311 14.9607C20.3911 15.4607 21.5111 15.0107 21.7411 14.0507C21.9111 13.3307 22.0011 12.5807 22.0011 11.8207C22.0011 7.32071 19.0211 3.50071 14.9211 2.25071C13.9711 1.96071 13.0011 2.69071 13.0011 3.69071ZM10.9411 18.7407C7.95113 18.3107 5.52113 15.8807 5.08113 12.9007C4.54113 9.30071 6.74113 6.13071 9.91113 5.14071C10.5511 4.95071 11.0011 4.38071 11.0011 3.71071V3.69071C11.0011 2.69071 10.0311 1.96071 9.07113 2.25071C4.56113 3.63071 1.41113 8.11071 2.09113 13.2107C2.68113 17.5907 6.22114 21.1307 10.6011 21.7207C13.7411 22.1407 16.6411 21.1107 18.7311 19.1907C19.4711 18.5107 19.3411 17.3007 18.4711 16.8007C17.8911 16.4607 17.1711 16.5707 16.6711 17.0207C15.2011 18.3607 13.1611 19.0707 10.9411 18.7407Z" />
</svg>
