<svg width="24" height="24" viewBox="0 0 24 24"  xmlns="http://www.w3.org/2000/svg">
<path d="M6.59043 16.5H5.50043V12.5H9.19043C10.1404 11.87 11.2804 11.5 12.5004 11.5H18.5004C18.8404 11.5 19.1704 11.54 19.5004 11.59V4.5C19.5004 3.4 18.6004 2.5 17.5004 2.5H3.50043C2.40043 2.5 1.50043 3.4 1.50043 4.5V18.5C1.50043 19.6 2.40043 20.5 3.50043 20.5H7.31043C6.80043 19.62 6.50043 18.59 6.50043 17.5C6.50043 17.16 6.54043 16.83 6.59043 16.5ZM11.5004 6.5H15.5004V10.5H11.5004V6.5ZM5.50043 6.5H9.50043V10.5H5.50043V6.5Z" />
<path d="M10.5304 17.16C10.6904 16.18 11.6204 15.5 12.6104 15.5H13.5004C14.0504 15.5 14.5004 15.05 14.5004 14.5C14.5004 13.95 14.0504 13.5 13.5004 13.5H12.6704C10.5804 13.5 8.72043 15.03 8.52043 17.11C8.29043 19.49 10.1604 21.5 12.5004 21.5H13.5004C14.0504 21.5 14.5004 21.05 14.5004 20.5C14.5004 19.95 14.0504 19.5 13.5004 19.5H12.5004C11.2904 19.5 10.3204 18.41 10.5304 17.16Z" />
<path d="M18.3304 13.5H17.5004C16.9504 13.5 16.5004 13.95 16.5004 14.5C16.5004 15.05 16.9504 15.5 17.5004 15.5H18.3904C19.3904 15.5 20.3104 16.18 20.4704 17.16C20.6804 18.41 19.7104 19.5 18.5004 19.5H17.5004C16.9504 19.5 16.5004 19.95 16.5004 20.5C16.5004 21.05 16.9504 21.5 17.5004 21.5H18.5004C20.8404 21.5 22.7104 19.49 22.4804 17.11C22.2804 15.03 20.4204 13.5 18.3304 13.5Z" />
<path d="M13.5004 18.5H17.5004C18.0504 18.5 18.5004 18.05 18.5004 17.5C18.5004 16.95 18.0504 16.5 17.5004 16.5H13.5004C12.9504 16.5 12.5004 16.95 12.5004 17.5C12.5004 18.05 12.9504 18.5 13.5004 18.5Z" />
</svg>
