<svg width="24" height="24" viewBox="0 0 24 24"  xmlns="http://www.w3.org/2000/svg">
<path d="M3.71 12.2896H5.71V10.2896H3.71V12.2896ZM7.71 20.2896H9.71V18.2896H7.71V20.2896ZM13.71 2.28961H11.71V4.28961H13.71V2.28961ZM19.71 2.28961V4.28961H21.71C21.71 3.18961 20.81 2.28961 19.71 2.28961ZM5.71 20.2896V18.2896H3.71C3.71 19.3896 4.61 20.2896 5.71 20.2896ZM3.71 16.2896H5.71V14.2896H3.71V16.2896ZM11.71 20.2896H13.71V18.2896H11.71V20.2896ZM19.71 12.2896H21.71V10.2896H19.71V12.2896ZM19.71 8.28961H21.71V6.28961H19.71V8.28961ZM15.71 4.28961H17.71V2.28961H15.71V4.28961ZM8.54 4.28961L7.71 3.45961V2.28961H9.71V4.28961H8.54ZM20.54 16.2896L19.71 15.4596V14.2896H21.71V16.2896H20.54ZM21.9 20.4796L3.52 2.09961L2.1 3.50961L4.88 6.28961H3.71V8.28961H5.71V7.11961L7.71 9.11961V16.2896H14.88L16.88 18.2896H15.71V20.2896H17.71V19.1196L20.49 21.8996L21.9 20.4796ZM9.71 14.2896V11.1196L12.88 14.2896H9.71ZM15.71 11.4596V8.28961H12.54L10.54 6.28961H17.71V13.4596L15.71 11.4596Z" />
</svg>
