<svg width="24" height="24" viewBox="0 0 24 24"  xmlns="http://www.w3.org/2000/svg">
<path d="M3.59625 12.4033H5.59625V10.4033H3.59625V12.4033ZM7.59625 20.4033H9.59625V18.4033H7.59625V20.4033ZM13.5962 2.40332H11.5962V4.40332H13.5962V2.40332ZM19.5962 2.40332V4.40332H21.5962C21.5962 3.30332 20.6962 2.40332 19.5962 2.40332ZM5.59625 20.4033V18.4033H3.59625C3.59625 19.5033 4.49625 20.4033 5.59625 20.4033ZM3.59625 16.4033H5.59625V14.4033H3.59625V16.4033ZM11.5962 20.4033H13.5962V18.4033H11.5962V20.4033ZM19.5962 12.4033H21.5962V10.4033H19.5962V12.4033ZM19.5962 8.40332H21.5962V6.40332H19.5962V8.40332ZM15.5962 4.40332H17.5962V2.40332H15.5962V4.40332ZM8.42625 4.40332L7.59625 3.57332V2.40332H9.59625V4.40332H8.42625ZM20.4262 16.4033L19.5962 15.5733V14.4033H21.5962V16.4033H20.4262ZM9.59625 14.4033V11.2333L12.7662 14.4033H9.59625ZM2.69625 2.91332C2.30625 3.30332 2.30625 3.93332 2.69625 4.32332L4.76625 6.40332H3.59625V8.40332H5.59625V7.23332L7.59625 9.23332V15.4033C7.59625 15.9533 8.04625 16.4033 8.59625 16.4033H14.7662L16.7662 18.4033H15.5962V20.4033H17.5962V19.2333L19.6662 21.3033C20.0562 21.6933 20.6862 21.6933 21.0762 21.3033C21.4662 20.9133 21.4662 20.2833 21.0762 19.8933L4.10625 2.91332C3.71625 2.52332 3.08625 2.52332 2.69625 2.91332ZM17.5962 7.40332C17.5962 6.85332 17.1462 6.40332 16.5962 6.40332H10.4262L12.4262 8.40332H15.5962V11.5733L17.5962 13.5733V7.40332Z" />
</svg>
