<svg width="24" height="24" viewBox="0 0 24 24"  xmlns="http://www.w3.org/2000/svg">
<path d="M20.8387 7.40164C21.2287 7.01164 21.2287 6.38164 20.8387 5.99164L18.0087 3.16164C17.6187 2.77164 16.9887 2.77164 16.5987 3.16164L12.1087 7.65164L8.21865 3.76164C7.43865 2.98164 6.16865 2.98164 5.38865 3.76164L3.48865 5.66164C2.70865 6.44164 2.70865 7.71164 3.48865 8.49164L7.37865 12.3816L2.86865 16.8916V21.1316H7.10865L11.6287 16.6116L15.5187 20.5016C16.4687 21.4516 17.7487 21.1016 18.3487 20.5016L20.2487 18.6016C21.0287 17.8216 21.0287 16.5516 20.2487 15.7716L16.3587 11.8816L20.8387 7.40164ZM4.90865 7.07164L6.79865 5.17164L8.06865 6.44164L6.88865 7.63164L8.29865 9.04164L9.48865 7.85164L10.6887 9.05164L8.78865 10.9516L4.90865 7.07164ZM16.1387 14.5116L14.9487 15.7016L16.3587 17.1116L17.5487 15.9216L18.8187 17.1916L16.9187 19.0916L13.0287 15.2016L14.9287 13.3016L16.1387 14.5116ZM6.27865 19.1316H4.86865V17.7216L14.4787 8.11164L15.8887 9.52164L6.27865 19.1316ZM15.8887 6.69164L17.2987 5.28164L18.7087 6.69164L17.2987 8.10164L15.8887 6.69164Z" />
</svg>
