<svg width="24" height="24" viewBox="0 0 24 24"  xmlns="http://www.w3.org/2000/svg">
<path d="M21.79 17.0609L16.24 11.5109L17.81 9.94094L14.06 6.19094L12.49 7.76094L6.93996 2.21094L2.20996 6.94094L7.75996 12.4909L2.99996 17.2509V21.0009H6.74996L11.51 16.2409L17.06 21.7909L21.79 17.0609ZM9.17996 11.0709L5.03996 6.94094L6.93996 5.04094L8.20996 6.31094L7.01996 7.50094L8.42996 8.91094L9.61996 7.72094L11.07 9.17094L9.17996 11.0709ZM12.93 14.8209L14.83 12.9209L16.28 14.3709L15.09 15.5609L16.5 16.9709L17.69 15.7809L18.96 17.0509L17.06 18.9509L12.93 14.8209Z" />
<path d="M17.6713 2.58541L15.1328 5.1239L18.8805 8.87153L21.419 6.33304L17.6713 2.58541Z" />
</svg>
