<svg width="24" height="24" viewBox="0 0 24 24"  xmlns="http://www.w3.org/2000/svg">
<path d="M16.2388 11.5089L17.8088 9.93889L14.0588 6.18889L12.4888 7.75889L8.34878 3.62889C7.56878 2.84889 6.29878 2.84889 5.51878 3.62889L3.61878 5.52889C2.83878 6.30889 2.83878 7.57889 3.61878 8.35889L7.74878 12.4889L2.99878 17.2489V20.9989H6.74878L11.5088 16.2389L15.6388 20.3689C16.5888 21.3189 17.8688 20.9689 18.4688 20.3689L20.3688 18.4689C21.1488 17.6889 21.1488 16.4189 20.3688 15.6389L16.2388 11.5089ZM9.17878 11.0689L5.03878 6.93889L6.92878 5.03889L8.19878 6.30889L7.01878 7.49889L8.42878 8.90889L9.61878 7.71889L11.0688 9.16889L9.17878 11.0689ZM17.0588 18.9589L12.9288 14.8289L14.8288 12.9289L16.2788 14.3789L15.0888 15.5689L16.4988 16.9789L17.6888 15.7889L18.9588 17.0589L17.0588 18.9589Z" />
<path d="M20.7088 7.03889C21.0988 6.64889 21.0988 6.01889 20.7088 5.62889L18.3688 3.28889C17.8988 2.81889 17.2488 2.99889 16.9588 3.28889L15.1288 5.11889L18.8788 8.86889L20.7088 7.03889Z" />
</svg>
