<svg width="24" height="24" viewBox="0 0 24 24"  xmlns="http://www.w3.org/2000/svg">
<path d="M0.806294 1.355C0.416294 1.745 0.416294 2.375 0.806294 2.765L1.49629 3.445V15.355C1.49629 16.455 2.39629 17.355 3.49629 17.355H10.4963V19.355H9.49629C8.94629 19.355 8.49629 19.805 8.49629 20.355C8.49629 20.905 8.94629 21.355 9.49629 21.355H15.4963C16.0463 21.355 16.4963 20.905 16.4963 20.355C16.4963 19.805 16.0463 19.355 15.4963 19.355H14.4963V17.355H15.3963L20.6863 22.645C21.0763 23.035 21.7063 23.035 22.0963 22.645C22.4863 22.255 22.4863 21.625 22.0963 21.235L2.21629 1.355C1.82629 0.965 1.19629 0.965 0.806294 1.355ZM3.48629 14.355V5.445L13.3963 15.355H4.48629C3.93629 15.355 3.48629 14.905 3.48629 14.355ZM5.04629 1.355L7.04629 3.355H20.4963C21.0463 3.355 21.4963 3.805 21.4963 4.355V14.355C21.4963 14.905 21.0463 15.355 20.4963 15.355H19.0463L21.0463 17.355H21.4863C22.5863 17.355 23.4863 16.455 23.4863 15.355V3.355C23.4863 2.255 22.5863 1.355 21.4863 1.355H5.04629Z" />
</svg>
