<svg width="24" height="24" viewBox="0 0 24 24"  xmlns="http://www.w3.org/2000/svg">
<path d="M7.00498 5H17.005V6C17.005 6.55 17.455 7 18.005 7C18.555 7 19.005 6.55 19.005 6V3C19.005 1.9 18.105 1.01 17.005 1.01L7.00498 1C5.90498 1 5.00498 1.9 5.00498 3V6C5.00498 6.55 5.45498 7 6.00498 7C6.55498 7 7.00498 6.55 7.00498 6V5ZM16.125 15.88L19.295 12.71C19.685 12.32 19.685 11.69 19.295 11.3L16.125 8.13C15.735 7.74 15.095 7.74 14.705 8.13C14.315 8.52 14.315 9.15 14.705 9.54L17.175 12L14.705 14.47C14.315 14.86 14.315 15.49 14.705 15.88C15.095 16.27 15.735 16.27 16.125 15.88ZM9.29498 14.46L6.83498 12L9.29498 9.54C9.68498 9.15 9.68498 8.52 9.29498 8.13C8.90498 7.74 8.26498 7.74 7.87498 8.13L4.70498 11.3C4.31498 11.69 4.31498 12.32 4.70498 12.71L7.87498 15.88C8.26498 16.27 8.90498 16.27 9.29498 15.88C9.69498 15.49 9.68498 14.85 9.29498 14.46ZM17.005 19H7.00498V18C7.00498 17.45 6.55498 17 6.00498 17C5.45498 17 5.00498 17.45 5.00498 18V21C5.00498 22.1 5.90498 23 7.00498 23H17.005C18.105 23 19.005 22.1 19.005 21V18C19.005 17.45 18.555 17 18.005 17C17.455 17 17.005 17.45 17.005 18V19Z" />
</svg>
