<svg width="24" height="24" viewBox="0 0 24 24"  xmlns="http://www.w3.org/2000/svg">
<path d="M8.28121 4.295H18.4512V14.465L20.2812 16.295H21.4512C22.0012 16.295 22.4512 15.845 22.4512 15.295C22.4512 14.745 22.0012 14.295 21.4512 14.295H20.4512V12.295H21.4512C22.0012 12.295 22.4512 11.845 22.4512 11.295C22.4512 10.745 22.0012 10.295 21.4512 10.295H20.4512V8.295H21.4512C22.0012 8.295 22.4512 7.845 22.4512 7.295C22.4512 6.745 22.0012 6.295 21.4512 6.295H20.4512V4.295C20.4512 3.195 19.5512 2.295 18.4512 2.295H6.28121L8.28121 4.295ZM15.4512 9.295H13.4512C13.3912 9.295 13.3212 9.285 13.2612 9.275L12.4712 8.485C12.4612 8.425 12.4512 8.355 12.4512 8.295V7.295C12.4512 6.745 12.9012 6.295 13.4512 6.295H15.4512C16.0012 6.295 16.4512 6.745 16.4512 7.295V8.295C16.4512 8.845 16.0012 9.295 15.4512 9.295ZM11.4512 7.295V7.465L10.2812 6.295H10.4512C11.0012 6.295 11.4512 6.745 11.4512 7.295ZM16.4512 11.295V12.465L14.2812 10.295H15.4512C16.0012 10.295 16.4512 10.745 16.4512 11.295ZM1.84121 2.105C1.45121 2.495 1.45121 3.125 1.84121 3.515L2.45121 4.125C2.45121 4.185 2.45121 4.235 2.45121 4.295V18.295C2.45121 19.395 3.35121 20.295 4.45121 20.295H18.4512C18.5112 20.295 18.5612 20.295 18.6112 20.285L20.2212 21.895C20.6112 22.285 21.2412 22.285 21.6312 21.895C22.0212 21.505 22.0212 20.875 21.6312 20.485L3.26121 2.105C2.87121 1.715 2.23121 1.715 1.84121 2.105ZM4.45121 18.295V6.125L6.45121 8.125V10.295C6.45121 10.845 6.90121 11.295 7.45121 11.295H9.62121L10.6412 12.315C10.5812 12.305 10.5112 12.295 10.4512 12.295H7.45121C6.90121 12.295 6.45121 12.745 6.45121 13.295V15.295C6.45121 15.845 6.90121 16.295 7.45121 16.295H10.4512C11.0012 16.295 11.4512 15.845 11.4512 15.295V13.295C11.4512 13.235 11.4412 13.165 11.4312 13.105L12.4512 14.125V15.295C12.4512 15.845 12.9012 16.295 13.4512 16.295H14.6312L16.6312 18.295H4.45121Z" />
</svg>
