<svg width="24" height="24" viewBox="0 0 24 24"  xmlns="http://www.w3.org/2000/svg">
<path d="M3.5 7C4.05 7 4.5 7.45 4.5 8V21H17.5C18.05 21 18.5 21.45 18.5 22C18.5 22.55 18.05 23 17.5 23H4.5C3.4 23 2.5 22.1 2.5 21V8C2.5 7.45 2.95 7 3.5 7ZM16.09 1.59C15.71 1.21 15.2 1 14.67 1H8.5C7.4 1 6.51 1.9 6.51 3L6.5 17C6.5 18.1 7.39 19 8.49 19H19.5C20.6 19 21.5 18.1 21.5 17V7.83C21.5 7.3 21.29 6.79 20.91 6.42L16.09 1.59ZM16 15H12C11.45 15 11 14.55 11 14C11 13.45 11.45 13 12 13H16C16.55 13 17 13.45 17 14C17 14.55 16.55 15 16 15ZM16 9H15V10C15 10.55 14.55 11 14 11C13.45 11 13 10.55 13 10V9H12C11.45 9 11 8.55 11 8C11 7.45 11.45 7 12 7H13V6C13 5.45 13.45 5 14 5C14.55 5 15 5.45 15 6V7H16C16.55 7 17 7.45 17 8C17 8.55 16.55 9 16 9Z" />
</svg>
