<svg width="24" height="24" viewBox="0 0 24 24"  xmlns="http://www.w3.org/2000/svg">
<path d="M21.8085 11.2006L12.8085 2.20065C12.716 2.10794 12.6061 2.0344 12.4851 1.98421C12.3642 1.93403 12.2345 1.9082 12.1035 1.9082C11.9725 1.9082 11.8429 1.93403 11.7219 1.98421C11.6009 2.0344 11.491 2.10794 11.3985 2.20065L8.30851 5.29065L13.0985 10.0806V7.41065L16.2485 10.5606C16.4485 10.7606 16.4485 11.0706 16.2485 11.2706L15.2685 12.2506L18.7185 15.7006L21.8085 12.6106C22.1885 12.2306 22.1885 11.6006 21.8085 11.2006Z" />
<path d="M3.60851 3.42065C3.42154 3.23367 3.16794 3.12863 2.90351 3.12863C2.63909 3.12863 2.38549 3.23367 2.19851 3.42065C2.01154 3.60762 1.90649 3.86122 1.90649 4.12565C1.90649 4.39007 2.01154 4.64367 2.19851 4.83065L5.47851 8.11065L2.38851 11.2006C2.29581 11.2932 2.22226 11.403 2.17208 11.524C2.1219 11.645 2.09607 11.7747 2.09607 11.9056C2.09607 12.0366 2.1219 12.1663 2.17208 12.2873C2.22226 12.4082 2.29581 12.5181 2.38851 12.6106L11.3885 21.6106C11.7785 22.0006 12.4085 22.0006 12.7985 21.6106L15.8885 18.5206L19.1685 21.8006C19.3555 21.9876 19.6091 22.0927 19.8735 22.0927C20.1379 22.0927 20.3915 21.9876 20.5785 21.8006C20.7655 21.6137 20.8705 21.3601 20.8705 21.0956C20.8705 20.8312 20.7655 20.5776 20.5785 20.3906L3.60851 3.42065ZM10.0885 13.9106C10.0885 14.4606 9.63851 14.9106 9.08851 14.9106C8.53851 14.9106 8.08851 14.4606 8.08851 13.9106V10.9106C8.08851 10.8606 8.10851 10.8106 8.11852 10.7606L10.0885 12.7306V13.9106Z" />
</svg>
