<svg width="24" height="24" viewBox="0 0 24 24"  xmlns="http://www.w3.org/2000/svg">
<path d="M21.705 11.2944L12.705 2.2944C12.6125 2.20169 12.5026 2.12815 12.3816 2.07796C12.2607 2.02778 12.131 2.00195 12 2.00195C11.869 2.00195 11.7394 2.02778 11.6184 2.07796C11.4974 2.12815 11.3875 2.20169 11.295 2.2944L2.29501 11.2944C2.2023 11.3869 2.12876 11.4968 2.07857 11.6178C2.02839 11.7387 2.00256 11.8684 2.00256 11.9994C2.00256 12.1304 2.02839 12.26 2.07857 12.381C2.12876 12.502 2.2023 12.6119 2.29501 12.7044L11.295 21.7044C11.685 22.0944 12.315 22.0944 12.705 21.7044L21.705 12.7044C21.7977 12.6119 21.8713 12.502 21.9214 12.381C21.9716 12.26 21.9975 12.1304 21.9975 11.9994C21.9975 11.8684 21.9716 11.7387 21.9214 11.6178C21.8713 11.4968 21.7977 11.3869 21.705 11.2944ZM13.995 14.5044V12.0044H9.99501V14.0044C9.99501 14.5544 9.54501 15.0044 8.99501 15.0044C8.44501 15.0044 7.99501 14.5544 7.99501 14.0044V11.0044C7.99501 10.4544 8.44501 10.0044 8.99501 10.0044H13.995V7.5044L17.145 10.6544C17.345 10.8544 17.345 11.1644 17.145 11.3644L13.995 14.5044Z" />
</svg>
