<svg width="24" height="24" viewBox="0 0 24 24"  xmlns="http://www.w3.org/2000/svg">
<path d="M13.1325 9.69836H13.8025V7.19836L17.3025 10.6984L15.7125 12.2884L19.1325 15.6984L21.7225 13.1084C22.5025 12.3284 22.5025 11.0584 21.7225 10.2784L13.7325 2.27836C12.9525 1.49836 11.6825 1.49836 10.9025 2.27836L8.30251 4.86836L13.1325 9.69836ZM3.1125 2.50836L1.6925 3.91836L5.47251 7.69836L2.8825 10.2884C2.1025 11.0684 2.1025 12.3384 2.8825 13.1184L10.8925 21.1184C11.6725 21.8984 12.9425 21.8984 13.7225 21.1184L16.3025 18.5284L20.0825 22.3084L21.4925 20.8984L3.1125 2.50836ZM10.3025 14.6984H8.30251V10.6984C8.30251 10.6484 8.3225 10.6084 8.3325 10.5584L10.3025 12.5284V14.6984Z" />
</svg>
