<svg width="24" height="24" viewBox="0 0 24 24"  xmlns="http://www.w3.org/2000/svg">
<path d="M10.76 15.2297C11.16 14.8297 11.15 14.1597 10.72 13.7797C8.15996 11.4697 6.63996 9.89971 7.05996 8.32971C7.27996 7.51971 7.99996 6.99971 8.83996 6.99971C9.94996 6.99971 10.38 7.64971 11.52 8.99971H12.45C13.57 7.68971 13.98 6.99971 15.13 6.99971C16 6.99971 16.68 7.53971 16.9 8.31971C17.25 8.27971 17.58 8.25971 17.9 8.25971C18.26 8.25971 18.6 8.28971 18.93 8.33971C18.69 6.42971 17.12 4.99971 15.14 4.99971C15.02 4.99971 14.91 5.02971 14.79 5.03971C15.05 4.32971 15.1 3.50971 14.61 2.60971C14.18 1.79971 13.39 1.17971 12.49 1.03971C10.61 0.739712 8.98996 2.17971 8.98996 3.99971C8.98996 4.36971 9.06996 4.70971 9.18996 5.03971C9.06996 5.02971 8.95996 4.99971 8.83996 4.99971C6.67996 4.99971 4.98996 6.68971 4.98996 8.84971C4.98996 11.0797 6.71996 12.8597 9.38996 15.2597C9.77996 15.6197 10.39 15.5997 10.76 15.2297Z" />
<path d="M23.51 17.2497C22.97 16.3797 22.24 16.0197 21.5 15.8897C21.57 15.7897 21.65 15.7097 21.71 15.6097C22.79 13.7397 22.17 11.4297 20.3 10.3497C18.37 9.23971 15.96 9.84971 12.55 10.9497C12.04 11.1097 11.76 11.6497 11.89 12.1597C12.04 12.7097 12.62 13.0297 13.17 12.8497C16.45 11.7897 18.57 11.2497 19.72 12.3997C20.31 12.9897 20.4 13.8797 19.98 14.6097C19.42 15.5697 18.65 15.6097 16.91 15.9297L16.44 16.7397C17.02 18.3597 17.41 19.0697 16.83 20.0597C16.3 20.9697 15.22 21.2597 14.3 20.7397C14.24 20.7097 14.19 20.6497 14.13 20.6097C13.83 21.2797 13.49 21.8497 13.1 22.3397C13.1 22.3497 13.1 22.3497 13.1 22.3497C15 23.5897 17.44 22.9897 18.56 21.0597C18.62 20.9597 18.65 20.8497 18.7 20.7397C18.92 21.0097 19.18 21.2497 19.5 21.4297C21.08 22.3397 23.14 21.6597 23.81 19.8797C24.13 19.0197 23.99 18.0297 23.51 17.2497Z" />
<path d="M12.09 15.0397C11.37 18.4197 10.77 20.5197 9.19996 20.9397C8.38996 21.1597 7.57996 20.7897 7.15996 20.0597C6.59996 19.0997 6.95996 18.3997 7.54996 16.7397L7.08996 15.9297C5.38996 15.6197 4.58996 15.5997 4.01996 14.6097C3.48996 13.6997 3.77996 12.6097 4.69996 12.0797C4.78996 12.0297 4.88996 11.9997 4.98996 11.9697C4.71996 11.5497 4.48996 11.0997 4.31996 10.5997C4.07996 10.4897 3.95996 10.4397 3.71996 10.3397C1.83996 11.4097 1.20996 13.7397 2.28996 15.6097C2.34996 15.7097 2.42996 15.7897 2.49996 15.8897C1.74996 16.0197 1.01996 16.3797 0.489963 17.2497C0.00996295 18.0297 -0.130037 19.0197 0.189963 19.8797C0.869963 21.6597 2.92996 22.3397 4.49996 21.4297C4.81996 21.2497 5.07996 21.0097 5.29996 20.7397C5.34996 20.8497 5.37996 20.9597 5.43996 21.0597C6.51996 22.9297 8.82996 23.5497 10.7 22.4697C12.63 21.3597 13.31 18.9597 14.06 15.4597C14.17 14.9397 13.85 14.4197 13.34 14.2897C12.77 14.1397 12.21 14.4797 12.09 15.0397Z" />
</svg>
