<svg width="24" height="24" viewBox="0 0 24 24"  xmlns="http://www.w3.org/2000/svg">
<path d="M17.2913 10.709V12.709H16.4113L20.7413 17.039C21.7213 15.499 22.2913 13.669 22.2913 11.709C22.2913 6.18898 17.8113 1.70898 12.2913 1.70898C10.3313 1.70898 8.50126 2.27898 6.96126 3.25898L14.4113 10.709H17.2913ZM21.4613 20.589L3.41126 2.53898C3.02126 2.14898 2.39126 2.14898 2.00126 2.53898C1.61126 2.92898 1.61126 3.55898 2.00126 3.94898L4.07126 6.01898C2.95126 7.63898 2.29126 9.59898 2.29126 11.709C2.29126 17.229 6.77126 21.709 12.2913 21.709C14.4013 21.709 16.3613 21.049 17.9713 19.929L20.0413 21.999C20.4313 22.389 21.0613 22.389 21.4513 21.999C21.8513 21.609 21.8513 20.979 21.4613 20.589ZM7.29126 12.709V10.709H8.75126L10.7513 12.709H7.29126Z" />
</svg>
