<svg width="24" height="24" viewBox="0 0 24 24"  xmlns="http://www.w3.org/2000/svg">
<path d="M13.71 10.5743L11.21 8.0743V2.6543C11.21 1.9643 11.77 1.4043 12.46 1.4043C13.15 1.4043 13.71 1.9643 13.71 2.6543V10.5743ZM20.71 5.7243C20.71 5.0743 20.24 4.4743 19.59 4.4043C18.84 4.3243 18.21 4.9143 18.21 5.6443V10.8943C18.21 11.1743 17.99 11.3943 17.71 11.3943C17.43 11.3943 17.21 11.1743 17.21 10.8943V3.7143C17.21 3.0643 16.74 2.4643 16.09 2.3943C15.34 2.3343 14.71 2.9243 14.71 3.6543V11.5743L20.71 17.5743V5.7243ZM10.21 4.6543C10.21 3.9643 9.65002 3.4043 8.96002 3.4043C8.29002 3.4043 7.76002 3.9343 7.72002 4.5843L10.21 7.0743V4.6543ZM17.71 22.4043C18.33 22.4043 18.89 22.2143 19.36 21.8843L19.34 21.8643L19.78 22.3043C20.17 22.6943 20.8 22.6943 21.19 22.3043C21.58 21.9143 21.58 21.2843 21.19 20.8943L4.22002 3.9143C3.83002 3.5243 3.20002 3.5243 2.81002 3.9143C2.42002 4.3043 2.42002 4.9343 2.81002 5.3243L7.73002 10.2443L7.71002 10.2343V14.5343L5.11002 13.0543C4.94002 12.9643 4.77002 12.9143 4.57002 12.9143C4.31002 12.9143 4.07002 13.0043 3.87002 13.1743L2.71002 14.2843L9.51002 21.4643C10.08 22.0643 10.86 22.4043 11.69 22.4043H17.71Z" />
</svg>
