<svg width="24" height="24" viewBox="0 0 24 24"  xmlns="http://www.w3.org/2000/svg">
<path d="M3.51998 3.00922L2.09998 4.41922L7.70998 10.0292V14.3292L5.10998 12.8492C4.93998 12.7592 4.76998 12.7092 4.56998 12.7092C4.30998 12.7092 4.06998 12.7992 3.86998 12.9692L2.70998 14.0792L9.50998 21.2592C10.08 21.8592 10.86 22.1992 11.69 22.1992H17.71C18.33 22.1992 18.89 22.0092 19.37 21.6792L20.49 22.7992L21.9 21.3892L3.51998 3.00922ZM17.71 20.1992H11.71C11.32 20.1992 11.07 19.9692 10.96 19.8392L7.57998 16.1992H9.70998V12.0292L17.85 20.1692C17.8 20.1792 17.76 20.1992 17.71 20.1992ZM14.54 11.1992H14.71V3.44922C14.71 2.75922 15.27 2.19922 15.96 2.19922C16.65 2.19922 17.21 2.75922 17.21 3.44922V11.1992H18.21V5.44922C18.21 4.75922 18.77 4.19922 19.46 4.19922C20.15 4.19922 20.71 4.75922 20.71 5.44922V17.3692L18.71 15.3692V13.1992H16.54L14.54 11.1992ZM13.71 10.3692V2.44922C13.71 1.75922 13.15 1.19922 12.46 1.19922C11.77 1.19922 11.21 1.75922 11.21 2.44922V7.86922L13.71 10.3692ZM10.21 6.86922V4.44922C10.21 3.75922 9.64998 3.19922 8.95998 3.19922C8.28998 3.19922 7.75998 3.72922 7.71998 4.37922L10.21 6.86922Z" />
</svg>
