<svg width="24" height="24" viewBox="0 0 24 24"  xmlns="http://www.w3.org/2000/svg">
<path d="M2.51751 3.00376C2.12751 3.39376 2.12751 4.02376 2.51751 4.41376L9.70751 11.6038C9.88751 11.8038 9.88751 12.1038 9.69751 12.3038C9.59751 12.4038 9.46751 12.4538 9.34751 12.4538C9.22751 12.4538 9.08751 12.4038 8.99751 12.3038L7.28751 10.5938C7.17751 10.9938 7.02751 11.3738 6.83751 11.7138L8.23751 13.1138C8.43751 13.3138 8.43751 13.6238 8.23751 13.8238C8.13751 13.9238 8.00751 13.9738 7.88751 13.9738C7.76751 13.9738 7.62751 13.9238 7.53751 13.8238L6.26751 12.5538C6.02751 12.8438 5.76751 13.1138 5.49751 13.3538L6.77751 14.6338C6.97751 14.8338 6.97751 15.1438 6.77751 15.3438C6.67751 15.4438 6.54751 15.4938 6.41751 15.4938C6.28751 15.4938 6.15751 15.4438 6.06751 15.3438L4.68751 13.9638C3.97751 14.4338 3.25751 14.7738 2.66751 15.0038C1.90751 15.3038 1.41751 16.0438 1.41751 16.8638V17.4938C1.41751 18.5938 2.31751 19.4938 3.41751 19.4938H10.0875C10.6175 19.4938 11.1275 19.2838 11.4975 18.9038L14.2375 16.1638L19.4675 21.3938C19.8575 21.7838 20.4875 21.7838 20.8775 21.3938C21.2675 21.0038 21.2675 20.3738 20.8775 19.9838L3.92751 3.00376C3.53751 2.61376 2.90751 2.61376 2.51751 3.00376ZM18.9275 15.1738L17.5175 13.7638L21.9975 9.28376C22.7775 10.0638 22.7775 11.3338 21.9975 12.1138L18.9275 15.1738ZM21.2975 8.57376L16.8175 13.0538L9.71751 5.96376L12.8075 2.89376C13.5875 2.11376 14.8475 2.12376 15.6275 2.89376L21.2975 8.57376Z" />
</svg>
