<svg width="24" height="24" viewBox="0 0 24 24"  xmlns="http://www.w3.org/2000/svg">
<path d="M5 18H3V16H5V18ZM5 14H3V12H5V14ZM5 10H3V8H5V10ZM5 6H3V4H5V6ZM9 18H7V16H9V18ZM9 14H7V12H9V14ZM9 10H7V8H9V10ZM9 6H7V4H9V6ZM15 18H11V16H13V14H11V12H13V10H11V8H19V14H21V7C21 6.45 20.55 6 20 6H11V3C11 2.45 10.55 2 10 2H2C1.45 2 1 2.45 1 3V19C1 19.55 1.45 20 2 20H15V18ZM17 10H15V12H17V10ZM17 14H15V16H17V14ZM23 19C23 19.55 22.55 20 22 20H21V21C21 21.55 20.55 22 20 22C19.45 22 19 21.55 19 21V20H18C17.45 20 17 19.55 17 19C17 18.45 17.45 18 18 18H19V17C19 16.45 19.45 16 20 16C20.55 16 21 16.45 21 17V18H22C22.55 18 23 18.45 23 19Z" />
</svg>
