<svg width="24" height="24" viewBox="0 0 24 24"  xmlns="http://www.w3.org/2000/svg">
<g clip-path="url(#clip0_2402_19550)">
<path d="M8.7999 4.0999H10.7999V6.0999H9.8999L12.7999 8.9999V8.0999H20.7999V16.9999L22.7999 18.9999V6.0999H12.7999V2.0999H5.8999L8.7999 4.9999V4.0999ZM16.7999 10.0999H18.7999V12.0999H16.7999V10.0999ZM2.0999 0.899902L0.899902 2.1999L2.7999 4.0999V20.0999H18.7999L21.7999 23.0999L23.0999 21.7999L2.0999 0.899902ZM6.7999 18.0999H4.7999V16.0999H6.7999V18.0999ZM6.7999 14.0999H4.7999V12.0999H6.7999V14.0999ZM6.7999 10.0999H4.7999V8.0999H6.7999V10.0999ZM10.7999 18.0999H8.7999V16.0999H10.7999V18.0999ZM10.7999 14.0999H8.7999V12.0999H10.7999V14.0999ZM12.7999 18.0999V16.0999H14.7999L16.7999 18.0999H12.7999Z" />
</g>
<defs>
<clipPath id="clip0_2402_19550">
<rect width="24" height="24" fill="white"/>
</clipPath>
</defs>
</svg>
