<svg width="24" height="24" viewBox="0 0 24 24"  xmlns="http://www.w3.org/2000/svg">
<path d="M13.025 5.08005C16.085 5.52005 18.505 7.94005 18.945 11H21.975C21.505 6.28005 17.745 2.52005 13.025 2.05005V5.08005ZM18.945 13C18.505 16.06 16.085 18.48 13.025 18.92V21.9501C17.745 21.4801 21.505 17.72 21.975 13H18.945ZM11.025 18.92C7.63502 18.43 5.02502 15.52 5.02502 12C5.02502 8.48005 7.63502 5.57005 11.025 5.08005V2.05005C5.97502 2.55005 2.02502 6.81005 2.02502 12C2.02502 17.19 5.97502 21.4501 11.025 21.9501V18.92Z" />
</svg>
