<svg width="24" height="24" viewBox="0 0 24 24"  xmlns="http://www.w3.org/2000/svg">
<path d="M13.0249 9.18005C13.8749 9.48005 14.5349 10.15 14.8449 11H21.9749C21.5049 6.28005 17.7449 2.52005 13.0249 2.05005V9.18005ZM11.0249 14.82C9.8649 14.4 9.0249 13.3 9.0249 12C9.0249 10.7 9.8649 9.60005 11.0249 9.18005V2.05005C5.9749 2.55005 2.0249 6.81005 2.0249 12C2.0249 17.19 5.9749 21.4501 11.0249 21.9501V14.82ZM14.8449 13C14.5449 13.85 13.8749 14.51 13.0249 14.82V21.9501C17.7449 21.4801 21.5049 17.72 21.9749 13H14.8449Z" />
</svg>
