<svg width="24" height="24" viewBox="0 0 24 24"  xmlns="http://www.w3.org/2000/svg">
<path d="M14.8449 11H21.9749C21.5049 6.28005 17.7449 2.52005 13.0249 2.05005V9.18005C13.8749 9.49005 14.5349 10.15 14.8449 11ZM15.0249 4.58005C17.0249 5.40005 18.6249 7.00005 19.4449 9.00005H16.0149C15.7349 8.63005 15.3949 8.29005 15.0249 8.01005V4.58005ZM2.0249 12C2.0249 17.19 5.9749 21.4501 11.0249 21.9501V14.82C9.8649 14.4 9.0249 13.3 9.0249 12C9.0249 10.7 9.8649 9.60005 11.0249 9.18005V2.05005C5.9749 2.55005 2.0249 6.81005 2.0249 12ZM9.0249 4.58005V8.02005C7.7949 8.94005 7.0249 10.41 7.0249 12C7.0249 13.59 7.7949 15.06 9.0249 15.99V19.43C6.0649 18.24 4.0249 15.35 4.0249 12C4.0249 8.65005 6.0649 5.76005 9.0249 4.58005ZM13.0249 14.82V21.9501C17.7449 21.4801 21.5049 17.72 21.9749 13H14.8449C14.5349 13.85 13.8749 14.51 13.0249 14.82ZM15.0249 15.99C15.3949 15.71 15.7349 15.38 16.0149 15H19.4449C18.6249 17 17.0249 18.6 15.0249 19.42V15.99Z" />
</svg>
