<svg width="24" height="24" viewBox="0 0 24 24"  xmlns="http://www.w3.org/2000/svg">
<path d="M17.4414 3.54512C16.5014 2.94512 15.4514 2.50512 14.3214 2.24512C13.7014 2.10512 13.1114 2.58512 13.1114 3.22512C13.1114 3.67512 13.4114 4.09512 13.8514 4.19512C14.7614 4.39512 15.6214 4.75512 16.3814 5.24512C16.7714 5.49512 17.2714 5.41512 17.6014 5.08512C18.0514 4.63512 17.9814 3.88512 17.4414 3.54512ZM20.8814 10.9951C21.5214 10.9951 22.0114 10.4051 21.8614 9.78512C21.6014 8.66512 21.1614 7.61512 20.5614 6.66512C20.2214 6.12512 19.4614 6.05512 19.0114 6.50512C18.6914 6.82512 18.6114 7.33512 18.8514 7.72512C19.3414 8.49512 19.7014 9.34512 19.9014 10.2551C20.0114 10.6951 20.4214 10.9951 20.8814 10.9951ZM19.0114 17.4851C19.4614 17.9351 20.2214 17.8651 20.5614 17.3351C21.1614 16.3951 21.6014 15.3451 21.8614 14.2251C22.0014 13.6051 21.5114 13.0151 20.8814 13.0151C20.4314 13.0151 20.0114 13.3151 19.9114 13.7551C19.7114 14.6651 19.3414 15.5151 18.8614 16.2851C18.6114 16.6551 18.6914 17.1651 19.0114 17.4851ZM13.1114 20.7651C13.1114 21.4051 13.7014 21.8951 14.3214 21.7451C15.4414 21.4851 16.4914 21.0451 17.4314 20.4451C17.9714 20.1051 18.0414 19.3451 17.5914 18.8951C17.2714 18.5751 16.7614 18.4951 16.3814 18.7451C15.6214 19.2351 14.7714 19.5951 13.8514 19.7951C13.4114 19.8951 13.1114 20.3051 13.1114 20.7651ZM13.1114 11.9951V7.99512C13.1114 7.44512 12.6614 6.99512 12.1114 6.99512C11.5614 6.99512 11.1114 7.44512 11.1114 7.99512V11.9951H9.52139C8.63139 11.9951 8.18139 13.0751 8.81139 13.7051L11.4014 16.2951C11.7914 16.6851 12.4214 16.6851 12.8114 16.2951L15.4014 13.7051C16.0314 13.0751 15.5814 11.9951 14.6914 11.9951H13.1114ZM11.1114 20.7651C11.1114 21.4051 10.5214 21.8951 9.90139 21.7551C5.44139 20.7451 2.11139 16.7651 2.11139 11.9951C2.11139 7.22512 5.44139 3.24512 9.90139 2.24512C10.5214 2.10512 11.1114 2.58512 11.1114 3.22512C11.1114 3.68512 10.8014 4.09512 10.3514 4.19512C6.78139 4.99512 4.11139 8.18512 4.11139 11.9951C4.11139 15.8051 6.78139 18.9951 10.3514 19.7951C10.8014 19.8951 11.1114 20.3051 11.1114 20.7651Z" />
</svg>
