<svg width="24" height="24" viewBox="0 0 24 24"  xmlns="http://www.w3.org/2000/svg">
<path d="M21.8002 9.71L18.0802 17.9C17.8502 18.39 17.1202 18.23 17.1202 17.69V11H15.6202C15.3402 11 15.1202 10.78 15.1202 10.5V4.5C15.1202 4.22 15.3402 4 15.6202 4H21.3802C21.7302 4 21.9802 4.36 21.8402 4.69L20.1202 9H21.3402C21.7102 9 21.9502 9.38 21.8002 9.71ZM15.1202 13V20H4.12021C3.02021 20 2.12021 19.1 2.12021 18V15C2.12021 13.9 3.02021 13 4.12021 13H15.1202ZM6.37021 16.5C6.37021 16.09 6.03021 15.75 5.62021 15.75C5.21021 15.75 4.87021 16.09 4.87021 16.5C4.87021 16.91 5.21021 17.25 5.62021 17.25C6.03021 17.25 6.37021 16.91 6.37021 16.5ZM13.1202 4V11H4.12021C3.02021 11 2.12021 10.1 2.12021 9V6C2.12021 4.9 3.02021 4 4.12021 4H13.1202ZM6.37021 7.5C6.37021 7.09 6.03021 6.75 5.62021 6.75C5.21021 6.75 4.87021 7.09 4.87021 7.5C4.87021 7.91 5.21021 8.25 5.62021 8.25C6.03021 8.25 6.37021 7.91 6.37021 7.5Z" />
</svg>
