<svg width="24" height="24" viewBox="0 0 24 24"  xmlns="http://www.w3.org/2000/svg">
<path d="M17.16 2.71492L18.83 1.04492L20.95 3.16492L19.28 4.83492L17.16 2.71492ZM16.16 3.71492L18.28 5.83492L12.17 11.9449H10.05V9.83492L16.16 3.71492ZM14.18 3.58492L8.55005 9.21492V13.4549H12.79L18.41 7.83492C18.82 8.82492 19.05 9.93492 19.05 11.1549C19.05 14.4749 16.38 18.4049 11.05 22.9549C5.72005 18.4049 3.05005 14.4749 3.05005 11.1549C3.05005 6.17492 6.85005 2.95492 11.05 2.95492C12.14 2.95492 13.21 3.17492 14.18 3.58492Z" />
</svg>
