<svg width="24" height="24" viewBox="0 0 24 24"  xmlns="http://www.w3.org/2000/svg">
<path d="M15.4988 4C14.9488 4 14.4988 4.45 14.4988 5V11.9L16.4988 9.9V5C16.4988 4.45 16.0488 4 15.4988 4Z" />
<path d="M3.49878 20C4.04878 20 4.49878 19.55 4.49878 19V5C4.49878 4.45 4.04878 4 3.49878 4C2.94878 4 2.49878 4.45 2.49878 5V19C2.49878 19.55 2.94878 20 3.49878 20Z" />
<path d="M9.49878 8C10.0488 8 10.4988 7.55 10.4988 7V5C10.4988 4.45 10.0488 4 9.49878 4C8.94878 4 8.49878 4.45 8.49878 5V7C8.49878 7.55 8.94878 8 9.49878 8Z" />
<path d="M9.49878 14C10.0488 14 10.4988 13.55 10.4988 13V11C10.4988 10.45 10.0488 10 9.49878 10C8.94878 10 8.49878 10.45 8.49878 11V13C8.49878 13.55 8.94878 14 9.49878 14Z" />
<path d="M9.49878 20C10.0488 20 10.4988 19.55 10.4988 19V17C10.4988 16.45 10.0488 16 9.49878 16C8.94878 16 8.49878 16.45 8.49878 17V19C8.49878 19.55 8.94878 20 9.49878 20Z" />
<path d="M21.0588 12.59L19.9088 11.44C19.3188 10.85 18.3688 10.85 17.7888 11.44L12.4988 16.73V19.5C12.4988 19.78 12.7188 20 12.9988 20H15.7688L21.0588 14.71C21.6488 14.12 21.6488 13.17 21.0588 12.59ZM15.0788 18.45H14.0488V17.42L17.4988 13.97L18.5288 15L15.0788 18.45Z" />
</svg>
