<svg width="24" height="24" viewBox="0 0 24 24"  xmlns="http://www.w3.org/2000/svg">
<path d="M17.52 11C15.95 11 14.58 10.1 13.92 8.79L13.13 7.12C13.12 7.1 12.63 6 11.34 6C7.72 6 5 16.69 5 19H7.5L6 21C5.67 21.44 5.76 22.07 6.2 22.4C6.64 22.73 7.27 22.64 7.6 22.2L10 19H12V22C12 22.55 12.45 23 13 23C13.55 23 14 22.55 14 22V19.29C14 19.07 13.96 18.86 13.9 18.65L12 13L12.49 10.29C13.3 11.52 14.54 12.43 16 12.81V13C16 13.28 16.22 13.5 16.5 13.5C16.78 13.5 17 13.28 17 13V12.5C17 12.22 17.22 12 17.5 12C17.78 12 18 12.22 18 12.5V22.5C18 22.78 18.22 23 18.5 23C18.78 23 19 22.78 19 22.5V12.5C19 11.71 18.38 11 17.52 11Z" />
<path d="M10.6 2.91C10.54 3.1 10.5 3.29 10.5 3.5C10.5 4.6 11.4 5.5 12.5 5.5C13.6 5.5 14.5 4.6 14.5 3.5C14.5 2.4 13.6 1.5 12.5 1.5C12.29 1.5 12.1 1.54 11.91 1.6C11.76 1.25 11.41 1 11 1C10.45 1 10 1.45 10 2C10 2.41 10.25 2.76 10.6 2.91Z" />
</svg>
