<svg width="24" height="24" viewBox="0 0 24 24"  xmlns="http://www.w3.org/2000/svg">
<path d="M11.7324 2.00204C7.05237 2.14204 3.15237 6.03204 3.00237 10.712C2.87237 14.752 5.42237 18.212 9.00237 19.482V21.002C9.00237 21.552 9.45237 22.002 10.0024 22.002C10.5524 22.002 11.0024 21.552 11.0024 21.002V19.942C11.3324 19.982 11.6624 20.002 12.0024 20.002C12.3424 20.002 12.6724 19.982 13.0024 19.942V21.002C13.0024 21.552 13.4524 22.002 14.0024 22.002C14.5524 22.002 15.0024 21.552 15.0024 21.002V19.472C18.4924 18.232 21.0024 14.902 21.0024 11.002C21.0024 5.95204 16.8224 1.85204 11.7324 2.00204ZM13.5424 14.712L12.0024 16.252C11.5924 16.662 10.9124 16.662 10.5024 16.252C10.0924 15.842 10.0924 15.162 10.5024 14.752L11.0024 14.252L10.4624 13.712C10.0724 13.322 10.0724 12.692 10.4624 12.302L12.0024 10.752C12.4124 10.342 13.0924 10.342 13.5024 10.752C13.9124 11.162 13.9124 11.842 13.5024 12.252L13.0024 12.752L13.5424 13.292C13.9324 13.682 13.9324 14.322 13.5424 14.712ZM15.0024 9.00204H9.00237C8.45237 9.00204 8.00237 8.55204 8.00237 8.00204C8.00237 7.45204 8.45237 7.00204 9.00237 7.00204H15.0024C15.5524 7.00204 16.0024 7.45204 16.0024 8.00204C16.0024 8.55204 15.5524 9.00204 15.0024 9.00204Z" />
</svg>
