<svg width="24" height="24" viewBox="0 0 24 24"  xmlns="http://www.w3.org/2000/svg">
<path d="M11.995 9.16602C8.84499 9.16602 5.99499 11.576 5.99499 15.316C5.99499 17.666 7.77499 20.426 11.335 23.586C11.705 23.916 12.285 23.916 12.665 23.586C16.215 20.416 17.995 17.666 17.995 15.316C17.995 11.576 15.145 9.16602 11.995 9.16602ZM11.995 16.666C11.165 16.666 10.495 15.996 10.495 15.166C10.495 14.336 11.165 13.666 11.995 13.666C12.825 13.666 13.495 14.336 13.495 15.166C13.495 15.996 12.825 16.666 11.995 16.666ZM16.175 6.98602C15.825 7.33602 15.285 7.36602 14.875 7.07602C14.065 6.50602 13.065 6.16602 11.995 6.16602C10.925 6.16602 9.92499 6.50602 9.11499 7.07602C8.70499 7.35602 8.16499 7.33602 7.81499 6.98602C7.38499 6.55602 7.42499 5.83602 7.90499 5.48602C9.05499 4.65602 10.475 4.16602 11.995 4.16602C13.515 4.16602 14.935 4.65602 16.085 5.48602C16.575 5.83602 16.605 6.55602 16.175 6.98602ZM4.96499 4.13602C4.54499 3.70602 4.58499 3.01602 5.04499 2.63602C6.94499 1.09602 9.365 0.166016 12.005 0.166016C14.645 0.166016 17.065 1.09602 18.955 2.64602C19.415 3.02602 19.455 3.71602 19.035 4.13602C18.675 4.49602 18.105 4.52602 17.715 4.20602C16.155 2.93602 14.165 2.16602 12.005 2.16602C9.825 2.16602 7.83499 2.93602 6.28499 4.20602C5.89499 4.52602 5.32499 4.48602 4.96499 4.13602Z" />
</svg>
