<svg width="24" height="24" viewBox="0 0 24 24"  xmlns="http://www.w3.org/2000/svg">
<path d="M20.2877 8.37L19.2877 6.64C19.0077 6.16 18.3977 6 17.9177 6.27L13.9977 8.54V4C13.9977 3.45 13.5477 3 12.9977 3H10.9977C10.4477 3 9.99767 3.45 9.99767 4V8.54L6.06767 6.27C5.58767 5.99 4.97767 6.16 4.70767 6.63L3.70767 8.36C3.42767 8.84 3.58767 9.46 4.06767 9.73L7.99767 12L4.06767 14.27C3.58767 14.55 3.42767 15.16 3.69767 15.64L4.69767 17.37C4.97767 17.85 5.58767 18.01 6.06767 17.74L9.99767 15.46V20C9.99767 20.55 10.4477 21 10.9977 21H12.9977C13.5477 21 13.9977 20.55 13.9977 20V15.46L17.9277 17.73C18.4077 18.01 19.0177 17.84 19.2977 17.36L20.2977 15.63C20.5777 15.15 20.4077 14.54 19.9277 14.26L15.9977 12L19.9277 9.73C20.4077 9.46 20.5677 8.84 20.2877 8.37Z" />
</svg>
