<svg width="24" height="24" viewBox="0 0 24 24"  xmlns="http://www.w3.org/2000/svg">
<path d="M11.9892 6C13.0938 6 13.9892 5.10457 13.9892 4C13.9892 2.89543 13.0938 2 11.9892 2C10.8847 2 9.98924 2.89543 9.98924 4C9.98924 5.10457 10.8847 6 11.9892 6Z" />
<path d="M15.8792 8.11C15.4892 7.72 14.8192 7 13.5192 7C13.3092 7 12.0992 7 10.9792 7C8.51924 6.99 6.46924 5.2 6.05924 2.85C5.97924 2.36 5.56924 2 5.07924 2C4.46924 2 3.98924 2.54 4.07924 3.14C4.51924 5.8 6.45924 7.95 8.98924 8.71V21C8.98924 21.55 9.43924 22 9.98924 22C10.5392 22 10.9892 21.55 10.9892 21V16H12.9892V21C12.9892 21.55 13.4392 22 13.9892 22C14.5392 22 14.9892 21.55 14.9892 21V10.05L18.2292 13.29C18.6192 13.68 19.2492 13.68 19.6392 13.29C20.0292 12.9 20.0292 12.27 19.6392 11.88L15.8792 8.11Z" />
</svg>
