<svg width="24" height="24" viewBox="0 0 24 24"  xmlns="http://www.w3.org/2000/svg">
<path d="M12.0012 3C7.20125 3 3.00125 6.86 3.00125 12C3.00125 14.12 3.74125 16.07 4.97125 17.61L3.29125 19.29C2.90125 19.68 2.90125 20.31 3.29125 20.7C3.68125 21.09 4.31125 21.09 4.70125 20.7L6.38125 19.02C7.93125 20.26 9.88125 21 12.0012 21C14.3012 21 16.6112 20.12 18.3612 18.36C20.1212 16.61 21.0012 14.3 21.0012 12V5C21.0012 3.9 20.1012 3 19.0012 3H12.0012ZM15.8312 12.26L10.6712 16.89C10.5112 17.04 10.2612 17.03 10.1112 16.88C9.97125 16.74 9.95125 16.52 10.0712 16.36L12.5112 13.03L8.46125 12.63C8.02125 12.59 7.83125 12.04 8.16125 11.74L13.3212 7.11C13.4812 6.96 13.7312 6.97 13.8812 7.12C14.0212 7.26 14.0412 7.48 13.9212 7.64L11.4812 10.97L15.5312 11.37C15.9812 11.41 16.1612 11.96 15.8312 12.26Z" />
</svg>
