<svg width="24" height="24" viewBox="0 0 24 24"  xmlns="http://www.w3.org/2000/svg">
<path d="M19.5 11V5C19.5 3.9 18.6 3 17.5 3H16.5V2C16.5 1.45 16.05 1 15.5 1C14.95 1 14.5 1.45 14.5 2V3H6.5V2C6.5 1.45 6.05 1 5.5 1C4.95 1 4.5 1.45 4.5 2V3H3.5C2.4 3 1.5 3.9 1.5 5V19C1.5 20.1 2.4 21 3.5 21H10.5V19H3.5V9H17.5V11H19.5ZM13.63 19C13.08 19 12.72 19.56 12.95 20.06C13.73 21.79 15.47 23 17.5 23C20.26 23 22.5 20.76 22.5 18C22.5 15.24 20.26 13 17.5 13C16.14 13 14.9 13.55 14 14.43V13.75C14 13.34 13.66 13 13.25 13C12.84 13 12.5 13.34 12.5 13.75V16C12.5 16.55 12.95 17 13.5 17H15.75C16.16 17 16.5 16.66 16.5 16.25C16.5 15.84 16.16 15.5 15.75 15.5H15.05C15.68 14.88 16.55 14.5 17.5 14.5C19.43 14.5 21 16.07 21 18C21 19.93 19.43 21.5 17.5 21.5C16.08 21.5 14.86 20.65 14.31 19.44C14.19 19.17 13.92 19 13.63 19Z" />
</svg>
