<svg width="24" height="24" viewBox="0 0 24 24"  xmlns="http://www.w3.org/2000/svg">
<path d="M9 13.2486C9.69036 13.2486 10.25 12.689 10.25 11.9986C10.25 11.3083 9.69036 10.7486 9 10.7486C8.30964 10.7486 7.75 11.3083 7.75 11.9986C7.75 12.689 8.30964 13.2486 9 13.2486Z" />
<path d="M15 13.2486C15.6904 13.2486 16.25 12.689 16.25 11.9986C16.25 11.3083 15.6904 10.7486 15 10.7486C14.3096 10.7486 13.75 11.3083 13.75 11.9986C13.75 12.689 14.3096 13.2486 15 13.2486Z" />
<path d="M22.91 10.9586C22.37 5.02862 17.16 0.548619 11.11 1.03862C5.73 1.45862 1.55 5.93862 1.06 11.3186L0 22.9986H24L22.91 10.9586ZM4.54 8.12862C5.41 8.67862 6.43 8.99862 7.5 8.99862C9.36 8.99862 11 8.06862 12 6.64862C13 8.06862 14.64 8.99862 16.5 8.99862C17.57 8.99862 18.59 8.67862 19.46 8.12862C19.8 9.01862 20 9.98862 20 10.9986C20 15.4086 16.41 18.9986 12 18.9986C7.59 18.9986 4 15.4086 4 10.9986C4 9.98862 4.2 9.01862 4.54 8.12862Z" />
</svg>
