<svg width="24" height="24" viewBox="0 0 24 24"  xmlns="http://www.w3.org/2000/svg">
<path d="M9.00426 13.25C9.69461 13.25 10.2543 12.6904 10.2543 12C10.2543 11.3096 9.69461 10.75 9.00426 10.75C8.3139 10.75 7.75426 11.3096 7.75426 12C7.75426 12.6904 8.3139 13.25 9.00426 13.25Z" />
<path d="M15.0043 13.25C15.6946 13.25 16.2543 12.6904 16.2543 12C16.2543 11.3096 15.6946 10.75 15.0043 10.75C14.3139 10.75 13.7543 11.3096 13.7543 12C13.7543 12.6904 14.3139 13.25 15.0043 13.25Z" />
<path d="M22.9143 10.96C22.3943 5.32 17.6643 1 12.0043 1C6.34426 1 1.61426 5.32 1.09426 10.96L0.194258 20.82C0.0942584 21.99 1.01426 23 2.19426 23H21.8143C22.9943 23 23.9143 21.99 23.8043 20.82L22.9143 10.96ZM13.0043 3.07C15.2643 3.35 17.2243 4.58 18.4943 6.35C17.9143 6.75 17.2343 7 16.5043 7C14.5743 7 13.0043 5.43 13.0043 3.5V3.07ZM11.0043 3.07V3.5C11.0043 5.43 9.43426 7 7.50426 7C6.77426 7 6.09426 6.75 5.51426 6.35C6.78426 4.58 8.74426 3.35 11.0043 3.07ZM4.54426 8.13C5.41426 8.68 6.43426 9 7.50426 9C9.36426 9 11.0043 8.07 12.0043 6.65C13.0043 8.07 14.6443 9 16.5043 9C17.5743 9 18.5943 8.68 19.4643 8.13C19.8043 9.02 20.0043 9.99 20.0043 11C20.0043 15.41 16.4143 19 12.0043 19C7.59426 19 4.00426 15.41 4.00426 11C4.00426 9.99 4.20426 9.02 4.54426 8.13ZM12.0043 21H2.19426L2.75426 14.8C4.25426 18.44 7.82426 21 12.0043 21C16.1843 21 19.7543 18.44 21.2543 14.8L21.8143 21H12.0043Z" />
</svg>
