<svg width="24" height="24" viewBox="0 0 24 24"  xmlns="http://www.w3.org/2000/svg">
<path d="M21.8588 4.20211L20.4488 3.55211L19.7988 2.14211C19.6188 1.75211 19.0688 1.75211 18.8888 2.14211L18.2488 3.55211L16.8388 4.20211C16.4488 4.38211 16.4488 4.93211 16.8388 5.11211L18.2488 5.75211L18.8988 7.16211C19.0788 7.55211 19.6288 7.55211 19.8088 7.16211L20.4488 5.75211L21.8588 5.10211C22.2488 4.93211 22.2488 4.37211 21.8588 4.20211Z" />
<path d="M8.84875 14.4021C9.53911 14.4021 10.0988 13.8425 10.0988 13.1521C10.0988 12.4618 9.53911 11.9021 8.84875 11.9021C8.1584 11.9021 7.59875 12.4618 7.59875 13.1521C7.59875 13.8425 8.1584 14.4021 8.84875 14.4021Z" />
<path d="M14.8488 14.4021C15.5391 14.4021 16.0988 13.8425 16.0988 13.1521C16.0988 12.4618 15.5391 11.9021 14.8488 11.9021C14.1584 11.9021 13.5988 12.4618 13.5988 13.1521C13.5988 13.8425 14.1584 14.4021 14.8488 14.4021Z" />
<path d="M19.3488 8.95211C18.5688 8.95211 17.8588 8.49211 17.5288 7.78211L17.1188 6.88211L16.2188 6.47211C15.5088 6.14211 15.0488 5.43211 15.0488 4.65211C15.0488 3.99211 15.3888 3.39211 15.9188 3.02211C14.6788 2.47211 13.2988 2.15211 11.8488 2.15211C6.32875 2.15211 1.84875 6.63211 1.84875 12.1521C1.84875 17.6721 6.32875 22.1521 11.8488 22.1521C17.3688 22.1521 21.8488 17.6721 21.8488 12.1521C21.8488 10.7021 21.5288 9.32211 20.9788 8.08211C20.6088 8.61211 20.0088 8.95211 19.3488 8.95211ZM11.8488 20.1521C7.43876 20.1521 3.84875 16.5621 3.84875 12.1521C3.84875 12.1021 3.85875 12.0521 3.84875 12.0121C6.44875 11.0321 8.53875 9.02211 9.58875 6.46211C11.4288 8.71211 14.2188 10.1521 17.3488 10.1521C18.0988 10.1521 18.8188 10.0621 19.5188 9.91211C19.7288 10.6221 19.8488 11.3721 19.8488 12.1521C19.8488 16.5621 16.2588 20.1521 11.8488 20.1521Z" />
</svg>
