<svg width="24" height="24" viewBox="0 0 24 24"  xmlns="http://www.w3.org/2000/svg">
<path d="M9.05495 14.1953C9.7453 14.1953 10.3049 13.6357 10.3049 12.9453C10.3049 12.255 9.7453 11.6953 9.05495 11.6953C8.36459 11.6953 7.80495 12.255 7.80495 12.9453C7.80495 13.6357 8.36459 14.1953 9.05495 14.1953Z" />
<path d="M17.5549 9.94531C18.3049 9.94531 19.0249 9.85531 19.7249 9.70531C19.9349 10.4153 20.0549 11.1653 20.0549 11.9453C20.0549 13.1653 19.7749 14.3153 19.2849 15.3453L20.7749 16.8353C21.5849 15.3853 22.0549 13.7253 22.0549 11.9453C22.0549 6.42531 17.5749 1.94531 12.0549 1.94531C10.2749 1.94531 8.61495 2.41531 7.16495 3.22531L12.4949 8.55531C13.9849 9.43531 15.7049 9.94531 17.5549 9.94531Z" />
<path d="M1.94495 3.66531L4.13495 5.85531C2.83495 7.54531 2.05495 9.65531 2.05495 11.9453C2.05495 17.4653 6.53495 21.9453 12.0549 21.9453C14.3449 21.9453 16.4549 21.1653 18.1449 19.8653L20.3349 22.0553L21.7449 20.6453L3.36495 2.25531L1.94495 3.66531ZM16.7149 18.4353C15.4049 19.3853 13.7949 19.9453 12.0549 19.9453C7.64495 19.9453 4.05495 16.3553 4.05495 11.9453C4.05495 11.8953 4.06495 11.8453 4.05495 11.8053C5.44495 11.2853 6.68495 10.4553 7.69495 9.41531L16.7149 18.4353Z" />
</svg>
