<svg width="24" height="24" viewBox="0 0 24 24"  xmlns="http://www.w3.org/2000/svg">
<path d="M9.0007 14.248C9.69105 14.248 10.2507 13.6884 10.2507 12.998C10.2507 12.3077 9.69105 11.748 9.0007 11.748C8.31034 11.748 7.7507 12.3077 7.7507 12.998C7.7507 13.6884 8.31034 14.248 9.0007 14.248Z" />
<path d="M17.5007 9.99805C18.2507 9.99805 18.9707 9.90805 19.6707 9.75805C19.8807 10.468 20.0007 11.218 20.0007 11.998C20.0007 13.218 19.7207 14.368 19.2307 15.398L20.7207 16.888C21.5307 15.438 22.0007 13.778 22.0007 11.998C22.0007 6.47805 17.5207 1.99805 12.0007 1.99805C10.2207 1.99805 8.5607 2.46805 7.1107 3.27805L12.4407 8.60805C13.9307 9.48805 15.6507 9.99805 17.5007 9.99805Z" />
<path d="M2.6007 4.42805L4.0807 5.90805C2.5107 7.94805 1.7007 10.598 2.1007 13.458C2.7207 17.788 6.2107 21.278 10.5407 21.898C13.3907 22.308 16.0507 21.488 18.0907 19.918L19.5707 21.398C19.9607 21.788 20.5907 21.788 20.9807 21.398C21.3707 21.008 21.3707 20.378 20.9807 19.988L4.0107 3.00805C3.6207 2.61805 2.9907 2.61805 2.6007 3.00805C2.2107 3.40805 2.2107 4.03805 2.6007 4.42805ZM16.6607 18.488C15.3507 19.438 13.7407 19.998 12.0007 19.998C7.5907 19.998 4.0007 16.408 4.0007 11.998C4.0007 11.948 4.0107 11.898 4.0007 11.858C5.3907 11.338 6.6307 10.508 7.6407 9.46805L16.6607 18.488Z" />
</svg>
