<svg width="24" height="24" viewBox="0 0 24 24"  xmlns="http://www.w3.org/2000/svg">
<path d="M9.70568 5.57332V3.40332C9.70568 2.85332 10.1557 2.40332 10.7057 2.40332H14.7057C15.2557 2.40332 15.7057 2.85332 15.7057 3.40332V8.40332H17.2957C18.1857 8.40332 18.6257 9.48332 17.9957 10.1133L16.1157 11.9933L9.70568 5.57332ZM21.1957 19.8933L4.21568 2.91332C3.82568 2.52332 3.19568 2.52332 2.80568 2.91332C2.41568 3.30332 2.41568 3.93332 2.80568 4.32332L7.30568 8.82332C7.04568 9.19332 7.02568 9.73332 7.40568 10.1033L11.9957 14.6933C12.3457 15.0433 12.8757 15.0633 13.2657 14.7833L15.8757 17.4033H6.70568C6.15568 17.4033 5.70568 17.8533 5.70568 18.4033C5.70568 18.9533 6.15568 19.4033 6.70568 19.4033H17.8757L19.7757 21.3033C20.1657 21.6933 20.7957 21.6933 21.1857 21.3033C21.5857 20.9133 21.5857 20.2833 21.1957 19.8933Z" />
</svg>
