<svg width="24" height="24" viewBox="0 0 24 24"  xmlns="http://www.w3.org/2000/svg">
<path opacity="0.3" d="M18.69 7.60914C17.99 7.60914 17.3 7.79914 16.69 8.14914C16.53 8.23914 16.37 8.35914 16.15 8.51914L15.02 9.41914C15.33 9.77914 15.58 10.1991 15.74 10.6591L17.12 10.1391C17.34 10.0591 17.53 9.96914 17.7 9.86914C18.54 9.37914 19.17 8.59914 19.48 7.68914C19.22 7.62914 18.96 7.60914 18.69 7.60914ZM17.13 13.8691L15.75 13.3491C15.59 13.7991 15.35 14.1991 15.05 14.5591L16.2 15.5191C16.35 15.6391 16.51 15.7591 16.69 15.8591C17.3 16.2091 17.99 16.3991 18.68 16.3991C18.95 16.3991 19.21 16.3691 19.48 16.3191C19.17 15.4091 18.54 14.6291 17.7 14.1391C17.54 14.0391 17.35 13.9491 17.13 13.8691ZM11 5.99914C11 6.18914 11.02 6.40914 11.05 6.62914L11.28 8.06914C11.52 8.02914 11.76 7.99914 12 7.99914C12.24 7.99914 12.48 8.02914 12.71 8.06914L12.94 6.62914C12.98 6.40914 13 6.18914 13 5.99914C13 5.01914 12.63 4.08914 12 3.36914C11.37 4.08914 11 5.01914 11 5.99914ZM12.71 15.9291C12.48 15.9691 12.24 15.9991 12 15.9991C11.75 15.9991 11.51 15.9691 11.28 15.9291L11.06 17.3491C11.02 17.5891 11 17.7991 11 17.9991C11 18.9791 11.37 19.9091 12 20.6291C12.63 19.9091 13 18.9691 13 17.9991C13 17.8091 12.98 17.5891 12.95 17.3691L12.71 15.9291ZM6.87 10.1191L8.25 10.6391C8.41 10.1991 8.65 9.78914 8.95 9.43914L7.8 8.48914C7.63 8.33914 7.46 8.21914 7.31 8.13914C6.69 7.77914 6.01 7.59914 5.31 7.59914C5.04 7.59914 4.77 7.62914 4.5 7.67914C4.8 8.58914 5.43 9.35914 6.29 9.85914C6.46 9.94914 6.65 10.0391 6.87 10.1191ZM6.87 13.8591C6.65 13.9391 6.46 14.0291 6.29 14.1291C5.45 14.6191 4.82 15.3991 4.51 16.3091C4.77 16.3591 5.03 16.3891 5.3 16.3891C6 16.3891 6.69 16.1991 7.3 15.8491C7.46 15.7591 7.62 15.6391 7.84 15.4791L8.97 14.5891C8.66 14.2291 8.41 13.8091 8.25 13.3491L6.87 13.8591Z" />
<path d="M18.7001 12.4005C18.42 12.2405 18.13 12.1105 17.84 12.0005C18.13 11.8905 18.42 11.7605 18.7001 11.6005C20.6201 10.4905 21.6901 8.48055 21.7001 6.41055C20.7901 5.89055 19.75 5.61055 18.6901 5.61055C17.67 5.61055 16.64 5.87055 15.7 6.41055C15.42 6.57055 15.16 6.76055 14.92 6.95055C14.97 6.64055 15 6.32055 15 6.00055C15 3.78055 13.79 1.85055 12 0.810547C10.21 1.85055 9.00005 3.78055 9.00005 6.00055C9.00005 6.32055 9.03005 6.64055 9.08005 6.95055C8.84005 6.75055 8.58005 6.56055 8.30005 6.40055C7.36005 5.86055 6.33005 5.60055 5.31005 5.60055C4.26005 5.60055 3.21005 5.88055 2.30005 6.40055C2.30005 8.47055 3.37005 10.4805 5.30005 11.5905C5.58005 11.7505 5.87005 11.8805 6.16005 11.9905C5.87005 12.1005 5.58005 12.2305 5.30005 12.3905C3.38005 13.5005 2.31005 15.5105 2.30005 17.5805C3.21005 18.1005 4.25005 18.3805 5.31005 18.3805C6.33005 18.3805 7.36005 18.1205 8.30005 17.5805C8.58005 17.4205 8.84005 17.2305 9.08005 17.0405C9.03005 17.3605 9.00005 17.6805 9.00005 18.0005C9.00005 20.2205 10.21 22.1505 12 23.1905C13.79 22.1505 15 20.2205 15 18.0005C15 17.6805 14.97 17.3605 14.92 17.0505C15.16 17.2505 15.42 17.4305 15.7 17.5905C16.64 18.1305 17.67 18.3905 18.6901 18.3905C19.74 18.3905 20.7901 18.1105 21.7001 17.5905C21.6901 15.5205 20.6201 13.5105 18.7001 12.4005ZM4.51005 7.68055C4.77005 7.62055 5.04005 7.60055 5.31005 7.60055C6.00005 7.60055 6.69005 7.78055 7.30005 8.14055C7.45005 8.23055 7.62005 8.34055 7.79005 8.49055L8.94005 9.45055C8.64005 9.81055 8.41005 10.2105 8.24005 10.6505L6.86005 10.1305C6.65005 10.0405 6.46005 9.95055 6.30005 9.86055C5.43005 9.36055 4.81005 8.59055 4.51005 7.68055ZM7.84005 15.4705C7.63005 15.6405 7.46005 15.7605 7.30005 15.8405C6.69005 16.1905 6.00005 16.3805 5.30005 16.3805C5.03005 16.3805 4.77005 16.3505 4.51005 16.3005C4.82005 15.3905 5.45005 14.6105 6.29005 14.1205C6.46005 14.0205 6.65005 13.9405 6.87005 13.8505L8.25005 13.3305C8.41005 13.7905 8.66005 14.2105 8.97005 14.5705L7.84005 15.4705ZM12 3.37055C12.63 4.09055 13 5.03055 13 6.00055C13 6.19055 12.98 6.41055 12.95 6.63055L12.72 8.07055C12.48 8.03055 12.24 8.00055 12 8.00055C11.76 8.00055 11.52 8.03055 11.29 8.07055L11.06 6.63055C11.02 6.41055 11 6.19055 11 6.00055C11 5.02055 11.37 4.09055 12 3.37055ZM12 20.6305C11.37 19.9105 11 18.9705 11 18.0005C11 17.8005 11.02 17.5905 11.06 17.3505L11.28 15.9305C11.51 15.9705 11.75 16.0005 12 16.0005C12.24 16.0005 12.48 15.9705 12.71 15.9305L12.94 17.3705C12.98 17.5905 13 17.8105 13 18.0005C13 18.9805 12.63 19.9105 12 20.6305ZM12 14.0005C10.9 14.0005 10 13.1005 10 12.0005C10 10.9005 10.9 10.0005 12 10.0005C13.1 10.0005 14 10.9005 14 12.0005C14 13.1005 13.1 14.0005 12 14.0005ZM16.16 8.52055C16.37 8.35055 16.54 8.23055 16.7 8.15055C17.31 7.80055 18.0001 7.61055 18.7001 7.61055C18.9701 7.61055 19.23 7.64055 19.49 7.69055C19.18 8.60055 18.55 9.38055 17.71 9.87055C17.54 9.97055 17.35 10.0505 17.13 10.1405L15.75 10.6605C15.58 10.2005 15.34 9.79055 15.03 9.42055L16.16 8.52055ZM18.6901 16.3905C18.0001 16.3905 17.31 16.2105 16.7 15.8505C16.52 15.7505 16.36 15.6305 16.21 15.5105L15.06 14.5505C15.36 14.1905 15.6 13.7905 15.76 13.3405L17.14 13.8605C17.36 13.9405 17.55 14.0305 17.71 14.1205C18.56 14.6105 19.18 15.3905 19.49 16.3005C19.22 16.3705 18.9501 16.3905 18.6901 16.3905Z" />
</svg>
