<svg width="24" height="24" viewBox="0 0 24 24"  xmlns="http://www.w3.org/2000/svg">
<path d="M11 3.23083C11 2.59083 10.41 2.10083 9.78998 2.24083C8.66998 2.50083 7.60998 2.94083 6.66998 3.54083C6.13998 3.88083 6.05998 4.64083 6.50998 5.09083C6.82998 5.41083 7.33998 5.49083 7.71998 5.25083C8.48998 4.76083 9.33998 4.40083 10.26 4.20083C10.7 4.10083 11 3.69083 11 3.23083ZM17.33 3.55083C16.39 2.95083 15.33 2.51083 14.21 2.25083C13.59 2.11083 13 2.59083 13 3.23083C13 3.68083 13.3 4.10083 13.74 4.19083C14.65 4.39083 15.51 4.76083 16.27 5.24083C16.66 5.48083 17.16 5.41083 17.48 5.08083C17.94 4.64083 17.87 3.89083 17.33 3.55083ZM20.77 11.0008C21.41 11.0008 21.9 10.4108 21.76 9.79083C21.5 8.67083 21.06 7.61083 20.46 6.67083C20.12 6.14083 19.36 6.06083 18.91 6.51083C18.59 6.83083 18.51 7.34083 18.75 7.72083C19.24 8.49083 19.6 9.34083 19.8 10.2508C19.9 10.7008 20.31 11.0008 20.77 11.0008ZM5.09998 6.51083C4.63998 6.06083 3.88998 6.13083 3.54998 6.67083C2.94998 7.61083 2.50998 8.67083 2.24998 9.79083C2.10998 10.4108 2.58998 11.0008 3.22998 11.0008C3.67998 11.0008 4.09998 10.7008 4.18998 10.2608C4.38998 9.35083 4.75998 8.49083 5.23998 7.73083C5.49998 7.34083 5.41998 6.83083 5.09998 6.51083ZM3.22998 13.0008C2.58998 13.0008 2.09998 13.5908 2.23998 14.2108C2.49998 15.3308 2.93998 16.3808 3.53998 17.3308C3.87998 17.8708 4.63998 17.9408 5.08998 17.4908C5.40998 17.1708 5.48998 16.6608 5.23998 16.2808C4.74998 15.5208 4.38998 14.6708 4.18998 13.7508C4.09998 13.3008 3.68998 13.0008 3.22998 13.0008ZM15 12.0008C15 10.3408 13.66 9.00083 12 9.00083C10.34 9.00083 8.99998 10.3408 8.99998 12.0008C8.99998 13.6608 10.34 15.0008 12 15.0008C13.66 15.0008 15 13.6608 15 12.0008ZM18.9 17.4908C19.35 17.9408 20.11 17.8708 20.45 17.3408C21.05 16.4008 21.49 15.3408 21.75 14.2308C21.89 13.6108 21.4 13.0208 20.77 13.0208C20.32 13.0208 19.9 13.3208 19.81 13.7608C19.61 14.6708 19.24 15.5208 18.76 16.2908C18.5 16.6608 18.58 17.1708 18.9 17.4908ZM13 20.7708C13 21.4108 13.59 21.9008 14.21 21.7608C15.33 21.5008 16.38 21.0608 17.33 20.4608C17.87 20.1208 17.94 19.3608 17.49 18.9108C17.17 18.5908 16.66 18.5108 16.28 18.7608C15.52 19.2508 14.67 19.6108 13.75 19.8108C13.3 19.9008 13 20.3108 13 20.7708ZM6.66998 20.4508C7.61998 21.0508 8.66998 21.4908 9.78998 21.7508C10.41 21.8908 11 21.4008 11 20.7708C11 20.3208 10.7 19.9008 10.26 19.8108C9.34998 19.6108 8.48998 19.2408 7.72998 18.7608C7.33998 18.5208 6.83998 18.5908 6.51998 18.9208C6.05998 19.3608 6.12998 20.1108 6.66998 20.4508Z" />
</svg>
