<svg width="24" height="24" viewBox="0 0 24 24"  xmlns="http://www.w3.org/2000/svg">
<path d="M18.7001 12.4005C18.42 12.2405 18.13 12.1105 17.84 12.0005C18.13 11.8905 18.42 11.7605 18.7001 11.6005C20.6201 10.4905 21.6901 8.48055 21.7001 6.41055C19.91 5.38055 17.63 5.30055 15.7 6.41055C15.42 6.57055 15.16 6.76055 14.92 6.95055C14.97 6.64055 15 6.32055 15 6.00055C15 3.78055 13.79 1.85055 12 0.810547C10.21 1.85055 9.00005 3.78055 9.00005 6.00055C9.00005 6.32055 9.03005 6.64055 9.08005 6.95055C8.84005 6.75055 8.58005 6.56055 8.30005 6.40055C6.38005 5.29055 4.10005 5.37055 2.30005 6.40055C2.30005 8.47055 3.37005 10.4805 5.30005 11.5905C5.58005 11.7505 5.87005 11.8805 6.16005 11.9905C5.87005 12.1005 5.58005 12.2305 5.30005 12.3905C3.38005 13.5005 2.31005 15.5105 2.30005 17.5805C4.09005 18.6105 6.37005 18.6905 8.30005 17.5805C8.58005 17.4205 8.84005 17.2305 9.08005 17.0405C9.03005 17.3605 9.00005 17.6805 9.00005 18.0005C9.00005 20.2205 10.21 22.1505 12 23.1905C13.79 22.1505 15 20.2205 15 18.0005C15 17.6805 14.97 17.3605 14.92 17.0505C15.16 17.2505 15.42 17.4305 15.7 17.5905C17.62 18.7005 19.9001 18.6205 21.7001 17.5905C21.6901 15.5205 20.6201 13.5105 18.7001 12.4005ZM12 16.0005C9.79005 16.0005 8.00005 14.2105 8.00005 12.0005C8.00005 9.79055 9.79005 8.00055 12 8.00055C14.21 8.00055 16 9.79055 16 12.0005C16 14.2105 14.21 16.0005 12 16.0005Z" />
</svg>
