<svg width="24" height="24" viewBox="0 0 24 24"  xmlns="http://www.w3.org/2000/svg">
<path d="M18.7001 12.4005C18.42 12.2405 18.13 12.1105 17.84 12.0005C18.13 11.8905 18.42 11.7605 18.7001 11.6005C20.6201 10.4905 21.6901 8.48055 21.7001 6.41055C20.7901 5.89055 19.75 5.61055 18.6901 5.61055C17.67 5.61055 16.64 5.87055 15.7 6.41055C15.42 6.57055 15.16 6.76055 14.92 6.95055C14.97 6.64055 15 6.32055 15 6.00055C15 3.78055 13.79 1.85055 12 0.810547C10.21 1.85055 9.00005 3.78055 9.00005 6.00055C9.00005 6.32055 9.03005 6.64055 9.08005 6.95055C8.84005 6.75055 8.58005 6.56055 8.30005 6.40055C7.36005 5.86055 6.33005 5.60055 5.31005 5.60055C4.26005 5.60055 3.21005 5.88055 2.30005 6.40055C2.30005 8.47055 3.37005 10.4805 5.30005 11.5905C5.58005 11.7505 5.87005 11.8805 6.16005 11.9905C5.87005 12.1005 5.58005 12.2305 5.30005 12.3905C3.38005 13.5005 2.31005 15.5105 2.30005 17.5805C3.21005 18.1005 4.25005 18.3805 5.31005 18.3805C6.33005 18.3805 7.36005 18.1205 8.30005 17.5805C8.58005 17.4205 8.84005 17.2305 9.08005 17.0405C9.03005 17.3605 9.00005 17.6805 9.00005 18.0005C9.00005 20.2205 10.21 22.1505 12 23.1905C13.79 22.1505 15 20.2205 15 18.0005C15 17.6805 14.97 17.3605 14.92 17.0505C15.16 17.2505 15.42 17.4305 15.7 17.5905C16.64 18.1305 17.67 18.3905 18.6901 18.3905C19.74 18.3905 20.7901 18.1105 21.7001 17.5905C21.6901 15.5205 20.6201 13.5105 18.7001 12.4005ZM16.16 8.52055C16.37 8.35055 16.54 8.23055 16.7 8.15055C17.31 7.80055 18.0001 7.61055 18.7001 7.61055C18.9701 7.61055 19.23 7.64055 19.49 7.69055C19.18 8.60055 18.55 9.38055 17.71 9.87055C17.54 9.97055 17.35 10.0505 17.13 10.1405L15.75 10.6605C15.58 10.2005 15.34 9.79055 15.03 9.42055L16.16 8.52055ZM12 3.37055C12.63 4.09055 13 5.03055 13 6.00055C13 6.19055 12.98 6.41055 12.95 6.63055L12.72 8.07055C12.48 8.03055 12.24 8.00055 12 8.00055C11.76 8.00055 11.52 8.03055 11.29 8.07055L11.06 6.63055C11.02 6.41055 11 6.19055 11 6.00055C11 5.02055 11.37 4.09055 12 3.37055ZM4.51005 7.68055C4.77005 7.62055 5.04005 7.60055 5.31005 7.60055C6.00005 7.60055 6.69005 7.78055 7.30005 8.14055C7.45005 8.23055 7.62005 8.34055 7.79005 8.49055L8.94005 9.45055C8.64005 9.81055 8.41005 10.2105 8.24005 10.6505L6.86005 10.1305C6.65005 10.0405 6.46005 9.95055 6.30005 9.86055C5.43005 9.36055 4.81005 8.59055 4.51005 7.68055ZM7.84005 15.4705C7.63005 15.6405 7.46005 15.7605 7.30005 15.8405C6.69005 16.1905 6.00005 16.3805 5.30005 16.3805C5.03005 16.3805 4.77005 16.3505 4.51005 16.3005C4.82005 15.3905 5.45005 14.6105 6.29005 14.1205C6.46005 14.0205 6.65005 13.9405 6.87005 13.8505L8.25005 13.3305C8.41005 13.7905 8.66005 14.2105 8.97005 14.5705L7.84005 15.4705ZM12 20.6305C11.37 19.9105 11 18.9705 11 18.0005C11 17.8005 11.02 17.5905 11.06 17.3505L11.28 15.9305C11.51 15.9705 11.75 16.0005 12 16.0005C12.24 16.0005 12.48 15.9705 12.71 15.9305L12.94 17.3705C12.98 17.5905 13 17.8105 13 18.0005C13 18.9805 12.63 19.9105 12 20.6305ZM18.6901 16.3905C18.0001 16.3905 17.31 16.2105 16.7 15.8505C16.52 15.7505 16.36 15.6305 16.21 15.5105L15.06 14.5505C15.36 14.1905 15.6 13.7905 15.76 13.3405L17.14 13.8605C17.36 13.9405 17.55 14.0305 17.71 14.1205C18.56 14.6105 19.18 15.3905 19.49 16.3005C19.22 16.3705 18.9501 16.3905 18.6901 16.3905Z" />
</svg>
