<svg width="24" height="24" viewBox="0 0 24 24"  xmlns="http://www.w3.org/2000/svg">
<path d="M13 2.05078V4.07078C14.46 4.25078 15.79 4.83078 16.9 5.69078L18.32 4.26078C16.84 3.05078 15.01 2.25078 13 2.05078ZM13 19.9308V21.9508C15.01 21.7508 16.84 20.9508 18.32 19.7408L16.89 18.3108C15.79 19.1708 14.46 19.7508 13 19.9308ZM4.26005 18.3208L5.69005 16.8908C4.83005 15.7908 4.25005 14.4608 4.07005 13.0008H2.05005C2.25005 15.0108 3.05005 16.8408 4.26005 18.3208ZM2.05005 11.0008H4.07005C4.25005 9.54078 4.83005 8.21078 5.69005 7.10078L4.26005 5.68078C3.05005 7.16078 2.25005 8.99078 2.05005 11.0008ZM18.31 7.10078C19.17 8.21078 19.75 9.54078 19.93 11.0008H21.9501C21.75 8.99078 20.9501 7.16078 19.74 5.68078L18.31 7.10078ZM7.10005 5.69078C8.21005 4.83078 9.54005 4.25078 11 4.07078V2.05078C8.99005 2.25078 7.16005 3.05078 5.68005 4.26078L7.10005 5.69078ZM5.68005 19.7408C7.16005 20.9508 9.00005 21.7508 11 21.9508V19.9308C9.54005 19.7508 8.21005 19.1708 7.10005 18.3108L5.68005 19.7408ZM21.9501 13.0108H19.93C19.75 14.4608 19.17 15.7908 18.31 16.9008L19.74 18.3308C20.9501 16.8508 21.75 15.0108 21.9501 13.0108ZM9.00005 12.0008C9.00005 13.6608 10.34 15.0008 12 15.0008C13.66 15.0008 15 13.6608 15 12.0008C15 10.3408 13.66 9.00078 12 9.00078C10.34 9.00078 9.00005 10.3408 9.00005 12.0008Z" />
</svg>
