<svg width="24" height="24" viewBox="0 0 24 24"  xmlns="http://www.w3.org/2000/svg">
<path d="M18.71 4.90332V3.90332C18.71 2.80332 17.81 1.90332 16.71 1.90332H8.70996C7.84996 1.90332 7.12996 2.44332 6.83996 3.20332L8.53996 4.90332H18.71Z" />
<path d="M16.71 10.9033L18.71 7.90332V6.90332H10.54L16.71 13.0733V10.9033Z" />
<path d="M2.80996 3.41332C2.41996 3.80332 2.41996 4.43332 2.80996 4.82332L8.70996 10.7233V19.9033C8.70996 21.0033 9.60996 21.9033 10.71 21.9033H14.71C15.81 21.9033 16.71 21.0033 16.71 19.9033V18.7333L19.78 21.8033C20.17 22.1933 20.8 22.1933 21.19 21.8033C21.58 21.4133 21.58 20.7833 21.19 20.3933L4.21996 3.41332C3.82996 3.02332 3.19996 3.02332 2.80996 3.41332Z" />
</svg>
