<svg width="24" height="24" viewBox="0 0 24 24"  xmlns="http://www.w3.org/2000/svg">
<path d="M2.58807 3.17578V13.1758C2.58807 13.7258 3.03807 14.1758 3.58807 14.1758H5.58807V21.3258C5.58807 21.8358 6.25807 22.0158 6.51807 21.5758L11.7081 12.6758C12.0981 12.0058 11.6181 11.1758 10.8481 11.1758H8.58807L11.9681 3.58578C12.2581 2.91578 11.7681 2.17578 11.0481 2.17578H3.58807C3.03807 2.17578 2.58807 2.62578 2.58807 3.17578ZM17.5881 2.17578C16.9881 2.17578 16.4581 2.55578 16.2481 3.11578L13.8081 9.97578C13.6081 10.5658 14.0381 11.1758 14.6581 11.1758C15.0381 11.1758 15.3781 10.9358 15.4981 10.5758L15.9881 9.17578H19.1881L19.6781 10.5758C19.8081 10.9358 20.1381 11.1758 20.5181 11.1758C21.1381 11.1758 21.5681 10.5658 21.3581 9.98578L18.9181 3.12578C18.7181 2.55578 18.1881 2.17578 17.5881 2.17578ZM16.4381 7.82578L17.5881 4.17578L18.7381 7.82578H16.4381Z" />
</svg>
