<svg width="24" height="24" viewBox="0 0 24 24"  xmlns="http://www.w3.org/2000/svg">
<path d="M17.5456 12.1758C17.9356 11.5058 17.4556 10.6758 16.6856 10.6758H14.8156L17.0956 12.9558L17.5456 12.1758ZM17.7056 4.12578C18.0356 3.45578 17.5556 2.67578 16.8056 2.67578H9.42561C8.87561 2.67578 8.42561 3.12578 8.42561 3.67578V4.28578L14.5556 10.4158L17.7056 4.12578ZM19.8656 18.5558L5.54561 4.23578C5.15561 3.84578 4.52561 3.84578 4.13561 4.23578C3.74561 4.62578 3.74561 5.25578 4.13561 5.64578L8.42561 9.94578V12.6758C8.42561 13.2258 8.87561 13.6758 9.42561 13.6758H11.4256V20.8258C11.4256 21.3358 12.0956 21.5158 12.3556 21.0758L15.0056 16.5258L18.4456 19.9658C18.8356 20.3558 19.4656 20.3558 19.8556 19.9658C20.2556 19.5758 20.2556 18.9458 19.8656 18.5558Z" />
</svg>
