<svg width="24" height="24" viewBox="0 0 24 24"  xmlns="http://www.w3.org/2000/svg">
<path d="M18.67 18.8113C16.72 18.8113 16.58 19.8113 15.34 19.8113C14.15 19.8113 13.92 18.8113 12.01 18.8113C10.06 18.8113 9.91 19.8113 8.67 19.8113C7.43 19.8113 7.29 18.8113 5.34 18.8113C3.8 18.8113 3.38 19.4313 2.67 19.6913C2.27 19.8413 2 20.2113 2 20.6413C2 21.3513 2.72 21.8313 3.38 21.5813C4.15 21.2913 4.49 20.8113 5.34 20.8113C6.58 20.8113 6.72 21.8113 8.67 21.8113C10.62 21.8113 10.77 20.8113 12.01 20.8113C13.23 20.8113 13.41 21.8113 15.34 21.8113C17.27 21.8113 17.44 20.8113 18.67 20.8113C19.51 20.8113 19.85 21.2813 20.62 21.5813C21.28 21.8413 22 21.3513 22 20.6413V20.6313C22 20.2113 21.73 19.8313 21.33 19.6913C20.62 19.4313 20.21 18.8113 18.67 18.8113Z" />
<path d="M8.68 17.3113C10.63 17.3113 10.77 16.3113 12.01 16.3113C13.2 16.3113 13.43 17.3113 15.34 17.3113C17.29 17.3113 17.43 16.3113 18.67 16.3113C19.49 16.3113 19.84 16.7713 20.6 17.0713C21.26 17.3313 21.98 16.8413 21.98 16.1313C21.98 15.7113 21.72 15.3413 21.33 15.1913C21.04 15.0813 20.79 14.9213 20.5 14.7613L18.48 7.23129L19.65 7.70129C20.16 7.91129 20.74 7.66129 20.94 7.15129C21.15 6.64129 20.89 6.05129 20.37 5.86129L11.13 2.32129C10.32 2.01129 9.41 2.26129 8.86 2.93129L2.63 10.6313C2.28 11.0613 2.35 11.6913 2.79 12.0313C3.22 12.3713 3.85 12.2913 4.18 11.8613L4.96 10.8613L5.89 14.3413C5.71 14.3213 5.54 14.2913 5.33 14.2913C3.79 14.2913 3.38 14.9113 2.67 15.1713C2.27 15.3413 2 15.7213 2 16.1413C2 16.8413 2.69 17.3313 3.35 17.0913C4.15 16.8013 4.53 16.3113 5.35 16.3113C6.54 16.3113 6.77 17.3113 8.68 17.3113ZM14.04 9.99129L15.46 15.3013C14.12 15.3913 13.99 14.3113 11.99 14.3113C11.63 14.3113 11.34 14.3513 11.08 14.4113L10.17 11.0213L14.04 9.99129Z" />
</svg>
