<svg width="24" height="24" viewBox="0 0 24 24"  xmlns="http://www.w3.org/2000/svg">
<path d="M3.26058 2.10012C2.87058 1.71012 2.24058 1.71012 1.85058 2.10012C1.45058 2.49012 1.45058 3.12012 1.84058 3.51012L2.69058 4.36012C2.55058 4.64012 2.46058 4.95012 2.46058 5.29012L2.45058 17.2901C2.45058 18.3901 3.35058 19.2901 4.45058 19.2901H17.6206L20.2306 21.9001C20.6206 22.2901 21.2506 22.2901 21.6406 21.9001C22.0306 21.5101 22.0306 20.8801 21.6406 20.4901L3.26058 2.10012Z" />
<path d="M20.4506 5.29012H12.4506L11.0406 3.88012C10.6606 3.50012 10.1506 3.29012 9.62058 3.29012H7.28058L22.2106 18.2201C22.3606 17.9401 22.4506 17.6301 22.4506 17.2901V7.29012C22.4506 6.19012 21.5506 5.29012 20.4506 5.29012Z" />
</svg>
