<svg width="24" height="24" viewBox="0 0 24 24"  xmlns="http://www.w3.org/2000/svg">
<path d="M13.0312 9.29883L12.1612 8.42883L12.3912 7.76883H12.4912L13.0312 9.29883ZM10.8012 7.06883L11.0012 6.54883C11.2312 5.94883 11.8012 5.54883 12.4512 5.54883C13.1012 5.54883 13.6712 5.94883 13.9012 6.54883L16.0712 12.3388L22.4512 18.7188V3.54883C22.4512 2.44883 21.5512 1.54883 20.4512 1.54883H5.28124L10.8012 7.06883ZM21.6412 22.1588C21.2512 22.5488 20.6212 22.5488 20.2312 22.1588L19.6212 21.5488H4.45124C3.35124 21.5488 2.45124 20.6488 2.45124 19.5488V4.37883L1.84124 3.76883C1.45124 3.37883 1.45124 2.74883 1.84124 2.35883C2.23124 1.96883 2.86124 1.96883 3.25124 2.35883L21.6312 20.7388C22.0312 21.1288 22.0312 21.7688 21.6412 22.1588ZM12.5512 14.4788L9.25124 11.1788L7.35124 16.2488C7.12124 16.8788 7.58124 17.5488 8.25124 17.5488H8.26124C8.67124 17.5488 9.03124 17.2888 9.16124 16.9088L10.0212 14.4788H12.5512Z" />
</svg>
