<svg width="24" height="24" viewBox="0 0 24 24"  xmlns="http://www.w3.org/2000/svg">
<path d="M7.99998 19.7915C7.99998 20.3415 8.44998 20.7915 8.99998 20.7915C9.54998 20.7915 9.99998 20.3415 9.99998 19.7915V16.7915C10.73 14.2115 13.07 13.3215 15.17 13.7915L14.29 14.6715C13.9 15.0615 13.9 15.6915 14.29 16.0815C14.68 16.4715 15.31 16.4715 15.7 16.0815L18.29 13.4915C18.68 13.1015 18.68 12.4715 18.29 12.0815L15.7 9.49148C15.31 9.10148 14.68 9.10148 14.29 9.49148C13.9 9.88148 13.9 10.5115 14.29 10.9015L15.17 11.7915C13.66 11.4615 11.44 11.8715 9.99998 13.1515V6.62148L10.88 7.50148C11.27 7.89148 11.9 7.89148 12.29 7.50148C12.68 7.11148 12.68 6.48148 12.29 6.09148L9.69998 3.50148C9.30998 3.11148 8.67998 3.11148 8.28998 3.50148L5.70998 6.08148C5.31998 6.47148 5.31998 7.10148 5.70998 7.49148C6.09998 7.88148 6.72998 7.88148 7.11998 7.49148L7.99998 6.62148V19.7915Z" />
</svg>
