<svg width="24" height="24" viewBox="0 0 24 24"  xmlns="http://www.w3.org/2000/svg">
<path d="M15.995 19.7915C15.995 20.3415 15.545 20.7915 14.995 20.7915C14.445 20.7915 13.995 20.3415 13.995 19.7915V16.7915C13.265 14.2115 10.925 13.3215 8.82498 13.7915L9.70498 14.6715C10.095 15.0615 10.095 15.6915 9.70498 16.0815C9.31498 16.4715 8.68498 16.4715 8.29498 16.0815L5.70498 13.4915C5.31498 13.1015 5.31498 12.4715 5.70498 12.0815L8.29498 9.49148C8.68498 9.10148 9.31498 9.10148 9.70498 9.49148C10.095 9.88148 10.095 10.5115 9.70498 10.9015L8.82498 11.7915C10.335 11.4615 12.555 11.8715 13.995 13.1515V6.62148L13.115 7.50148C12.725 7.89148 12.095 7.89148 11.705 7.50148C11.315 7.11148 11.315 6.48148 11.705 6.09148L14.295 3.50148C14.685 3.11148 15.315 3.11148 15.705 3.50148L18.295 6.09148C18.685 6.48148 18.685 7.11148 18.295 7.50148C17.905 7.89148 17.275 7.89148 16.885 7.50148L15.995 6.62148V19.7915Z" />
</svg>
