<svg width="24" height="24" viewBox="0 0 24 24"  xmlns="http://www.w3.org/2000/svg">
<path d="M18.9533 13.6486C18.4533 13.6486 18.0433 14.0186 17.9733 14.5086C17.4933 17.8786 14.2033 20.3486 10.5533 19.4686C8.30332 18.9286 6.64332 17.1986 6.16332 14.9386C5.35332 11.0686 8.30332 7.64862 12.0333 7.64862V10.4386C12.0333 10.8886 12.5733 11.1086 12.8833 10.7886L16.6733 6.99862C16.8733 6.79862 16.8733 6.48862 16.6733 6.28862L12.8833 2.49862C12.5733 2.18862 12.0333 2.40862 12.0333 2.85862V5.64862C7.09332 5.64862 3.19332 10.1286 4.19332 15.2486C4.79332 18.3586 7.09332 20.7486 10.1833 21.4386C15.0133 22.5186 19.3333 19.2386 19.9533 14.7686C20.0433 14.1786 19.5533 13.6486 18.9533 13.6486ZM10.9333 16.6486V12.3786H10.8433L9.07332 13.0086V13.6986L10.0833 13.3886V16.6486H10.9333ZM14.3533 12.4286C14.1733 12.3586 13.9833 12.3286 13.7633 12.3286C13.5433 12.3286 13.3533 12.3586 13.1733 12.4286C12.9933 12.4986 12.8433 12.6086 12.7233 12.7586C12.6033 12.9086 12.4933 13.0986 12.4333 13.3286C12.3733 13.5586 12.3333 13.8286 12.3333 14.1486V14.8886C12.3333 15.2086 12.3733 15.4886 12.4433 15.7086C12.5133 15.9286 12.6133 16.1286 12.7433 16.2786C12.8733 16.4286 13.0233 16.5386 13.2033 16.6086C13.3833 16.6786 13.5733 16.7086 13.7933 16.7086C14.0133 16.7086 14.2033 16.6786 14.3833 16.6086C14.5633 16.5386 14.7133 16.4286 14.8333 16.2786C14.9533 16.1286 15.0533 15.9386 15.1233 15.7086C15.1933 15.4786 15.2233 15.2086 15.2233 14.8886V14.1486C15.2233 13.8286 15.1833 13.5486 15.1133 13.3286C15.0433 13.1086 14.9433 12.9086 14.8133 12.7586C14.6833 12.6086 14.5233 12.4986 14.3533 12.4286ZM14.3633 14.9986C14.3633 15.1886 14.3533 15.3486 14.3233 15.4786C14.2933 15.6086 14.2633 15.7186 14.2133 15.7986C14.1633 15.8786 14.1033 15.9386 14.0233 15.9686C13.9433 15.9986 13.8633 16.0186 13.7733 16.0186C13.6833 16.0186 13.5933 15.9986 13.5233 15.9686C13.4533 15.9386 13.3833 15.8786 13.3333 15.7986C13.2833 15.7186 13.2433 15.6086 13.2133 15.4786C13.1833 15.3486 13.1733 15.1886 13.1733 14.9986V14.0286C13.1733 13.8386 13.1833 13.6786 13.2133 13.5486C13.2433 13.4186 13.2733 13.3186 13.3333 13.2386C13.3933 13.1586 13.4433 13.0986 13.5233 13.0686C13.6033 13.0386 13.6833 13.0186 13.7733 13.0186C13.8633 13.0186 13.9533 13.0386 14.0233 13.0686C14.0933 13.0986 14.1633 13.1586 14.2133 13.2386C14.2633 13.3186 14.3033 13.4186 14.3333 13.5486C14.3633 13.6786 14.3733 13.8386 14.3733 14.0286V14.9986H14.3633Z" />
</svg>
