<svg width="24" height="24" viewBox="0 0 24 24"  xmlns="http://www.w3.org/2000/svg">
<path d="M18.9533 13.6486C18.4533 13.6486 18.0433 14.0186 17.9733 14.5086C17.4933 17.8786 14.2033 20.3486 10.5533 19.4686C8.30332 18.9286 6.64332 17.1986 6.16332 14.9386C5.35332 11.0686 8.30332 7.64862 12.0333 7.64862V10.4386C12.0333 10.8886 12.5733 11.1086 12.8833 10.7886L16.6733 6.99862C16.8733 6.79862 16.8733 6.48862 16.6733 6.28862L12.8833 2.49862C12.5733 2.18862 12.0333 2.40862 12.0333 2.85862V5.64862C7.09332 5.64862 3.19332 10.1286 4.19332 15.2486C4.79332 18.3586 7.09332 20.7486 10.1833 21.4386C15.0133 22.5186 19.3333 19.2386 19.9533 14.7686C20.0433 14.1786 19.5533 13.6486 18.9533 13.6486ZM10.5733 15.8686C10.5133 15.9186 10.4533 15.9586 10.3733 15.9886C10.2933 16.0186 10.2033 16.0286 10.1033 16.0286C10.0133 16.0286 9.93332 16.0186 9.85332 15.9886C9.77332 15.9586 9.71332 15.9286 9.65332 15.8786C9.59332 15.8286 9.55332 15.7786 9.52332 15.7086C9.49332 15.6386 9.47332 15.5686 9.47332 15.4886H8.62332C8.62332 15.6986 8.66332 15.8786 8.74332 16.0386C8.82332 16.1986 8.93332 16.3186 9.07332 16.4186C9.21332 16.5186 9.36332 16.5986 9.53332 16.6486C9.70332 16.6986 9.88332 16.7186 10.0633 16.7186C10.2733 16.7186 10.4733 16.6886 10.6633 16.6386C10.8533 16.5886 11.0033 16.4986 11.1433 16.3986C11.2833 16.2986 11.3833 16.1586 11.4633 16.0086C11.5433 15.8586 11.5833 15.6786 11.5833 15.4786C11.5833 15.2486 11.5233 15.0386 11.4033 14.8686C11.2833 14.6986 11.1033 14.5686 10.8633 14.4786C10.9633 14.4286 11.0633 14.3786 11.1433 14.3086C11.2233 14.2386 11.2933 14.1686 11.3433 14.0886C11.3933 14.0086 11.4433 13.9286 11.4733 13.8386C11.5033 13.7486 11.5133 13.6586 11.5133 13.5686C11.5133 13.3686 11.4733 13.1986 11.4033 13.0386C11.3333 12.8786 11.2333 12.7586 11.1033 12.6586C10.9733 12.5586 10.8233 12.4786 10.6433 12.4286C10.4633 12.3786 10.2733 12.3486 10.0533 12.3486C9.86332 12.3486 9.67332 12.3786 9.51332 12.4286C9.35332 12.4786 9.19332 12.5586 9.07332 12.6586C8.95332 12.7586 8.84332 12.8786 8.77332 13.0286C8.70332 13.1786 8.66332 13.3286 8.66332 13.5086H9.51332C9.51332 13.4386 9.53332 13.3686 9.56332 13.3086C9.59332 13.2486 9.63332 13.1986 9.68332 13.1586C9.73332 13.1186 9.79332 13.0886 9.86332 13.0586C9.93332 13.0286 10.0033 13.0286 10.0833 13.0286C10.1833 13.0286 10.2633 13.0386 10.3333 13.0686C10.4033 13.0986 10.4633 13.1286 10.5133 13.1786C10.5633 13.2286 10.5933 13.2886 10.6233 13.3486C10.6533 13.4086 10.6633 13.4886 10.6633 13.5686C10.6633 13.7486 10.6133 13.8886 10.5033 13.9986C10.3933 14.1086 10.2433 14.1586 10.0233 14.1586H9.59332V14.8186H10.0433C10.1533 14.8186 10.2433 14.8286 10.3333 14.8586C10.4233 14.8886 10.4933 14.9186 10.5533 14.9686C10.6133 15.0186 10.6633 15.0886 10.6933 15.1686C10.7233 15.2486 10.7433 15.3486 10.7433 15.4586C10.7433 15.5486 10.7333 15.6286 10.7033 15.6986C10.6733 15.7686 10.6233 15.8086 10.5733 15.8686ZM14.4733 12.4286C14.2933 12.3586 14.1033 12.3286 13.8833 12.3286C13.6633 12.3286 13.4733 12.3586 13.2933 12.4286C13.1133 12.4986 12.9633 12.6086 12.8433 12.7586C12.7233 12.9086 12.6133 13.0986 12.5533 13.3286C12.4933 13.5586 12.4533 13.8286 12.4533 14.1486V14.8886C12.4533 15.2086 12.4933 15.4886 12.5633 15.7086C12.6333 15.9286 12.7333 16.1286 12.8633 16.2786C12.9933 16.4286 13.1433 16.5386 13.3233 16.6086C13.5033 16.6786 13.6933 16.7086 13.9133 16.7086C14.1333 16.7086 14.3233 16.6786 14.5033 16.6086C14.6833 16.5386 14.8333 16.4286 14.9533 16.2786C15.0733 16.1286 15.1733 15.9386 15.2433 15.7086C15.3133 15.4786 15.3433 15.2086 15.3433 14.8886V14.1486C15.3433 13.8286 15.3033 13.5486 15.2333 13.3286C15.1633 13.1086 15.0633 12.9086 14.9333 12.7586C14.8033 12.6086 14.6533 12.4986 14.4733 12.4286ZM14.4833 14.9986C14.4833 15.1886 14.4733 15.3486 14.4433 15.4786C14.4133 15.6086 14.3833 15.7186 14.3333 15.7986C14.2833 15.8786 14.2233 15.9386 14.1433 15.9686C14.0633 15.9986 13.9833 16.0186 13.8933 16.0186C13.8033 16.0186 13.7133 15.9986 13.6433 15.9686C13.5733 15.9386 13.5033 15.8786 13.4533 15.7986C13.4033 15.7186 13.3633 15.6086 13.3333 15.4786C13.3033 15.3486 13.2933 15.1886 13.2933 14.9986V14.0286C13.2933 13.8386 13.3033 13.6786 13.3333 13.5486C13.3633 13.4186 13.3933 13.3186 13.4533 13.2386C13.5133 13.1586 13.5633 13.0986 13.6433 13.0686C13.7233 13.0386 13.8033 13.0186 13.8933 13.0186C13.9833 13.0186 14.0733 13.0386 14.1433 13.0686C14.2133 13.0986 14.2833 13.1586 14.3333 13.2386C14.3833 13.3186 14.4233 13.4186 14.4533 13.5486C14.4833 13.6786 14.4933 13.8386 14.4933 14.0286V14.9986H14.4833Z" />
</svg>
