<svg width="24" height="24" viewBox="0 0 24 24"  xmlns="http://www.w3.org/2000/svg">
<path d="M3.64995 6.04977C4.11995 6.50977 4.85995 6.52977 5.35995 6.10977C5.72995 5.78977 6.04995 5.59977 6.22995 5.67977C6.72995 5.87977 6.22995 6.70977 5.92995 7.19977C5.67995 7.61977 3.06995 11.0898 3.06995 13.5098C3.06995 14.7898 3.54995 15.8498 4.40995 16.4898C5.15995 17.0498 6.14995 17.2198 7.04995 16.9498C8.11995 16.6398 8.99995 15.5498 10.1099 14.1798C11.3199 12.6898 12.9399 10.7398 14.1899 10.7398C15.8199 10.7398 15.8399 11.7498 15.9499 12.5298C12.1699 13.1698 10.5699 16.1998 10.5699 17.8998C10.5699 19.5998 12.0099 20.9898 13.7799 20.9898C15.4099 20.9898 18.0699 19.6598 18.4699 14.8898H19.6799C20.3699 14.8898 20.9299 14.3298 20.9299 13.6398C20.9299 12.9498 20.3699 12.3898 19.6799 12.3898H18.4599C18.3099 10.7398 17.3699 8.18977 14.4299 8.18977C12.1799 8.18977 10.2499 10.0998 9.48995 11.0298C8.90995 11.7598 7.42995 13.5098 7.19995 13.7498C6.94995 14.0498 6.51995 14.5898 6.08995 14.5898C5.63995 14.5898 5.36995 13.7598 5.72995 12.6698C6.07995 11.5798 7.12995 9.80977 7.57995 9.14977C8.35995 8.00977 8.87995 7.22977 8.87995 5.86977C8.87995 3.69977 7.23995 3.00977 6.36995 3.00977C5.27995 3.00977 4.32995 3.63977 3.66995 4.22977C3.13995 4.70977 3.13995 5.54977 3.64995 6.04977ZM13.8099 18.5598C13.4999 18.5598 13.0699 18.2998 13.0699 17.8398C13.0699 17.2398 13.7999 15.6398 15.9399 15.0798C15.6399 17.7698 14.5099 18.5598 13.8099 18.5598Z" />
</svg>
