<svg width="24" height="24" viewBox="0 0 24 24"  xmlns="http://www.w3.org/2000/svg">
<g clip-path="url(#clip0_2402_24046)">
<path d="M8.565 3.42906V4.31906L10.565 6.31906V3.42906H14.565V7.42906H11.675L13.675 9.42906H14.565V10.3191L16.565 12.3191V9.42906H20.565V13.4291H17.675L19.675 15.4291H20.565V16.3191L22.565 18.3191V3.42906C22.565 2.32906 21.665 1.42906 20.565 1.42906H5.675L7.675 3.42906H8.565ZM16.565 3.42906H19.565C20.115 3.42906 20.565 3.87906 20.565 4.42906V7.42906H16.565V3.42906ZM22.725 21.3091L2.685 1.26906C2.295 0.879063 1.665 0.879063 1.275 1.26906C0.884998 1.65906 0.884998 2.28906 1.275 2.67906L2.565 3.97906V19.4291C2.565 20.5291 3.465 21.4291 4.565 21.4291H20.015L21.315 22.7291C21.705 23.1191 22.335 23.1191 22.725 22.7291C23.115 22.3391 23.115 21.6991 22.725 21.3091ZM10.565 11.9791L12.015 13.4291H10.565V11.9791ZM4.565 5.97906L6.015 7.42906H4.565V5.97906ZM8.565 19.4291H5.565C5.015 19.4291 4.565 18.9791 4.565 18.4291V15.4291H8.565V19.4291ZM8.565 13.4291H4.565V9.42906H8.015L8.565 9.97906V13.4291ZM14.565 19.4291H10.565V15.4291H14.015L14.565 15.9791V19.4291ZM16.565 19.4291V17.9791L18.015 19.4291H16.565Z" />
</g>
<defs>
<clipPath id="clip0_2402_24046">
<rect width="24" height="24" fill="white"/>
</clipPath>
</defs>
</svg>
