<svg width="24" height="24" viewBox="0 0 24 24"  xmlns="http://www.w3.org/2000/svg">
<g clip-path="url(#clip0_2402_24044)">
<path d="M8.635 3.36477V4.81477L10.635 6.81477V3.36477H14.635V7.36477H11.185L13.185 9.36477H14.635V10.8148L16.635 12.8148V9.36477H20.635V13.3648H17.185L19.185 15.3648H20.635V16.8148L22.635 18.8148V3.36477C22.635 2.26477 21.735 1.36477 20.635 1.36477H5.185L7.185 3.36477H8.635ZM16.635 3.36477H20.635V7.36477H16.635V3.36477ZM1.905 0.634766L0.635002 1.91477L2.635 3.91477V19.3648C2.635 20.4648 3.535 21.3648 4.635 21.3648H20.095L22.095 23.3648L23.365 22.0948L1.905 0.634766ZM10.635 11.9148L12.085 13.3648H10.635V11.9148ZM4.635 5.91477L6.085 7.36477H4.635V5.91477ZM8.635 19.3648H4.635V15.3648H8.635V19.3648ZM8.635 13.3648H4.635V9.36477H8.085L8.635 9.91477V13.3648ZM14.635 19.3648H10.635V15.3648H14.085L14.635 15.9048V19.3648ZM16.635 19.3648V17.9048L18.095 19.3648H16.635Z" />
</g>
<defs>
<clipPath id="clip0_2402_24044">
<rect width="24" height="24" fill="white"/>
</clipPath>
</defs>
</svg>
