<svg width="24" height="24" viewBox="0 0 24 24"  xmlns="http://www.w3.org/2000/svg">
<path d="M12.5225 6C11.4225 6 10.5225 5.1 10.5225 4C10.5225 2.9 11.4225 2 12.5225 2C13.6225 2 14.5225 2.9 14.5225 4C14.5225 5.1 13.6225 6 12.5225 6ZM18.4725 2C19.0625 2 19.5325 2.51 19.4725 3.09C19.4525 3.24 19.2625 7.15 15.5225 8.4V21C15.5225 21.55 15.0725 22 14.5225 22C13.9725 22 13.5225 21.55 13.5225 21V16H11.5225V21C11.5225 21.55 11.0725 22 10.5225 22C9.97246 22 9.52246 21.55 9.52246 21V10.1C9.22246 10.2 9.02246 10.3 8.92246 10.4C8.46246 10.76 7.75246 11.27 7.56246 13.07C7.51246 13.59 7.09246 14 6.56246 14C5.98246 14 5.51246 13.51 5.56246 12.93C5.69246 11.33 6.18246 9.95 7.63246 8.71C8.73246 7.81 10.5225 7 12.5225 7C14.5225 7 15.2025 6.54 16.0025 5.94C16.4325 5.6 17.2825 4.95 17.4825 2.92C17.5325 2.4 17.9525 2 18.4725 2ZM5.52246 16H6.52246C7.07246 16 7.52246 16.45 7.52246 17V21C7.52246 21.55 7.07246 22 6.52246 22H5.52246C4.97246 22 4.52246 21.55 4.52246 21V17C4.52246 16.45 4.97246 16 5.52246 16Z" />
</svg>
