<svg width="24" height="24" viewBox="0 0 24 24"  xmlns="http://www.w3.org/2000/svg">
<path d="M21.6901 18.523L16.9701 13.803C16.4901 13.323 15.9801 13.213 15.3901 13.213L12.8501 15.753C12.8501 16.343 12.9601 16.863 13.4401 17.333L18.1601 22.053C18.5501 22.443 19.1801 22.443 19.5701 22.053L21.6901 19.933C22.0801 19.553 22.0801 18.913 21.6901 18.523Z" />
<path d="M16.6501 9.84297C17.0401 10.233 17.6701 10.233 18.0601 9.84297L18.7701 9.13297L20.8901 11.253C22.0601 10.083 22.0601 8.18297 20.8901 7.01297L18.0601 4.18297C17.6701 3.79297 17.0401 3.79297 16.6501 4.18297L15.9401 4.89297V2.35297C15.9401 1.73297 15.1801 1.40297 14.7301 1.85297L12.1901 4.39297C11.7401 4.84297 12.0701 5.60297 12.6901 5.60297H15.2301L14.5201 6.31297C14.1301 6.70297 14.1301 7.33297 14.5201 7.72297L14.8701 8.07297L11.9801 10.963L7.87008 6.83297V5.83297C7.87008 5.56297 7.76008 5.31297 7.58008 5.12297L5.56008 3.09297C5.17008 2.70297 4.54008 2.70297 4.15008 3.09297L2.73008 4.51297C2.34008 4.90297 2.34008 5.53297 2.73008 5.92297L4.75008 7.95297C4.94008 8.14297 5.19008 8.24297 5.46008 8.24297H6.46008L10.5901 12.373L9.74008 13.223H8.44008C7.91008 13.223 7.40008 13.433 7.03008 13.813L2.31008 18.533C1.92008 18.923 1.92008 19.553 2.31008 19.943L4.43008 22.063C4.82008 22.453 5.45008 22.453 5.84008 22.063L10.5601 17.343C10.9401 16.963 11.1501 16.463 11.1501 15.933V14.643L16.3001 9.49297L16.6501 9.84297Z" />
</svg>
