<svg width="24" height="24" viewBox="0 0 24 24"  xmlns="http://www.w3.org/2000/svg">
<path d="M16.3801 13.1552H15.3901L12.8501 15.6952V16.6852L18.8601 22.6952L22.4001 19.1552L16.3801 13.1552Z" />
<path d="M17.3501 10.4752L18.7601 9.06516L20.8801 11.1852C22.0501 10.0152 22.0501 8.11516 20.8801 6.94516L17.3401 3.40516L15.9301 4.81516V1.99516L15.2301 1.28516L11.6901 4.82516L12.4001 5.53516H15.2301L13.8201 6.94516L14.8801 8.00516L11.9901 10.8952L7.8601 6.76516V5.34516L4.8401 2.32516L2.0101 5.15516L5.0401 8.18516H6.4501L10.5801 12.3152L9.7301 13.1652H7.6101L1.6001 19.1752L5.1401 22.7152L11.1501 16.7052V14.5852L16.3001 9.43516L17.3501 10.4752Z" />
</svg>
