<svg width="24" height="24" viewBox="0 0 24 24"  xmlns="http://www.w3.org/2000/svg">
<path d="M16.48 10.4117C16.09 10.8017 15.44 10.8017 15.05 10.4117L10.58 5.95167L3.52999 12.9917L2.86999 12.3617C1.69999 11.1917 1.69999 9.29167 2.86999 8.12167L7.10999 3.88167C8.27999 2.71167 10.18 2.71167 11.35 3.88167L16.48 9.00167C16.87 9.39167 16.87 10.0217 16.48 10.4117ZM17.18 8.29167C17.96 9.07167 17.96 10.3417 17.18 11.1217C15.91 12.3917 14.57 11.3417 14.35 11.1217L10.59 7.36167L5.01999 12.9317C4.62999 13.3217 4.62999 13.9517 5.01999 14.3417C5.40999 14.7317 6.03999 14.7317 6.43999 14.3417L11.06 9.72167L11.77 10.4317L7.14999 15.0517C6.75999 15.4417 6.75999 16.0717 7.14999 16.4617C7.53999 16.8517 8.16999 16.8517 8.56999 16.4617L13.19 11.8417L13.9 12.5517L9.27999 17.1717C8.88999 17.5617 8.88999 18.1917 9.27999 18.5817C9.66999 18.9717 10.3 18.9717 10.69 18.5817L15.31 13.9617L16.02 14.6717L11.4 19.2917C11.01 19.6817 11.01 20.3117 11.4 20.7017C11.79 21.0917 12.42 21.0917 12.81 20.7017L21.13 12.3617C22.3 11.1917 22.3 9.29167 21.13 8.12167L16.89 3.88167C15.74 2.73167 13.88 2.71167 12.71 3.82167L17.18 8.29167Z" />
</svg>
