<svg width="24" height="24" viewBox="0 0 24 24"  xmlns="http://www.w3.org/2000/svg">
<path d="M18 14.4492V12.4492H19.1L20 14.4492H21.5L20.6 12.3492C21.1 12.1492 21.5 11.5492 21.5 10.9492V9.94922C21.5 9.14922 20.8 8.44922 20 8.44922H16.5V13.3492L17.6 14.4492H18ZM18 9.94922H20V10.9492H18V9.94922ZM13.5 9.94922V10.3492L15 11.8492V9.94922C15 9.14922 14.3 8.44922 13.5 8.44922H11.6L13.1 9.94922H13.5ZM10 8.94922L3.00002 1.94922L1.90002 2.94922L7.40002 8.44922H7.00002V10.4492H5.00002V8.44922H3.50002V14.4492H5.00002V11.9492H7.00002V14.4492H8.50002V9.54922L10 11.0492V14.4492H13.4L21 22.0492L22.1 20.9492L10 8.94922Z" />
</svg>
