<svg width="24" height="24" viewBox="0 0 24 24"  xmlns="http://www.w3.org/2000/svg">
<path d="M17.9993 13.6992V12.4492H19.0993L19.8193 14.0392C19.9293 14.2892 20.1793 14.4492 20.4493 14.4492C20.9493 14.4492 21.2793 13.9392 21.0893 13.4892L20.5993 12.3492C21.0993 12.0492 21.4993 11.5492 21.4993 10.9492V9.94922C21.4993 9.11922 20.8293 8.44922 19.9993 8.44922H17.4993C16.9493 8.44922 16.4993 8.89922 16.4993 9.44922V13.3492L17.5393 14.3892C17.8093 14.2792 17.9993 14.0092 17.9993 13.6992ZM17.9993 9.94922H19.9993V10.9492H17.9993V9.94922ZM13.4993 9.94922V10.3492L14.9993 11.8492V9.94922C14.9993 9.12922 14.3193 8.44922 13.4993 8.44922H11.5993L13.0993 9.94922H13.4993ZM21.5293 20.4792L3.52934 2.47922C3.23934 2.18922 2.76934 2.18922 2.47934 2.47922C2.18934 2.76922 2.18934 3.23922 2.47934 3.52922L7.45934 8.50922C7.18934 8.61922 6.99934 8.88922 6.99934 9.19922V10.4492H4.99934V9.19922C4.99934 8.78922 4.65934 8.44922 4.24934 8.44922C3.83934 8.44922 3.49934 8.78922 3.49934 9.19922V13.6992C3.49934 14.1092 3.83934 14.4492 4.24934 14.4492C4.65934 14.4492 4.99934 14.1092 4.99934 13.6992V11.9492H6.99934V13.6992C6.99934 14.1092 7.33934 14.4492 7.74934 14.4492C8.15934 14.4492 8.49934 14.1092 8.49934 13.6992V9.54922L9.99934 11.0492V13.9492C9.99934 14.2292 10.2193 14.4492 10.4993 14.4492H12.9993C13.1193 14.4492 13.2393 14.4392 13.3593 14.4092L20.4693 21.5192C20.7593 21.8092 21.2293 21.8092 21.5193 21.5192C21.8093 21.2392 21.8093 20.7692 21.5293 20.4792Z" />
</svg>
