<svg width="24" height="24" viewBox="0 0 24 24"  xmlns="http://www.w3.org/2000/svg">
<path d="M17.9949 14.4553V12.4553H19.0949L19.9949 14.4553H21.4949L20.5949 12.3553H21.4949V8.45531H16.4949V13.3153L17.6349 14.4553H17.9949ZM17.9949 9.95531H19.9949V10.9553H17.9949V9.95531ZM13.4949 9.95531V10.3153L14.9949 11.8153V9.95531C14.9949 9.15531 14.2949 8.45531 13.4949 8.45531H11.6349L13.1349 9.95531H13.4949ZM3.00495 1.94531L1.94495 3.00531L7.39495 8.45531H6.99495V10.4553H4.99495V8.45531H3.49495V14.4553H4.99495V11.9553H6.99495V14.4553H8.49495V9.55531L9.99495 11.0553V14.4553H13.3949L20.9949 22.0553L22.0549 20.9953L3.00495 1.94531Z" />
</svg>
