<svg width="24" height="24" viewBox="0 0 24 24"  xmlns="http://www.w3.org/2000/svg">
<path d="M17.75 11.9847L22.43 7.30469L16.68 1.55469L12 6.23469L7.31 1.55469L1.56 7.31469L6.24 12.0047L1.56 16.6847L7.31 22.4347L11.99 17.7547L16.68 22.4447L22.44 16.6847L17.75 11.9847ZM12.01 8.97469C12.56 8.97469 13.01 9.42469 13.01 9.97469C13.01 10.5247 12.56 10.9747 12.01 10.9747C11.46 10.9747 11.01 10.5247 11.01 9.97469C11.01 9.42469 11.46 8.97469 12.01 8.97469ZM7.3 10.9347L3.67 7.31469L7.3 3.68469L10.92 7.30469L7.3 10.9347ZM10.01 12.9747C9.46 12.9747 9.01 12.5247 9.01 11.9747C9.01 11.4247 9.46 10.9747 10.01 10.9747C10.56 10.9747 11.01 11.4247 11.01 11.9747C11.01 12.5247 10.56 12.9747 10.01 12.9747ZM12.01 14.9747C11.46 14.9747 11.01 14.5247 11.01 13.9747C11.01 13.4247 11.46 12.9747 12.01 12.9747C12.56 12.9747 13.01 13.4247 13.01 13.9747C13.01 14.5247 12.56 14.9747 12.01 14.9747ZM14.01 10.9747C14.56 10.9747 15.01 11.4247 15.01 11.9747C15.01 12.5247 14.56 12.9747 14.01 12.9747C13.46 12.9747 13.01 12.5247 13.01 11.9747C13.01 11.4247 13.46 10.9747 14.01 10.9747ZM16.67 20.3147L13.04 16.6947L16.67 13.0647L20.29 16.6847L16.67 20.3147Z" />
</svg>
