<svg width="24" height="24" viewBox="0 0 24 24"  xmlns="http://www.w3.org/2000/svg">
<path d="M17.0269 20.165C16.7369 20.165 16.4669 20.105 16.2669 20.015C15.5569 19.645 15.0569 19.135 14.5569 17.635C14.0469 16.075 13.0869 15.345 12.1669 14.635C11.3769 14.025 10.5569 13.395 9.84695 12.105C9.31695 11.145 9.02695 10.095 9.02695 9.16498C9.02695 6.36498 11.2269 4.16498 14.0269 4.16498C16.5869 4.16498 18.6569 6.01498 18.9769 8.47498C19.0369 8.87498 19.3869 9.16498 19.7969 9.16498H20.1369C20.6369 9.16498 21.0269 8.72498 20.9669 8.22498C20.5169 4.75498 17.6369 2.16498 14.0269 2.16498C10.0969 2.16498 7.02695 5.23498 7.02695 9.16498C7.02695 10.425 7.40695 11.815 8.09695 13.065C9.00695 14.715 10.0769 15.545 10.9469 16.215C11.7569 16.835 12.3369 17.285 12.6569 18.265C13.2569 20.085 14.0269 21.105 15.3869 21.815C15.8969 22.045 16.4569 22.165 17.0269 22.165C18.8669 22.165 20.4169 20.925 20.8869 19.235C21.0269 18.695 20.6369 18.165 20.0769 18.165H19.7269C19.3469 18.165 19.0469 18.435 18.9169 18.795C18.6569 19.585 17.9069 20.165 17.0269 20.165ZM6.99695 2.13498C6.56695 1.70498 5.87695 1.74498 5.49695 2.20498C3.95695 4.10498 3.02695 6.52498 3.02695 9.16498C3.02695 11.805 3.95695 14.225 5.49695 16.115C5.87695 16.575 6.56695 16.615 6.98695 16.195C7.34695 15.835 7.37695 15.265 7.05695 14.875C5.79695 13.325 5.02695 11.335 5.02695 9.16498C5.02695 6.99498 5.79695 5.00498 7.06695 3.46498C7.39695 3.06498 7.35695 2.49498 6.99695 2.13498ZM11.5269 9.16498C11.5269 10.545 12.6469 11.665 14.0269 11.665C15.4069 11.665 16.5269 10.545 16.5269 9.16498C16.5269 7.78498 15.4069 6.66498 14.0269 6.66498C12.6469 6.66498 11.5269 7.78498 11.5269 9.16498Z" />
</svg>
