<svg width="24" height="24" viewBox="0 0 24 24"  xmlns="http://www.w3.org/2000/svg">
<path d="M19.5701 4.29959C17.6501 3.00959 15.4901 3.12959 13.7701 4.03959L12.0001 9.34959H13.6601C14.3301 9.34959 14.8101 9.99959 14.6201 10.6396L12.8001 16.7096C12.7101 16.9996 12.2801 16.9096 12.3101 16.6096L13.0001 10.3496H11.3301C10.6701 10.3496 10.1901 9.70959 10.3701 9.07959L11.5501 4.96959C9.70014 3.23959 6.71014 2.66959 4.27014 4.38959C2.82014 5.41959 2.00014 7.04959 2.00014 8.83959C1.99014 12.6496 5.53014 15.5496 10.6601 20.1396C11.4201 20.8196 12.5801 20.8296 13.3501 20.1496C18.3301 15.7296 22.2201 12.5696 21.9901 8.52959C21.9001 6.79959 21.0001 5.26959 19.5701 4.29959Z" />
</svg>
