<svg width="24" height="24" viewBox="0 0 24 24"  xmlns="http://www.w3.org/2000/svg">
<path d="M19.5962 2.4043H6.42625L21.5962 17.5743V4.4043C21.5962 3.3043 20.6962 2.4043 19.5962 2.4043Z" />
<path d="M4.10625 2.9143C3.71625 2.5243 3.08625 2.5243 2.69625 2.9143C2.30625 3.3043 2.30625 3.9343 2.69625 4.3243L3.59625 5.2343V18.4043C3.59625 19.5043 4.49625 20.4043 5.59625 20.4043H18.7662L19.6662 21.3043C20.0562 21.6943 20.6862 21.6943 21.0762 21.3043C21.4662 20.9143 21.4662 20.2843 21.0762 19.8943L4.10625 2.9143ZM7.59625 16.4043C7.18625 16.4043 6.94625 15.9343 7.19625 15.6043L9.19625 12.9343C9.39625 12.6643 9.79625 12.6643 9.99625 12.9343L11.8462 15.4043L12.6662 14.3043L14.7662 16.4043H7.59625Z" />
</svg>
