<svg width="24" height="24" viewBox="0 0 24 24"  xmlns="http://www.w3.org/2000/svg">
<path d="M9.54245 5V5.38C8.71245 5.05 7.82245 4.88 6.93245 4.88C5.51245 4.88 4.09245 5.31 2.88245 6.17C2.37245 6.53 2.31245 7.26 2.75245 7.7L5.32245 10.27H6.43245V11.38C7.29245 12.24 8.41245 12.69 9.54245 12.74V15H7.54245C6.99245 15 6.54245 15.45 6.54245 16V18C6.54245 19.1 7.44245 20 8.54245 20H18.5424C20.2024 20 21.5424 18.66 21.5424 17V5C21.5424 4.45 21.0924 4 20.5424 4H10.5424C9.99245 4 9.54245 4.45 9.54245 5ZM8.43245 10.41V8.26H6.15245L5.11245 7.22C5.68245 7 6.30245 6.88 6.93245 6.88C8.27245 6.88 9.52245 7.4 10.4724 8.34L11.8824 9.75L11.6824 9.95C11.1724 10.46 10.4924 10.75 9.76245 10.75C9.29245 10.75 8.83245 10.63 8.43245 10.41ZM19.5424 17C19.5424 17.55 19.0924 18 18.5424 18C17.9924 18 17.5424 17.55 17.5424 17V16C17.5424 15.45 17.0924 15 16.5424 15H11.5424V12.41C12.1124 12.18 12.6424 11.84 13.1024 11.38L13.3024 11.18L16.1324 14H17.5424V12.59L11.5424 6.62V6H19.5424V17Z" />
</svg>
