<svg width="24" height="24" viewBox="0 0 24 24"  xmlns="http://www.w3.org/2000/svg">
<path d="M14.0899 7.50414L15.2899 5.50414C15.4799 5.18414 15.4799 4.79414 15.2899 4.47414L14.0899 2.47414C13.9099 2.17414 13.5799 1.99414 13.2299 1.99414H10.7799C10.4299 1.99414 10.0999 2.17414 9.91989 2.48414L8.71989 4.48414C8.52989 4.80414 8.52989 5.19414 8.71989 5.51414L9.91989 7.51414C10.0899 7.81414 10.4199 7.99414 10.7699 7.99414H13.2199C13.5799 7.99414 13.9099 7.81414 14.0899 7.50414Z" />
<path d="M9.90989 9.48414L8.70989 11.4841C8.51989 11.8041 8.51989 12.1941 8.70989 12.5141L9.90989 14.5141C10.0899 14.8141 10.4199 15.0041 10.7699 15.0041H13.2299C13.5799 15.0041 13.9099 14.8241 14.0899 14.5141L15.2899 12.5141C15.4799 12.1941 15.4799 11.8041 15.2899 11.4841L14.0899 9.48414C13.9099 9.17414 13.5799 8.99414 13.2299 8.99414H10.7699C10.4199 8.99414 10.0899 9.17414 9.90989 9.48414Z" />
<path d="M17.0099 11.5041H19.4599C19.8099 11.5041 20.1399 11.3241 20.3199 11.0141L21.5199 9.01414C21.7099 8.69414 21.7099 8.30414 21.5199 7.98414L20.3199 5.98414C20.1399 5.68414 19.8099 5.49414 19.4599 5.49414H17.0099C16.6599 5.49414 16.3299 5.67414 16.1499 5.98414L14.9499 7.98414C14.7599 8.30414 14.7599 8.69414 14.9499 9.01414L16.1499 11.0141C16.3399 11.3241 16.6599 11.5041 17.0099 11.5041Z" />
<path d="M19.4699 12.5041H17.0099C16.6599 12.5041 16.3299 12.6841 16.1499 12.9941L14.9499 14.9941C14.7599 15.3141 14.7599 15.7041 14.9499 16.0241L16.1499 18.0241C16.3299 18.3241 16.6599 18.5141 17.0099 18.5141H19.4699C19.8199 18.5141 20.1499 18.3341 20.3299 18.0241L21.5299 16.0241C21.7199 15.7041 21.7199 15.3141 21.5299 14.9941L20.3299 12.9941C20.1499 12.6941 19.8199 12.5041 19.4699 12.5041Z" />
<path d="M7.83989 11.0241L9.03989 9.02414C9.22989 8.70414 9.22989 8.31414 9.03989 7.99414L7.83989 5.99414C7.65989 5.69414 7.33989 5.50414 6.98989 5.50414H4.52989C4.17989 5.50414 3.84989 5.69414 3.66989 5.99414L2.46989 7.99414C2.27989 8.31414 2.27989 8.70414 2.46989 9.02414L3.66989 11.0241C3.84989 11.3241 4.17989 11.5141 4.52989 11.5141H6.97989C7.33989 11.5041 7.65989 11.3241 7.83989 11.0241Z" />
<path d="M6.98989 12.5041H4.52989C4.17989 12.5041 3.84989 12.6841 3.66989 12.9941L2.46989 14.9941C2.27989 15.3141 2.27989 15.7041 2.46989 16.0241L3.66989 18.0241C3.84989 18.3241 4.17989 18.5141 4.52989 18.5141H6.98989C7.33989 18.5141 7.66989 18.3341 7.84989 18.0241L9.04989 16.0241C9.23989 15.7041 9.23989 15.3141 9.04989 14.9941L7.84989 12.9941C7.65989 12.6941 7.33989 12.5041 6.98989 12.5041Z" />
<path d="M9.90989 16.4841L8.70989 18.4841C8.51989 18.8041 8.51989 19.1941 8.70989 19.5141L9.90989 21.5141C10.0899 21.8141 10.4199 22.0041 10.7699 22.0041H13.2299C13.5799 22.0041 13.9099 21.8241 14.0899 21.5141L15.2899 19.5141C15.4799 19.1941 15.4799 18.8041 15.2899 18.4841L14.0899 16.4841C13.9099 16.1841 13.5799 15.9941 13.2299 15.9941H10.7699C10.4199 15.9941 10.0899 16.1741 9.90989 16.4841Z" />
</svg>
