<svg width="24" height="24" viewBox="0 0 24 24"  xmlns="http://www.w3.org/2000/svg">
<path d="M13.7899 8L15.5899 5L13.7899 2H10.2099L8.40992 5L10.2099 8H13.7899Z" />
<path d="M10.2099 9L8.40992 12L10.2099 15H13.7899L15.5899 12L13.7899 9H10.2099Z" />
<path d="M16.4499 11.51H20.0399L21.8299 8.51L20.0399 5.51H16.4499L14.6499 8.51L16.4499 11.51Z" />
<path d="M20.0399 12.51H16.4499L14.6499 15.51L16.4499 18.51H20.0399L21.8299 15.51L20.0399 12.51Z" />
<path d="M7.54992 11.51L9.34992 8.51L7.54992 5.51H3.95992L2.16992 8.51L3.95992 11.51H7.54992Z" />
<path d="M7.54992 12.51H3.95992L2.16992 15.51L3.95992 18.51H7.54992L9.34992 15.51L7.54992 12.51Z" />
<path d="M10.2099 16L8.40992 19L10.2099 22H13.7899L15.5899 19L13.7899 16H10.2099Z" />
</svg>
