<svg width="24" height="24" viewBox="0 0 24 24"  xmlns="http://www.w3.org/2000/svg">
<path d="M11 9C10.59 9 10.25 9.34 10.25 9.75V14C10.25 14.55 10.7 15 11.25 15H13.5C13.91 15 14.25 14.66 14.25 14.25C14.25 13.84 13.91 13.5 13.5 13.5H11.75V9.75C11.75 9.34 11.41 9 11 9ZM19.29 10.5C19.39 10.79 19.67 11 20 11C20.41 11 20.75 10.66 20.75 10.25V10C20.75 9.45 20.3 9 19.75 9H16.75C16.2 9 15.75 9.45 15.75 10V11.5C15.75 12.05 16.2 12.5 16.75 12.5H19.25V13.5H17.21C17.11 13.21 16.83 13 16.5 13C16.09 13 15.75 13.34 15.75 13.75V14C15.75 14.55 16.2 15 16.75 15H19.75C20.3 15 20.75 14.55 20.75 14V12.5C20.75 11.95 20.3 11.5 19.75 11.5H17.25V10.5H19.29ZM8.25 9.75C8.25 9.34 7.91 9 7.5 9C7.09 9 6.75 9.34 6.75 9.75V11H4.75V9.75C4.75 9.34 4.41 9 4 9C3.59 9 3.25 9.34 3.25 9.75V14.25C3.25 14.66 3.59 15 4 15C4.41 15 4.75 14.66 4.75 14.25V12.5H6.75V14.25C6.75 14.66 7.09 15 7.5 15C7.91 15 8.25 14.66 8.25 14.25V9.75Z" />
</svg>
