<svg width="24" height="24" viewBox="0 0 24 24"  xmlns="http://www.w3.org/2000/svg">
<path d="M18.54 14.295H20.21C20.76 14.295 21.21 13.845 21.21 13.295V11.795C21.21 11.245 20.76 10.795 20.21 10.795H17.71V9.79495H19.75C19.85 10.085 20.13 10.295 20.46 10.295C20.87 10.295 21.21 9.95495 21.21 9.54495V9.29495C21.21 8.74495 20.76 8.29495 20.21 8.29495H17.21C16.66 8.29495 16.21 8.74495 16.21 9.29495V10.795C16.21 11.345 16.66 11.795 17.21 11.795H19.71V12.795H17.67C17.57 12.505 17.29 12.295 16.96 12.295C16.84 12.295 16.72 12.325 16.62 12.375L18.54 14.295ZM19.78 21.195C20.17 21.5849 20.8 21.5849 21.19 21.195C21.58 20.805 21.58 20.1749 21.19 19.785L4.21996 2.80495C3.82996 2.41495 3.19996 2.41495 2.80996 2.80495C2.41996 3.19495 2.41996 3.82495 2.80996 4.21495L7.28996 8.69495C7.23996 8.80495 7.20996 8.92495 7.20996 9.04495V10.295H5.20996V9.04495C5.20996 8.63495 4.86996 8.29495 4.45996 8.29495C4.04996 8.29495 3.70996 8.63495 3.70996 9.04495V13.545C3.70996 13.955 4.04996 14.295 4.45996 14.295C4.86996 14.295 5.20996 13.955 5.20996 13.545V11.795H7.20996V13.545C7.20996 13.955 7.54996 14.295 7.95996 14.295C8.36996 14.295 8.70996 13.955 8.70996 13.545V10.125L10.71 12.125V13.295C10.71 13.845 11.16 14.295 11.71 14.295H12.88L19.78 21.195Z" />
</svg>
