<svg width="24" height="24" viewBox="0 0 24 24"  xmlns="http://www.w3.org/2000/svg">
<path d="M3.51937 2.35883C3.12937 1.96883 2.49937 1.96883 2.10937 2.35883C1.70937 2.74883 1.70937 3.37883 2.09937 3.76883L10.2894 11.9588L7.28937 14.9688C6.91937 15.3488 6.70937 15.8588 6.70937 16.3888V19.5488C6.70937 20.6488 7.60937 21.5488 8.70937 21.5488H16.7094C17.5694 21.5488 18.2894 21.0088 18.5794 20.2488L20.4894 22.1588C20.8794 22.5488 21.5094 22.5488 21.8994 22.1588C22.2894 21.7688 22.2894 21.1388 21.8994 20.7488L3.51937 2.35883ZM16.7094 18.5488C16.7094 19.0988 16.2594 19.5488 15.7094 19.5488H9.70937C9.15937 19.5488 8.70937 19.0988 8.70937 18.5488V16.0488L11.5494 13.2088L16.7094 18.3788V18.5488Z" />
<path d="M8.70937 4.54883C8.70937 3.99883 9.15937 3.54883 9.70937 3.54883H15.7094C16.2594 3.54883 16.7094 3.99883 16.7094 4.54883V7.04883L13.8694 9.88883L15.1194 11.1388L18.1194 8.14883C18.4994 7.76883 18.7094 7.25883 18.7094 6.72883V3.54883C18.7094 2.43883 17.8094 1.54883 16.7094 1.54883H8.70937C7.84937 1.54883 7.12937 2.08883 6.83937 2.84883L8.70937 4.71883V4.54883Z" />
</svg>
