<svg width="24" height="24" viewBox="0 0 24 24"  xmlns="http://www.w3.org/2000/svg">
<path d="M21.433 16.5C20.963 16.5 20.583 16.84 20.453 17.3C20.103 18.57 18.943 19.5 17.563 19.5H15.563V17.5H16.563C17.663 17.5 18.563 16.6 18.563 15.5V14.62C18.563 12.52 17.013 11.09 15.533 10.74L12.833 10.07C11.963 9.85 11.263 9.26 10.883 8.5H8.063C7.783 8.5 7.563 8.28 7.563 8C7.563 7.72 7.783 7.5 8.063 7.5H10.583L10.563 6.5H8.063C7.783 6.5 7.563 6.28 7.563 6C7.563 5.72 7.783 5.5 8.063 5.5H10.563V4.5C10.563 3.4 9.663 2.5 8.563 2.5H4.563C3.463 2.5 2.563 3.4 2.563 4.5V15.5C2.563 16.6 3.463 17.5 4.563 17.5H5.563V19.5H2.563C2.013 19.5 1.563 19.95 1.563 20.5C1.563 21.05 2.013 21.5 2.563 21.5H17.563C19.893 21.5 21.853 19.9 22.403 17.75C22.573 17.12 22.083 16.5 21.433 16.5ZM13.563 19.5H7.563V17.5H13.563V19.5Z" />
</svg>
