<svg width="24" height="24" viewBox="0 0 24 24"  xmlns="http://www.w3.org/2000/svg">
<path d="M16.9137 13.29L20.5037 9.7C20.8937 9.31 20.8937 8.68 20.5037 8.29C20.1137 7.9 19.4837 7.9 19.0937 8.29L17.2037 10.17V4C17.2037 3.45 16.7537 3 16.2037 3C15.6537 3 15.2037 3.45 15.2037 4V10.17L13.3137 8.29C12.9237 7.9 12.2937 7.9 11.9037 8.29C11.5137 8.68 11.5137 9.31 11.9037 9.7L15.4937 13.29C15.8937 13.68 16.5237 13.68 16.9137 13.29Z" />
<path d="M15.2037 18H5.20374V6H12.2037V1H5.20374C4.10374 1 3.20374 1.9 3.20374 3V21C3.20374 22.1 4.10374 23 5.20374 23H15.2037C16.3037 23 17.2037 22.1 17.2037 21V16H15.2037V18Z" />
</svg>
