<svg width="24" height="24" viewBox="0 0 24 24"  xmlns="http://www.w3.org/2000/svg">
<path d="M21.9 20.8902L3.51998 2.5102L2.09998 3.9202L6.29998 8.1202C5.29998 9.4302 4.69998 11.0602 4.69998 12.8202C4.70998 17.1802 8.28998 20.7002 12.71 20.7002C14.46 20.7002 16.07 20.1402 17.38 19.2002L20.48 22.3002L21.9 20.8902ZM12.71 18.7002C9.39998 18.7002 6.70998 16.0702 6.70998 12.8302C6.70998 11.6402 7.06998 10.5102 7.72998 9.5502L12.71 14.5302V18.7002ZM9.08998 5.2602L12.71 1.7002L18.36 7.2602C19.81 8.6902 20.71 10.6602 20.71 12.8302C20.71 14.0102 20.44 15.1202 19.97 16.1302L12.71 8.8702V4.5102L10.51 6.6702L9.08998 5.2602Z" />
</svg>
