<svg width="24" height="24" viewBox="0 0 24 24"  xmlns="http://www.w3.org/2000/svg">
<path d="M16.04 10.5C16.14 10.79 16.42 11 16.75 11C17.16 11 17.5 10.66 17.5 10.25V10C17.5 9.45 17.05 9 16.5 9H13.5C12.95 9 12.5 9.45 12.5 10V11.5C12.5 12.05 12.95 12.5 13.5 12.5H16V13.5H13.96C13.86 13.21 13.58 13 13.25 13C12.84 13 12.5 13.34 12.5 13.75V14C12.5 14.55 12.95 15 13.5 15H16.5C17.05 15 17.5 14.55 17.5 14V12.5C17.5 11.95 17.05 11.5 16.5 11.5H14V10.5H16.04ZM8 13.5H9.5V9.75C9.5 9.34 9.84 9 10.25 9C10.66 9 11 9.34 11 9.75V13.5C11 14.33 10.33 15 9.5 15H8C7.17 15 6.5 14.33 6.5 13.5V13.25C6.5 12.84 6.84 12.5 7.25 12.5C7.66 12.5 8 12.84 8 13.25V13.5Z" />
</svg>
