<svg width="24" height="24" viewBox="0 0 24 24"  xmlns="http://www.w3.org/2000/svg">
<path d="M1.99875 21.3413C1.99875 20.7913 2.44875 20.3413 2.99875 20.3413C3.86875 20.3413 4.72875 20.1013 5.52875 19.6413C5.81875 19.4813 6.17874 19.4713 6.46874 19.6413C8.05874 20.5413 9.94874 20.5413 11.5287 19.6413C11.8187 19.4813 12.1787 19.4813 12.4687 19.6413C14.0587 20.5413 15.9487 20.5413 17.5287 19.6413C17.8187 19.4813 18.1787 19.4813 18.4687 19.6413C19.2687 20.1013 20.1287 20.3413 20.9987 20.3413C21.5487 20.3413 21.9987 20.7913 21.9987 21.3413C21.9987 21.8913 21.5487 22.3413 20.9987 22.3413C19.9687 22.3413 18.9387 22.0913 17.9987 21.5913C16.0787 22.6113 13.8187 22.5913 11.9087 21.5413C10.1187 22.4113 7.98874 22.5213 6.32874 21.4013C5.29874 22.0313 4.14875 22.3413 2.99875 22.3413C2.44875 22.3413 1.99875 21.8913 1.99875 21.3413ZM11.9987 4.84126C10.8987 4.84126 9.99874 5.74126 9.99874 6.84126C9.99874 7.94126 10.8987 8.84126 11.9987 8.84126C13.0987 8.84126 13.9987 7.94126 13.9987 6.84126C13.9987 5.74126 13.0987 4.84126 11.9987 4.84126ZM21.4687 17.7913C21.0487 17.9313 20.5687 18.0713 20.0587 18.2113C19.5287 18.0613 19.0287 17.7813 18.6087 17.4413C18.2587 17.1513 17.7387 17.1513 17.3787 17.4413C16.7187 17.9713 15.8987 18.3413 14.9987 18.3413C14.0987 18.3413 13.2787 17.9713 12.6087 17.4313C12.2587 17.1513 11.7387 17.1513 11.3887 17.4313C10.7187 17.9713 9.89874 18.3413 8.99874 18.3413C8.09874 18.3413 7.27875 17.9713 6.60875 17.4313C6.25875 17.1413 5.73875 17.1513 5.37875 17.4313C4.94875 17.7813 4.45875 18.0513 3.92875 18.2013C3.41875 18.0613 2.94875 17.9213 2.52875 17.7813C1.60875 17.4813 1.60875 16.1813 2.52875 15.8813C3.73875 15.4913 5.31875 15.0613 7.12875 14.7513L8.47874 10.5813C8.78874 9.63126 9.79875 9.11126 10.7487 9.42126C10.8387 9.45126 10.9387 9.49126 11.0187 9.53126L13.4887 10.8313L16.3287 9.33126L17.9787 5.62126L17.6187 4.69126C17.5187 4.44126 17.5287 4.17126 17.6387 3.93126L18.3787 2.25126C18.5987 1.74126 19.1987 1.52126 19.6987 1.74126L21.0687 2.35126C21.5687 2.58126 21.7987 3.17126 21.5687 3.67126L20.8187 5.35126C20.7087 5.59126 20.5087 5.78126 20.2587 5.88126L19.3587 6.24126L15.6387 14.5813C17.9687 14.8813 19.9887 15.4213 21.4587 15.8913C22.3887 16.1913 22.3987 17.4913 21.4687 17.7913ZM15.0187 12.3013L14.4287 12.6113C13.8487 12.9213 13.1487 12.9213 12.5687 12.6113L11.7587 12.1813L11.0487 14.3513C11.3587 14.3513 11.6787 14.3413 11.9987 14.3413C12.7087 14.3413 13.3987 14.3713 14.0687 14.4213L15.0187 12.3013Z" />
</svg>
