<svg width="24" height="24" viewBox="0 0 24 24"  xmlns="http://www.w3.org/2000/svg">
<path d="M13.0343 9.2952L17.1243 13.3852L17.2043 13.2952L18.4943 14.5852C18.8843 14.9752 19.5243 14.9752 19.9143 14.5852L22.5043 11.9752C22.8943 11.5852 22.8943 10.9452 22.4943 10.5552L21.5043 9.5852C21.3043 9.3952 21.0543 9.2952 20.7943 9.2952H13.0343ZM19.2743 21.1952C19.6643 21.5852 20.2943 21.5852 20.6843 21.1952C21.0743 20.8052 21.0743 20.1752 20.6843 19.7852L3.71435 2.8052C3.32435 2.4152 2.69435 2.4152 2.30435 2.8052C1.91435 3.1952 1.91435 3.8252 2.30435 4.2152L4.18435 6.0952C2.40435 7.1452 1.20435 9.0852 1.20435 11.2952C1.20435 14.6052 3.89435 17.2952 7.20435 17.2952C9.41435 17.2952 11.3543 16.0952 12.3843 14.3052L19.2743 21.1952ZM10.1143 12.0352C9.78435 13.3252 8.60435 14.2952 7.20435 14.2952C5.55435 14.2952 4.20435 12.9452 4.20435 11.2952C4.20435 9.8952 5.17435 8.7152 6.46435 8.3852L10.1143 12.0352Z" />
</svg>
