<svg width="24" height="24" viewBox="0 0 24 24"  xmlns="http://www.w3.org/2000/svg">
<path d="M20.7934 10.0011H12.8534C11.9034 7.3111 9.09343 5.5011 5.97343 6.1211C3.68343 6.5811 1.82343 8.4211 1.34343 10.7011C0.523431 14.5811 3.46343 18.0011 7.20343 18.0011C9.81343 18.0011 12.0334 16.3311 12.8534 14.0011H13.2034L14.4934 15.2911C14.8834 15.6811 15.5134 15.6811 15.9034 15.2911L17.2034 14.0011L18.4934 15.2911C18.8834 15.6811 19.5234 15.6811 19.9134 15.2911L22.5034 12.6811C22.8934 12.2911 22.8934 11.6511 22.4934 11.2611L21.5034 10.2911C21.3034 10.1011 21.0534 10.0011 20.7934 10.0011ZM7.20343 15.0011C5.55343 15.0011 4.20343 13.6511 4.20343 12.0011C4.20343 10.3511 5.55343 9.0011 7.20343 9.0011C8.85343 9.0011 10.2034 10.3511 10.2034 12.0011C10.2034 13.6511 8.85343 15.0011 7.20343 15.0011Z" />
</svg>
