<svg width="24" height="24" viewBox="0 0 24 24"  xmlns="http://www.w3.org/2000/svg">
<path d="M20 2.10352H4C2.9 2.10352 2.01 3.00352 2.01 4.10352L2 14.1035C2 15.2035 2.9 16.1035 4 16.1035H20C21.1 16.1035 22 15.2035 22 14.1035V4.10352C22 3.00352 21.1 2.10352 20 2.10352ZM11 5.10352H13V7.10352H11V5.10352ZM11 8.10352H13V10.1035H11V8.10352ZM8 5.10352H10V7.10352H8V5.10352ZM8 8.10352H10V10.1035H8V8.10352ZM7 10.1035H5V8.10352H7V10.1035ZM7 7.10352H5V5.10352H7V7.10352ZM15 14.1035H9C8.45 14.1035 8 13.6535 8 13.1035C8 12.5535 8.45 12.1035 9 12.1035H15C15.55 12.1035 16 12.5535 16 13.1035C16 13.6535 15.55 14.1035 15 14.1035ZM16 10.1035H14V8.10352H16V10.1035ZM16 7.10352H14V5.10352H16V7.10352ZM19 10.1035H17V8.10352H19V10.1035ZM19 7.10352H17V5.10352H19V7.10352ZM12.35 21.7535L15.14 18.9635C15.2085 18.8936 15.255 18.8052 15.2737 18.7091C15.2925 18.613 15.2826 18.5136 15.2453 18.4231C15.2081 18.3326 15.145 18.255 15.0641 18.2C14.9832 18.145 14.8879 18.1149 14.79 18.1135H9.21C8.76 18.1135 8.54 18.6535 8.86 18.9635L11.65 21.7535C11.84 21.9435 12.16 21.9435 12.35 21.7535Z" />
</svg>
