<svg width="24" height="24" viewBox="0 0 24 24"  xmlns="http://www.w3.org/2000/svg">
<path d="M14.97 14.728L12.39 13.698L5.5 15.988L1.5 14.448V16.548L5.5 17.888L14.97 14.728Z" />
<path d="M10.07 12.358L8.1 9.73805C7.72 9.23805 7.13 8.93805 6.5 8.93805H3.5C2.4 8.93805 1.5 9.83805 1.5 10.938V12.548L5.5 13.878L10.07 12.358Z" />
<path d="M5.5 19.988L1.5 18.658V20.938C1.5 22.038 2.4 22.938 3.5 22.938H17.5C19.15 22.938 20.09 21.058 19.1 19.738L16.53 16.318L5.5 19.988Z" />
<path d="M16.5 5.58805V3.57805C16.5 2.62805 15.83 1.80805 14.89 1.61805L12.31 1.09805C11.79 0.998047 11.25 1.09805 10.81 1.39805L9.39 2.34805C8.83 2.71805 8.5 3.33805 8.5 4.00805V5.86805C8.5 6.53805 8.83 7.15805 9.39 7.52805L10.62 8.34805C11.17 8.71805 11.86 8.78805 12.47 8.53805L15.24 7.42805C16 7.13805 16.5 6.39805 16.5 5.58805Z" />
<path d="M17.25 8.53805L16.25 9.33805C15.78 9.71805 15.5 10.288 15.5 10.898V11.978C15.5 12.588 15.78 13.158 16.25 13.538L17.05 14.178C17.63 14.648 18.43 14.748 19.11 14.448L21.31 13.468C22.03 13.148 22.5 12.428 22.5 11.638V10.538C22.5 9.59805 21.85 8.78805 20.93 8.58805L18.93 8.14805C18.34 8.01805 17.72 8.15805 17.25 8.53805Z" />
</svg>
