<svg width="24" height="24" viewBox="0 0 24 24"  xmlns="http://www.w3.org/2000/svg">
<path d="M6.29125 8.11L10.1812 12L6.29125 15.89C5.90125 16.28 5.90125 16.91 6.29125 17.3C6.68125 17.69 7.31125 17.69 7.70125 17.3L12.2912 12.71C12.6812 12.32 12.6812 11.69 12.2912 11.3L7.70125 6.7C7.31125 6.31 6.68125 6.31 6.29125 6.7C5.91125 7.09 5.91125 7.73 6.29125 8.11ZM17.0012 6C17.5512 6 18.0012 6.45 18.0012 7V17C18.0012 17.55 17.5512 18 17.0012 18C16.4512 18 16.0012 17.55 16.0012 17V7C16.0012 6.45 16.4512 6 17.0012 6Z" />
</svg>
