<svg width="24" height="24" viewBox="0 0 24 24"  xmlns="http://www.w3.org/2000/svg">
<path d="M12.6051 18.5341C12.2451 18.8141 11.7351 18.8141 11.3751 18.5341L5.22506 13.7541C4.86506 13.4741 4.36506 13.4741 4.00506 13.7541C3.49506 14.1541 3.49506 14.9241 4.00506 15.3241L10.7651 20.5841C11.4851 21.1441 12.4951 21.1441 13.2251 20.5841L19.9851 15.3241C20.4951 14.9241 20.4951 14.1541 19.9851 13.7541L19.9751 13.7441C19.6151 13.4641 19.1151 13.4641 18.7551 13.7441L12.6051 18.5341ZM13.2351 15.5141L19.9951 10.2541C20.5051 9.85414 20.5051 9.07414 19.9951 8.67414L13.2351 3.41414C12.5151 2.85414 11.5051 2.85414 10.7751 3.41414L4.01506 8.68414C3.50506 9.08414 3.50506 9.86414 4.01506 10.2641L10.7751 15.5241C11.4951 16.0841 12.5151 16.0841 13.2351 15.5141Z" />
</svg>
