<svg width="24" height="24" viewBox="0 0 24 24"  xmlns="http://www.w3.org/2000/svg">
<path d="M20.105 12.02C20.605 11.97 20.985 11.54 20.985 11.03C20.985 10.44 20.475 9.97 19.885 10.03C18.385 10.18 16.985 10.64 15.725 11.33L17.205 12.81C18.105 12.4 19.075 12.12 20.105 12.02ZM20.985 15.07C20.985 14.46 20.445 13.98 19.845 14.07C19.465 14.13 19.095 14.23 18.735 14.35L20.355 15.97C20.725 15.82 20.985 15.48 20.985 15.07ZM13.955 4.12C14.015 3.53 13.555 3.01 12.955 3.01C12.455 3.01 12.015 3.38 11.965 3.88C11.865 4.91 11.585 5.89 11.175 6.79L12.655 8.27C13.345 7.01 13.805 5.61 13.955 4.12ZM9.91502 4.14C10.015 3.54 9.52502 3 8.91502 3C8.50502 3 8.16501 3.26 8.01501 3.62L9.63501 5.24C9.76501 4.89 9.85502 4.52 9.91502 4.14ZM20.425 18.86L5.10501 3.54C4.71501 3.15 4.08501 3.15 3.69501 3.54C3.30501 3.93 3.30501 4.56 3.69501 4.95L5.84501 7.1C5.25501 7.51 4.58501 7.8 3.85501 7.92C3.37501 8.02 3.01501 8.42 3.01501 8.92C3.01501 9.53 3.55501 10.01 4.15501 9.92C5.32501 9.73 6.38502 9.24 7.28502 8.55L8.71501 9.98C7.37501 11.08 5.71501 11.8 3.90501 11.97C3.40501 12.02 3.02501 12.45 3.02501 12.96C3.02501 13.55 3.53501 14.02 4.12501 13.96C6.40501 13.73 8.48501 12.81 10.135 11.4L12.615 13.88C11.215 15.53 10.285 17.6 10.055 19.88C9.99501 20.47 10.455 20.99 11.055 20.99C11.555 20.99 11.995 20.62 12.045 20.12C12.225 18.3 12.945 16.64 14.035 15.3L15.465 16.73C14.775 17.63 14.285 18.69 14.095 19.86C13.995 20.46 14.485 21 15.095 21C15.585 21 15.995 20.64 16.075 20.15C16.195 19.42 16.495 18.75 16.895 18.16L19.025 20.29C19.415 20.68 20.045 20.68 20.435 20.29C20.815 19.88 20.815 19.25 20.425 18.86Z" />
</svg>
