<svg width="24" height="24" viewBox="0 0 24 24"  xmlns="http://www.w3.org/2000/svg">
<path d="M13.9301 3.06969H11.9301C11.9301 4.41969 11.6201 5.69969 11.0901 6.83969L12.5801 8.32969C13.4401 6.76969 13.9301 4.97969 13.9301 3.06969ZM20.9301 12.0697V10.0697C19.0201 10.0697 17.2301 10.5597 15.6601 11.4197L17.1501 12.9097C18.3001 12.3797 19.5801 12.0697 20.9301 12.0697ZM20.9301 16.0697V14.0697C20.1401 14.0697 19.3901 14.1997 18.6901 14.4397L20.3701 16.1197C20.5601 16.1097 20.7401 16.0697 20.9301 16.0697ZM9.93005 3.06969H7.93005C7.93005 3.25969 7.89005 3.43969 7.87005 3.62969L9.55005 5.30969C9.80005 4.60969 9.93005 3.84969 9.93005 3.06969ZM4.34005 2.92969L2.93005 4.33969L5.77005 7.17969C4.96005 7.73969 3.99005 8.06969 2.93005 8.06969V10.0697C4.54005 10.0697 6.02005 9.51969 7.20005 8.60969L8.63005 10.0397C7.07005 11.3097 5.09005 12.0697 2.93005 12.0697V14.0697C5.65005 14.0697 8.13005 13.0797 10.0401 11.4497L12.5501 13.9597C10.9201 15.8797 9.93005 18.3597 9.93005 21.0697H11.9301C11.9301 18.9097 12.6901 16.9297 13.9601 15.3697L15.3901 16.7997C14.4801 17.9797 13.9301 19.4597 13.9301 21.0697H15.9301C15.9301 20.0097 16.2601 19.0397 16.8201 18.2297L19.6601 21.0697L21.0701 19.6597L4.34005 2.92969Z" />
</svg>
