<svg width="24" height="24" viewBox="0 0 24 24"  xmlns="http://www.w3.org/2000/svg">
<path d="M14.0996 8.2952H16.9696C18.4296 8.2952 19.7696 9.2752 20.0496 10.7152C20.3596 12.3552 19.3096 13.8252 17.8296 14.1952L19.3596 15.7252C21.1296 14.8152 22.3096 12.9052 22.0596 10.7152C21.7796 8.1552 19.4696 6.2952 16.8896 6.2952H14.0996C13.5496 6.2952 13.0996 6.74519 13.0996 7.2952C13.0996 7.8452 13.5496 8.2952 14.0996 8.2952ZM3.6096 2.8052C3.2196 2.4152 2.5896 2.4152 2.1996 2.8052C1.8096 3.1952 1.8096 3.8252 2.1996 4.2152L4.8396 6.8552C3.0696 7.76519 1.8896 9.6752 2.1396 11.8652C2.4196 14.4352 4.7296 16.2952 7.3096 16.2952H10.0996C10.6496 16.2952 11.0996 15.8452 11.0996 15.2952C11.0996 14.7452 10.6496 14.2952 10.0996 14.2952H7.2296C5.7696 14.2952 4.4296 13.3152 4.1496 11.8752C3.8396 10.2352 4.8996 8.7652 6.3696 8.3952L8.4896 10.5152C8.2596 10.7052 8.0996 10.9752 8.0996 11.2952C8.0996 11.8452 8.5496 12.2952 9.0996 12.2952H10.2696L19.1696 21.1952C19.5596 21.5852 20.1896 21.5852 20.5796 21.1952C20.9696 20.8052 20.9696 20.1752 20.5796 19.7852L3.6096 2.8052ZM14.0996 10.2952L15.8096 12.0052C15.9896 11.8252 16.0996 11.5752 16.0996 11.2952C16.0996 10.7452 15.6496 10.2952 15.0996 10.2952H14.0996Z" />
</svg>
