<svg width="24" height="24" viewBox="0 0 24 24"  xmlns="http://www.w3.org/2000/svg">
<path d="M3.63991 3.82514C3.24991 4.21514 3.24991 4.84514 3.63991 5.23514L6.10991 7.70514C5.99991 8.21514 5.92991 8.73514 5.92991 9.26514C5.92991 13.4351 10.3499 19.1851 12.1599 21.3751C12.5599 21.8551 13.2899 21.8551 13.6899 21.3751C14.3399 20.5951 15.3099 19.3651 16.2999 17.9151L18.9499 20.5651C19.3399 20.9551 19.9699 20.9551 20.3599 20.5651C20.7499 20.1751 20.7499 19.5451 20.3599 19.1551L5.04991 3.82514C4.65991 3.43514 4.02991 3.43514 3.63991 3.82514ZM12.9299 2.26514C11.0899 2.26514 9.42991 2.97514 8.17991 4.12514L11.3699 7.31514C11.7999 6.97514 12.3399 6.76514 12.9299 6.76514C14.3099 6.76514 15.4299 7.88514 15.4299 9.26514C15.4299 9.85514 15.2199 10.3951 14.8699 10.8251L18.4199 14.3751C19.2999 12.6251 19.9299 10.8351 19.9299 9.26514C19.9299 5.39514 16.7999 2.26514 12.9299 2.26514Z" />
</svg>
