<svg width="24" height="24" viewBox="0 0 24 24"  xmlns="http://www.w3.org/2000/svg">
<path d="M4.33993 2.86L2.92993 4.27L6.10993 7.45C5.99993 7.95 5.92993 8.47 5.92993 9C5.92993 14.25 12.9299 22 12.9299 22C12.9299 22 14.5999 20.15 16.3099 17.65L19.6599 21L21.0699 19.59L4.33993 2.86ZM12.9299 2C11.0899 2 9.42993 2.71 8.17993 3.86L11.3699 7.05C11.7999 6.71 12.3399 6.5 12.9299 6.5C14.3099 6.5 15.4299 7.62 15.4299 9C15.4299 9.59 15.2199 10.13 14.8699 10.56L18.4199 14.11C19.2999 12.36 19.9299 10.57 19.9299 9C19.9299 5.13 16.7999 2 12.9299 2Z" />
</svg>
