<svg width="24" height="24" viewBox="0 0 24 24"  xmlns="http://www.w3.org/2000/svg">
<path d="M18.8999 5.82285H18.3699L19.0799 3.85285C19.3199 3.20285 18.9799 2.48285 18.3299 2.25285C17.6799 2.01285 16.9599 2.35285 16.7199 3.00285L15.6999 5.82285H5.10993C3.73993 5.82285 2.77993 7.16285 3.20993 8.45285L5.00993 13.8228L3.21993 19.1928C2.77993 20.4828 3.74993 21.8228 5.10993 21.8228H18.8899C20.2499 21.8228 21.2199 20.4828 20.7899 19.1928L19.0099 13.8228L20.7899 8.45285C21.2199 7.16285 20.2599 5.82285 18.8999 5.82285ZM15.0099 14.8228H13.0099V16.8228C13.0099 17.3728 12.5599 17.8228 12.0099 17.8228C11.4599 17.8228 11.0099 17.3728 11.0099 16.8228V14.8228H9.00993C8.45993 14.8228 8.00993 14.3728 8.00993 13.8228C8.00993 13.2728 8.45993 12.8228 9.00993 12.8228H11.0099V10.8228C11.0099 10.2728 11.4599 9.82285 12.0099 9.82285C12.5599 9.82285 13.0099 10.2728 13.0099 10.8228V12.8228H15.0099C15.5599 12.8228 16.0099 13.2728 16.0099 13.8228C16.0099 14.3728 15.5599 14.8228 15.0099 14.8228Z" />
</svg>
