<svg width="24" height="24" viewBox="0 0 24 24"  xmlns="http://www.w3.org/2000/svg">
<path d="M7.79942 13.3317L10.6294 10.5017L4.43942 4.32166C3.95942 3.84166 3.12942 3.97166 2.82942 4.59166C2.11942 6.08166 2.37942 7.91166 3.60942 9.15166L7.79942 13.3317ZM14.5794 11.5217C16.1094 12.2317 18.2594 11.7317 19.8494 10.1417C21.7594 8.23166 22.1294 5.49166 20.6594 4.02166C19.1994 2.56166 16.4594 2.92166 14.5394 4.83166C12.9494 6.42166 12.4494 8.57166 13.1594 10.1017L4.10942 19.1517C3.71942 19.5417 3.71942 20.1717 4.10942 20.5617C4.49942 20.9517 5.12942 20.9517 5.51942 20.5617L11.6994 14.4017L17.8794 20.5817C18.2694 20.9717 18.8994 20.9717 19.2894 20.5817C19.6794 20.1917 19.6794 19.5617 19.2894 19.1717L13.1094 12.9917L14.5794 11.5217Z" />
</svg>
