<svg width="24" height="24" viewBox="0 0 24 24"  xmlns="http://www.w3.org/2000/svg">
<path d="M12 22.5C16.56 22.5 20.33 19.1 20.92 14.7C21.01 14.06 20.44 13.49 19.8 13.58C15.4 14.17 12 17.94 12 22.5ZM5.59996 10.75C5.59996 12.13 6.71996 13.25 8.09996 13.25C8.62996 13.25 9.10996 13.09 9.51996 12.81L9.49996 13C9.49996 14.38 10.62 15.5 12 15.5C13.38 15.5 14.5 14.38 14.5 13L14.48 12.81C14.88 13.09 15.37 13.25 15.9 13.25C17.28 13.25 18.4 12.13 18.4 10.75C18.4 9.75 17.81 8.9 16.97 8.5C17.81 8.1 18.4 7.25 18.4 6.25C18.4 4.87 17.28 3.75 15.9 3.75C15.37 3.75 14.89 3.91 14.48 4.19L14.5 4C14.5 2.62 13.38 1.5 12 1.5C10.62 1.5 9.49996 2.62 9.49996 4L9.51996 4.19C9.11996 3.91 8.62996 3.75 8.09996 3.75C6.71996 3.75 5.59996 4.87 5.59996 6.25C5.59996 7.25 6.18996 8.1 7.02996 8.5C6.18996 8.9 5.59996 9.75 5.59996 10.75ZM12 6C13.38 6 14.5 7.12 14.5 8.5C14.5 9.88 13.38 11 12 11C10.62 11 9.49996 9.88 9.49996 8.5C9.49996 7.12 10.62 6 12 6ZM3.07996 14.7C3.66996 19.1 7.43996 22.5 12 22.5C12 17.94 8.59996 14.17 4.19996 13.58C3.55996 13.49 2.98996 14.06 3.07996 14.7Z" />
</svg>
