<svg width="24" height="24" viewBox="0 0 24 24"  xmlns="http://www.w3.org/2000/svg">
<path d="M12.9299 4C15.6899 4 17.9299 6.24 17.9299 9C17.9299 10.06 17.5399 11.32 16.9299 12.62L18.4199 14.11C19.2999 12.36 19.9299 10.57 19.9299 9C19.9299 5.13 16.7999 2 12.9299 2C11.0899 2 9.42993 2.71 8.17993 3.86L9.60993 5.29C10.4899 4.5 11.6499 4 12.9299 4ZM12.9299 6.5C12.3399 6.5 11.7999 6.71 11.3699 7.06L14.8699 10.56C15.2199 10.13 15.4299 9.59 15.4299 9C15.4299 7.62 14.3099 6.5 12.9299 6.5ZM4.33993 2.86L2.92993 4.27L6.10993 7.45C5.99993 7.95 5.92993 8.47 5.92993 9C5.92993 14.25 12.9299 22 12.9299 22C12.9299 22 14.5999 20.15 16.3099 17.65L19.6599 21L21.0699 19.59L4.33993 2.86ZM12.9299 18.88C10.9199 16.3 8.12993 12.14 7.94993 9.29L14.8699 16.21C14.2199 17.19 13.5399 18.1 12.9299 18.88Z" />
</svg>
