<svg width="24" height="24" viewBox="0 0 24 24"  xmlns="http://www.w3.org/2000/svg">
<path d="M12 2.51953C9.01 2.51953 6.28 3.59953 4.17 5.39953C3.46 6.00953 3.31 7.04953 3.77 7.85953L11.13 20.9695C11.51 21.6495 12.49 21.6495 12.87 20.9695L20.23 7.85953C20.69 7.04953 20.54 5.99953 19.83 5.39953C17.73 3.60953 14.99 2.51953 12 2.51953ZM7 7.51953C7 6.41953 7.9 5.51953 9 5.51953C10.1 5.51953 11 6.41953 11 7.51953C11 8.61953 10.1 9.51953 9 9.51953C7.9 9.51953 7 8.61953 7 7.51953ZM12 15.5195C10.9 15.5195 10 14.6195 10 13.5195C10 12.4195 10.9 11.5195 12 11.5195C13.1 11.5195 14 12.4195 14 13.5195C14 14.6195 13.1 15.5195 12 15.5195Z" />
</svg>
