<svg width="24" height="24" viewBox="0 0 24 24"  xmlns="http://www.w3.org/2000/svg">
<path d="M12.0044 13.518L9.97439 15.518C9.51439 15.978 9.15439 16.548 9.04439 17.188C8.74439 19.028 10.1844 20.618 12.0044 20.618C13.8244 20.618 15.2644 19.028 14.9644 17.198C14.8544 16.558 14.5044 15.978 14.0344 15.528L12.0044 13.518Z" />
<path d="M15.5644 7.16803C14.3844 8.63803 12.0044 7.80803 12.0044 5.91803V4.38803C12.0044 3.58803 11.1144 3.10803 10.4544 3.54803C8.12439 5.10803 4.00439 8.58803 4.00439 13.618C4.00439 16.538 5.56439 19.088 7.89439 20.478C7.18439 19.458 6.83439 18.168 7.08439 16.798C7.27439 15.758 7.83439 14.818 8.59439 14.078L11.3044 11.408C11.6944 11.028 12.3144 11.028 12.7044 11.408L15.4344 14.098C16.1744 14.828 16.7344 15.748 16.9144 16.778C17.1644 18.138 16.8444 19.418 16.1444 20.438C18.0344 19.288 19.4344 17.378 19.8544 15.138C20.4644 11.868 19.0444 8.76803 16.6344 7.03803C16.3044 6.78803 15.8344 6.83803 15.5644 7.16803Z" />
</svg>
