<svg width="24" height="24" viewBox="0 0 24 24"  xmlns="http://www.w3.org/2000/svg">
<path d="M14.93 11.1773C16.19 10.8873 17.4 10.9673 18.5 11.2973V7.99727H15.5V6.21727C15.5 3.60727 13.59 1.27727 10.99 1.02727C8.01 0.737268 5.5 3.07727 5.5 5.99727V7.99727H2.5V21.9973H10.76C9.75 20.5473 9.26 18.6973 9.61 16.7273C10.1 13.9973 12.24 11.7873 14.93 11.1773ZM7.4 5.99727C7.4 4.28727 8.79 2.89727 10.5 2.89727C12.21 2.89727 13.6 4.28727 13.6 5.99727V7.99727H7.4V5.99727Z" />
<path d="M16.5 12.9973C13.74 12.9973 11.5 15.2373 11.5 17.9973C11.5 20.7573 13.74 22.9973 16.5 22.9973C19.26 22.9973 21.5 20.7573 21.5 17.9973C21.5 15.2373 19.26 12.9973 16.5 12.9973ZM16.5 14.9973C17.33 14.9973 18 15.6673 18 16.4973C18 17.3273 17.33 17.9973 16.5 17.9973C15.67 17.9973 15 17.3273 15 16.4973C15 15.6673 15.67 14.9973 16.5 14.9973ZM16.5 20.9973C15.47 20.9973 14.56 20.4773 14.02 19.6773C14.75 19.2573 15.59 18.9973 16.5 18.9973C17.41 18.9973 18.25 19.2573 18.98 19.6773C18.44 20.4773 17.53 20.9973 16.5 20.9973Z" />
</svg>
