<svg width="24" height="24" viewBox="0 0 24 24"  xmlns="http://www.w3.org/2000/svg">
<path d="M11.9994 10.5C8.52938 10.5 5.63938 13.04 5.08938 16.36C4.98938 16.96 5.47938 17.5 6.08938 17.5C6.57938 17.5 6.98938 17.14 7.06938 16.65C7.47938 14.29 9.52938 12.5 11.9994 12.5C14.4694 12.5 16.5194 14.29 16.9294 16.65C17.0094 17.14 17.4194 17.5 17.9094 17.5C18.5194 17.5 18.9994 16.96 18.8994 16.36C18.3594 13.04 15.4694 10.5 11.9994 10.5ZM11.9994 6.5C6.29938 6.5 1.60938 10.84 1.04938 16.4C0.999376 16.99 1.45938 17.5 2.05938 17.5C2.56938 17.5 2.99938 17.12 3.04938 16.62C3.48938 12.07 7.33938 8.5 11.9994 8.5C16.6594 8.5 20.5094 12.07 20.9594 16.62C21.0094 17.12 21.4394 17.5 21.9494 17.5C22.5394 17.5 23.0094 16.99 22.9494 16.4C22.3894 10.84 17.6994 6.5 11.9994 6.5Z" />
</svg>
