<svg width="24" height="24" viewBox="0 0 24 24"  xmlns="http://www.w3.org/2000/svg">
<path d="M12.9984 6.99865H10.9984V10.9986H6.9984V12.9986H10.9984V16.9986H12.9984V12.9986H16.9984V10.9986H12.9984V6.99865ZM12.7284 2.02865C6.6484 1.58865 1.5884 6.64865 2.0284 12.7286C2.4084 18.0086 7.0284 21.9986 12.3184 21.9986H21.9984V12.3186C21.9984 7.01865 18.0184 2.40865 12.7284 2.02865ZM11.9984 19.9986C7.5884 19.9986 3.9984 16.4086 3.9984 11.9986C3.9984 7.58865 7.5884 3.99865 11.9984 3.99865C16.4084 3.99865 19.9984 7.58865 19.9984 11.9986C19.9984 16.4086 16.4084 19.9986 11.9984 19.9986Z" />
</svg>
