<svg width="24" height="24" viewBox="0 0 24 24"  xmlns="http://www.w3.org/2000/svg">
<path d="M1.99997 19C1.99997 20.1 2.89997 21 3.99997 21H20C21.1 21 22 20.1 22 19V16H1.99997V19ZM3.99997 18H20V19H3.99997V18Z" />
<path d="M18.66 11.5C16.71 11.5 16.57 12.5 15.33 12.5C14.14 12.5 13.91 11.5 12 11.5C10.05 11.5 9.90997 12.5 8.66997 12.5C7.47997 12.5 7.24997 11.5 5.33997 11.5C3.38997 11.5 3.24997 12.5 2.00997 12.5V14.5C3.90997 14.5 4.17997 13.5 5.35997 13.5C6.54997 13.5 6.77997 14.5 8.68997 14.5C10.64 14.5 10.78 13.5 12.02 13.5C13.21 13.5 13.44 14.5 15.35 14.5C17.3 14.5 17.44 13.5 18.68 13.5C19.87 13.5 20.08 14.48 22 14.5L21.99 12.52C20.38 12.19 20.37 11.5 18.66 11.5Z" />
<path d="M22 9C22.02 5 17.72 3 12 3C6.28997 3 1.99997 5 1.99997 9V10H22V9ZM4.17997 8C5.00997 5.81 8.60997 5 12 5C15.31 5 17.93 5.73 19.19 6.99C19.49 7.3 19.71 7.63 19.84 8H4.17997Z" />
</svg>
