<svg width="24" height="24" viewBox="0 0 24 24"  xmlns="http://www.w3.org/2000/svg">
<path d="M3.36997 14.28C4.15997 13.99 4.53997 13.5 5.35997 13.5C6.54997 13.5 6.77997 14.5 8.68997 14.5C10.64 14.5 10.78 13.5 12.02 13.5C13.21 13.5 13.44 14.5 15.35 14.5C17.3 14.5 17.44 13.5 18.68 13.5C19.49 13.5 19.85 13.96 20.61 14.26C21.28 14.52 22 14.01 22 13.3C22 12.87 21.72 12.49 21.31 12.34C20.34 11.99 20.09 11.51 18.66 11.51C16.71 11.51 16.57 12.51 15.33 12.51C14.14 12.51 13.91 11.51 12 11.51C10.05 11.51 9.90997 12.51 8.66997 12.51C7.47997 12.51 7.24997 11.51 5.33997 11.51C3.78997 11.51 3.37997 12.14 2.65997 12.4C2.26997 12.54 2.00997 12.92 2.00997 13.34C2.00997 14.03 2.70997 14.52 3.36997 14.28Z" />
<path d="M1.99997 19C1.99997 20.1 2.89997 21 3.99997 21H20C21.1 21 22 20.1 22 19V18C22 16.9 21.1 16 20 16H3.99997C2.89997 16 1.99997 16.9 1.99997 18V19Z" />
<path d="M22 9C22.02 5 17.72 3 12 3C6.28997 3 1.99997 5 1.99997 9C1.99997 9.55 2.44997 10 2.99997 10H21C21.55 10 22 9.55 22 9Z" />
</svg>
