<svg width="24" height="24" viewBox="0 0 24 24"  xmlns="http://www.w3.org/2000/svg">
<path d="M20.69 17.3502C21.34 16.1102 21.71 14.7002 21.71 13.2002C20.21 13.2002 18.8 13.5702 17.56 14.2202L20.69 17.3502Z" />
<path d="M3.71001 13.2002C3.71001 18.1702 7.74001 22.2002 12.71 22.2002C12.71 17.2302 8.68001 13.2002 3.71001 13.2002Z" />
<path d="M12.71 5.7002C14.09 5.7002 15.21 6.8202 15.21 8.2002C15.21 9.1902 14.63 10.0402 13.79 10.4502L16.27 12.9302C16.38 12.9502 16.5 12.9602 16.62 12.9602C18 12.9602 19.12 11.8402 19.12 10.4602C19.12 9.4602 18.53 8.6102 17.69 8.2102C18.53 7.8102 19.12 6.9602 19.12 5.9602C19.12 4.5802 18 3.4602 16.62 3.4602C16.09 3.4602 15.61 3.6202 15.2 3.9002L15.21 3.7002C15.21 2.3202 14.09 1.2002 12.71 1.2002C11.33 1.2002 10.21 2.3202 10.21 3.7002L10.23 3.8902C9.83001 3.6102 9.34001 3.4502 8.81001 3.4502C8.24001 3.4502 7.72001 3.6502 7.30001 3.9702L10.46 7.1302C10.87 6.2802 11.72 5.7002 12.71 5.7002Z" />
<path d="M3.52001 3.0102L2.10001 4.4202L6.74001 9.06019C6.47001 9.46019 6.31001 9.93019 6.31001 10.4502C6.31001 11.8302 7.43001 12.9502 8.81001 12.9502C9.33001 12.9502 9.80001 12.7902 10.21 12.5202L10.23 12.5402L10.21 12.7002C10.21 14.0802 11.33 15.2002 12.71 15.2002C12.76 15.2002 12.81 15.1902 12.87 15.1802L14.51 16.8202C13.38 18.3202 12.71 20.1802 12.71 22.2002C14.73 22.2002 16.59 21.5302 18.09 20.4002L20.49 22.8002L21.9 21.3902L3.52001 3.0102Z" />
</svg>
