<svg width="24" height="24" viewBox="0 0 24 24"  xmlns="http://www.w3.org/2000/svg">
<path d="M4.83156 13.4833C4.19156 13.3933 3.62156 13.9633 3.71156 14.6033C4.30156 19.0033 8.07156 22.4033 12.6316 22.4033C12.6316 17.8433 9.23156 14.0733 4.83156 13.4833Z" />
<path d="M12.6316 5.90332C14.0116 5.90332 15.1316 7.02332 15.1316 8.40332C15.1316 9.39332 14.5516 10.2433 13.7116 10.6533L16.1916 13.1333C16.3016 13.1533 16.4216 13.1633 16.5416 13.1633C17.9216 13.1633 19.0416 12.0433 19.0416 10.6633C19.0416 9.66332 18.4516 8.81332 17.6116 8.41332C18.4516 8.01332 19.0416 7.16332 19.0416 6.16332C19.0416 4.78332 17.9216 3.66332 16.5416 3.66332C16.0116 3.66332 15.5316 3.82332 15.1216 4.10332L15.1316 3.90332C15.1316 2.52332 14.0116 1.40332 12.6316 1.40332C11.2516 1.40332 10.1316 2.52332 10.1316 3.90332L10.1516 4.09332C9.75156 3.81332 9.26156 3.65332 8.73156 3.65332C8.16156 3.65332 7.64156 3.85332 7.22156 4.17332L10.3816 7.33332C10.7916 6.48332 11.6416 5.90332 12.6316 5.90332Z" />
<path d="M20.6116 17.5533C21.0816 16.6433 21.4116 15.6533 21.5516 14.6033C21.6416 13.9633 21.0716 13.3933 20.4316 13.4833C19.3816 13.6233 18.3816 13.9533 17.4816 14.4233L20.6116 17.5533Z" />
<path d="M2.73156 3.91332C2.34156 4.30332 2.34156 4.93332 2.73156 5.32332L6.66156 9.25332C6.31156 9.77332 6.13156 10.4233 6.28156 11.1433C6.50156 12.2733 7.54156 13.1233 8.69156 13.1433C9.23156 13.1533 9.71156 12.9933 10.1316 12.7133L10.1516 12.7333L10.1316 12.9033C10.1316 14.2833 11.2516 15.4033 12.6316 15.4033C12.6816 15.4033 12.7316 15.3933 12.7916 15.3833L14.4316 17.0233C13.3016 18.5233 12.6316 20.3833 12.6316 22.4033C14.6516 22.4033 16.5116 21.7333 18.0116 20.6133L19.7016 22.3033C20.0916 22.6933 20.7216 22.6933 21.1116 22.3033C21.5016 21.9133 21.5016 21.2833 21.1116 20.8933L4.14156 3.91332C3.75156 3.52332 3.12156 3.52332 2.73156 3.91332Z" />
</svg>
