<svg width="24" height="24" viewBox="0 0 24 24"  xmlns="http://www.w3.org/2000/svg">
<path d="M21 9.97V6C21 4.9 20.1 4 19 4H3C1.9 4 1.01 4.9 1.01 6L1 18C1 19.1 1.9 20 3 20H15V14.97C15 12.21 17.24 9.97 20 9.97H21ZM18.6 8.25L12.06 12.34C11.41 12.75 10.59 12.75 9.94 12.34L3.4 8.25C3.15 8.09 3 7.82 3 7.53C3 6.86 3.73 6.46 4.3 6.81L11 11L17.7 6.81C18.27 6.46 19 6.86 19 7.53C19 7.82 18.85 8.09 18.6 8.25Z" />
<path d="M22 15V14C22 12.9 21.1 12 20 12C18.9 12 18 12.9 18 14V15C17.45 15 17 15.45 17 16V19C17 19.55 17.45 20 18 20H22C22.55 20 23 19.55 23 19V16C23 15.45 22.55 15 22 15ZM21 15H19V14C19 13.45 19.45 13 20 13C20.55 13 21 13.45 21 14V15Z" />
</svg>
