<svg width="24" height="24" viewBox="0 0 24 24"  xmlns="http://www.w3.org/2000/svg">
<path d="M14 7.02461H10C8.9 7.02461 8 7.92461 8 9.02461V14.0246C8 14.5746 8.45 15.0246 9 15.0246H10V21.0246C10 21.5746 10.45 22.0246 11 22.0246H13C13.55 22.0246 14 21.5746 14 21.0246V15.0246H15C15.55 15.0246 16 14.5746 16 14.0246V9.02461C16 7.92461 15.1 7.02461 14 7.02461Z" />
<path d="M11.65 5.92461L10.1 4.37461C9.9 4.17461 9.9 3.86461 10.1 3.66461L11.64 2.12461C11.84 1.92461 12.15 1.92461 12.35 2.12461L13.89 3.66461C14.09 3.86461 14.09 4.17461 13.89 4.37461L12.35 5.92461C12.16 6.11461 11.84 6.11461 11.65 5.92461Z" />
</svg>
