<svg width="24" height="24" viewBox="0 0 24 24"  xmlns="http://www.w3.org/2000/svg">
<path d="M21.4006 17.5049C21.4006 17.2849 21.3706 17.0849 21.3406 16.8749L22.1806 16.1449C22.3606 15.9849 22.4006 15.7249 22.2806 15.5149L21.6906 14.4949C21.5706 14.2849 21.3206 14.1949 21.1006 14.2749L20.0406 14.6349C19.7206 14.3649 19.3606 14.1549 18.9606 14.0049L18.7406 12.9149C18.6906 12.6849 18.4906 12.5149 18.2506 12.5149H17.0706C16.8306 12.5149 16.6306 12.6849 16.5806 12.9149L16.3606 14.0049C15.9606 14.1549 15.6006 14.3649 15.2806 14.6349L14.2206 14.2749C13.9906 14.1949 13.7506 14.2949 13.6306 14.4949L13.0406 15.5149C12.9206 15.7249 12.9606 15.9849 13.1406 16.1449L13.9806 16.8749C13.9506 17.0849 13.9206 17.2849 13.9206 17.5049C13.9206 17.7249 13.9506 17.9249 13.9806 18.1349L13.1406 18.8649C12.9606 19.0249 12.9206 19.2849 13.0406 19.4949L13.6306 20.5149C13.7506 20.7249 14.0006 20.8149 14.2206 20.7349L15.2806 20.3749C15.6006 20.6449 15.9606 20.8549 16.3606 21.0049L16.5806 22.0949C16.6306 22.3249 16.8306 22.4949 17.0706 22.4949H18.2506C18.4906 22.4949 18.6906 22.3249 18.7406 22.0949L18.9606 21.0049C19.3606 20.8549 19.7206 20.6449 20.0406 20.3749L21.1006 20.7349C21.3306 20.8149 21.5706 20.7149 21.6906 20.5149L22.2806 19.4949C22.4006 19.2849 22.3606 19.0249 22.1806 18.8649L21.3406 18.1349C21.3706 17.9249 21.4006 17.7249 21.4006 17.5049ZM17.6506 19.5049C16.5506 19.5049 15.6506 18.6049 15.6506 17.5049C15.6506 16.4049 16.5506 15.5049 17.6506 15.5049C18.7506 15.5049 19.6506 16.4049 19.6506 17.5049C19.6506 18.6049 18.7506 19.5049 17.6506 19.5049ZM10.6506 5.50488C10.1006 5.50488 9.65063 5.95488 9.65063 6.50488V10.5049C9.65063 10.7749 9.76063 11.0249 9.94063 11.2149L12.0106 13.2849L13.0506 11.4949L11.6506 10.0949V6.50488C11.6506 5.95488 11.2006 5.50488 10.6506 5.50488ZM2.91063 11.5049C2.26064 11.5049 1.77063 12.1149 1.93063 12.7449C2.93063 16.6349 6.45063 19.5049 10.6506 19.5049C10.6706 19.5049 10.7006 19.5049 10.7206 19.5049L9.51063 17.4149C6.76063 16.9649 4.55063 14.9049 3.87063 12.2349C3.76063 11.7949 3.36064 11.5049 2.91063 11.5049ZM2.65063 8.50488C2.10063 8.50488 1.65063 8.05488 1.65063 7.50488V3.50488C1.65063 2.95488 2.10063 2.50488 2.65063 2.50488C3.20063 2.50488 3.65063 2.95488 3.65063 3.50488V4.86488C5.30063 2.82488 7.82063 1.50488 10.6506 1.50488C15.6206 1.50488 19.6506 5.53488 19.6506 10.5049H17.6506C17.6506 6.64488 14.5106 3.50488 10.6506 3.50488C8.28063 3.50488 6.18063 4.69488 4.91063 6.50488H6.65063C7.20063 6.50488 7.65063 6.95488 7.65063 7.50488C7.65063 8.05488 7.20063 8.50488 6.65063 8.50488H2.65063Z" />
</svg>
