<svg width="24" height="24" viewBox="0 0 24 24"  xmlns="http://www.w3.org/2000/svg">
<path d="M19 7.70801C20.6569 7.70801 22 6.36486 22 4.70801C22 3.05115 20.6569 1.70801 19 1.70801C17.3431 1.70801 16 3.05115 16 4.70801C16 6.36486 17.3431 7.70801 19 7.70801Z" />
<path d="M7 9.70801C6.45 9.70801 6 9.25801 6 8.70801C6 8.15801 6.45 7.70801 7 7.70801H15.03C13.82 6.10801 13.95 4.49801 14.11 3.70801H4.01C2.91 3.70801 2.01 4.59801 2.01 5.70801L2 21.288C2 22.178 3.08 22.628 3.71 21.998L6 19.708H20C21.1 19.708 22 18.808 22 17.708V8.67801C21.16 9.31801 20.13 9.70801 19 9.70801H7ZM13 15.708H7C6.45 15.708 6 15.258 6 14.708C6 14.158 6.45 13.708 7 13.708H13C13.55 13.708 14 14.158 14 14.708C14 15.258 13.55 15.708 13 15.708ZM17 12.708H7C6.45 12.708 6 12.258 6 11.708C6 11.158 6.45 10.708 7 10.708H17C17.55 10.708 18 11.158 18 11.708C18 12.258 17.55 12.708 17 12.708Z" />
</svg>
