<svg width="24" height="24" viewBox="0 0 24 24"  xmlns="http://www.w3.org/2000/svg">
<path d="M18.1098 13.001H13.0498C12.7098 16.101 10.7898 18.721 8.10978 20.051C8.07978 21.861 6.44978 23.281 4.55978 22.951C3.35978 22.741 2.36978 21.751 2.15978 20.551C1.81978 18.651 3.26978 17.001 5.10978 17.001C6.05978 17.001 6.88978 17.451 7.43978 18.141C9.33978 17.111 10.6998 15.231 11.0198 13.001H7.91978C7.43978 14.341 6.05978 15.241 4.49978 14.941C3.31978 14.711 2.36978 13.741 2.14978 12.561C1.80978 10.661 3.26978 9.00098 5.10978 9.00098C6.40978 9.00098 7.50978 9.84098 7.92978 11.001H11.0298C10.7098 8.77098 9.33978 6.90098 7.43978 5.86098C6.79978 6.66098 5.76978 7.14098 4.62978 6.96098C3.39978 6.77098 2.36978 5.77098 2.15978 4.54098C1.82978 2.65098 3.27978 1.00098 5.10978 1.00098C6.74978 1.00098 8.06978 2.31098 8.09978 3.95098C10.7798 5.28098 12.6998 7.90098 13.0398 11.001H18.1098V9.21098C18.1098 8.76098 18.6498 8.54098 18.9598 8.86098L21.7498 11.651C21.9498 11.851 21.9498 12.161 21.7498 12.361L18.9598 15.151C18.6498 15.461 18.1098 15.241 18.1098 14.791V13.001Z" />
</svg>
