<svg width="24" height="24" viewBox="0 0 24 24"  xmlns="http://www.w3.org/2000/svg">
<path d="M9.30501 5.46547V2.29547H15.305V6.29547H11.305V7.46547L9.30501 5.46547ZM19.725 14.2955L22.305 16.8655L21.505 17.6655L14.725 10.8855L15.525 10.0855L18.275 12.8355V8.29547H18.875L22.305 11.7255L19.725 14.2955ZM19.475 12.8455L20.605 11.7155L19.475 10.5855V12.8455ZM17.515 16.5055L21.495 20.4855L20.085 21.8955L16.105 17.9155L15.525 18.4955L14.675 17.6455L15.255 17.0655L11.305 13.1255V16.2955C11.305 18.5055 9.52501 20.2955 7.31501 20.2955C5.10501 20.2955 3.30501 18.5055 3.30501 16.2955C3.30501 14.0855 5.09501 12.2955 7.31501 12.2955C8.04501 12.2955 8.72501 12.5055 9.31501 12.8455V11.1255L1.69501 3.51547L3.10501 2.10547L16.665 15.6655L17.515 16.5055Z" />
</svg>
