<svg width="24" height="24" viewBox="0 0 24 24"  xmlns="http://www.w3.org/2000/svg">
<path d="M9.20123 5.57332V4.40332C9.20123 3.30332 10.1012 2.40332 11.2012 2.40332H13.2012C14.3012 2.40332 15.2012 3.30332 15.2012 4.40332C15.2012 5.50332 14.3012 6.40332 13.2012 6.40332H11.2012V7.57332L9.20123 5.57332ZM19.6212 14.4033L21.8012 16.5733C22.0212 16.7933 22.0212 17.1533 21.8012 17.3733C21.5812 17.5933 21.2212 17.5933 21.0012 17.3733L15.0212 11.3933C14.8012 11.1733 14.8012 10.8133 15.0212 10.5933C15.2412 10.3733 15.6012 10.3733 15.8212 10.5933L18.1712 12.9433V9.01332C18.1712 8.56332 18.7112 8.34332 19.0212 8.66332L21.8412 11.4833C22.0412 11.6833 22.0412 11.9933 21.8412 12.1933L19.6212 14.4033ZM19.3712 12.9533L20.5012 11.8233L19.3712 10.6933V12.9533ZM20.6912 19.8933C21.0812 20.2833 21.0812 20.9133 20.6912 21.3033C20.3012 21.6933 19.6712 21.6933 19.2812 21.3033L16.0012 18.0233L15.8412 18.1833C15.6112 18.4133 15.2212 18.4133 14.9912 18.1833C14.7612 17.9533 14.7612 17.5633 14.9912 17.3333L15.1512 17.1733L11.2012 13.2333V16.2533C11.2012 18.3233 9.52123 20.2633 7.46123 20.3933C5.14123 20.5333 3.20123 18.6933 3.20123 16.4033C3.20123 14.1933 4.99123 12.4033 7.21123 12.4033C7.94123 12.4033 8.62123 12.6133 9.21123 12.9533V11.2333L2.30123 4.32332C1.91123 3.93332 1.91123 3.30332 2.30123 2.91332C2.69123 2.52332 3.32123 2.52332 3.71123 2.91332L20.6912 19.8933Z" />
</svg>
