<svg width="24" height="24" viewBox="0 0 24 24"  xmlns="http://www.w3.org/2000/svg">
<path d="M8.70998 7.71047C8.31998 7.32047 8.31998 6.69047 8.70998 6.30047L11.3 3.71047C11.69 3.32047 12.32 3.32047 12.71 3.71047L15.3 6.30047C15.69 6.69047 15.69 7.32047 15.3 7.71047C14.91 8.10047 14.28 8.10047 13.89 7.71047L13 6.83047V11.9305C13 12.9905 13.42 14.0105 14.17 14.7605L18.29 18.8805C18.68 19.2705 18.68 19.9005 18.29 20.2905C17.9 20.6805 17.27 20.6805 16.88 20.2905L12 15.4105L7.11998 20.2905C6.72998 20.6805 6.09998 20.6805 5.70998 20.2905C5.31998 19.9005 5.31998 19.2705 5.70998 18.8805L9.82998 14.7605C10.58 14.0105 11 12.9905 11 11.9305V6.83047L10.12 7.71047C9.72998 8.10047 9.09998 8.10047 8.70998 7.71047Z" />
</svg>
