<svg width="24" height="24" viewBox="0 0 24 24"  xmlns="http://www.w3.org/2000/svg">
<path d="M21.9001 20.8853L3.5201 2.50531L2.1001 3.91531L5.8801 7.69531H4.7101L5.7101 17.6953H6.7101C6.7101 19.9053 8.5001 21.6953 10.7101 21.6953C12.9201 21.6953 14.7101 19.9053 14.7101 17.6953V16.5253L20.4901 22.3053L21.9001 20.8853ZM12.7101 17.6953C12.7101 18.7953 11.8101 19.6953 10.7101 19.6953C9.6101 19.6953 8.7101 18.7953 8.7101 17.6953H9.7101L10.2701 12.0853L12.7101 14.5253V17.6953ZM14.7101 5.69531V10.8653L12.7101 8.86531V5.69531C12.7101 3.48531 14.5001 1.69531 16.7101 1.69531C18.9201 1.69531 20.7101 3.48531 20.7101 5.69531V16.8653L18.7101 14.8653V5.69531C18.7101 4.59531 17.8101 3.69531 16.7101 3.69531C15.6101 3.69531 14.7101 4.59531 14.7101 5.69531ZM10.7101 4.69531C10.7101 5.31531 10.5101 5.87531 10.1901 6.35531L6.0401 2.20531C6.5201 1.88531 7.0901 1.69531 7.7101 1.69531C9.3701 1.69531 10.7101 3.03531 10.7101 4.69531Z" />
</svg>
