<svg width="24" height="24" viewBox="0 0 24 24"  xmlns="http://www.w3.org/2000/svg">
<path d="M14.7101 5.54883C14.7101 4.30883 15.8501 3.32883 17.1301 3.58883C18.0701 3.78883 18.7101 4.67883 18.7101 5.63883V14.7188L20.7101 16.7188V5.70883C20.7101 3.62883 19.0301 1.67883 16.9501 1.55883C14.6301 1.41883 12.7101 3.25883 12.7101 5.54883V8.71883L14.7101 10.7188V5.54883Z" />
<path d="M10.7101 4.54883C10.7101 2.88883 9.37012 1.54883 7.71012 1.54883C7.09012 1.54883 6.52012 1.73883 6.04012 2.04883L10.1901 6.19883C10.5101 5.72883 10.7101 5.15883 10.7101 4.54883Z" />
<path d="M2.10012 2.35883C1.71012 2.74883 1.71012 3.37883 2.10012 3.76883L5.88012 7.54883H5.81012C5.22012 7.54883 4.76012 8.05883 4.81012 8.64883L5.66012 17.0988C5.69012 17.3588 5.91012 17.5488 6.16012 17.5488H6.71012C6.71012 19.8888 8.72012 21.7588 11.1001 21.5288C13.1801 21.3288 14.7101 19.4688 14.7101 17.3788V16.3788L20.4901 22.1588C20.8801 22.5488 21.5101 22.5488 21.9001 22.1588C22.2901 21.7688 22.2901 21.1388 21.9001 20.7488L3.52012 2.35883C3.13012 1.96883 2.49012 1.96883 2.10012 2.35883ZM12.7101 17.4588C12.7101 18.4188 12.0701 19.3188 11.1301 19.5088C9.85012 19.7688 8.71012 18.7888 8.71012 17.5488H9.26012C9.52012 17.5488 9.73012 17.3588 9.76012 17.0988L10.2801 11.9388L12.7101 14.3788V17.4588Z" />
</svg>
