<svg width="24" height="24" viewBox="0 0 24 24"  xmlns="http://www.w3.org/2000/svg">
<path d="M16.705 6.30855H18.495C18.945 6.30855 19.165 5.76855 18.845 5.45855L16.055 2.66855C15.855 2.46855 15.545 2.46855 15.345 2.66855L12.555 5.45855C12.245 5.76855 12.465 6.30855 12.915 6.30855H14.705V10.4786L16.705 12.4786V6.30855Z" />
<path d="M2.805 2.81855C2.415 3.20855 2.415 3.83855 2.805 4.22855L8.705 10.1286V16.3086H6.915C6.465 16.3086 6.245 16.8486 6.565 17.1586L9.355 19.9386C9.555 20.1286 9.865 20.1286 10.065 19.9386L12.855 17.1486C13.175 16.8286 12.945 16.2986 12.505 16.2986H10.715V12.1186L19.785 21.1886C20.175 21.5786 20.805 21.5786 21.195 21.1886C21.585 20.7986 21.585 20.1686 21.195 19.7786L4.215 2.81855C3.825 2.42855 3.195 2.42855 2.805 2.81855Z" />
</svg>
