<svg width="24" height="24" viewBox="0 0 24 24"  xmlns="http://www.w3.org/2000/svg">
<path d="M3.80504 3.05C3.41504 2.66 2.78504 2.66 2.39504 3.05C2.00504 3.44 2.00504 4.07 2.39504 4.46L5.19504 7.27V21C5.19504 22.1 6.09504 23 7.19504 23H17.195C18.215 23 19.045 22.23 19.175 21.25L20.195 22.27C20.585 22.66 21.215 22.66 21.605 22.27C21.995 21.88 21.995 21.25 21.605 20.86L19.195 18.44L3.80504 3.05ZM7.19504 19V9.27L16.925 19H7.19504ZM17.195 5V13.61L19.195 15.61V3C19.195 1.9 18.295 1 17.195 1H7.19504C6.48504 1 5.86504 1.37 5.51504 1.93L8.58504 5H17.195Z" />
</svg>
