<svg width="24" height="24" viewBox="0 0 24 24"  xmlns="http://www.w3.org/2000/svg">
<path d="M18.7213 1H8.72131C7.62131 1 6.72131 1.9 6.72131 3V5C6.72131 5.55 7.17131 6 7.72131 6C8.27131 6 8.72131 5.55 8.72131 5V4H18.7213V20H8.72131V19C8.72131 18.45 8.27131 18 7.72131 18C7.17131 18 6.72131 18.45 6.72131 19V21C6.72131 22.1 7.62131 23 8.72131 23H18.7213C19.8213 23 20.7213 22.1 20.7213 21V3C20.7213 1.9 19.8213 1 18.7213 1ZM6.73131 13.47L4.81131 11.55C4.46131 11.2 3.89131 11.2 3.54131 11.55C3.19131 11.9 3.19131 12.47 3.54131 12.82L6.01131 15.29C6.40131 15.68 7.03131 15.68 7.42131 15.29L13.2713 9.44C13.6213 9.09 13.6213 8.52 13.2713 8.17C12.9213 7.82 12.3513 7.82 12.0013 8.17L6.73131 13.47Z" />
</svg>
