<svg width="24" height="24" viewBox="0 0 24 24"  xmlns="http://www.w3.org/2000/svg">
<path d="M18.3049 7.7002C17.2449 7.7002 16.6649 7.99019 14.3949 8.89019C14.2049 8.7502 13.9949 8.62019 13.7749 8.5202C14.0249 7.4902 14.3849 6.9902 15.1049 6.4802C15.9149 5.9102 16.3049 5.1402 16.3049 4.2002C16.3049 2.9802 15.3549 1.7002 13.7049 1.7002C10.6249 1.7002 8.78495 3.1702 8.38495 4.9602L10.7149 7.2902C10.3749 6.3902 10.3049 6.0802 10.3049 5.7002C10.3049 4.5202 11.7049 3.7002 13.7049 3.7002C14.2749 3.7002 14.3049 4.1202 14.3049 4.2002C14.3049 4.4702 14.2549 4.6302 13.9549 4.8502C12.6849 5.7502 12.1249 6.7602 11.7949 8.2402L11.7749 8.3402L19.0249 15.5902C19.2649 15.6502 19.5249 15.7002 19.8049 15.7002C21.0249 15.7002 22.3049 14.7502 22.3049 13.1002C22.3049 9.6102 20.4149 7.7002 18.3049 7.7002ZM19.8049 13.7002C19.5349 13.7002 19.3749 13.6502 19.1549 13.3502C18.2549 12.0802 17.2449 11.5202 15.7649 11.1902C15.7349 10.9702 15.6849 10.7702 15.6149 10.5702C17.4149 9.8202 17.7949 9.7002 18.3049 9.7002C19.4849 9.7002 20.3049 11.1002 20.3049 13.1002C20.3049 13.6702 19.8849 13.7002 19.8049 13.7002Z" />
<path d="M1.69495 3.9202L5.58495 7.81019C5.34495 7.7502 5.08495 7.7002 4.80495 7.7002C3.58495 7.7002 2.30495 8.6502 2.30495 10.3002C2.30495 13.7902 4.19495 15.7002 6.30495 15.7002C7.36495 15.7002 7.94495 15.4102 10.2149 14.5102C10.4049 14.6502 10.6149 14.7802 10.8349 14.8802C10.5849 15.9102 10.2249 16.4102 9.50495 16.9202C8.69495 17.4902 8.30495 18.2602 8.30495 19.2002C8.30495 20.4202 9.25495 21.7002 10.9049 21.7002C13.9849 21.7002 15.8249 20.2302 16.2249 18.4402L20.0849 22.3002L21.4949 20.8902L3.11495 2.5102L1.69495 3.9202ZM12.8249 15.1602C12.8549 15.1602 12.8849 15.1402 12.9149 15.1402L13.8849 16.1102C14.2349 17.0102 14.3049 17.3202 14.3049 17.7002C14.3049 18.8802 12.9049 19.7002 10.9049 19.7002C10.3349 19.7002 10.3049 19.2802 10.3049 19.2002C10.3049 18.9302 10.3549 18.7702 10.6549 18.5502C11.9349 17.6602 12.4849 16.6402 12.8249 15.1602ZM8.84495 12.2202C8.87495 12.4402 8.92495 12.6402 8.99495 12.8402C7.19495 13.5802 6.81495 13.7002 6.30495 13.7002C5.12495 13.7002 4.30495 12.3002 4.30495 10.3002C4.30495 9.7302 4.72495 9.7002 4.80495 9.7002C5.07495 9.7002 5.23495 9.7502 5.45495 10.0502C6.34495 11.3302 7.36495 11.8802 8.84495 12.2202Z" />
</svg>
