<svg width="24" height="24" viewBox="0 0 24 24"  xmlns="http://www.w3.org/2000/svg">
<path d="M16.6449 8.05531L14.3549 8.87531C14.1749 8.74531 13.9749 8.62531 13.7749 8.53531C13.9449 7.70531 14.4049 6.95531 15.1349 6.47531C17.1549 5.13531 16.4849 1.69531 13.6949 1.69531C10.6149 1.69531 8.79495 3.16531 8.39495 4.95531L19.0349 15.5953C20.5349 15.9853 22.3049 15.0853 22.3049 13.0853C22.3049 8.69531 19.2949 6.85531 16.6449 8.05531Z" />
<path d="M3.11495 2.50531L1.69495 3.91531L5.57495 7.79531C4.07495 7.39531 2.30495 8.30531 2.30495 10.3053C2.30495 14.7053 5.31495 16.5453 7.96495 15.3353L10.2549 14.5153C10.4349 14.6453 10.6349 14.7653 10.8349 14.8553C10.6649 15.6853 10.2049 16.4353 9.47495 16.9153C7.45495 18.2553 8.12495 21.6953 10.9149 21.6953C13.9949 21.6953 15.8149 20.2253 16.2149 18.4353L20.0849 22.3053L21.4949 20.8953L3.11495 2.50531Z" />
</svg>
