<svg width="24" height="24" viewBox="0 0 24 24"  xmlns="http://www.w3.org/2000/svg">
<path d="M16.4363 8.26332L14.1463 9.08332C13.9663 8.95332 13.7663 8.83332 13.5663 8.74332C13.7363 7.91332 14.1963 7.16332 14.9263 6.68332C16.9463 5.34332 16.2763 1.90332 13.4863 1.90332C10.4063 1.90332 8.58631 3.37332 8.18631 5.16332L18.8263 15.8033C20.3263 16.1933 22.0963 15.2933 22.0963 13.2933C22.0963 8.90332 19.0863 7.06332 16.4363 8.26332Z" />
<path d="M2.19631 3.41332C1.80631 3.80332 1.80631 4.43332 2.19631 4.82332L5.36631 8.00332C3.86631 7.60332 2.09631 8.51332 2.09631 10.5133C2.09631 14.9133 5.10631 16.7533 7.75631 15.5433L10.0463 14.7233C10.2263 14.8533 10.4263 14.9733 10.6263 15.0633C10.4563 15.8933 9.99631 16.6433 9.26631 17.1233C7.24631 18.4633 7.91631 21.9033 10.7063 21.9033C13.7863 21.9033 15.6063 20.4333 16.0063 18.6433L19.1663 21.8033C19.5563 22.1933 20.1863 22.1933 20.5763 21.8033C20.9663 21.4133 20.9663 20.7833 20.5763 20.3933L3.60631 3.41332C3.21631 3.02332 2.58631 3.02332 2.19631 3.41332Z" />
</svg>
