<svg width="24" height="24" viewBox="0 0 24 24"  xmlns="http://www.w3.org/2000/svg">
<path d="M3.99804 9.00163C4.25804 9.26163 4.33804 9.63163 4.24804 9.98163C3.89804 11.3416 3.88804 12.8516 4.34804 14.3616C5.22804 17.2716 7.78804 19.4616 10.788 19.9116C16.308 20.7216 20.978 15.8516 19.818 10.2916C19.168 7.16163 16.588 4.68163 13.448 4.13163C12.238 3.92163 11.068 3.98163 9.98804 4.26163C9.63804 4.35163 9.25804 4.26163 9.00804 4.01163C8.44804 3.45163 8.72804 2.52163 9.47804 2.32163C10.948 1.94163 12.538 1.88163 14.178 2.23163C18.158 3.09163 21.268 6.41163 21.878 10.4316C22.918 17.2416 17.058 23.0116 10.238 21.8516C6.22804 21.1616 2.97804 17.9916 2.19804 14.0016C1.88804 12.4116 1.95804 10.8816 2.31804 9.47163C2.51804 8.72163 3.44804 8.45163 3.99804 9.00163ZM6.99804 5.50163C6.99804 6.33163 6.32804 7.00163 5.49804 7.00163C4.66804 7.00163 3.99804 6.33163 3.99804 5.50163C3.99804 4.67163 4.66804 4.00163 5.49804 4.00163C6.32804 4.00163 6.99804 4.67163 6.99804 5.50163ZM12.028 8.99163H11.958L10.798 12.3016H13.188L12.028 8.99163ZM11.998 18.0016C15.308 18.0016 17.998 15.3116 17.998 12.0016C17.998 8.69163 15.308 6.00163 11.998 6.00163C8.68804 6.00163 5.99804 8.69163 5.99804 12.0016C5.99804 15.3116 8.68804 18.0016 11.998 18.0016ZM8.60804 14.6316L11.038 8.17163C11.188 7.77163 11.568 7.50163 11.998 7.50163C12.428 7.50163 12.818 7.77163 12.968 8.17163L15.398 14.6316C15.558 15.0516 15.248 15.5016 14.798 15.5016C14.528 15.5016 14.278 15.3316 14.188 15.0716L13.628 13.4616H10.398L9.82804 15.0816C9.73804 15.3416 9.49804 15.5116 9.21804 15.5116C8.75804 15.5016 8.44804 15.0516 8.60804 14.6316Z" />
</svg>
