<svg width="24" height="24" viewBox="0 0 24 24"  xmlns="http://www.w3.org/2000/svg">
<path d="M12.3049 5.69531C11.3849 5.69531 10.5049 5.91531 9.72495 6.28531L17.7149 14.2753C18.0849 13.4953 18.3049 12.6153 18.3049 11.6953C18.3049 8.38531 15.6149 5.69531 12.3049 5.69531Z" />
<path d="M3.11495 2.50531L1.69495 3.91531L3.96495 6.18531C2.91495 7.76531 2.30495 9.65531 2.30495 11.6953C2.30495 17.2153 6.78495 21.6953 12.3049 21.6953C14.3449 21.6953 16.2349 21.0853 17.8149 20.0353L20.0849 22.3053L21.4949 20.8853L3.11495 2.50531ZM12.3049 19.6953C7.89495 19.6953 4.30495 16.1053 4.30495 11.6953C4.30495 10.2153 4.71495 8.83531 5.42495 7.63531L6.89495 9.10531C6.52495 9.89531 6.30495 10.7753 6.30495 11.6953C6.30495 15.0053 8.99495 17.6953 12.3049 17.6953C13.2249 17.6953 14.1049 17.4753 14.8849 17.1053L16.3549 18.5753C15.1649 19.2853 13.7849 19.6953 12.3049 19.6953Z" />
<path d="M12.3049 3.69531C16.7149 3.69531 20.3049 7.28531 20.3049 11.6953C20.3049 13.1753 19.8949 14.5553 19.1849 15.7453L20.6349 17.1953C21.6949 15.6253 22.3049 13.7353 22.3049 11.6953C22.3049 6.17531 17.8249 1.69531 12.3049 1.69531C10.2649 1.69531 8.37495 2.30531 6.79495 3.35531L8.24495 4.80531C9.44495 4.10531 10.8249 3.69531 12.3049 3.69531Z" />
</svg>
