<svg width="24" height="24" viewBox="0 0 24 24"  xmlns="http://www.w3.org/2000/svg">
<path d="M3.99798 9.00163C4.25798 9.26163 4.33798 9.63163 4.24798 9.98163C3.89798 11.3416 3.88798 12.8516 4.34798 14.3616C5.22798 17.2716 7.78798 19.4616 10.788 19.9116C16.308 20.7216 20.978 15.8516 19.818 10.2916C19.168 7.16163 16.588 4.68163 13.448 4.13163C12.238 3.92163 11.068 3.98163 9.98798 4.26163C9.63798 4.35163 9.25798 4.26163 9.00798 4.01163C8.44798 3.45163 8.72798 2.52163 9.47798 2.32163C10.948 1.94163 12.538 1.88163 14.178 2.23163C18.158 3.09163 21.268 6.41163 21.878 10.4316C22.918 17.2416 17.058 23.0116 10.238 21.8516C6.22798 21.1616 2.97798 17.9916 2.19798 14.0016C1.88798 12.4116 1.95798 10.8816 2.31798 9.47163C2.51798 8.72163 3.44798 8.45163 3.99798 9.00163ZM5.99798 12.0016C5.99798 8.69163 8.68798 6.00163 11.998 6.00163C15.308 6.00163 17.998 8.69163 17.998 12.0016C17.998 15.3116 15.308 18.0016 11.998 18.0016C8.68798 18.0016 5.99798 15.3116 5.99798 12.0016ZM6.99798 5.50163C6.99798 6.33163 6.32798 7.00163 5.49798 7.00163C4.66798 7.00163 3.99798 6.33163 3.99798 5.50163C3.99798 4.67163 4.66798 4.00163 5.49798 4.00163C6.32798 4.00163 6.99798 4.67163 6.99798 5.50163Z" />
</svg>
