<svg width="24" height="24" viewBox="0 0 24 24"  xmlns="http://www.w3.org/2000/svg">
<path d="M20.895 20.7795L3.21501 3.09945L1.94501 4.36945L3.83501 6.25945C2.71501 7.86945 2.05501 9.82945 2.05501 11.9395C2.05501 17.4595 6.53501 21.9395 12.055 21.9395C14.165 21.9395 16.125 21.2795 17.735 20.1695L19.625 22.0595L20.895 20.7795ZM12.055 19.9395C7.64501 19.9395 4.05501 16.3495 4.05501 11.9395C4.05501 10.3895 4.50501 8.93945 5.27501 7.70945L6.73501 9.16945C6.30501 9.99945 6.05501 10.9395 6.05501 11.9395C6.05501 15.2495 8.74501 17.9395 12.055 17.9395C13.055 17.9395 13.995 17.6895 14.825 17.2595L16.285 18.7195C15.055 19.4895 13.605 19.9395 12.055 19.9395ZM6.37501 3.70945C7.98501 2.59945 9.94501 1.93945 12.055 1.93945C17.575 1.93945 22.055 6.41945 22.055 11.9395C22.055 14.0495 21.395 16.0095 20.285 17.6195L18.835 16.1695C19.605 14.9395 20.055 13.4895 20.055 11.9395C20.055 7.52945 16.465 3.93945 12.055 3.93945C10.505 3.93945 9.05501 4.38945 7.82501 5.15945L6.37501 3.70945ZM18.055 11.9395C18.055 12.9395 17.805 13.8795 17.375 14.7095L9.28501 6.61945C10.115 6.18945 11.055 5.93945 12.055 5.93945C15.365 5.93945 18.055 8.62945 18.055 11.9395Z" />
</svg>
