<svg width="24" height="24" viewBox="0 0 24 24"  xmlns="http://www.w3.org/2000/svg">
<path d="M12.0963 5.89844C11.1763 5.89844 10.2963 6.11844 9.51631 6.48844L17.5063 14.4784C17.8763 13.6984 18.0963 12.8184 18.0963 11.8984C18.0963 8.58844 15.4063 5.89844 12.0963 5.89844Z" />
<path d="M2.19631 3.40844C1.80631 3.79844 1.80631 4.43844 2.19631 4.82844L3.75631 6.38844C2.50631 8.26844 1.87631 10.5984 2.16631 13.0884C2.68631 17.6284 6.37631 21.3184 10.9163 21.8384C13.4063 22.1184 15.7263 21.4984 17.6063 20.2484L19.1663 21.8084C19.5563 22.1984 20.1963 22.1984 20.5863 21.8084C20.9763 21.4184 20.9763 20.7884 20.5863 20.3984L3.60631 3.40844C3.22631 3.02844 2.58631 3.01844 2.19631 3.40844ZM12.0963 19.8984C7.68631 19.8984 4.09631 16.3084 4.09631 11.8984C4.09631 10.4184 4.50631 9.03844 5.21631 7.83844L6.68631 9.30844C6.31631 10.0984 6.09631 10.9784 6.09631 11.8984C6.09631 15.2084 8.78631 17.8984 12.0963 17.8984C13.0163 17.8984 13.8963 17.6784 14.6763 17.3084L16.1463 18.7784C14.9563 19.4884 13.5763 19.8984 12.0963 19.8984Z" />
<path d="M12.0963 3.89844C16.5063 3.89844 20.0963 7.48844 20.0963 11.8984C20.0963 13.3784 19.6863 14.7584 18.9763 15.9484L20.4263 17.3984C21.4863 15.8284 22.0963 13.9384 22.0963 11.8984C22.0963 6.37844 17.6163 1.89844 12.0963 1.89844C10.0563 1.89844 8.16631 2.50844 6.58631 3.55844L8.03631 5.00844C9.23631 4.30844 10.6163 3.89844 12.0963 3.89844Z" />
</svg>
