<svg width="24" height="24" viewBox="0 0 24 24"  xmlns="http://www.w3.org/2000/svg">
<path d="M3.50474 13.5766C3.36474 11.0066 5.16474 8.8466 7.57474 8.3966L6.78474 9.1766C6.39474 9.5666 6.39474 10.1966 6.78474 10.5866C7.17474 10.9766 7.80474 10.9766 8.19474 10.5866L10.7847 7.9966C11.1747 7.6066 11.1747 6.9766 10.7847 6.5866L8.20474 3.9966C7.81474 3.6066 7.18474 3.6066 6.79474 3.9966C6.40474 4.3866 6.40474 5.0166 6.79474 5.4066L7.67474 6.2866V6.3466C4.03474 6.7766 1.24474 9.9966 1.52474 13.8166C1.78474 17.5166 5.04474 20.2966 8.75474 20.2966H10.4947C11.0447 20.2966 11.4947 19.8466 11.4947 19.2966C11.4947 18.7466 11.0447 18.2966 10.4947 18.2966H8.71474C6.01474 18.2966 3.64474 16.2566 3.50474 13.5766Z" />
<path d="M13.4947 15.2966V18.2966C13.4947 19.3966 14.3947 20.2966 15.4947 20.2966H20.4947C21.5947 20.2966 22.4947 19.3966 22.4947 18.2966V15.2966C22.4947 14.1966 21.5947 13.2966 20.4947 13.2966H15.4947C14.3947 13.2966 13.4947 14.1966 13.4947 15.2966ZM20.4947 18.2966H15.4947V15.2966H20.4947V18.2966Z" />
<path d="M20.4947 4.2966H15.4947C14.3947 4.2966 13.4947 5.1966 13.4947 6.2966V9.2966C13.4947 10.3966 14.3947 11.2966 15.4947 11.2966H20.4947C21.5947 11.2966 22.4947 10.3966 22.4947 9.2966V6.2966C22.4947 5.1966 21.5947 4.2966 20.4947 4.2966Z" />
</svg>
