<svg width="24" height="24" viewBox="0 0 24 24"  xmlns="http://www.w3.org/2000/svg">
<path d="M3.50474 10.4241C3.36474 12.9941 5.16474 15.1541 7.57474 15.6041L6.78474 14.8141C6.39474 14.4241 6.39474 13.7941 6.78474 13.4041C7.17474 13.0141 7.80474 13.0141 8.19474 13.4041L10.7847 15.9941C11.1747 16.3841 11.1747 17.0141 10.7847 17.4041L8.20474 20.0041C7.81474 20.3941 7.18474 20.3941 6.79474 20.0041C6.40474 19.6141 6.40474 18.9841 6.79474 18.5941L7.67474 17.7141V17.6541C4.03474 17.2241 1.24474 14.0041 1.52474 10.1841C1.78474 6.4841 5.04474 3.7041 8.75474 3.7041H10.4947C11.0447 3.7041 11.4947 4.1541 11.4947 4.7041C11.4947 5.2541 11.0447 5.7041 10.4947 5.7041H8.71474C6.01474 5.7041 3.64474 7.7441 3.50474 10.4241Z" />
<path d="M15.4947 10.7041H20.4947C21.5947 10.7041 22.4947 9.8041 22.4947 8.7041V5.7041C22.4947 4.6041 21.5947 3.7041 20.4947 3.7041H15.4947C14.3947 3.7041 13.4947 4.6041 13.4947 5.7041V8.7041C13.4947 9.8041 14.3947 10.7041 15.4947 10.7041ZM20.4947 8.7041H15.4947V5.7041H20.4947V8.7041Z" />
<path d="M20.4947 19.7041H15.4947C14.3947 19.7041 13.4947 18.8041 13.4947 17.7041V14.7041C13.4947 13.6041 14.3947 12.7041 15.4947 12.7041H20.4947C21.5947 12.7041 22.4947 13.6041 22.4947 14.7041V17.7041C22.4947 18.8041 21.5947 19.7041 20.4947 19.7041Z" />
</svg>
