<svg width="24" height="24" viewBox="0 0 24 24"  xmlns="http://www.w3.org/2000/svg">
<path d="M17 5.20857C17 4.75857 17.54 4.53857 17.85 4.85857L20.64 7.64857C20.84 7.84857 20.84 8.15857 20.64 8.35857L17.85 11.1486C17.54 11.4586 17 11.2386 17 10.7886V8.99857H14C13.45 8.99857 13 8.54857 13 7.99857C13 7.44857 13.45 6.99857 14 6.99857H17V5.20857ZM9.99996 6.99857C9.44996 6.99857 8.99996 7.44857 8.99996 7.99857C8.99996 8.54857 9.44996 8.99857 9.99996 8.99857C10.55 8.99857 11 8.54857 11 7.99857C11 7.44857 10.55 6.99857 9.99996 6.99857ZM5.99996 6.99857C5.44996 6.99857 4.99996 7.44857 4.99996 7.99857C4.99996 8.54857 5.44996 8.99857 5.99996 8.99857C6.54996 8.99857 6.99996 8.54857 6.99996 7.99857C6.99996 7.44857 6.54996 6.99857 5.99996 6.99857ZM6.99996 16.9986H9.99996C10.55 16.9986 11 16.5486 11 15.9986C11 15.4486 10.55 14.9986 9.99996 14.9986H6.99996V13.2086C6.99996 12.7586 6.45996 12.5386 6.14996 12.8586L3.35996 15.6486C3.15996 15.8486 3.15996 16.1586 3.35996 16.3586L6.14996 19.1486C6.45996 19.4586 6.99996 19.2386 6.99996 18.7886V16.9986ZM14 16.9986C14.55 16.9986 15 16.5486 15 15.9986C15 15.4486 14.55 14.9986 14 14.9986C13.45 14.9986 13 15.4486 13 15.9986C13 16.5486 13.45 16.9986 14 16.9986ZM18 16.9986C18.55 16.9986 19 16.5486 19 15.9986C19 15.4486 18.55 14.9986 18 14.9986C17.45 14.9986 17 15.4486 17 15.9986C17 16.5486 17.45 16.9986 18 16.9986Z" />
</svg>
