<svg width="24" height="24" viewBox="0 0 24 24"  xmlns="http://www.w3.org/2000/svg">
<path d="M13.93 9.61V7H15.93C17.03 7 17.93 6.1 17.93 5C17.93 3.9 17.03 3 15.93 3H12.93C12.38 3 11.93 3.45 11.93 4V7.61L13.93 9.61ZM5.05003 3.56C4.66003 3.17 4.03003 3.17 3.64003 3.56C3.25003 3.95 3.25003 4.58 3.64003 4.97L11.93 13.27V13.55C10.99 13.01 9.83003 12.8 8.60003 13.23C7.26003 13.71 6.23003 14.9 5.99003 16.3C5.53003 19.04 7.85003 21.38 10.58 20.95C12.54 20.64 13.93 18.84 13.93 16.85V15.27L18.95 20.29C19.34 20.68 19.97 20.68 20.36 20.29C20.75 19.9 20.75 19.27 20.36 18.88L5.05003 3.56Z" />
</svg>
