<svg width="24" height="24" viewBox="0 0 24 24"  xmlns="http://www.w3.org/2000/svg">
<path d="M4.41504 10.9148C5.24347 10.9148 5.91504 10.2433 5.91504 9.41483C5.91504 8.5864 5.24347 7.91483 4.41504 7.91483C3.58661 7.91483 2.91504 8.5864 2.91504 9.41483C2.91504 10.2433 3.58661 10.9148 4.41504 10.9148Z" />
<path d="M22.085 9.08483C22.085 5.17483 18.895 2.02483 14.975 2.08483C11.145 2.14483 7.98504 5.45483 8.09504 9.27483C8.18504 12.6548 10.675 15.4348 13.925 15.9748V19.9148H5.91504V16.9148H6.41504C6.69504 16.9148 6.91504 16.6948 6.91504 16.4148V12.9148C6.91504 12.3648 6.46504 11.9148 5.91504 11.9148H2.91504C2.36504 11.9148 1.91504 12.3648 1.91504 12.9148V16.4148C1.91504 16.6948 2.13504 16.9148 2.41504 16.9148H2.91504V20.9148C2.91504 21.4648 3.36504 21.9148 3.91504 21.9148H17.915C18.465 21.9148 18.915 21.4648 18.915 20.9148C18.915 20.3648 18.465 19.9148 17.915 19.9148H15.915V16.0348C19.385 15.6248 22.085 12.6748 22.085 9.08483Z" />
</svg>
