<svg width="24" height="24" viewBox="0 0 24 24"  xmlns="http://www.w3.org/2000/svg">
<path d="M22.085 9.08483C22.085 5.17483 18.895 2.02483 14.975 2.08483C11.145 2.14483 7.98504 5.45483 8.09504 9.27483C8.18504 12.6548 10.675 15.4348 13.925 15.9748V19.9148H5.91504V16.9148H6.91504V11.9148H1.91504V16.9148H2.91504V21.9148H18.915V19.9148H15.915V16.0348C19.385 15.6248 22.085 12.6748 22.085 9.08483ZM4.41504 10.9148C5.24504 10.9148 5.91504 10.2448 5.91504 9.41483C5.91504 8.58483 5.24504 7.91483 4.41504 7.91483C3.58504 7.91483 2.91504 8.58483 2.91504 9.41483C2.91504 10.2448 3.58504 10.9148 4.41504 10.9148Z" />
</svg>
