<svg width="24" height="24" viewBox="0 0 24 24"  xmlns="http://www.w3.org/2000/svg">
<path d="M12.0026 7.57207L16.4226 11.9921L12.0026 16.4121L7.58256 11.9921L12.0026 7.57207ZM12.0026 19.1921L4.80256 11.9921L12.0026 4.79207L18.0026 10.7921V7.16207L13.4226 2.58207C12.6426 1.80207 11.3726 1.80207 10.5926 2.58207L2.58256 10.5821C1.80256 11.3621 1.80256 12.6321 2.58256 13.4121L10.5926 21.4121C11.3726 22.1921 12.6426 22.1921 13.4226 21.4121L18.0026 16.8221V13.1921L12.0026 19.1921ZM20.0026 20.0021H22.0026V22.0021H20.0026V20.0021ZM22.0026 10.0021H20.0026V18.0021H22.0026V10.0021Z" />
</svg>
