<svg width="24" height="24" viewBox="0 0 24 24"  xmlns="http://www.w3.org/2000/svg">
<path d="M11.2926 8.27859L8.28256 11.2886C7.89256 11.6786 7.89256 12.3086 8.28256 12.6986L11.2926 15.7086C11.6826 16.0986 12.3126 16.0986 12.7026 15.7086L15.7126 12.6986C16.1026 12.3086 16.1026 11.6786 15.7126 11.2886L12.7026 8.27859C12.3226 7.88859 11.6826 7.88859 11.2926 8.27859Z" />
<path d="M10.5926 2.58859L2.58256 10.5886C1.80256 11.3686 1.80256 12.6386 2.58256 13.4186L10.5926 21.4186C11.3726 22.1986 12.6426 22.1986 13.4226 21.4186L18.0026 16.8186V13.1986L12.0026 19.1986L4.79256 11.9986L12.0026 4.78859L18.0026 10.7886V7.16859L13.4226 2.58859C12.6426 1.79859 11.3726 1.79859 10.5926 2.58859Z" />
<path d="M20.0026 10.9986V16.9986C20.0026 17.5486 20.4526 17.9986 21.0026 17.9986C21.5526 17.9986 22.0026 17.5486 22.0026 16.9986V10.9986C22.0026 10.4486 21.5526 9.99859 21.0026 9.99859C20.4526 9.99859 20.0026 10.4486 20.0026 10.9986Z" />
<path d="M21.0026 21.9986C21.5548 21.9986 22.0026 21.5509 22.0026 20.9986C22.0026 20.4463 21.5548 19.9986 21.0026 19.9986C20.4503 19.9986 20.0026 20.4463 20.0026 20.9986C20.0026 21.5509 20.4503 21.9986 21.0026 21.9986Z" />
</svg>
