<svg width="24" height="24" viewBox="0 0 24 24"  xmlns="http://www.w3.org/2000/svg">
<path d="M22.8201 12.0097L18.8301 15.9997L17.0201 14.1897L19.2001 11.9997L12.0001 4.79969L9.81005 6.98969L8.00005 5.16969L11.9901 1.17969L22.8201 12.0097ZM21.1901 21.1897L19.7801 22.5997L16.0001 18.8297L12.0101 22.8197L1.18005 11.9897L5.17005 7.99969L1.39005 4.21969L2.80005 2.80969L21.1901 21.1897ZM14.1901 17.0197L12.8001 15.6297L12.0001 16.4297L7.58005 11.9997L8.38005 11.1997L6.98005 9.80969L4.80005 11.9997L12.0001 19.1997L14.1901 17.0197ZM16.4201 11.9997L12.0001 7.57969L11.2001 8.37969L15.6201 12.7997L16.4201 11.9997Z" />
</svg>
