<svg width="24" height="24" viewBox="0 0 24 24"  xmlns="http://www.w3.org/2000/svg">
<path d="M12 3.70898C7.70001 3.70898 3.78001 5.30898 0.790011 7.94898C0.350011 8.33898 0.320011 9.00898 0.730011 9.41898L11.29 19.999C11.68 20.389 12.31 20.389 12.71 19.999L23.27 9.41898C23.68 9.00898 23.65 8.33898 23.21 7.94898C20.22 5.30898 16.3 3.70898 12 3.70898ZM16.78 13.089C15.4 12.209 13.76 11.709 12 11.709C10.24 11.709 8.60001 12.209 7.22001 13.089L2.92001 8.78898C5.51001 6.78898 8.67001 5.70898 12 5.70898C15.33 5.70898 18.49 6.78898 21.08 8.77898L16.78 13.089Z" />
</svg>
