<svg width="24" height="24" viewBox="0 0 24 24"  xmlns="http://www.w3.org/2000/svg">
<path d="M2.50124 6.79C2.11124 7.18 2.11124 7.81 2.50124 8.2L10.2912 16H4.79124C4.24124 16 3.79124 16.45 3.79124 17C3.79124 17.55 4.24124 18 4.79124 18H18.7912C19.3412 18 19.7912 17.55 19.7912 17C19.7912 16.45 19.3412 16 18.7912 16H13.2912L18.4412 10.85C18.7012 10.95 18.9912 11 19.2912 11C20.6712 11 21.7912 9.88 21.7912 8.5C21.7912 7.12 20.6712 6 19.2912 6C17.9112 6 16.7912 7.12 16.7912 8.5C16.7912 8.85 16.8612 9.17 16.9912 9.47L11.7912 14.67L3.91124 6.79C3.52124 6.4 2.89124 6.4 2.50124 6.79Z" />
</svg>
