<svg width="24" height="24" viewBox="0 0 24 24"  xmlns="http://www.w3.org/2000/svg">
<path d="M12 3.70898C7.7 3.70898 3.78 5.30898 0.789996 7.94898C0.349996 8.33898 0.319996 9.00898 0.729996 9.41898L11.29 19.999C11.68 20.389 12.31 20.389 12.71 19.999L23.27 9.41898C23.68 9.00898 23.65 8.33898 23.21 7.94898C20.22 5.30898 16.3 3.70898 12 3.70898ZM12 7.70898C9.14 7.70898 6.5 8.64898 4.35 10.219L2.92 8.77898C5.51 6.78898 8.67 5.70898 12 5.70898C15.33 5.70898 18.49 6.78898 21.08 8.77898L19.65 10.209C17.5 8.64898 14.86 7.70898 12 7.70898Z" />
</svg>
