<svg width="24" height="24" viewBox="0 0 24 24"  xmlns="http://www.w3.org/2000/svg">
<path d="M22.4206 11.3401L20.5606 9.22007L20.8206 6.41007C20.8706 5.91007 20.5306 5.45007 20.0506 5.34007L17.2906 4.71007L15.8506 2.28007C15.5906 1.85007 15.0606 1.67007 14.6006 1.87007L12.0006 3.00007L9.41061 1.89007C8.95061 1.69007 8.41061 1.87007 8.16061 2.30007L6.71061 4.72007L3.96061 5.34007C3.47061 5.45007 3.13061 5.90007 3.18061 6.41007L3.44061 9.21007L1.58061 11.3401C1.25061 11.7201 1.25061 12.2801 1.58061 12.6601L3.44061 14.7801L3.18061 17.6001C3.13061 18.1001 3.47061 18.5601 3.95061 18.6701L6.71061 19.3001L8.15061 21.7201C8.41061 22.1501 8.94061 22.3301 9.41061 22.1301L12.0006 21.0001L14.5906 22.1101C15.0506 22.3101 15.5906 22.1301 15.8406 21.7001L17.2806 19.2701L20.0406 18.6401C20.5306 18.5301 20.8606 18.0701 20.8106 17.5701L20.5506 14.7601L22.4106 12.6401C22.7506 12.2801 22.7506 11.7201 22.4206 11.3401ZM13.0006 17.0001H11.0006V15.0001H13.0006V17.0001ZM12.0006 13.0001C11.4506 13.0001 11.0006 12.5501 11.0006 12.0001V8.00007C11.0006 7.45007 11.4506 7.00007 12.0006 7.00007C12.5506 7.00007 13.0006 7.45007 13.0006 8.00007V12.0001C13.0006 12.5501 12.5506 13.0001 12.0006 13.0001Z" />
</svg>
