<svg width="24" height="24" viewBox="0 0 24 24"  xmlns="http://www.w3.org/2000/svg">
<path d="M20.9063 12.66L17.3563 17.66C16.9763 18.19 16.3763 18.5 15.7263 18.5H12.7263V15.5C12.7263 13.84 11.3863 12.5 9.72632 12.5C9.72632 10.84 8.38632 9.5 6.72632 9.5H3.72632V6.5C3.72632 5.4 4.62632 4.5 5.72632 4.5H15.7263C16.3763 4.5 16.9863 4.81 17.3563 5.34L20.9063 10.34C21.3963 11.04 21.3963 11.96 20.9063 12.66ZM10.7263 15.5C10.7263 14.95 10.2763 14.5 9.72632 14.5H7.72632V12.5C7.72632 11.95 7.27632 11.5 6.72632 11.5C6.17632 11.5 5.72632 11.95 5.72632 12.5V14.5H3.72632C3.17632 14.5 2.72632 14.95 2.72632 15.5C2.72632 16.05 3.17632 16.5 3.72632 16.5H5.72632V18.5C5.72632 19.05 6.17632 19.5 6.72632 19.5C7.27632 19.5 7.72632 19.05 7.72632 18.5V16.5H9.72632C10.2763 16.5 10.7263 16.05 10.7263 15.5Z" />
</svg>
