<svg width="24" height="24" viewBox="0 0 24 24"  xmlns="http://www.w3.org/2000/svg">
<path d="M21.15 3.64148L20.33 4.46148L19.38 3.50148C18.99 3.11148 18.36 3.11148 17.96 3.50148L17 4.46148L16.04 3.50148C15.65 3.11148 15.01 3.11148 14.62 3.50148L13.67 4.46148L12.71 3.50148C12.32 3.11148 11.69 3.11148 11.3 3.50148L10.34 4.46148L9.38 3.50148C8.99 3.11148 8.36 3.11148 7.96 3.50148L7 4.46148L6.04 3.50148C5.65 3.11148 5.01 3.11148 4.62 3.50148L3.67 4.46148L2.85 3.64148C2.54 3.33148 2 3.55148 2 4.00148V18.7915C2 19.8915 2.9 20.7915 4 20.7915H20C21.1 20.7915 22 19.8915 22 18.7915V4.00148C22 3.55148 21.46 3.33148 21.15 3.64148ZM11 18.7915H4V12.7915H11V18.7915ZM20 18.7915H13V16.7915H20V18.7915ZM20 14.7915H13V12.7915H20V14.7915ZM20 10.7915H4V7.79148H20V10.7915Z" />
</svg>
