<svg width="24" height="24" viewBox="0 0 24 24"  xmlns="http://www.w3.org/2000/svg">
<path d="M19.5 23.7915C20.32 23.7915 21 23.1215 21 22.2915V15.1315C21 14.9115 20.96 14.6815 20.89 14.4715L18.92 8.80149C18.72 8.21148 18.16 7.79148 17.5 7.79148H6.5C5.84 7.79148 5.29 8.21148 5.08 8.80149L3.11 14.4715C3.04 14.6815 3 14.9015 3 15.1315V22.2915C3 23.1215 3.68 23.7915 4.5 23.7915C5.32 23.7915 6 23.1215 6 22.2915V21.7915H18V22.2915C18 23.1215 18.67 23.7915 19.5 23.7915ZM6.85 9.79148H17.14L18.18 12.7915H5.81L6.85 9.79148ZM6 17.2915C6 16.4615 6.67 15.7915 7.5 15.7915C8.33 15.7915 9 16.4615 9 17.2915C9 18.1215 8.33 18.7915 7.5 18.7915C6.67 18.7915 6 18.1215 6 17.2915ZM15 17.2915C15 16.4615 15.67 15.7915 16.5 15.7915C17.33 15.7915 18 16.4615 18 17.2915C18 18.1215 17.33 18.7915 16.5 18.7915C15.67 18.7915 15 18.1215 15 17.2915ZM16.24 0.501484C16.63 0.891484 16.63 1.52148 16.24 1.91148L12.7 5.45148C12.31 5.84148 11.68 5.84148 11.29 5.45148L9.88 4.03148C9.49 3.64148 9.49 3.01148 9.88 2.62148C10.27 2.23148 10.9 2.23148 11.29 2.62148L12 3.33148L14.83 0.501484C15.22 0.111484 15.85 0.111484 16.24 0.501484Z" />
</svg>
