<svg width="24" height="24" viewBox="0 0 24 24"  xmlns="http://www.w3.org/2000/svg">
<path d="M9.53556 6L5.83556 2.3C6.12556 1.55 6.85556 1 7.70556 1L17.7056 1.01C18.8056 1.01 19.7056 1.9 19.7056 3V16.17L17.7056 14.17V6H9.53556ZM21.1956 21.9C20.8056 22.29 20.1756 22.29 19.7856 21.9L19.5856 21.7C19.2856 22.45 18.5556 23 17.7056 23H7.70556C6.60556 23 5.70556 22.1 5.70556 21V7.83L2.80556 4.93C2.41556 4.54 2.41556 3.91 2.80556 3.52C3.19556 3.13 3.82556 3.13 4.21556 3.52L21.1856 20.49C21.5856 20.88 21.5856 21.51 21.1956 21.9ZM15.8756 18L7.70556 9.83V18H15.8756Z" />
</svg>
