<svg width="24" height="24" viewBox="0 0 24 24"  xmlns="http://www.w3.org/2000/svg">
<g clip-path="url(#clip0_2402_27045)">
<path d="M1.16009 20.8457H16.1701V21.8257C16.1701 22.3857 15.7201 22.8357 15.1601 22.8357H2.17009C1.61009 22.8357 1.16009 22.3857 1.16009 21.8257V20.8457ZM20.6501 23.1557L16.1601 18.6757V18.8457H1.16009V16.8457H14.3301L12.3301 14.8457H1.16009C1.16009 11.6057 3.62009 9.6757 6.54009 9.0557L0.840088 3.3557L2.26009 1.9457L22.0601 21.7457L20.6501 23.1557ZM10.3301 12.8457L8.33009 10.8457C6.91009 10.9057 4.81009 11.4057 3.78009 12.8457H10.3301ZM23.1601 4.8457H18.1601V0.845703H16.1601V4.8457H11.1601L11.3901 6.8457H20.9501L19.9501 16.8157L21.7801 18.6457L23.1601 4.8457Z" />
</g>
<defs>
<clipPath id="clip0_2402_27045">
<rect width="24" height="24" fill="white"/>
</clipPath>
</defs>
</svg>
