<svg width="24" height="24" viewBox="0 0 24 24"  xmlns="http://www.w3.org/2000/svg">
<path d="M16.0522 22C16.0522 22.55 15.6022 23 15.0522 23H2.05225C1.50225 23 1.05225 22.55 1.05225 22C1.05225 21.45 1.50225 21 2.05225 21H15.0522C15.6022 21 16.0522 21.45 16.0522 22ZM22.9422 6.1C23.0022 5.51 22.5422 5 21.9522 5H18.0522V2C18.0522 1.45 17.6022 1 17.0522 1C16.5022 1 16.0522 1.45 16.0522 2V5H12.1522C11.5622 5 11.1022 5.51 11.1522 6.1L11.3922 8.51L21.6722 18.79L22.9422 6.1ZM21.2422 22.61C21.6322 22.22 21.6322 21.59 21.2422 21.2L2.86225 2.81C2.47225 2.42 1.84225 2.42 1.45225 2.81C1.05225 3.2 1.05225 3.83 1.44225 4.22L6.43225 9.21C3.87225 9.75 1.67225 11.29 1.15225 13.84C1.04225 14.45 1.54225 15 2.15225 15H12.2222L14.2222 17H2.05225C1.50225 17 1.05225 17.45 1.05225 18C1.05225 18.55 1.50225 19 2.05225 19H15.0522C15.3722 19 15.6422 18.84 15.8322 18.6L19.8322 22.6C20.2222 23 20.8522 23 21.2422 22.61Z" />
</svg>
