<svg width="24" height="24" viewBox="0 0 24 24"  xmlns="http://www.w3.org/2000/svg">
<path d="M16.705 13.3457V5.3457C16.705 3.5857 18.945 1.3457 21.705 1.3457V17.5157L19.705 15.5157V13.3457H16.705ZM21.195 22.6557L10.725 12.1957C10.395 12.2857 10.065 12.3457 9.70502 12.3457V21.3457H7.70502V12.3457C5.49502 12.3457 3.70502 10.5557 3.70502 8.3457V5.1757L1.39502 2.8557L2.80502 1.4457L22.605 21.2457L21.195 22.6557ZM6.87502 8.3457L5.70502 7.1757V8.3457H6.87502ZM9.70502 1.3457H7.70502V3.5157L9.70502 5.5157V1.3457ZM13.705 8.3457V1.3457H11.705V7.5157L13.555 9.3657C13.645 9.0357 13.705 8.7057 13.705 8.3457Z" />
</svg>
