<svg width="24" height="24" viewBox="0 0 24 24"  xmlns="http://www.w3.org/2000/svg">
<path d="M14.5606 5.43906H17.5606V13.3191L19.5606 15.3191V4.43906C19.5606 3.88906 19.1106 3.43906 18.5606 3.43906H14.5606C14.5606 2.88906 14.1106 2.43906 13.5606 2.43906H6.68062L14.5606 10.3191V5.43906ZM21.7306 20.3191L12.5606 11.1491V12.4391H10.5606V10.4391H11.8506L3.68062 2.26906C3.29062 1.87906 2.66062 1.87906 2.27062 2.26906C1.88062 2.65906 1.88062 3.28906 2.27062 3.67906L5.56062 6.97906V18.4391H4.56062C4.01062 18.4391 3.56062 18.8891 3.56062 19.4391C3.56062 19.9891 4.01062 20.4391 4.56062 20.4391H13.5606C14.1106 20.4391 14.5606 19.9891 14.5606 19.4391V15.9791L20.3106 21.7291C20.7006 22.1191 21.3306 22.1191 21.7206 21.7291C22.1206 21.3391 22.1206 20.7091 21.7306 20.3191Z" />
</svg>
