<svg width="24" height="24" viewBox="0 0 24 24"  xmlns="http://www.w3.org/2000/svg">
<path d="M11.3912 7.41109L7.93124 3.95109L8.85124 2.94109C9.23124 2.53109 9.77124 2.29109 10.3312 2.29109H14.5712C15.1312 2.29109 15.6712 2.53109 16.0412 2.94109L17.2812 4.29109H20.4512C21.5512 4.29109 22.4512 5.19109 22.4512 6.29109V18.2911C22.4512 18.3411 22.4412 18.3911 22.4312 18.4511L17.3312 13.3511C17.4112 13.0011 17.4512 12.6511 17.4512 12.2911C17.4512 9.53109 15.2112 7.29109 12.4512 7.29109C12.0912 7.29109 11.7412 7.33109 11.3912 7.41109ZM20.2312 21.9011L18.6212 20.2911H4.45124C3.35124 20.2911 2.45124 19.3911 2.45124 18.2911V6.29109C2.45124 5.70109 2.72124 5.17109 3.13124 4.80109L1.84124 3.51109C1.45124 3.12109 1.45124 2.49109 1.84124 2.10109C2.23124 1.71109 2.86124 1.71109 3.25124 2.10109L21.6312 20.4811C22.0212 20.8711 22.0212 21.5011 21.6312 21.8911C21.2512 22.2911 20.6212 22.2911 20.2312 21.9011ZM14.9412 16.6111L13.4412 15.1111C13.1212 15.2111 12.8012 15.2911 12.4512 15.2911C10.7912 15.2911 9.45124 13.9511 9.45124 12.2911C9.45124 11.9411 9.53124 11.6211 9.64124 11.3111L8.14124 9.81109C7.70124 10.5311 7.45124 11.3811 7.45124 12.2911C7.45124 15.0511 9.69124 17.2911 12.4512 17.2911C13.3612 17.2911 14.2112 17.0411 14.9412 16.6111Z" />
</svg>
