<svg width="24" height="24" viewBox="0 0 24 24"  xmlns="http://www.w3.org/2000/svg">
<path d="M3.27004 3.83844C2.88004 4.22844 2.88004 4.85844 3.27004 5.24844L5.30004 7.27844L5.18004 7.40844V18.3984C5.18004 19.4984 6.08004 20.3984 7.18004 20.3984H17.18C17.53 20.3984 17.86 20.2984 18.15 20.1384L19.32 21.3084C19.71 21.6984 20.34 21.6984 20.73 21.3084C21.12 20.9184 21.12 20.2884 20.73 19.8984L4.68004 3.83844C4.29004 3.44844 3.66004 3.44844 3.27004 3.83844ZM19.18 15.5084V4.39844C19.18 3.29844 18.28 2.39844 17.18 2.39844H10.19L8.13004 4.45844L19.18 15.5084Z" />
</svg>
