<svg width="24" height="24" viewBox="0 0 24 24"  xmlns="http://www.w3.org/2000/svg">
<path d="M8.11627 19.4043C8.11627 20.5043 7.21627 21.4043 6.11627 21.4043C5.01627 21.4043 4.11627 20.5043 4.11627 19.4043C4.11627 18.3043 5.01627 17.4043 6.11627 17.4043C7.21627 17.4043 8.11627 18.3043 8.11627 19.4043ZM14.4163 3.5043C13.1463 2.8043 11.6763 2.4043 10.1163 2.4043C8.88627 2.4043 7.72627 2.6643 6.65627 3.1143L11.0263 7.4843L14.4163 3.5043ZM20.6063 21.3043C20.9963 20.9143 20.9963 20.2843 20.6063 19.8943L3.62627 2.9143C3.23627 2.5243 2.60627 2.5243 2.21627 2.9143C1.82627 3.3043 1.82627 3.9343 2.21627 4.3243L9.47627 11.5843L6.81627 14.7043C6.26627 15.3543 6.72627 16.3543 7.57627 16.3543H14.2363L15.4063 17.5243C14.5263 17.8543 13.9363 18.7743 14.1463 19.8043C14.2963 20.5643 14.9263 21.1943 15.6863 21.3443C16.7163 21.5543 17.6363 20.9643 17.9663 20.0843L19.1663 21.2843C19.5763 21.6943 20.2063 21.6943 20.6063 21.3043ZM17.1163 5.6743C17.6963 4.9943 18.0863 4.4043 18.7663 4.4043C19.4463 4.4043 19.9863 4.9243 20.0963 5.6143C20.1963 6.0643 20.5963 6.4043 21.0763 6.4043C21.6263 6.4043 22.0763 5.9543 22.0763 5.4043C22.0763 5.3443 22.0763 5.2943 22.0663 5.2443V5.2343C21.7663 3.6243 20.4163 2.4043 18.7663 2.4043C17.1063 2.4043 16.2263 3.6743 15.5863 4.4343L12.0863 8.5443L17.1163 13.5743V5.6743Z" />
</svg>
