<svg width="24" height="24" viewBox="0 0 24 24"  xmlns="http://www.w3.org/2000/svg">
<path opacity="0.3" d="M7 18.9995H16.23L7 9.76953V18.9995Z" />
<path d="M3.79 3.74023L2.38 5.15023L5.12 7.89023L5 8.01023V19.0002C5 20.1002 5.9 21.0002 7 21.0002H17C17.35 21.0002 17.68 20.9002 17.97 20.7402L19.85 22.6202L21.26 21.2102L3.79 3.74023ZM7 19.0002V9.77024L16.23 19.0002H7Z" />
<path opacity="0.3" d="M10.84 5L9.35999 6.47L17 14.11V5H10.84Z" />
<path d="M10.84 5H17V14.11L19 16.11V5C19 3.9 18.1 3 17 3H10.01L7.94995 5.06L9.35995 6.47L10.84 5Z" />
</svg>
