<svg width="24" height="24" viewBox="0 0 24 24"  xmlns="http://www.w3.org/2000/svg">
<path d="M21.9001 20.8853L3.5201 2.50531L2.1001 3.91531L4.7101 6.52531V15.6953C4.7101 16.5753 5.1001 17.3653 5.7101 17.9153V19.6953C5.7101 20.2453 6.1601 20.6953 6.7101 20.6953H7.7101C8.2601 20.6953 8.7101 20.2453 8.7101 19.6953V18.6953H16.7101V19.6953C16.7101 20.2453 17.1601 20.6953 17.7101 20.6953H18.7101C18.7601 20.6953 18.8001 20.6753 18.8501 20.6653L20.4901 22.3053L21.9001 20.8853ZM8.2101 16.6953C7.3801 16.6953 6.7101 16.0253 6.7101 15.1953C6.7101 14.3653 7.3801 13.6953 8.2101 13.6953C9.0401 13.6953 9.7101 14.3653 9.7101 15.1953C9.7101 16.0253 9.0401 16.6953 8.2101 16.6953ZM6.7101 10.6953V8.52531L8.8801 10.6953H6.7101ZM9.5401 5.69531L6.4901 2.64531C7.9501 1.85531 10.1901 1.69531 12.7101 1.69531C17.1301 1.69531 20.7101 2.19531 20.7101 5.69531V15.6953C20.7101 16.0453 20.6301 16.3653 20.5201 16.6753L14.5401 10.6953H18.7101V5.69531H9.5401Z" />
</svg>
