<svg width="24" height="24" viewBox="0 0 24 24"  xmlns="http://www.w3.org/2000/svg">
<path opacity="0.3" d="M14.83 12H18V15.17L14.83 12ZM9.17 12L14.17 17H6.63L6.34 16.73C6.21 16.62 6 16.37 6 16V12H9.17ZM10 14.5C10 13.67 9.33 13 8.5 13C7.67 13 7 13.67 7 14.5C7 15.33 7.67 16 8.5 16C9.33 16 10 15.33 10 14.5ZM7.82 4.99H17.65C17.11 4.46 15.69 4 12 4C9.6 4 8.17 4.2 7.31 4.48L7.82 4.99Z" />
<path d="M8.49989 13C9.32989 13 9.99989 13.67 9.99989 14.5C9.99989 15.33 9.32989 16 8.49989 16C7.66989 16 6.99989 15.33 6.99989 14.5C6.99989 13.67 7.66989 13 8.49989 13ZM7.30989 4.48C8.16989 4.2 9.59989 4 11.9999 4C15.6899 4 17.1099 4.46 17.6599 4.99H7.81989L9.81989 6.99H17.9999V10H12.8299L14.8299 12H17.9999V15.17L19.8099 16.98C19.9199 16.67 19.9999 16.35 19.9999 16V6C19.9999 2.5 16.4199 2 11.9999 2C9.47989 2 7.23989 2.16 5.77989 2.95L7.30989 4.48ZM19.7799 22.61L18.1399 20.97C18.0899 20.98 18.0499 21 17.9999 21H16.9999C16.4499 21 15.9999 20.55 15.9999 20V19H7.99989V20C7.99989 20.55 7.54989 21 6.99989 21H5.99989C5.44989 21 4.99989 20.55 4.99989 20V18.22C4.38989 17.67 3.99989 16.88 3.99989 16V6.83L1.38989 4.22L2.79989 2.81L21.1799 21.19L19.7799 22.61ZM5.99989 8.83V10H7.16989L5.99989 8.83ZM14.1699 17L9.16989 12H5.99989V16C5.99989 16.37 6.20989 16.62 6.33989 16.73L6.62989 17H7.99989H14.1699Z" />
</svg>
