<svg width="24" height="24" viewBox="0 0 24 24"  xmlns="http://www.w3.org/2000/svg">
<path d="M6.48568 2.8543C7.94568 2.0643 10.1857 1.9043 12.7057 1.9043C17.1257 1.9043 20.7057 2.4043 20.7057 5.9043V15.9043C20.7057 16.2543 20.6257 16.5743 20.5157 16.8843L14.5357 10.9043H18.7057V5.9043H9.53568L6.48568 2.8543ZM21.1957 21.8043C20.8057 22.1943 20.1757 22.1943 19.7857 21.8043L18.7757 20.7943C18.5957 20.8643 18.4057 20.9043 18.2057 20.9043C17.3757 20.9043 16.7057 20.2243 16.7057 19.4043V18.9043H8.70568V19.4043C8.70568 20.2343 8.03568 20.9043 7.20568 20.9043C6.37568 20.9043 5.70568 20.2343 5.70568 19.4043V18.1243C5.09568 17.5743 4.70568 16.7843 4.70568 15.9043V6.7343L2.80568 4.8343C2.41568 4.4443 2.41568 3.8143 2.80568 3.4243C3.19568 3.0343 3.82568 3.0343 4.21568 3.4243L21.1857 20.3943C21.5857 20.7843 21.5857 21.4143 21.1957 21.8043ZM9.70568 15.4043C9.70568 14.5743 9.03568 13.9043 8.20568 13.9043C7.37568 13.9043 6.70568 14.5743 6.70568 15.4043C6.70568 16.2343 7.37568 16.9043 8.20568 16.9043C9.03568 16.9043 9.70568 16.2343 9.70568 15.4043ZM8.87568 10.9043L6.70568 8.7343V10.9043H8.87568Z" />
</svg>
