<svg width="24" height="24" viewBox="0 0 24 24"  xmlns="http://www.w3.org/2000/svg">
<path d="M15.62 16.45C15.98 15.8 15.47 15 14.72 15C14.38 15 14.04 15.16 13.88 15.47C13.72 15.78 13.38 16 13 16C12.57 16 12.19 15.73 12.05 15.32C11.9 14.88 11.65 14.24 11.12 13.71L9.76002 12.35C9.28002 11.87 9.00002 11.19 9.00002 10.5C9.00002 9.12 10.12 8 11.5 8C12.48 8 13.34 8.57 13.74 9.4C13.92 9.76 14.26 10 14.65 10C15.4 10 15.87 9.21 15.54 8.54C14.82 7.04 13.28 6 11.5 6C8.61002 6 6.35002 8.74 7.17002 11.76C7.39002 12.56 7.85002 13.27 8.44002 13.86L9.71002 15.13C9.86002 15.29 9.99002 15.51 10.11 15.84C10.52 16.97 11.49 17.88 12.69 18C13.95 18.11 15.07 17.46 15.62 16.45Z" />
<path d="M13.5 14C14.3284 14 15 13.3284 15 12.5C15 11.6716 14.3284 11 13.5 11C12.6716 11 12 11.6716 12 12.5C12 13.3284 12.6716 14 13.5 14Z" />
<path d="M12 4C12.5523 4 13 3.55228 13 3C13 2.44772 12.5523 2 12 2C11.4477 2 11 2.44772 11 3C11 3.55228 11.4477 4 12 4Z" />
<path d="M12 22C12.5523 22 13 21.5523 13 21C13 20.4477 12.5523 20 12 20C11.4477 20 11 20.4477 11 21C11 21.5523 11.4477 22 12 22Z" />
<path d="M5.75002 7.01C6.09002 6.58 6.02002 5.95 5.59002 5.6C5.16002 5.26 4.53002 5.33 4.18002 5.77C3.84002 6.2 3.91002 6.83 4.34002 7.17C4.77002 7.51 5.40002 7.44 5.75002 7.01Z" />
<path d="M18.25 16.99C17.91 17.42 17.98 18.05 18.41 18.4C18.84 18.75 19.47 18.67 19.82 18.24C20.16 17.81 20.09 17.18 19.66 16.83C19.23 16.49 18.6 16.56 18.25 16.99Z" />
<path d="M4.20002 13.78C4.08002 13.24 3.54002 12.9 3.00002 13.03C2.46002 13.16 2.12002 13.69 2.25002 14.23C2.37002 14.77 2.91002 15.11 3.45002 14.98C3.99002 14.86 4.32002 14.32 4.20002 13.78Z" />
<path d="M19.8 10.22C19.92 10.76 20.46 11.1 21 10.97C21.54 10.84 21.88 10.31 21.75 9.77C21.62 9.23 21.09 8.89 20.55 9.02C20.01 9.14 19.68 9.68 19.8 10.22Z" />
<path d="M8.53002 19.21C8.03002 18.97 7.43002 19.18 7.20002 19.68C6.96002 20.18 7.17002 20.78 7.67002 21.01C8.17002 21.25 8.77002 21.04 9.00002 20.54C9.24002 20.05 9.03002 19.45 8.53002 19.21Z" />
<path d="M15.47 4.79C15.97 5.03 16.57 4.82 16.8 4.32C17.04 3.82 16.83 3.22 16.33 2.99C15.83 2.75 15.23 2.96 15 3.46C14.76 3.95 14.97 4.55 15.47 4.79Z" />
<path d="M15.47 19.21C14.97 19.45 14.76 20.05 15 20.54C15.24 21.03 15.84 21.25 16.33 21.01C16.83 20.77 17.04 20.17 16.8 19.68C16.57 19.18 15.97 18.97 15.47 19.21Z" />
<path d="M8.53002 4.79C9.03002 4.55 9.23002 3.96 9.00002 3.46C8.76002 2.96 8.16002 2.75 7.67002 2.99C7.18002 3.23 6.95002 3.83 7.19002 4.33C7.43002 4.83 8.03002 5.03 8.53002 4.79Z" />
<path d="M21 13.03C20.46 12.91 19.93 13.24 19.8 13.78C19.68 14.32 20.01 14.85 20.55 14.98C21.09 15.1 21.62 14.77 21.75 14.23C21.87 13.69 21.54 13.15 21 13.03Z" />
<path d="M3.00002 10.97C3.54002 11.09 4.07002 10.76 4.20002 10.22C4.32002 9.68 3.99002 9.15 3.45002 9.02C2.91002 8.89 2.38002 9.23 2.25002 9.77C2.13002 10.31 2.46002 10.85 3.00002 10.97Z" />
<path d="M19.66 7.17C20.09 6.83 20.16 6.2 19.82 5.76C19.48 5.32 18.85 5.26 18.41 5.6C17.98 5.94 17.91 6.57 18.25 7.01C18.6 7.44 19.23 7.51 19.66 7.17Z" />
<path d="M4.34002 16.83C3.91002 17.17 3.84002 17.8 4.18002 18.24C4.52002 18.67 5.15002 18.74 5.59002 18.4C6.02002 18.06 6.09002 17.43 5.75002 16.99C5.41002 16.55 4.77002 16.49 4.34002 16.83Z" />
</svg>
