<svg width="24" height="24" viewBox="0 0 24 24"  xmlns="http://www.w3.org/2000/svg">
<path d="M12 4C13.2 4 14.33 4.26 15.35 4.74C15.71 4.91 16.14 4.86 16.42 4.57L16.48 4.51C16.95 4.04 16.83 3.22 16.23 2.94C14.95 2.34 13.51 2 12 2C10.49 2 9.05 2.34 7.76 2.94C7.16 3.22 7.04 4.04 7.51 4.51L7.57 4.57C7.85 4.85 8.28 4.91 8.64 4.74C9.67 4.26 10.8 4 12 4Z" />
<path d="M20 12C20 13.2 19.74 14.33 19.26 15.35C19.09 15.71 19.14 16.14 19.43 16.42L19.49 16.48C19.96 16.95 20.78 16.83 21.06 16.23C21.66 14.95 22 13.51 22 12C22 10.49 21.66 9.05 21.06 7.76C20.78 7.16 19.96 7.04 19.49 7.51L19.43 7.57C19.15 7.85 19.09 8.28 19.26 8.64C19.74 9.67 20 10.8 20 12Z" />
<path d="M12 20C10.8 20 9.67 19.74 8.65 19.26C8.29 19.09 7.86 19.14 7.58 19.43L7.52 19.49C7.05 19.96 7.17 20.78 7.77 21.06C9.05 21.66 10.49 22 12 22C13.51 22 14.95 21.66 16.24 21.06C16.84 20.78 16.96 19.96 16.49 19.49L16.43 19.43C16.15 19.15 15.72 19.09 15.36 19.26C14.33 19.74 13.2 20 12 20Z" />
<path d="M4 12C4 10.8 4.26 9.67 4.74 8.65C4.91 8.29 4.86 7.86 4.57 7.58L4.51 7.51C4.04 7.04 3.23 7.16 2.94 7.76C2.34 9.05 2 10.49 2 12C2 13.51 2.34 14.95 2.94 16.24C3.22 16.84 4.04 16.96 4.51 16.49L4.57 16.43C4.85 16.15 4.91 15.72 4.74 15.36C4.26 14.33 4 13.2 4 12Z" />
<path d="M11.5 6C8.61 6 6.35 8.74 7.17 11.76C7.39 12.56 7.85 13.27 8.44 13.86L9.71 15.13C9.86 15.29 9.99 15.51 10.11 15.84C10.52 16.97 11.49 17.88 12.69 18C13.94 18.12 15.06 17.47 15.62 16.47C15.98 15.82 15.47 15.02 14.72 15.02C14.38 15.02 14.04 15.18 13.88 15.49C13.72 15.78 13.38 16 13 16C12.57 16 12.19 15.73 12.05 15.32C11.9 14.88 11.65 14.24 11.12 13.71L9.76 12.35C9.28 11.87 9 11.19 9 10.5C9 9.12 10.12 8 11.5 8C12.48 8 13.33 8.57 13.74 9.4C13.92 9.76 14.26 10 14.65 10C15.4 10 15.87 9.21 15.54 8.54C14.82 7.04 13.28 6 11.5 6Z" />
<path d="M13.5 14C14.3284 14 15 13.3284 15 12.5C15 11.6716 14.3284 11 13.5 11C12.6716 11 12 11.6716 12 12.5C12 13.3284 12.6716 14 13.5 14Z" />
</svg>
