<svg width="24" height="24" viewBox="0 0 24 24"  xmlns="http://www.w3.org/2000/svg">
<path d="M11.5 17H12.5C12.78 17 13 16.78 13 16.5C13 16.22 12.78 16 12.5 16H11.5C11.22 16 11 16.22 11 16.5C11 16.78 11.22 17 11.5 17Z" />
<path d="M11.52 11.06C10.81 11.22 10.23 11.8 10.06 12.5C9.83 13.44 10.27 14.3 11 14.72V15.25C11 15.39 11.11 15.5 11.25 15.5H12.75C12.89 15.5 13 15.39 13 15.25V14.72C13.6 14.37 14 13.74 14 13C14 11.74 12.83 10.75 11.52 11.06Z" />
<path d="M18 1.01L6 1C4.9 1 4 1.9 4 3V21C4 22.1 4.9 23 6 23H18C19.1 23 20 22.1 20 21V3C20 1.9 19.1 1.01 18 1.01ZM18 18H6V6H18V18Z" />
<path d="M15.33 15.27C15.69 15.63 16.32 15.53 16.54 15.07C16.83 14.44 17 13.74 17 13C17 12.26 16.83 11.56 16.54 10.93C16.32 10.46 15.7 10.36 15.33 10.73C15.11 10.95 15.05 11.29 15.18 11.57C15.38 12.01 15.49 12.49 15.49 13C15.49 13.51 15.38 13.99 15.18 14.43C15.06 14.72 15.11 15.05 15.33 15.27Z" />
<path d="M8.67 15.27C8.89 15.05 8.95 14.71 8.82 14.43C8.61 13.99 8.5 13.51 8.5 13C8.5 11.07 10.07 9.5 12 9.5V10.19C12 10.41 12.25 10.52 12.42 10.38L14.04 8.94C14.15 8.84 14.15 8.67 14.04 8.57L12.42 7.13C12.25 6.98 12 7.09 12 7.31V8C9.24 8 7 10.24 7 13C7 13.74 7.17 14.44 7.46 15.07C7.68 15.54 8.3 15.64 8.67 15.27Z" />
</svg>
