<svg width="24" height="24" viewBox="0 0 24 24"  xmlns="http://www.w3.org/2000/svg">
<path d="M1.6104 12.0614C1.9504 12.5014 2.5704 12.5814 3.0104 12.2514L4.0004 11.4914V19.8714C4.0004 20.4214 4.4504 20.8714 5.0004 20.8714H19.0004C19.5504 20.8714 20.0004 20.4214 20.0004 19.8714V11.4914L20.9904 12.2514C21.4304 12.5914 22.0604 12.5014 22.3904 12.0614C22.7304 11.6214 22.6404 10.9914 22.2004 10.6614L12.6004 3.33141C12.2404 3.06141 11.7404 3.06141 11.3904 3.33141L1.7904 10.6614C1.3604 11.0014 1.2704 11.6314 1.6104 12.0614ZM8.0004 14.8714C7.4504 14.8714 7.0004 14.4214 7.0004 13.8714C7.0004 13.3214 7.4504 12.8714 8.0004 12.8714C8.5504 12.8714 9.0004 13.3214 9.0004 13.8714C9.0004 14.4214 8.5504 14.8714 8.0004 14.8714ZM12.0004 14.8714C11.4504 14.8714 11.0004 14.4214 11.0004 13.8714C11.0004 13.3214 11.4504 12.8714 12.0004 12.8714C12.5504 12.8714 13.0004 13.3214 13.0004 13.8714C13.0004 14.4214 12.5504 14.8714 12.0004 14.8714ZM16.0004 14.8714C15.4504 14.8714 15.0004 14.4214 15.0004 13.8714C15.0004 13.3214 15.4504 12.8714 16.0004 12.8714C16.5504 12.8714 17.0004 13.3214 17.0004 13.8714C17.0004 14.4214 16.5504 14.8714 16.0004 14.8714Z" />
</svg>
