<svg width="24" height="24" viewBox="0 0 24 24"  xmlns="http://www.w3.org/2000/svg">
<path d="M16.6901 21.8105C18.3501 21.8105 19.6901 20.4705 19.6901 18.8105C19.6901 17.1505 18.3501 15.8105 16.6901 15.8105C15.3901 15.8105 14.2901 16.6505 13.8701 17.8105H8.83006L10.8201 14.7505C11.1101 14.7905 11.4001 14.8105 11.6901 14.8105C11.9801 14.8105 12.2701 14.7905 12.5601 14.7505L13.5801 16.3205C14.0001 15.7905 14.5401 15.3705 15.1801 15.1105L14.5801 14.1805C17.0001 13.0805 18.6901 10.6505 18.6901 7.81055H4.69006C4.69006 10.6505 6.38006 13.0805 8.81006 14.1805L4.31006 21.1005L5.99006 22.1905L7.53006 19.8105H13.8701C14.2901 20.9705 15.3901 21.8105 16.6901 21.8105ZM16.6901 17.8105C17.2401 17.8105 17.6901 18.2605 17.6901 18.8105C17.6901 19.3605 17.2401 19.8105 16.6901 19.8105C16.1401 19.8105 15.6901 19.3605 15.6901 18.8105C15.6901 18.2605 16.1401 17.8105 16.6901 17.8105Z" />
<path d="M9.10006 6.81055H10.1001C10.2501 5.66055 10.3301 5.17055 9.21006 3.85055C8.79006 3.35055 8.53006 3.08055 8.75006 1.81055H7.76006C7.55006 2.92055 7.79006 3.86055 8.65006 4.77055C8.87006 5.01055 9.44006 5.44055 9.10006 6.81055Z" />
<path d="M11.5801 6.81055H12.5801C12.7301 5.66055 12.8101 5.17055 11.6901 3.85055C11.2701 3.35055 11.0101 3.07055 11.2301 1.81055H10.2401C10.0301 2.92055 10.2701 3.86055 11.1301 4.77055C11.3601 5.01055 11.9301 5.44055 11.5801 6.81055Z" />
<path d="M14.1001 6.81055H15.1001C15.2501 5.66055 15.3301 5.17055 14.2101 3.85055C13.7901 3.35055 13.5301 3.08055 13.7501 1.81055H12.7601C12.5501 2.92055 12.7901 3.86055 13.6501 4.77055C13.8701 5.01055 14.4401 5.44055 14.1001 6.81055Z" />
</svg>
