<svg width="24" height="24" viewBox="0 0 24 24"  xmlns="http://www.w3.org/2000/svg">
<path d="M17.4137 16.29L21.0037 12.7C21.3937 12.31 21.3937 11.68 21.0037 11.29L17.4137 7.7C17.0237 7.31 16.3937 7.31 16.0037 7.7C15.6137 8.09 15.6137 8.72 16.0037 9.11L17.8737 11H9.70374C9.15374 11 8.70374 11.45 8.70374 12C8.70374 12.55 9.15374 13 9.70374 13H17.8737L15.9937 14.88C15.6037 15.27 15.6037 15.9 15.9937 16.29C16.3837 16.68 17.0237 16.68 17.4137 16.29Z" />
<path d="M18.7037 19H4.70374V5H18.7037V6C18.7037 6.55 19.1537 7 19.7037 7C20.2537 7 20.7037 6.55 20.7037 6V5C20.7037 3.9 19.8037 3 18.7037 3H4.70374C3.60374 3 2.70374 3.9 2.70374 5V19C2.70374 20.1 3.60374 21 4.70374 21H18.7037C19.8137 21 20.7037 20.1 20.7037 19V18C20.7037 17.45 20.2537 17 19.7037 17C19.1537 17 18.7037 17.45 18.7037 18V19Z" />
</svg>
