<svg width="24" height="24" viewBox="0 0 24 24"  xmlns="http://www.w3.org/2000/svg">
<path d="M4.60022 15.43C4.60022 14.78 5.20022 14.3 5.84022 14.44L9.40022 15.24V4.5C9.40022 3.67 10.0702 3 10.9002 3C11.7302 3 12.4002 3.67 12.4002 4.5V10.5H13.3102C13.6202 10.5 13.9302 10.57 14.2002 10.71L18.2902 12.75C19.0602 13.13 19.5002 13.97 19.3802 14.82L18.7502 19.28C18.6102 20.27 17.7602 21 16.7702 21H10.6102C10.0802 21 9.32022 20.79 8.95022 20.41L4.88022 16.12C4.70022 15.94 4.60022 15.69 4.60022 15.43Z" />
</svg>
