<svg width="24" height="24" viewBox="0 0 24 24"  xmlns="http://www.w3.org/2000/svg">
<path d="M17.4549 4C16.6849 6.6 16.2949 9.28 16.2949 12C16.2949 14.72 16.6849 17.41 17.4549 20H6.54489C7.31489 17.4 7.70489 14.72 7.70489 12C7.70489 9.28 7.31489 6.59 6.54489 4H17.4549ZM20.2349 2H3.76489C3.76489 2 4.02489 2.77 4.06489 2.88C5.15489 5.82 5.70489 8.91 5.70489 12C5.70489 15.09 5.15489 18.18 4.06489 21.12C4.02489 21.23 3.76489 22 3.76489 22H20.2349C20.2349 22 19.9749 21.23 19.9349 21.12C18.8449 18.18 18.2949 15.09 18.2949 12C18.2949 8.91 18.8449 5.82 19.9349 2.88C19.9749 2.77 20.2349 2 20.2349 2Z" />
</svg>
