<svg width="24" height="24" viewBox="0 0 24 24"  xmlns="http://www.w3.org/2000/svg">
<path d="M16.957 11.6245H17.037C17.847 11.6245 18.317 10.7145 17.857 10.0545L12.777 2.80445C12.377 2.23445 11.537 2.23445 11.137 2.80445L6.09702 10.0545C5.63702 10.7145 6.11702 11.6245 6.92702 11.6245H6.96702L4.06702 16.0845C3.62702 16.7445 4.10702 17.6245 4.90702 17.6245H9.98702V19.6445C9.98702 20.7345 10.877 21.6245 11.967 21.6245C13.057 21.6245 13.947 20.7345 13.947 19.6445V17.6245H19.097C19.897 17.6245 20.377 16.7345 19.927 16.0745L16.957 11.6245Z" />
</svg>
