<svg width="24" height="24" viewBox="0 0 24 24"  xmlns="http://www.w3.org/2000/svg">
<path d="M20.005 5H16.835L15.595 3.65C15.225 3.24 14.685 3 14.125 3H9.885C9.32501 3 8.785 3.24 8.405 3.65L7.175 5H4.005C2.905 5 2.005 5.9 2.005 7V19C2.005 20.1 2.905 21 4.005 21H11.005V18.91C8.55501 18.49 6.59501 16.59 6.11501 14.16C5.99501 13.55 6.495 13 7.105 13C7.59501 13 7.985 13.35 8.085 13.83C8.475 15.64 10.075 17 12.005 17C13.935 17 15.535 15.64 15.915 13.83C16.015 13.35 16.415 13 16.895 13C17.505 13 18.005 13.55 17.885 14.16C17.405 16.59 15.445 18.5 12.995 18.91V21H19.995C21.095 21 21.995 20.1 21.995 19V7C22.005 5.9 21.105 5 20.005 5ZM14.005 13C14.005 14.1 13.105 15 12.005 15C10.905 15 10.005 14.1 10.005 13V9C10.005 7.9 10.905 7 12.005 7C13.105 7 14.005 7.9 14.005 9V13Z" />
</svg>
