<svg width="24" height="24" viewBox="0 0 24 24"  xmlns="http://www.w3.org/2000/svg">
<g clip-path="url(#clip0_2402_19739)">
<path d="M14.98 11.0955C15.15 11.1155 15.32 11.1455 15.5 11.1455C17.71 11.1455 19.5 9.35547 19.5 7.14547C19.5 4.93547 17.71 3.14547 15.5 3.14547C13.29 3.14547 11.5 4.93547 11.5 7.14547C11.5 7.32547 11.53 7.49547 11.55 7.66547L14.98 11.0955ZM17.19 13.3055L23.03 19.1455H23.5V17.1455C23.5 15.0055 19.94 13.6455 17.19 13.3055ZM0.5 2.26547L4.5 6.26547V9.14547H1.5V11.1455H4.5V14.1455H6.5V11.1455H9.38L11.89 13.6555C9.69 14.2555 7.5 15.4455 7.5 17.1455V19.1455H17.38L21.38 23.1455L22.79 21.7355L1.91 0.855469L0.5 2.26547ZM7.38 9.14547H6.5V8.26547L7.38 9.14547Z" />
</g>
<defs>
<clipPath id="clip0_2402_19739">
<rect width="24" height="24" fill="white"/>
</clipPath>
</defs>
</svg>
