<svg width="24" height="24" viewBox="0 0 24 24"  xmlns="http://www.w3.org/2000/svg">
<g clip-path="url(#clip0_2402_19736)">
<path d="M15.5 11.1004C17.7091 11.1004 19.5 9.30953 19.5 7.10039C19.5 4.89125 17.7091 3.10039 15.5 3.10039C13.2909 3.10039 11.5 4.89125 11.5 7.10039C11.5 9.30953 13.2909 11.1004 15.5 11.1004Z" />
<path d="M23.5 19.1004V17.1004C23.5 14.8004 19.4 13.4004 16.6 13.2004L22.6 19.1004H23.5ZM11.9 13.6004C9.7 14.2004 7.5 15.4004 7.5 17.1004V19.1004H17.4L21.4 23.1004L22.7 21.8004L1.7 0.900391L0.5 2.20039L4.5 6.20039V9.10039H1.5V11.1004H4.5V14.1004H6.5V11.1004H9.4L11.9 13.6004ZM6.5 9.10039V8.20039L7.4 9.10039H6.5Z" />
</g>
<defs>
<clipPath id="clip0_2402_19736">
<rect width="24" height="24" fill="white"/>
</clipPath>
</defs>
</svg>
