<svg width="24" height="24" viewBox="0 0 24 24"  xmlns="http://www.w3.org/2000/svg">
<path opacity="0.3" d="M12 10.1004C13.1598 10.1004 14.1 9.16019 14.1 8.00039C14.1 6.84059 13.1598 5.90039 12 5.90039C10.8402 5.90039 9.90002 6.84059 9.90002 8.00039C9.90002 9.16019 10.8402 10.1004 12 10.1004Z" />
<path opacity="0.3" d="M12 14.9004C9.03002 14.9004 5.90002 16.3604 5.90002 17.0004V18.1004H18.1V17.0004C18.1 16.3604 14.97 14.9004 12 14.9004Z" />
<path d="M12 13C9.33 13 4 14.34 4 17V20H20V17C20 14.34 14.67 13 12 13ZM18.1 18.1H5.9V17C5.9 16.36 9.03 14.9 12 14.9C14.97 14.9 18.1 16.36 18.1 17V18.1ZM12 12C14.21 12 16 10.21 16 8C16 5.79 14.21 4 12 4C9.79 4 8 5.79 8 8C8 10.21 9.79 12 12 12ZM12 5.9C13.16 5.9 14.1 6.84 14.1 8C14.1 9.16 13.16 10.1 12 10.1C10.84 10.1 9.9 9.16 9.9 8C9.9 6.84 10.84 5.9 12 5.9Z" />
</svg>
