<svg width="24" height="24" viewBox="0 0 24 24"  xmlns="http://www.w3.org/2000/svg">
<path d="M21.3078 17.38L18.9178 15.25C19.4378 12.89 17.5578 11 15.4978 11C14.3378 11 11.9978 11.9 11.9978 14.5C11.9978 15.31 12.2678 16.05 12.7378 16.65C12.8878 16.85 12.8778 17.13 12.6978 17.31C12.4878 17.52 12.1378 17.5 11.9478 17.27C11.3478 16.5 10.9978 15.54 10.9978 14.5C10.9978 12.8 11.9578 11.33 13.3478 10.57C12.6478 10.21 11.8678 10 11.0678 10C8.68782 10 6.69782 11.65 6.15782 13.87C4.82782 13.48 3.87782 12.21 4.00782 10.73C4.14782 9.16 5.53782 8 7.10782 8H9.10782C10.6878 8 11.8578 7.05 11.9778 5.75C12.1278 4.25 10.9578 3 9.49782 3H8.04782C7.54782 3 7.08782 3.34 7.00782 3.83C6.90782 4.46 7.38782 5 7.99782 5H9.49782C9.77782 5 9.99782 5.22 9.99782 5.5C9.99782 5.78 9.77782 6 9.49782 6H7.15782C4.48782 6 2.16782 8.03 2.00782 10.7C1.85782 13.25 3.61782 15.42 5.99782 15.9V15.93C5.99782 18.73 8.26782 21 11.0678 21H19.9278C21.7978 21 22.7378 18.66 21.3078 17.38ZM17.9978 19C17.4478 19 16.9978 18.55 16.9978 18C16.9978 17.45 17.4478 17 17.9978 17C18.5478 17 18.9978 17.45 18.9978 18C18.9978 18.55 18.5478 19 17.9978 19Z" />
</svg>
