<svg width="24" height="24" viewBox="0 0 24 24"  xmlns="http://www.w3.org/2000/svg">
<path d="M4.77823 15.2686L7.31823 14.9786C7.92823 14.9086 8.52823 15.1186 8.95823 15.5486L10.7982 17.3886C13.6282 15.9486 15.9482 13.6386 17.3882 10.7986L15.5382 8.94855C15.1082 8.51855 14.8982 7.91855 14.9682 7.30855L15.2582 4.78855C15.3782 3.77855 16.2282 3.01855 17.2482 3.01855H18.9782C20.1082 3.01855 21.0482 3.95855 20.9782 5.08855C20.4482 13.6286 13.6182 20.4486 5.08823 20.9786C3.95823 21.0486 3.01822 20.1086 3.01822 18.9786V17.2486C3.00822 16.2386 3.76823 15.3886 4.77823 15.2686Z" />
</svg>
