<svg width="24" height="24" viewBox="0 0 24 24"  xmlns="http://www.w3.org/2000/svg">
<path d="M18.05 13.8296L16.62 12.3996C17.18 11.6696 17.67 10.8996 18.09 10.0796L15.89 7.87961C15.61 7.59961 15.53 7.20961 15.64 6.85961C16.01 5.73961 16.21 4.53961 16.21 3.28961C16.21 2.73961 16.66 2.28961 17.21 2.28961H20.71C21.26 2.28961 21.71 2.73961 21.71 3.28961C21.71 7.26961 20.34 10.9296 18.05 13.8296ZM15.23 16.6396C12.34 18.9296 8.68001 20.2896 4.71001 20.2896C4.16001 20.2896 3.71001 19.8396 3.71001 19.2896V15.7996C3.71001 15.2496 4.16001 14.7996 4.71001 14.7996C5.95001 14.7996 7.16001 14.5996 8.28001 14.2296C8.63001 14.1096 9.03001 14.1996 9.30001 14.4696L11.5 16.6696C12.31 16.2496 13.08 15.7696 13.8 15.2096L2.10001 3.50961L3.52001 2.09961L21.9 20.4896L20.49 21.8996L15.23 16.6396Z" />
</svg>
