<svg width="24" height="24" viewBox="0 0 24 24"  xmlns="http://www.w3.org/2000/svg">
<path d="M15.1444 16.7592C12.5144 18.8392 9.25443 20.1492 5.69443 20.3692C4.56443 20.4392 3.62443 19.4992 3.62443 18.3692V16.6392C3.61443 15.6292 4.37443 14.7792 5.38443 14.6592L7.92443 14.3692C8.53443 14.2992 9.13443 14.5092 9.56443 14.9392L11.4044 16.7792C12.2144 16.3692 12.9944 15.8792 13.7144 15.3292L2.70443 4.31918C2.31443 3.92918 2.31443 3.29918 2.70443 2.90918C3.09443 2.51918 3.73443 2.51918 4.12443 2.90918L21.0944 19.8892C21.4844 20.2792 21.4844 20.9092 21.0944 21.2992C20.7044 21.6892 20.0744 21.6892 19.6844 21.2992L15.1444 16.7592ZM17.9944 10.1892L16.1444 8.33918C15.7144 7.90918 15.5044 7.30918 15.5744 6.69918L15.8644 4.17918C15.9844 3.16918 16.8344 2.40918 17.8544 2.40918H19.5844C20.7144 2.40918 21.6544 3.34918 21.5844 4.47918C21.3644 8.04918 20.0444 11.3092 17.9644 13.9492L16.5344 12.5192C17.0844 11.7892 17.5744 11.0092 17.9944 10.1892Z" />
</svg>
