<svg width="24" height="24" viewBox="0 0 24 24"  xmlns="http://www.w3.org/2000/svg">
<path d="M6.25 10.5H4.25V11.5H6.25V10.5ZM19.75 10.5H17.75V11.5H19.75V10.5ZM12.75 12.5H10.75V14.25C10.75 14.66 10.41 15 10 15C9.59 15 9.25 14.66 9.25 14.25V9.75C9.25 9.34 9.59 9 10 9C10.41 9 10.75 9.34 10.75 9.75V11H12.75V9.75C12.75 9.34 13.09 9 13.5 9C13.91 9 14.25 9.34 14.25 9.75V14.25C14.25 14.66 13.91 15 13.5 15C13.09 15 12.75 14.66 12.75 14.25V12.5ZM17.75 14.25C17.75 14.66 17.41 15 17 15C16.59 15 16.25 14.66 16.25 14.25V10C16.25 9.45 16.7 9 17.25 9H19.75C20.58 9 21.25 9.68 21.25 10.5V11.5C21.25 12.32 20.58 13 19.75 13H17.75V14.25ZM2.75 10C2.75 9.45 3.2 9 3.75 9H6.25C7.08 9 7.75 9.68 7.75 10.5V11.5C7.75 12.32 7.08 13 6.25 13H4.25V14.25C4.25 14.66 3.91 15 3.5 15C3.09 15 2.75 14.66 2.75 14.25V10Z" />
</svg>
