<svg width="24" height="24" viewBox="0 0 24 24"  xmlns="http://www.w3.org/2000/svg">
<path d="M21.0862 21.3043C21.4762 20.9143 21.4762 20.2843 21.0862 19.8943L4.10625 2.9143C3.71625 2.5243 3.08625 2.5243 2.69625 2.9143C2.30625 3.3043 2.30625 3.9343 2.69625 4.3243L3.59625 5.2343V18.4043C3.59625 19.5043 4.49625 20.4043 5.59625 20.4043H18.7662L19.6662 21.3043C20.0562 21.6943 20.6862 21.6943 21.0862 21.3043ZM8.84625 18.4043H5.59625V7.2343L7.59625 9.2343V12.9043C7.59625 13.4543 8.04625 13.9043 8.59625 13.9043H8.84625V18.4043ZM10.3462 18.4043V13.9043H10.5962C11.0562 13.9043 11.4162 13.5943 11.5362 13.1743L14.8462 16.4843V18.4043H10.3462ZM11.5962 7.5743L6.42625 2.4043H19.5962C20.6962 2.4043 21.5962 3.3043 21.5962 4.4043V17.5743L19.5962 15.5743V4.4043H17.5962V12.9043C17.5962 13.0943 17.5262 13.2643 17.4362 13.4143L13.5962 9.5743V4.4043H11.5962V7.5743Z" />
</svg>
