<svg width="24" height="24" viewBox="0 0 24 24"  xmlns="http://www.w3.org/2000/svg">
<path d="M15.4462 16.5195L12.4362 13.5095C12.3262 13.3995 12.1962 13.3795 12.1262 13.3795C12.0562 13.3795 11.9262 13.3995 11.8162 13.5095L8.79625 16.5295C8.45625 16.8695 7.92625 17.4195 6.15625 17.4195L9.86625 21.1195C11.0362 22.2895 12.9362 22.2895 14.1062 21.1195L17.8262 17.4095C16.9162 17.4095 16.1562 17.2295 15.4462 16.5195Z" />
<path d="M8.79625 7.46945L11.8162 10.4895C11.8962 10.5695 12.0162 10.6195 12.1262 10.6195C12.2362 10.6195 12.3562 10.5695 12.4362 10.4895L15.4262 7.49945C16.1362 6.75945 16.9462 6.58945 17.8562 6.58945L14.1362 2.87945C12.9662 1.70945 11.0662 1.70945 9.89625 2.87945L6.18625 6.57945C7.94625 6.57945 8.48625 7.15945 8.79625 7.46945Z" />
<path d="M21.1062 9.84945L18.8562 7.58945H17.5962C17.0562 7.58945 16.5162 7.80945 16.1462 8.19945L13.1462 11.1995C12.8662 11.4795 12.4962 11.6195 12.1262 11.6195C11.7662 11.6195 11.3862 11.4695 11.1062 11.1995L8.08625 8.16945C7.70625 7.78945 7.18625 7.56945 6.63625 7.56945H5.16625L2.87625 9.86945C1.70625 11.0395 1.70625 12.9395 2.87625 14.1095L5.16625 16.4095H6.64625C7.18625 16.4095 7.70625 16.1895 8.09625 15.8095L11.1162 12.7895C11.3962 12.5095 11.7662 12.3695 12.1362 12.3695C12.5062 12.3695 12.8762 12.5095 13.1562 12.7895L16.1662 15.7995C16.5462 16.1795 17.0662 16.3995 17.6162 16.3995H18.8762L21.1262 14.1395C22.2962 12.9595 22.2962 11.0395 21.1062 9.84945Z" />
</svg>
