<svg width="24" height="24" viewBox="0 0 24 24"  xmlns="http://www.w3.org/2000/svg">
<path d="M13.9137 19.5036C14.3037 19.8936 14.9337 19.8936 15.3237 19.5036L17.2037 17.6136L19.0937 19.5036C19.4837 19.8936 20.1137 19.8936 20.5037 19.5036C20.8937 19.1136 20.8937 18.4836 20.5037 18.0936L18.6137 16.2036L20.5037 14.3136C20.8937 13.9236 20.8937 13.2936 20.5037 12.9036C20.1137 12.5136 19.4837 12.5136 19.0937 12.9036L17.2037 14.7936L15.3137 12.9036C14.9237 12.5136 14.2937 12.5136 13.9037 12.9036C13.5137 13.2936 13.5137 13.9236 13.9037 14.3136L15.7937 16.2036L13.9037 18.0936C13.5237 18.4736 13.5237 19.1136 13.9137 19.5036ZM14.2037 9.20361C14.2037 8.65361 13.7537 8.20361 13.2037 8.20361H4.20374C3.65374 8.20361 3.20374 8.65361 3.20374 9.20361C3.20374 9.75361 3.65374 10.2036 4.20374 10.2036H13.2037C13.7537 10.2036 14.2037 9.75361 14.2037 9.20361ZM14.2037 5.20361C14.2037 4.65361 13.7537 4.20361 13.2037 4.20361H4.20374C3.65374 4.20361 3.20374 4.65361 3.20374 5.20361C3.20374 5.75361 3.65374 6.20361 4.20374 6.20361H13.2037C13.7537 6.20361 14.2037 5.75361 14.2037 5.20361ZM3.20374 13.2036C3.20374 13.7536 3.65374 14.2036 4.20374 14.2036H9.20374C9.75374 14.2036 10.2037 13.7536 10.2037 13.2036C10.2037 12.6536 9.75374 12.2036 9.20374 12.2036H4.20374C3.65374 12.2036 3.20374 12.6536 3.20374 13.2036Z" />
</svg>
