<svg width="24" height="24" viewBox="0 0 24 24"  xmlns="http://www.w3.org/2000/svg">
<path d="M19.2736 4.9257L17.1536 2.8057C16.3736 2.0257 15.1036 2.0257 14.3236 2.8057L11.4936 5.6357L13.6136 7.7557L15.7336 5.6357L19.2736 9.1757C20.4436 7.9957 20.4436 6.0957 19.2736 4.9257Z" />
<path d="M5.48356 13.7657C6.07356 14.3557 7.02356 14.3557 7.60356 13.7657L10.0736 11.2957L7.95356 9.1657L5.48356 11.6357C4.89356 12.2257 4.89356 13.1757 5.48356 13.7657Z" />
<path d="M14.3236 8.4557L13.6136 9.1657L10.4336 5.9857C9.84356 5.3957 8.89356 5.3957 8.31356 5.9857C7.72356 6.5757 7.72356 7.5257 8.31356 8.1057L11.4936 11.2857L4.49356 18.2857C3.79356 18.9857 3.61356 20.1257 4.20356 20.9357C4.94356 21.9657 6.39356 22.0557 7.25356 21.1957L16.4436 11.9957C16.8336 12.3857 17.4636 12.3857 17.8536 11.9957C18.2436 11.6057 18.2436 10.9757 17.8536 10.5857L15.7336 8.4657C15.3436 8.0657 14.7136 8.0657 14.3236 8.4557Z" />
</svg>
