<svg width="24" height="24" viewBox="0 0 24 24"  xmlns="http://www.w3.org/2000/svg">
<path d="M19.9287 8.45714L16.3287 10.1371L13.9987 7.94714V6.54714L16.3287 4.35714L19.9287 6.03714C20.3087 6.21714 20.7487 6.04714 20.9287 5.67714C21.1087 5.29714 20.9387 4.85714 20.5687 4.67714L16.6487 2.84714C16.2687 2.66714 15.8187 2.74714 15.5187 3.04714L13.7787 4.64714C13.5987 4.40714 13.3187 4.24714 12.9987 4.24714C12.4487 4.24714 11.9987 4.69714 11.9987 5.24714V6.24714H8.81873C8.33873 4.89714 6.97873 3.97714 5.39873 4.31714C4.23873 4.56714 3.24873 5.56714 3.03873 6.74714C2.81873 8.06714 3.49873 9.21714 4.51873 9.82714L7.07873 18.2471H3.99873V21.2471H16.9987V18.2471H13.3787L8.40873 9.01714C8.57873 8.77714 8.71873 8.52714 8.81873 8.24714H11.9987V9.24714C11.9987 9.79714 12.4487 10.2471 12.9987 10.2471C13.3187 10.2471 13.5987 10.0871 13.7787 9.84714L15.5187 11.4471C15.8187 11.7471 16.2687 11.8271 16.6487 11.6471L20.5687 9.81714C20.9487 9.63714 21.1087 9.19714 20.9287 8.81714C20.7487 8.44714 20.3087 8.27714 19.9287 8.45714ZM5.99873 8.24714C5.44873 8.24714 4.99873 7.79714 4.99873 7.24714C4.99873 6.69714 5.44873 6.24714 5.99873 6.24714C6.54873 6.24714 6.99873 6.69714 6.99873 7.24714C6.99873 7.79714 6.54873 8.24714 5.99873 8.24714Z" />
</svg>
