<svg width="24" height="24" viewBox="0 0 24 24"  xmlns="http://www.w3.org/2000/svg">
<g clip-path="url(#clip0_2402_19805)">
<path d="M10.47 6.22031H18.82V2.23031H6.82001V2.58031L10.47 6.22031ZM11.48 7.23031L20.48 16.2203H22.82V10.2303C22.82 8.57031 21.48 7.23031 19.82 7.23031H11.48ZM19.82 9.22031C20.37 9.22031 20.82 9.67031 20.82 10.2203C20.82 10.7703 20.37 11.2203 19.82 11.2203C19.27 11.2203 18.82 10.7703 18.82 10.2203C18.82 9.67031 19.27 9.22031 19.82 9.22031ZM2.23001 0.820312L0.820007 2.23031L5.82001 7.23031C4.16001 7.23031 2.82001 8.56031 2.82001 10.2203V16.2203H6.82001V20.2203H18.82L21.77 23.1803L23.18 21.7703L2.23001 0.820312ZM8.82001 18.2303V14.2203H12.82L16.82 18.2203L8.82001 18.2303Z" />
</g>
<defs>
<clipPath id="clip0_2402_19805">
<rect width="24" height="24" fill="white"/>
</clipPath>
</defs>
</svg>
