<svg width="24" height="24" viewBox="0 0 24 24"  xmlns="http://www.w3.org/2000/svg">
<path d="M2.91124 1.53469C2.52124 1.14469 1.89124 1.14469 1.50124 1.53469C1.11124 1.92469 1.11124 2.55469 1.50124 2.94469L5.77124 7.21469C4.12124 7.22469 2.79124 8.56469 2.79124 10.2147V14.2147C2.79124 15.3147 3.69124 16.2147 4.79124 16.2147H6.79124V18.2147C6.79124 19.3147 7.69124 20.2147 8.79124 20.2147H16.7912C17.3412 20.2147 17.8312 19.9947 18.1912 19.6347L21.0212 22.4647C21.4112 22.8547 22.0412 22.8547 22.4312 22.4647C22.8212 22.0747 22.8212 21.4447 22.4312 21.0547L2.91124 1.53469ZM15.7912 18.2147H9.79124C9.24124 18.2147 8.79124 17.7647 8.79124 17.2147V13.2147H11.7712L16.4912 17.9347C16.3012 18.1047 16.0612 18.2147 15.7912 18.2147ZM19.7912 7.21469H11.4212L20.4212 16.2147H20.7912C21.8912 16.2147 22.7912 15.3147 22.7912 14.2147V10.2147C22.7912 8.55469 21.4512 7.21469 19.7912 7.21469ZM19.7912 11.2147C19.2412 11.2147 18.7912 10.7647 18.7912 10.2147C18.7912 9.66469 19.2412 9.21469 19.7912 9.21469C20.3412 9.21469 20.7912 9.66469 20.7912 10.2147C20.7912 10.7647 20.3412 11.2147 19.7912 11.2147ZM17.7912 6.21469C18.3412 6.21469 18.7912 5.76469 18.7912 5.21469V3.21469C18.7912 2.66469 18.3412 2.21469 17.7912 2.21469H7.79124C7.42124 2.21469 7.11124 2.42469 6.94124 2.72469L10.4212 6.21469H17.7912Z" />
</svg>
