<svg width="24" height="24" viewBox="0 0 24 24"  xmlns="http://www.w3.org/2000/svg">
<g clip-path="url(#clip0_2402_19802)">
<path d="M20 16.1004H22.9V10.1004C22.9 8.40039 21.6 7.10039 19.9 7.10039H10.9L20 16.1004ZM19.9 9.10039C20.45 9.10039 20.9 9.55039 20.9 10.1004C20.9 10.6504 20.45 11.1004 19.9 11.1004C19.35 11.1004 18.9 10.6504 18.9 10.1004C18.9 9.55039 19.35 9.10039 19.9 9.10039ZM18.9 6.10039V2.10039H6.89999V3.20039L9.89999 6.10039H18.9ZM2.09999 0.900391L0.899994 2.10039L5.79999 7.10039C4.19999 7.20039 2.89999 8.50039 2.89999 10.1004V16.1004H6.89999V20.1004H18.8L21.8 23.1004L23.1 21.8004L2.09999 0.900391ZM8.89999 18.1004V13.1004H11.8L16.8 18.1004H8.89999Z" />
</g>
<defs>
<clipPath id="clip0_2402_19802">
<rect width="24" height="24" fill="white"/>
</clipPath>
</defs>
</svg>
