<svg width="24" height="24" viewBox="0 0 24 24"  xmlns="http://www.w3.org/2000/svg">
<path d="M12.9987 8.571C12.2087 8.571 11.5687 9.211 11.5687 10.001C11.5687 10.791 12.2087 11.431 12.9987 11.431C13.7887 11.431 14.4287 10.791 14.4287 10.001C14.4287 9.211 13.7887 8.571 12.9987 8.571Z" />
<path d="M13.2087 3.001C9.36873 2.891 6.20873 5.871 6.01873 9.641L4.09873 12.201C3.84873 12.531 4.08873 13.001 4.49873 13.001H5.99873V16.001C5.99873 17.101 6.89873 18.001 7.99873 18.001H8.99873V20.001C8.99873 20.551 9.44873 21.001 9.99873 21.001H14.9987C15.5487 21.001 15.9987 20.551 15.9987 20.001V16.321C18.4387 15.161 20.0987 12.641 19.9987 9.741C19.8587 6.121 16.8187 3.111 13.2087 3.001ZM15.9987 10.001C15.9987 10.131 15.9887 10.261 15.9787 10.391L16.8087 11.051C16.8887 11.111 16.9087 11.211 16.8587 11.301L16.0587 12.691C16.0087 12.781 15.8987 12.811 15.8187 12.781L14.8287 12.381C14.6187 12.541 14.3987 12.671 14.1587 12.771L13.9987 13.831C13.9887 13.931 13.8987 14.001 13.7987 14.001H12.1987C12.0987 14.001 12.0187 13.931 11.9987 13.831L11.8487 12.771C11.5987 12.671 11.3787 12.541 11.1687 12.381L10.1787 12.781C10.0887 12.811 9.97873 12.781 9.92873 12.691L9.12873 11.301C9.07873 11.221 9.09873 11.111 9.17873 11.051L10.0187 10.391C10.0087 10.261 9.99873 10.131 9.99873 10.001C9.99873 9.871 10.0187 9.731 10.0387 9.611L9.18873 8.951C9.10873 8.891 9.08873 8.791 9.13873 8.691L9.93873 7.311C9.98873 7.221 10.0887 7.191 10.1787 7.221L11.1787 7.621C11.3787 7.471 11.6087 7.331 11.8487 7.231L11.9987 6.171C12.0187 6.071 12.0987 6.001 12.1987 6.001H13.7987C13.8987 6.001 13.9787 6.071 13.9987 6.171L14.1487 7.231C14.3887 7.331 14.6087 7.461 14.8187 7.621L15.8187 7.221C15.9087 7.191 16.0187 7.221 16.0587 7.311L16.8587 8.691C16.9087 8.781 16.8887 8.891 16.8087 8.951L15.9587 9.611C15.9887 9.731 15.9987 9.861 15.9987 10.001Z" />
</svg>
