<svg width="24" height="24" viewBox="0 0 24 24"  xmlns="http://www.w3.org/2000/svg">
<path d="M19.9398 9.06C19.4998 5.73 16.5698 3 12.9998 3C9.46985 3 6.56985 5.61 6.07985 9L4.14985 12.48C3.73985 13.14 4.21985 14 4.99985 14H5.99985V18H8.99985V21H15.9998V16.32C18.6198 15.07 20.3498 12.24 19.9398 9.06ZM12.4998 14C12.0898 14 11.7598 13.67 11.7598 13.26C11.7598 12.85 12.0898 12.53 12.4998 12.53C12.9098 12.53 13.2298 12.85 13.2298 13.26C13.2298 13.67 12.9198 14 12.4998 14ZM14.2598 9.68C13.8198 10.33 13.3998 10.53 13.1698 10.95C13.0798 11.12 13.0398 11.23 13.0398 11.77H11.9798C11.9798 11.48 11.9398 11.02 12.1598 10.61C12.4398 10.1 12.9898 9.8 13.2998 9.35C13.6298 8.88 13.4498 7.99 12.4998 7.99C11.8798 7.99 11.5798 8.46 11.4498 8.85L10.4898 8.45C10.7598 7.67 11.4598 7 12.4998 7C13.3598 7 13.9498 7.39 14.2498 7.88C14.5098 8.31 14.6598 9.1 14.2598 9.68Z" />
</svg>
