<svg width="24" height="24" viewBox="0 0 24 24"  xmlns="http://www.w3.org/2000/svg">
<path d="M11.305 7.86922L6.795 3.35922C8.375 2.30922 10.265 1.69922 12.305 1.69922C17.825 1.69922 22.305 6.17922 22.305 11.6992C22.305 13.7392 21.695 15.6292 20.645 17.2092L19.185 15.7492C19.895 14.5692 20.305 13.1792 20.305 11.6992C20.305 8.34922 18.235 5.47922 15.305 4.28922V4.69922C15.305 5.79922 14.405 6.69922 13.305 6.69922H11.305V7.86922ZM21.495 20.8892L20.085 22.2992L17.815 20.0292C16.235 21.0892 14.345 21.6992 12.305 21.6992C6.785 21.6992 2.305 17.2192 2.305 11.6992C2.305 9.65922 2.915 7.76922 3.965 6.18922L1.695 3.91922L3.105 2.50922L21.495 20.8892ZM11.305 17.6992C10.205 17.6992 9.305 16.7992 9.305 15.6992V14.6992L4.515 9.90922C4.385 10.4892 4.305 11.0792 4.305 11.6992C4.305 15.7792 7.355 19.1392 11.305 19.6292V17.6992Z" />
</svg>
