<svg width="24" height="24" viewBox="0 0 24 24"  xmlns="http://www.w3.org/2000/svg">
<path d="M19.8837 17.96C20.3637 17.19 20.6337 16.29 20.5737 15.3C20.4437 13.15 18.7337 11.33 16.6037 11.1C13.8837 10.8 11.5837 12.91 11.5837 15.57C11.5837 18.06 13.5937 20.07 16.0737 20.07C16.9537 20.07 17.7737 19.81 18.4637 19.37L20.8737 21.78C21.2637 22.17 21.9037 22.17 22.2937 21.78C22.6837 21.39 22.6837 20.75 22.2937 20.36L19.8837 17.96ZM16.0837 18.07C14.7037 18.07 13.5837 16.95 13.5837 15.57C13.5837 14.19 14.7037 13.07 16.0837 13.07C17.4637 13.07 18.5837 14.19 18.5837 15.57C18.5837 16.95 17.4637 18.07 16.0837 18.07ZM15.7237 9.57004C14.9837 9.59004 14.2737 9.75004 13.6237 10.02L13.0737 9.19004L9.99371 14.2C9.63371 14.78 8.82371 14.84 8.38371 14.33L6.26371 11.86L3.20371 16.76C2.89371 17.25 2.23371 17.38 1.76371 17.04C1.34371 16.73 1.22371 16.15 1.50371 15.7L5.28371 9.65004C5.64371 9.08004 6.45371 9.02004 6.89371 9.53004L9.00371 11.99L12.1837 6.82004C12.5637 6.20004 13.4637 6.18004 13.8637 6.79004L15.7237 9.57004ZM18.3137 10.07C17.6737 9.79004 16.9837 9.62004 16.2637 9.58004L20.8037 2.39004C21.1137 1.90004 21.7737 1.78004 22.2337 2.12004C22.6637 2.43004 22.7737 3.02004 22.4937 3.46004L18.3137 10.07Z" />
</svg>
