<svg width="24" height="24" viewBox="0 0 24 24"  xmlns="http://www.w3.org/2000/svg">
<path d="M7.66915 7.04C6.86915 6.7 6.52915 5.71 7.00915 4.99C7.97915 3.55 9.59915 2.5 11.7392 2.5C14.0891 2.5 15.6992 3.57 16.5192 4.91C17.2192 6.06 17.6291 8.21 16.5491 9.81C15.3491 11.58 14.1992 12.12 13.5792 13.26C13.4292 13.53 13.3391 13.75 13.2792 14.2C13.1891 14.93 12.5892 15.5 11.8492 15.5C10.9792 15.5 10.2692 14.75 10.3692 13.88C10.4292 13.37 10.5492 12.84 10.8292 12.34C11.5992 10.95 13.0791 10.13 13.9391 8.9C14.8491 7.61 14.3392 5.2 11.7592 5.2C10.5892 5.2 9.82915 5.81 9.35915 6.54C9.00915 7.11 8.27915 7.29 7.66915 7.04ZM13.7492 19.5C13.7492 20.6 12.8492 21.5 11.7492 21.5C10.6492 21.5 9.74915 20.6 9.74915 19.5C9.74915 18.4 10.6492 17.5 11.7492 17.5C12.8492 17.5 13.7492 18.4 13.7492 19.5Z" />
</svg>
