<svg width="24" height="24" viewBox="0 0 24 24"  xmlns="http://www.w3.org/2000/svg">
<path d="M21.9071 3.90503C21.9071 2.80503 21.0071 1.90503 19.9071 1.90503H3.9071C2.8071 1.90503 1.9171 2.80503 1.9171 3.90503L1.9071 21.905L5.9071 17.905H14.9071V10.905C14.9071 10.355 15.3571 9.90503 15.9071 9.90503H21.9071V3.90503Z" />
<path d="M21.5971 15.905H20.2071L21.6071 12.605C21.7471 12.275 21.5071 11.905 21.1471 11.905H17.4071C17.1271 11.905 16.9071 12.125 16.9071 12.405V17.405C16.9071 17.685 17.1271 17.905 17.4071 17.905H18.9071V21.845C18.9071 22.105 19.2671 22.195 19.3771 21.955L22.0371 16.625C22.2071 16.295 21.9671 15.905 21.5971 15.905Z" />
</svg>
