<svg width="24" height="24" viewBox="0 0 24 24"  xmlns="http://www.w3.org/2000/svg">
<path d="M13.4128 20.7915C13.9628 20.7915 14.4128 20.3415 14.4128 19.7915V6.62148L15.2928 7.50148C15.6828 7.89148 16.3128 7.89148 16.7028 7.50148C17.0928 7.11148 17.0928 6.48148 16.7028 6.09148L14.1128 3.50148C13.7228 3.11148 13.0928 3.11148 12.7028 3.50148L10.1228 6.08148C9.73276 6.47148 9.73276 7.10148 10.1228 7.49148C10.5128 7.88148 11.1428 7.88148 11.5328 7.49148L12.4128 6.62148V8.79148C12.4128 12.4115 9.52276 15.0115 7.44276 16.4115C6.92276 16.7615 6.85276 17.5015 7.30276 17.9415C7.63276 18.2715 8.17276 18.3415 8.56276 18.0715C10.1528 17.0115 11.4528 15.7915 12.4128 14.4815V19.7815C12.4128 20.3415 12.8628 20.7915 13.4128 20.7915Z" />
</svg>
