<svg width="24" height="24" viewBox="0 0 24 24"  xmlns="http://www.w3.org/2000/svg">
<path d="M10.5873 20.7915C10.0373 20.7915 9.58726 20.3415 9.58726 19.7915V6.62148L8.70726 7.50148C8.31726 7.89148 7.68726 7.89148 7.29726 7.50148C6.90726 7.11148 6.90726 6.48148 7.29726 6.09148L9.88726 3.50148C10.2773 3.11148 10.9073 3.11148 11.2973 3.50148L13.8873 6.09148C14.2773 6.48148 14.2773 7.11148 13.8873 7.50148C13.4973 7.89148 12.8673 7.89148 12.4773 7.50148L11.5873 6.62148V8.79148C11.5873 12.4115 14.4773 15.0115 16.5573 16.4115C17.0773 16.7615 17.1473 17.5015 16.6973 17.9415C16.3673 18.2715 15.8273 18.3415 15.4373 18.0715C13.8473 17.0115 12.5473 15.7915 11.5873 14.4815V19.7815C11.5873 20.3415 11.1373 20.7915 10.5873 20.7915Z" />
</svg>
