<svg width="24" height="24" viewBox="0 0 24 24"  xmlns="http://www.w3.org/2000/svg">
<path d="M6.36311 9H3.86311C3.31311 9 2.86311 9.45 2.86311 10V14.31C2.86311 14.69 3.17311 15 3.55311 15H3.66311C4.04311 15 4.35311 14.69 4.35311 14.31V13H5.45311L6.17311 14.59C6.29311 14.84 6.54311 15 6.81311 15C7.31311 15 7.64311 14.49 7.45311 14.03L6.96311 12.9C7.46311 12.6 7.86311 12.1 7.86311 11.5V10.5C7.86311 9.68 7.18311 9 6.36311 9ZM6.36311 11.5H4.36311V10.5H6.36311V11.5Z" />
<path d="M11.3631 9C10.6331 9 9.99311 9.5 9.81311 10.21L8.84311 14.1C8.72311 14.56 9.07311 15 9.54311 15C9.87311 15 10.1631 14.77 10.2431 14.45L10.4831 13.5H12.2331L12.4631 14.45C12.5431 14.77 12.8331 15 13.1731 15C13.6431 15 13.9931 14.56 13.8831 14.1L12.9131 10.22C12.7331 9.5 12.0931 9 11.3631 9ZM10.8631 12L11.1131 11H11.6131L11.8631 12H10.8631Z" />
<path d="M19.7031 9.55L19.1031 12L18.5431 9.74C18.4431 9.3 18.0531 9 17.6031 9C17.1531 9 16.7631 9.3 16.6631 9.74L16.1031 12L15.5031 9.55C15.4231 9.23 15.1331 9 14.7931 9C14.3231 9 13.9731 9.44 14.0831 9.9L15.1731 14.28C15.2931 14.7 15.6731 15 16.1031 15C16.5331 15 16.9131 14.7 17.0231 14.28L17.6031 11.96L18.1831 14.28C18.2931 14.7 18.6731 15 19.1031 15C19.5331 15 19.9131 14.7 20.0231 14.28L21.1131 9.9C21.2331 9.44 20.8831 9 20.4131 9C20.0731 9 19.7831 9.23 19.7031 9.55Z" />
</svg>
