<svg width="24" height="24" viewBox="0 0 24 24"  xmlns="http://www.w3.org/2000/svg">
<path d="M6.25999 9H2.75999V15H4.25999V13H5.35999L6.25999 15H7.75999L6.85999 12.9C7.35999 12.6 7.75999 12.1 7.75999 11.5V10.5C7.75999 9.7 7.05999 9 6.25999 9ZM6.25999 11.5H4.25999V10.5H6.25999V11.5Z" />
<path d="M10.01 9L8.50999 15H10.01L10.39 13.5H12.14L12.51 15H14.01L12.51 9H10.01ZM10.76 12L11.01 11H11.51L11.76 12H10.76Z" />
<path d="M19.74 9L19 12L18.26 9H16.74L16 12L15.26 9H13.76L15.26 15H16.74L17.5 11.96L18.26 15H19.74L21.24 9H19.74Z" />
</svg>
