<svg width="24" height="24" viewBox="0 0 24 24"  xmlns="http://www.w3.org/2000/svg">
<g clip-path="url(#clip0_2402_17582)">
<path d="M23.365 22.095L1.905 0.63501L0.635002 1.90501L5.025 6.29501L7.235 10.955L5.885 13.405C5.725 13.685 5.635 14.015 5.635 14.365C5.635 15.465 6.535 16.365 7.635 16.365H15.095L16.475 17.745C15.975 18.105 15.645 18.695 15.645 19.365C15.645 20.465 16.535 21.365 17.635 21.365C18.305 21.365 18.895 21.035 19.255 20.525L22.095 23.365L23.365 22.095ZM8.055 14.365C7.915 14.365 7.805 14.255 7.805 14.115L7.835 13.995L8.735 12.365H11.095L13.095 14.365H8.055ZM16.185 12.365C16.935 12.365 17.595 11.955 17.935 11.335L21.515 4.84501C21.595 4.70501 21.635 4.53501 21.635 4.36501C21.635 3.81501 21.185 3.36501 20.635 3.36501H7.175L16.185 12.365ZM7.635 17.365C6.535 17.365 5.645 18.265 5.645 19.365C5.645 20.465 6.535 21.365 7.635 21.365C8.735 21.365 9.635 20.465 9.635 19.365C9.635 18.265 8.735 17.365 7.635 17.365Z" />
</g>
<defs>
<clipPath id="clip0_2402_17582">
<rect width="24" height="24" fill="white"/>
</clipPath>
</defs>
</svg>
