<svg width="24" height="24" viewBox="0 0 24 24"  xmlns="http://www.w3.org/2000/svg">
<g clip-path="url(#clip0_2402_17583)">
<path d="M1.975 0.564941L0.565002 1.97494L4.955 6.36494L7.165 11.0249L5.815 13.4749C5.655 13.7549 5.565 14.0849 5.565 14.4349C5.565 15.5349 6.465 16.4349 7.565 16.4349H15.025L16.405 17.8149C15.905 18.1749 15.575 18.7649 15.575 19.4349C15.575 20.5349 16.465 21.4349 17.565 21.4349C18.235 21.4349 18.825 21.1049 19.185 20.5949L22.025 23.4349L23.435 22.0249L1.975 0.564941ZM7.565 14.4349L8.665 12.4349H11.025L13.025 14.4349H7.565ZM20.565 3.43494H7.685L9.685 5.43494H18.875L16.115 10.4349H14.675L16.615 12.3749C17.155 12.2349 17.605 11.8849 17.865 11.4049L21.445 4.91494C21.815 4.25494 21.325 3.43494 20.565 3.43494ZM7.565 17.4349C6.465 17.4349 5.575 18.3349 5.575 19.4349C5.575 20.5349 6.465 21.4349 7.565 21.4349C8.665 21.4349 9.565 20.5349 9.565 19.4349C9.565 18.3349 8.665 17.4349 7.565 17.4349Z" />
</g>
<defs>
<clipPath id="clip0_2402_17583">
<rect width="24" height="24" fill="white"/>
</clipPath>
</defs>
</svg>
