<svg width="24" height="24" viewBox="0 0 24 24"  xmlns="http://www.w3.org/2000/svg">
<path d="M20.7056 10.9221V6.22211C20.7056 5.39211 20.1856 4.64211 19.4056 4.35211L13.4056 2.10211C12.9556 1.93211 12.4556 1.93211 12.0056 2.10211L7.48556 3.79211L19.5756 15.8821C20.2956 14.3521 20.7056 12.6621 20.7056 10.9221ZM21.1956 20.3221L4.21556 3.34211C3.82556 2.95211 3.19556 2.95211 2.80556 3.34211C2.41556 3.73211 2.41556 4.36211 2.80556 4.75211L4.70556 6.66211V10.9221C4.70556 15.7521 7.83556 20.2921 12.1356 21.6721C12.5056 21.7921 12.9056 21.7921 13.2756 21.6721C14.7656 21.1921 16.1156 20.3221 17.2456 19.2021L19.7756 21.7321C20.1656 22.1221 20.7956 22.1221 21.1856 21.7321C21.5856 21.3421 21.5856 20.7121 21.1956 20.3221Z" />
</svg>
