<svg width="24" height="24" viewBox="0 0 24 24"  xmlns="http://www.w3.org/2000/svg">
<path d="M17.9587 3.20898C17.4087 3.20898 16.9587 3.65898 16.9587 4.20898V11.209C16.9587 11.759 17.4087 12.209 17.9587 12.209C18.5087 12.209 18.9587 11.759 18.9587 11.209V4.20898C18.9587 3.65898 18.5087 3.20898 17.9587 3.20898Z" />
<path d="M3.95874 19.209C4.50874 19.209 4.95874 18.759 4.95874 18.209V4.20898C4.95874 3.65898 4.50874 3.20898 3.95874 3.20898C3.40874 3.20898 2.95874 3.65898 2.95874 4.20898V18.209C2.95874 18.759 3.40874 19.209 3.95874 19.209Z" />
<path d="M10.9587 7.20898C11.5087 7.20898 11.9587 6.75898 11.9587 6.20898V4.20898C11.9587 3.65898 11.5087 3.20898 10.9587 3.20898C10.4087 3.20898 9.95874 3.65898 9.95874 4.20898V6.20898C9.95874 6.75898 10.4087 7.20898 10.9587 7.20898Z" />
<path d="M10.9587 13.209C11.5087 13.209 11.9587 12.759 11.9587 12.209V10.209C11.9587 9.65898 11.5087 9.20898 10.9587 9.20898C10.4087 9.20898 9.95874 9.65898 9.95874 10.209V12.209C9.95874 12.759 10.4087 13.209 10.9587 13.209Z" />
<path d="M10.9587 19.209C11.5087 19.209 11.9587 18.759 11.9587 18.209V16.209C11.9587 15.659 11.5087 15.209 10.9587 15.209C10.4087 15.209 9.95874 15.659 9.95874 16.209V18.209C9.95874 18.759 10.4087 19.209 10.9587 19.209Z" />
<path d="M20.7487 14.919C20.3587 14.529 19.7287 14.529 19.3387 14.919L17.9587 16.299L16.5787 14.919C16.1887 14.529 15.5587 14.529 15.1687 14.919C14.7787 15.309 14.7787 15.939 15.1687 16.329L16.5487 17.709L15.1687 19.089C14.7787 19.479 14.7787 20.109 15.1687 20.499C15.5587 20.889 16.1887 20.889 16.5787 20.499L17.9587 19.119L19.3387 20.499C19.7287 20.889 20.3587 20.889 20.7487 20.499C21.1387 20.109 21.1387 19.479 20.7487 19.089L19.3687 17.709L20.7487 16.329C21.1387 15.939 21.1387 15.309 20.7487 14.919Z" />
</svg>
