<svg width="24" height="24" viewBox="0 0 24 24"  xmlns="http://www.w3.org/2000/svg">
<g clip-path="url(#clip0_2402_17584)">
<path d="M1.275 1.27004C0.884998 1.66004 0.884998 2.29004 1.275 2.68004L4.955 6.36004L7.165 11.02L5.815 13.47C5.625 13.8 5.535 14.2 5.575 14.62C5.675 15.68 6.635 16.44 7.695 16.44H15.025L16.405 17.82C15.905 18.18 15.575 18.77 15.575 19.44C15.575 20.54 16.465 21.44 17.565 21.44C18.235 21.44 18.825 21.11 19.185 20.6L21.315 22.73C21.705 23.12 22.335 23.12 22.725 22.73C23.115 22.34 23.115 21.71 22.725 21.32L2.685 1.27004C2.295 0.880039 1.665 0.880039 1.275 1.27004ZM7.565 14.44L8.665 12.44H11.025L13.025 14.44H7.565ZM16.615 12.38C17.155 12.24 17.605 11.89 17.865 11.41L21.445 4.92004C21.815 4.26004 21.325 3.44004 20.565 3.44004H7.685L16.615 12.38ZM7.565 17.44C6.465 17.44 5.575 18.34 5.575 19.44C5.575 20.54 6.465 21.44 7.565 21.44C8.665 21.44 9.565 20.54 9.565 19.44C9.565 18.34 8.665 17.44 7.565 17.44Z" />
</g>
<defs>
<clipPath id="clip0_2402_17584">
<rect width="24" height="24" fill="white"/>
</clipPath>
</defs>
</svg>
