<svg width="24" height="24" viewBox="0 0 24 24"  xmlns="http://www.w3.org/2000/svg">
<path d="M4.79124 21.2964H19.7912C20.6212 21.2964 21.2912 20.6264 21.2912 19.7964V16.7964C21.2912 15.9664 20.6212 15.2964 19.7912 15.2964H4.79124C3.96124 15.2964 3.29124 15.9664 3.29124 16.7964V19.7964C3.29124 20.6264 3.96124 21.2964 4.79124 21.2964ZM10.6212 19.2964V17.2964H13.9512V19.2964H10.6212ZM19.2912 19.2964H15.9612V17.2964H19.2912V19.2964ZM5.29124 17.2964H8.62124V19.2964H5.29124V17.2964Z" />
<path d="M7.00124 9.58636C7.39124 9.19636 7.39124 8.56636 7.00124 8.16636L6.12124 7.29636H17.1812C18.1812 7.29636 19.1012 7.97636 19.2612 8.95636C19.4712 10.2064 18.5012 11.2964 17.2912 11.2964H4.29124C3.74124 11.2964 3.29124 11.7464 3.29124 12.2964C3.29124 12.8464 3.74124 13.2964 4.29124 13.2964H17.1112C19.2012 13.2964 21.0712 11.7764 21.2712 9.69636C21.5012 7.31636 19.6312 5.29636 17.2912 5.29636H6.12124L7.00124 4.41636C7.39124 4.02636 7.39124 3.39636 7.00124 2.99636C6.61124 2.60636 5.98124 2.60636 5.59124 2.99636L3.00124 5.58636C2.61124 5.97636 2.61124 6.60636 3.00124 6.99636L5.59124 9.58636C5.97124 9.97636 6.61124 9.97636 7.00124 9.58636Z" />
</svg>
