<svg width="24" height="24" viewBox="0 0 24 24"  xmlns="http://www.w3.org/2000/svg">
<path d="M7.00002 7.00019H17V8.79018C17 9.24018 17.54 9.46019 17.85 9.14019L20.64 6.35018C20.84 6.15018 20.84 5.84018 20.64 5.64018L17.85 2.85018C17.54 2.54018 17 2.76018 17 3.21018V5.00018H6.00002C5.45002 5.00018 5.00002 5.45018 5.00002 6.00018V10.0002C5.00002 10.5502 5.45002 11.0002 6.00002 11.0002C6.55002 11.0002 7.00002 10.5502 7.00002 10.0002V7.00019ZM17 17.0002H7.00002V15.2102C7.00002 14.7602 6.46002 14.5402 6.15002 14.8602L3.36002 17.6502C3.16002 17.8502 3.16002 18.1602 3.36002 18.3602L6.15002 21.1502C6.46002 21.4602 7.00002 21.2402 7.00002 20.7902V19.0002H18C18.55 19.0002 19 18.5502 19 18.0002V14.0002C19 13.4502 18.55 13.0002 18 13.0002C17.45 13.0002 17 13.4502 17 14.0002V17.0002ZM13 14.2502V9.81019C13 9.36019 12.64 9.00019 12.19 9.00019C12.06 9.00019 11.94 9.03019 11.83 9.09019L10.34 9.83018C10.13 9.93018 10 10.1502 10 10.3802C10 10.7202 10.28 11.0002 10.62 11.0002H11.5V14.2502C11.5 14.6602 11.84 15.0002 12.25 15.0002C12.66 15.0002 13 14.6602 13 14.2502Z" />
</svg>
