<svg width="24" height="24" viewBox="0 0 24 24"  xmlns="http://www.w3.org/2000/svg">
<path d="M7.00001 7.00019H17V8.79018C17 9.24018 17.54 9.46019 17.85 9.14019L20.64 6.35018C20.84 6.15018 20.84 5.84018 20.64 5.64018L17.85 2.85018C17.54 2.54018 17 2.76018 17 3.21018V5.00018H6.00001C5.45001 5.00018 5.00001 5.45018 5.00001 6.00018V10.0002C5.00001 10.5502 5.45001 11.0002 6.00001 11.0002C6.55001 11.0002 7.00001 10.5502 7.00001 10.0002V7.00019ZM17 17.0002H7.00001V15.2102C7.00001 14.7602 6.46001 14.5402 6.15001 14.8602L3.36001 17.6502C3.16001 17.8502 3.16001 18.1602 3.36001 18.3602L6.15001 21.1502C6.46001 21.4602 7.00001 21.2402 7.00001 20.7902V19.0002H18C18.55 19.0002 19 18.5502 19 18.0002V14.0002C19 13.4502 18.55 13.0002 18 13.0002C17.45 13.0002 17 13.4502 17 14.0002V17.0002Z" />
</svg>
