<svg width="24" height="24" viewBox="0 0 24 24"  xmlns="http://www.w3.org/2000/svg">
<path d="M6.79124 6.35714C6.79124 5.41714 5.65124 4.93714 4.98124 5.60714L0.50124 10.0871C0.11124 10.4771 0.11124 11.1071 0.50124 11.4971L4.98124 15.9771C5.65124 16.6571 6.79124 16.1771 6.79124 15.2371C6.79124 14.9571 6.68124 14.6871 6.48124 14.4871L2.79124 10.7971L6.48124 7.10714C6.68124 6.90714 6.79124 6.63714 6.79124 6.35714ZM12.7912 7.79714V6.20714C12.7912 5.31714 11.7112 4.86714 11.0812 5.49714L6.49124 10.0871C6.10124 10.4771 6.10124 11.1071 6.49124 11.4971L11.0812 16.0871C11.7112 16.7171 12.7912 16.2671 12.7912 15.3771V13.6971C17.7912 13.6971 21.2912 15.2971 23.7912 18.7971C22.7912 13.7971 19.7912 8.79714 12.7912 7.79714Z" />
</svg>
