<svg width="24" height="24" viewBox="0 0 24 24"  xmlns="http://www.w3.org/2000/svg">
<path d="M20.7146 7.98L16.0346 3.3C15.8446 3.11 15.5846 3 15.3246 3H8.68464C8.42464 3 8.16464 3.11 7.98464 3.29L3.29464 7.98C3.11464 8.16 3.00464 8.42 3.00464 8.68V15.31C3.00464 15.58 3.11464 15.83 3.29464 16.02L7.97464 20.7C8.16464 20.89 8.42464 21 8.68464 21H15.3146C15.5846 21 15.8346 20.89 16.0246 20.71L20.7046 16.03C20.8946 15.84 20.9946 15.59 20.9946 15.32V8.68C21.0046 8.42 20.8946 8.16 20.7146 7.98ZM19.0046 14.9L14.9046 19H9.10464L5.00464 14.9V9.1L9.10464 5H14.9046L19.0046 9.1V14.9Z" />
<path d="M12.0046 17C12.5569 17 13.0046 16.5523 13.0046 16C13.0046 15.4477 12.5569 15 12.0046 15C11.4524 15 11.0046 15.4477 11.0046 16C11.0046 16.5523 11.4524 17 12.0046 17Z" />
<path d="M12.0046 7C11.4546 7 11.0046 7.45 11.0046 8V13C11.0046 13.55 11.4546 14 12.0046 14C12.5546 14 13.0046 13.55 13.0046 13V8C13.0046 7.45 12.5546 7 12.0046 7Z" />
</svg>
