<svg width="24" height="24" viewBox="0 0 24 24"  xmlns="http://www.w3.org/2000/svg">
<path d="M11.9294 7.54297H11.9594C12.5094 7.54297 12.9494 7.10297 12.9494 6.56297V3.52297C12.9494 2.98297 12.5094 2.54297 11.9694 2.54297H11.9394C11.3894 2.54297 10.9494 2.98297 10.9494 3.52297V6.55297C10.9494 7.10297 11.3894 7.54297 11.9294 7.54297ZM16.8494 9.65297C17.2394 10.043 17.8594 10.043 18.2494 9.65297C18.8694 9.02297 19.7694 8.11297 20.3994 7.48297C20.7894 7.10297 20.7894 6.47297 20.3994 6.09297C20.0194 5.71297 19.3894 5.71297 19.0094 6.09297L16.8394 8.24297C16.4494 8.62297 16.4494 9.25297 16.8394 9.63297L16.8494 9.65297ZM5.65937 9.64297C6.03937 10.033 6.66937 10.033 7.05937 9.64297C7.43937 9.26297 7.43937 8.63297 7.05937 8.25297L4.90937 6.08297C4.52937 5.69297 3.89937 5.69297 3.51937 6.08297L3.49937 6.09297C3.10937 6.48297 3.10937 7.10297 3.49937 7.48297C4.12937 8.10297 5.03937 9.01297 5.65937 9.64297ZM23.2394 16.773C16.8294 11.113 7.16937 11.113 0.759371 16.773C-0.0906294 17.523 -0.0906294 18.853 0.709371 19.653L1.92937 20.873C2.64937 21.593 3.78937 21.653 4.58937 21.023L6.58937 19.433C7.06937 19.053 7.34937 18.473 7.34937 17.863V15.263C10.3694 14.283 13.6394 14.273 16.6694 15.263V17.873C16.6694 18.483 16.9494 19.063 17.4294 19.443L19.4194 21.023C20.2194 21.653 21.3594 21.593 22.0794 20.873L23.2994 19.653C24.0894 18.853 24.0894 17.523 23.2394 16.773Z" />
</svg>
