<svg width="24" height="24" viewBox="0 0 24 24"  xmlns="http://www.w3.org/2000/svg">
<path d="M9.32316 6.22183C7.28316 8.51183 5.88316 11.8018 5.75316 12.1118L3.49316 11.1418C2.84316 10.8618 2.68316 10.0118 3.18316 9.51183L6.19316 6.50183C6.66316 6.03183 7.34316 5.82183 8.00316 5.95183L9.32316 6.22183ZM10.8132 16.3818C11.1132 16.6818 11.5532 16.7618 11.9332 16.5818C13.0932 16.0418 15.5832 14.7718 17.1932 13.1618C21.7832 8.57183 21.8232 4.83183 21.5532 3.23183C21.4832 2.83183 21.1632 2.51183 20.7632 2.44183C19.1632 2.17183 15.4232 2.21183 10.8332 6.80183C9.22316 8.41183 7.96316 10.9018 7.41316 12.0618C7.23316 12.4418 7.32316 12.8918 7.61316 13.1818L10.8132 16.3818ZM17.7832 14.6818C15.4932 16.7218 12.2032 18.1218 11.8932 18.2518L12.8632 20.5118C13.1432 21.1618 13.9932 21.3218 14.4932 20.8218L17.5032 17.8118C17.9732 17.3418 18.1832 16.6618 18.0532 16.0018L17.7832 14.6818ZM9.07316 17.2818C9.27316 18.3418 8.92316 19.3218 8.25316 19.9918C7.48316 20.7618 5.09316 21.3318 3.54316 21.6318C2.85316 21.7618 2.24316 21.1518 2.37316 20.4618C2.67316 18.9118 3.23316 16.5218 4.01316 15.7518C4.68316 15.0818 5.66316 14.7318 6.72316 14.9318C7.89316 15.1518 8.85316 16.1118 9.07316 17.2818ZM13.1332 8.87183C13.1332 7.77183 14.0332 6.87183 15.1332 6.87183C16.2332 6.87183 17.1332 7.77183 17.1332 8.87183C17.1332 9.97183 16.2332 10.8718 15.1332 10.8718C14.0332 10.8718 13.1332 9.97183 13.1332 8.87183Z" />
</svg>
