<svg width="24" height="24" viewBox="0 0 24 24"  xmlns="http://www.w3.org/2000/svg">
<path d="M11.41 2.76897C11.76 2.50897 12.23 2.50897 12.59 2.76897C13.81 3.64897 16.5 6.35897 16.5 12.899C16.5 15.059 15.72 17.659 15.14 19.249C15 19.639 14.63 19.899 14.21 19.899H9.8C9.38 19.899 9 19.639 8.86 19.249C8.28 17.659 7.5 15.059 7.5 12.899C7.5 6.35897 10.19 3.64897 11.41 2.76897ZM14 10.899C14 9.79897 13.1 8.89897 12 8.89897C10.9 8.89897 10 9.79897 10 10.899C10 11.999 10.9 12.899 12 12.899C13.1 12.899 14 11.999 14 10.899ZM7.69 20.419C7.21 19.189 6.17 16.249 6.02 13.549L4.89 14.299C4.33 14.679 4 15.299 4 15.969V20.419C4 21.129 4.71 21.609 5.37 21.349L7.69 20.419ZM20 20.419V15.969C20 15.299 19.67 14.679 19.11 14.309L17.98 13.559C17.83 16.249 16.78 19.199 16.31 20.429L18.63 21.359C19.29 21.609 20 21.129 20 20.419Z" />
</svg>
