<svg width="24" height="24" viewBox="0 0 24 24"  xmlns="http://www.w3.org/2000/svg">
<path d="M20.9006 16.5059C20.9006 16.2859 20.8706 16.0859 20.8406 15.8759L21.6806 15.1459C21.8606 14.9859 21.9006 14.7259 21.7806 14.5159L21.1906 13.4959C21.0706 13.2859 20.8206 13.1959 20.6006 13.2759L19.5406 13.6359C19.2206 13.3659 18.8606 13.1559 18.4606 13.0059L18.2406 11.9159C18.1906 11.6859 17.9906 11.5159 17.7506 11.5159H16.5706C16.3306 11.5159 16.1306 11.6859 16.0806 11.9159L15.8606 13.0059C15.4606 13.1559 15.1006 13.3659 14.7806 13.6359L13.7206 13.2759C13.4906 13.1959 13.2506 13.2959 13.1306 13.4959L12.5406 14.5159C12.4206 14.7259 12.4606 14.9859 12.6406 15.1459L13.4806 15.8759C13.4506 16.0859 13.4206 16.2859 13.4206 16.5059C13.4206 16.7259 13.4506 16.9259 13.4806 17.1359L12.6406 17.8659C12.4606 18.0259 12.4206 18.2859 12.5406 18.4959L13.1306 19.5159C13.2506 19.7259 13.5006 19.8159 13.7206 19.7359L14.7806 19.3759C15.1006 19.6459 15.4606 19.8559 15.8606 20.0059L16.0806 21.0959C16.1306 21.3259 16.3306 21.4959 16.5706 21.4959H17.7506C17.9906 21.4959 18.1906 21.3259 18.2406 21.0959L18.4606 20.0059C18.8606 19.8559 19.2206 19.6459 19.5406 19.3759L20.6006 19.7359C20.8306 19.8159 21.0706 19.7159 21.1906 19.5159L21.7806 18.4959C21.9006 18.2859 21.8606 18.0259 21.6806 17.8659L20.8406 17.1359C20.8706 16.9259 20.9006 16.7259 20.9006 16.5059ZM17.1506 18.5059C16.0506 18.5059 15.1506 17.6059 15.1506 16.5059C15.1506 15.4059 16.0506 14.5059 17.1506 14.5059C18.2506 14.5059 19.1506 15.4059 19.1506 16.5059C19.1506 17.6059 18.2506 18.5059 17.1506 18.5059ZM13.1506 10.7659V5.50586H16.1506V9.50586H18.1506V4.50586C18.1506 3.95586 17.7006 3.50586 17.1506 3.50586H13.1506C13.1506 2.95586 12.7006 2.50586 12.1506 2.50586H5.15063C4.60063 2.50586 4.15063 2.95586 4.15063 3.50586V18.5059H3.15063C2.60063 18.5059 2.15063 18.9559 2.15063 19.5059C2.15063 20.0559 2.60063 20.5059 3.15063 20.5059H11.4106C10.6206 19.3759 10.1506 17.9959 10.1506 16.5059C10.1506 14.1259 11.3406 12.0359 13.1506 10.7659ZM9.15063 11.5059C9.15063 10.9559 9.60063 10.5059 10.1506 10.5059C10.7006 10.5059 11.1506 10.9559 11.1506 11.5059C11.1506 12.0559 10.7006 12.5059 10.1506 12.5059C9.60063 12.5059 9.15063 12.0559 9.15063 11.5059Z" />
</svg>
