<svg width="24" height="24" viewBox="0 0 24 24"  xmlns="http://www.w3.org/2000/svg">
<path d="M7.91005 7.03086L1.43005 13.5209L7.92005 20.0009L14.4101 13.5209L7.91005 7.03086ZM4.26005 13.5209L7.92005 9.86086L11.5701 13.5209L7.91005 17.1809L4.26005 13.5209ZM19.9301 7.26086C18.1801 5.50086 15.8701 4.62086 13.5701 4.62086V1.38086L9.33005 5.62086L13.5701 9.86086V6.62086C15.3601 6.62086 17.1501 7.30086 18.5201 8.67086C21.2501 11.4009 21.2501 15.8409 18.5201 18.5709C17.1501 19.9409 15.3601 20.6209 13.5701 20.6209C12.6001 20.6209 11.6301 20.4109 10.7301 20.0109L9.24005 21.5009C10.5901 22.2409 12.0801 22.6209 13.5701 22.6209C15.8701 22.6209 18.1801 21.7409 19.9301 19.9809C23.4501 16.4709 23.4501 10.7709 19.9301 7.26086Z" />
</svg>
