<svg width="24" height="24" viewBox="0 0 24 24"  xmlns="http://www.w3.org/2000/svg">
<path d="M14.9747 5.76527L12.8447 3.63527C12.2247 3.01527 11.1447 3.45527 11.1447 4.34527V5.00527C7.20465 5.49527 4.14465 8.85527 4.14465 12.9353C4.14465 16.5753 6.57465 19.6453 9.91465 20.6153C10.5347 20.7953 11.1447 20.2953 11.1447 19.6553V19.6253C11.1447 19.1953 10.8747 18.8053 10.4647 18.6853C7.96465 17.9653 6.14465 15.6653 6.14465 12.9353C6.14465 9.96527 8.30465 7.50527 11.1447 7.02527V8.55527C11.1447 9.44527 12.2147 9.88527 12.8447 9.26527L14.9747 7.18527C15.3747 6.80527 15.3747 6.16527 14.9747 5.76527ZM19.8147 10.6953C19.6547 10.1453 19.4347 9.61527 19.1547 9.10527C18.8447 8.53527 18.0547 8.44527 17.5947 8.90527L17.5847 8.91527C17.2747 9.22527 17.2047 9.69527 17.4147 10.0753C17.6147 10.4453 17.7747 10.8353 17.8947 11.2353C18.0147 11.6553 18.4047 11.9353 18.8347 11.9353H18.8547C19.5047 11.9353 20.0047 11.3153 19.8147 10.6953ZM13.1447 19.6153V19.6353C13.1447 20.2853 13.7647 20.7753 14.3847 20.5953C14.9347 20.4353 15.4647 20.2153 15.9747 19.9353C16.5447 19.6253 16.6347 18.8353 16.1747 18.3753L16.1547 18.3553C15.8447 18.0453 15.3747 17.9753 14.9947 18.1853C14.6247 18.3953 14.2347 18.5553 13.8347 18.6753C13.4247 18.7953 13.1447 19.1853 13.1447 19.6153ZM17.5847 16.9653C18.0447 17.4253 18.8347 17.3353 19.1447 16.7653C19.4247 16.2553 19.6447 15.7253 19.8147 15.1753C19.9947 14.5553 19.5047 13.9353 18.8547 13.9353H18.8347C18.3947 13.9353 18.0147 14.2153 17.8947 14.6353C17.7747 15.0353 17.6147 15.4253 17.4147 15.8053C17.2047 16.1853 17.2847 16.6653 17.5847 16.9653Z" />
</svg>
