<svg width="24" height="24" viewBox="0 0 24 24"  xmlns="http://www.w3.org/2000/svg">
<path d="M8.20874 21C8.75874 21 9.20874 20.55 9.20874 20V14.91C9.20874 13.93 8.49874 13.11 7.53874 12.94C5.64874 12.63 4.20874 10.98 4.20874 9C4.20874 6.79 5.99874 5 8.20874 5C10.1887 5 11.8387 6.44 12.1487 8.33C12.3187 9.29 13.1387 10 14.1187 10H18.3787L17.4987 10.88C17.1087 11.27 17.1087 11.9 17.4987 12.29C17.8887 12.68 18.5187 12.68 18.9087 12.29L21.4987 9.7C21.8887 9.31 21.8887 8.68 21.4987 8.29L18.9087 5.7C18.5187 5.31 17.8887 5.31 17.4987 5.7C17.1087 6.09 17.1087 6.72 17.4987 7.11L18.3787 8H14.1287C13.6487 5.16 11.1787 3 8.20874 3C4.89874 3 2.20874 5.69 2.20874 9C2.20874 11.97 4.36874 14.44 7.20874 14.92V20C7.20874 20.55 7.65874 21 8.20874 21Z" />
</svg>
