<svg width="24" height="24" viewBox="0 0 24 24"  xmlns="http://www.w3.org/2000/svg">
<path d="M15.7912 21C15.2412 21 14.7912 20.55 14.7912 20V14.91C14.7912 13.93 15.5012 13.11 16.4612 12.94C18.3512 12.63 19.7912 10.98 19.7912 9C19.7912 6.79 18.0012 5 15.7912 5C13.8112 5 12.1612 6.44 11.8512 8.33C11.6812 9.29 10.8612 10 9.88124 10H5.62124L6.50124 10.88C6.89124 11.27 6.89124 11.9 6.50124 12.29C6.11124 12.68 5.48124 12.68 5.09124 12.29L2.50124 9.71C2.11124 9.32 2.11124 8.69 2.50124 8.3L5.09124 5.71C5.48124 5.32 6.11124 5.32 6.50124 5.71C6.89124 6.1 6.89124 6.73 6.50124 7.12L5.62124 8H9.87124C10.3512 5.16 12.8112 3 15.7912 3C19.1012 3 21.7912 5.69 21.7912 9C21.7912 11.97 19.6312 14.44 16.7912 14.92V20C16.7912 20.55 16.3412 21 15.7912 21Z" />
</svg>
