<svg width="24" height="24" viewBox="0 0 24 24"  xmlns="http://www.w3.org/2000/svg">
<path d="M4.23755 17.9587C3.82755 18.3687 3.82755 19.0487 4.23755 19.4587C4.64755 19.8687 5.32755 19.8687 5.73755 19.4587L8.48755 16.7087H10.4876L7.98755 14.2087L4.23755 17.9587ZM14.4876 4.70874C15.5876 4.70874 16.4876 3.80874 16.4876 2.70874C16.4876 1.60874 15.5876 0.70874 14.4876 0.70874C13.3876 0.70874 12.4876 1.60874 12.4876 2.70874C12.4876 3.80874 13.3876 4.70874 14.4876 4.70874ZM19.7776 20.0087L17.7776 17.9987C17.5976 17.8187 17.3376 17.7087 17.0676 17.7087H15.9876L9.69755 11.4187C10.4876 11.0887 11.3576 10.5487 11.9876 10.0287V12.2987L15.5676 15.8787C16.1376 15.3287 16.4876 14.5587 16.4876 13.7187V7.96874C16.4876 6.72874 15.4676 5.70874 14.2276 5.70874H14.2076C13.8676 5.70874 13.5376 5.79874 13.2476 5.93874C12.9876 6.05874 12.7476 6.22874 12.5576 6.43874L11.1576 7.98874C10.0976 9.15874 8.14755 10.0587 6.48755 10.0287C5.88755 10.0287 5.40755 10.5087 5.40755 11.1087C5.40755 11.7087 5.88755 12.1887 6.48755 12.1887C6.79755 12.1887 7.09755 12.1587 7.38755 12.1187L14.4976 19.2087V20.2887C14.4976 20.5487 14.5976 20.8087 14.7876 20.9887L16.7776 22.9987C17.1676 23.3887 17.7976 23.3887 18.1976 22.9987L19.7776 21.4187C20.1676 21.0387 20.1676 20.3987 19.7776 20.0087Z" />
</svg>
