<svg width="24" height="24" viewBox="0 0 24 24"  xmlns="http://www.w3.org/2000/svg">
<path d="M6.43659 19.744C7.64057 19.744 8.61659 18.768 8.61659 17.564C8.61659 16.36 7.64057 15.384 6.43659 15.384C5.23261 15.384 4.25659 16.36 4.25659 17.564C4.25659 18.768 5.23261 19.744 6.43659 19.744Z" />
<path d="M5.84659 9.97398C5.00659 9.83398 4.25659 10.524 4.25659 11.374C4.25659 12.084 4.78659 12.654 5.48659 12.774C8.40659 13.284 10.7066 15.594 11.2266 18.514C11.3466 19.214 11.9166 19.744 12.6266 19.744C13.4766 19.744 14.1666 18.994 14.0366 18.154C13.3566 13.954 10.0466 10.644 5.84659 9.97398ZM5.81659 4.26398C4.98659 4.17398 4.25659 4.84398 4.25659 5.67398C4.25659 6.40398 4.80659 7.00398 5.52659 7.07398C11.5366 7.67398 16.3166 12.454 16.9166 18.464C16.9866 19.194 17.5866 19.744 18.3166 19.744C19.1566 19.744 19.8166 19.014 19.7366 18.184C19.0066 10.844 13.1666 4.99398 5.81659 4.26398Z" />
</svg>
