<svg width="24" height="24" viewBox="0 0 24 24"  xmlns="http://www.w3.org/2000/svg">
<path d="M6.39997 19.7797C7.60395 19.7797 8.57997 18.8037 8.57997 17.5997C8.57997 16.3957 7.60395 15.4197 6.39997 15.4197C5.19599 15.4197 4.21997 16.3957 4.21997 17.5997C4.21997 18.8037 5.19599 19.7797 6.39997 19.7797Z" />
<path d="M4.21997 9.87973V12.7097C8.11997 12.7097 11.29 15.8797 11.29 19.7797H14.12C14.12 14.3097 9.68997 9.87973 4.21997 9.87973ZM4.21997 4.21973V7.04973C11.25 7.04973 16.95 12.7497 16.95 19.7797H19.78C19.78 11.1897 12.81 4.21973 4.21997 4.21973Z" />
</svg>
