<svg width="24" height="24" viewBox="0 0 24 24"  xmlns="http://www.w3.org/2000/svg">
<path d="M15.9438 10.3299L13.8238 8.20994C13.4338 7.81994 13.4338 7.18994 13.8238 6.79994C14.2138 6.40994 14.8438 6.40994 15.2338 6.79994L16.6438 8.20994L20.1838 4.66994C20.5738 4.27994 21.2038 4.27994 21.5938 4.66994C21.9838 5.05994 21.9838 5.68994 21.5938 6.07994L17.3538 10.3199C16.9638 10.7199 16.3338 10.7199 15.9438 10.3299ZM10.1138 7.03994H3.11377C2.56377 7.03994 2.11377 7.48994 2.11377 8.03994C2.11377 8.58994 2.56377 9.03994 3.11377 9.03994H10.1138C10.6638 9.03994 11.1138 8.58994 11.1138 8.03994C11.1138 7.48994 10.6638 7.03994 10.1138 7.03994ZM20.4038 12.7499C20.0138 12.3599 19.3838 12.3599 18.9938 12.7499L17.1138 14.6299L15.2338 12.7499C14.8438 12.3599 14.2138 12.3599 13.8238 12.7499C13.4338 13.1399 13.4338 13.7699 13.8238 14.1599L15.7038 16.0399L13.8238 17.9199C13.4338 18.3099 13.4338 18.9399 13.8238 19.3299C14.2138 19.7199 14.8438 19.7199 15.2338 19.3299L17.1138 17.4499L18.9938 19.3299C19.3838 19.7199 20.0138 19.7199 20.4038 19.3299C20.7938 18.9399 20.7938 18.3099 20.4038 17.9199L18.5238 16.0399L20.4038 14.1599C20.7938 13.7699 20.7938 13.1399 20.4038 12.7499ZM10.1138 15.0399H3.11377C2.56377 15.0399 2.11377 15.4899 2.11377 16.0399C2.11377 16.5899 2.56377 17.0399 3.11377 17.0399H10.1138C10.6638 17.0399 11.1138 16.5899 11.1138 16.0399C11.1138 15.4899 10.6638 15.0399 10.1138 15.0399Z" />
</svg>
