<svg width="24" height="24" viewBox="0 0 24 24"  xmlns="http://www.w3.org/2000/svg">
<path d="M11.3 2.22784L5.3 4.47784C4.52 4.77784 4 5.51784 4 6.35784V11.0578C4 15.8878 7.13 20.4278 11.43 21.8078C11.8 21.9278 12.2 21.9278 12.57 21.8078C16.87 20.4278 20 15.8978 20 11.0578V6.35784C20 5.52784 19.48 4.77784 18.7 4.48784L12.7 2.23784C12.25 2.05784 11.75 2.05784 11.3 2.22784ZM12 16.9678C9.24 16.9678 7 14.7278 7 11.9678C7 9.20784 9.24 6.96784 12 6.96784C14.76 6.96784 17 9.20784 17 11.9678C17 14.7278 14.76 16.9678 12 16.9678ZM14 13.9678C13.8 14.1678 13.49 14.1678 13.29 13.9678L11.64 12.3178C11.55 12.2278 11.49 12.0978 11.49 11.9678V9.46784C11.5 9.18784 11.72 8.96784 12 8.96784C12.28 8.96784 12.5 9.18784 12.5 9.46784V11.7578L14 13.2578C14.2 13.4578 14.2 13.7678 14 13.9678Z" />
</svg>
