<svg width="24" height="24" viewBox="0 0 24 24"  xmlns="http://www.w3.org/2000/svg">
<g clip-path="url(#clip0_2402_17669)">
<path d="M15.9374 1.0918L12.7574 4.2718C11.9774 5.0518 11.9774 6.3218 12.7574 7.1018L13.9974 8.3418L13.2874 9.0518L10.6374 6.4018L6.39744 10.6418L9.04744 13.2918L8.33744 14.0018L7.09744 12.7518C6.31744 11.9718 5.04744 11.9718 4.26744 12.7518L1.08744 15.9318C0.307441 16.7118 0.307441 17.9818 1.08744 18.7618L4.62744 22.3018C5.40744 23.0818 6.67744 23.0818 7.45744 22.3018L10.6374 19.1218C11.4174 18.3418 11.4174 17.0718 10.6374 16.2918L9.39744 15.0518L10.1074 14.3418L12.7574 16.9918L16.9974 12.7518L14.3374 10.1018L15.0474 9.3918L16.2874 10.6318C17.0674 11.4118 18.3374 11.4118 19.1174 10.6318L22.2974 7.4518C23.0774 6.6718 23.0774 5.4018 22.2974 4.6218L18.7574 1.0818C17.9774 0.301803 16.7174 0.301803 15.9374 1.0918ZM7.09744 19.8218L6.03744 20.8818L2.49744 17.3518L3.55744 16.2918L7.09744 19.8218ZM9.21744 17.7018L8.15744 18.7618L4.61744 15.2218L5.67744 14.1618L9.21744 17.7018ZM18.7574 8.1618L17.6974 9.2218L14.1574 5.6818L15.2174 4.6218L18.7574 8.1618ZM20.8774 6.0418L19.8174 7.1018L16.2774 3.5618L17.3474 2.5018L20.8774 6.0418ZM21.4974 14.5018H23.4974C23.4974 19.4718 19.4674 23.5018 14.4974 23.5018V21.5018C18.3674 21.5018 21.4974 18.3718 21.4974 14.5018ZM17.4974 14.5018H19.4974C19.4974 17.2618 17.2574 19.5018 14.4974 19.5018V17.5018C16.1574 17.5018 17.4974 16.1618 17.4974 14.5018Z" />
</g>
<defs>
<clipPath id="clip0_2402_17669">
<rect width="24" height="24" fill="white"/>
</clipPath>
</defs>
</svg>
