<svg width="24" height="24" viewBox="0 0 24 24"  xmlns="http://www.w3.org/2000/svg">
<g clip-path="url(#clip0_2402_17667)">
<path d="M21.5026 14.5013H23.5026C23.5026 19.4713 19.4726 23.5013 14.5026 23.5013V21.5013C18.3726 21.5013 21.5026 18.3713 21.5026 14.5013ZM14.5026 17.5013V19.5013C17.2626 19.5013 19.5026 17.2613 19.5026 14.5013H17.5026C17.5026 16.1613 16.1626 17.5013 14.5026 17.5013ZM18.7626 1.09128L22.3026 4.63128C23.0826 5.41128 23.0826 6.68128 22.3026 7.46128L19.1226 10.6413C18.3426 11.4213 17.0726 11.4213 16.2926 10.6413L15.0526 9.40128L14.3426 10.1013L15.5826 11.3413C16.3626 12.1213 16.3626 13.3913 15.5826 14.1713L14.1726 15.5813C13.3926 16.3613 12.1226 16.3613 11.3426 15.5813L10.1026 14.3413L9.39256 15.0513L10.6326 16.2913C11.4126 17.0713 11.4126 18.3413 10.6326 19.1213L7.45256 22.3013C6.67256 23.0813 5.40256 23.0813 4.62256 22.3013L1.08256 18.7613C0.302559 17.9813 0.302559 16.7113 1.08256 15.9313L4.26256 12.7513C5.04256 11.9713 6.31256 11.9713 7.09256 12.7513L8.33256 13.9913L9.04256 13.2813L7.80256 12.0513C7.02256 11.2713 7.02256 10.0013 7.80256 9.22128L9.22256 7.80128C10.0026 7.02128 11.2726 7.02128 12.0526 7.80128L13.2926 9.04128L14.0026 8.33128L12.7526 7.10128C11.9726 6.32128 11.9726 5.05128 12.7526 4.27128L15.9326 1.09128C16.7226 0.301279 17.9826 0.301279 18.7626 1.09128ZM3.56256 16.2913L2.50256 17.3513L6.04256 20.8913L7.10256 19.8313L3.56256 16.2913ZM5.68256 14.1713L4.62256 15.2313L8.16256 18.7713L9.22256 17.7113L5.68256 14.1713ZM10.6326 9.22128L9.22256 10.6313L12.7626 14.1713L14.1726 12.7613L10.6326 9.22128ZM15.2326 4.62128L14.1726 5.68128L17.7126 9.22128L18.7726 8.16128L15.2326 4.62128ZM17.3526 2.50128L16.2926 3.56128L19.8326 7.10128L20.8926 6.04128L17.3526 2.50128Z" />
</g>
<defs>
<clipPath id="clip0_2402_17667">
<rect width="24" height="24" fill="white"/>
</clipPath>
</defs>
</svg>
