<svg width="24" height="24" viewBox="0 0 24 24"  xmlns="http://www.w3.org/2000/svg">
<g clip-path="url(#clip0_2402_17668)">
<path d="M21.4744 15.4133C21.0744 18.5933 18.5844 21.0833 15.4044 21.4833C14.8944 21.5433 14.5244 21.9733 14.5244 22.4733C14.5244 22.5133 14.5244 22.5533 14.5344 22.5933C14.6044 23.1433 15.1044 23.5333 15.6544 23.4633C19.7444 22.9533 22.9544 19.7433 23.4644 15.6533C23.5244 15.1033 23.1344 14.6033 22.5844 14.5433C22.0344 14.4733 21.5344 14.8633 21.4744 15.4133ZM19.3644 15.7933C19.5044 15.2633 19.1844 14.7133 18.6444 14.5733C18.1044 14.4333 17.5644 14.7533 17.4244 15.2933C17.1544 16.3433 16.3344 17.1633 15.2744 17.4433C14.8244 17.5633 14.5244 17.9633 14.5244 18.4133C14.5244 18.4933 14.5344 18.5833 14.5544 18.6633C14.6944 19.1933 15.2444 19.5133 15.7744 19.3833C17.5444 18.9133 18.9144 17.5433 19.3644 15.7933ZM22.3244 4.65332L18.7844 1.11332C18.0044 0.33332 16.7344 0.33332 15.9544 1.11332L12.7744 4.29332C11.9944 5.07332 11.9944 6.34332 12.7744 7.12332L14.0144 8.36332L13.3044 9.07332L12.0744 7.83332C11.2944 7.05332 10.0244 7.05332 9.24442 7.83332L7.82442 9.25332C7.04442 10.0333 7.04442 11.3033 7.82442 12.0833L9.06442 13.3233L8.35442 14.0333L7.12442 12.7833C6.34442 12.0033 5.07442 12.0033 4.29442 12.7833L1.11442 15.9633C0.334419 16.7433 0.334419 18.0133 1.11442 18.7933L4.65442 22.3333C5.43442 23.1133 6.70442 23.1133 7.48442 22.3333L10.6644 19.1533C11.4444 18.3733 11.4444 17.1033 10.6644 16.3233L9.42442 15.0833L10.1344 14.3733L11.3744 15.6133C12.1544 16.3933 13.4244 16.3933 14.2044 15.6133L15.6144 14.2033C16.3944 13.4233 16.3944 12.1533 15.6144 11.3733L14.3644 10.1333L15.0744 9.42332L16.3144 10.6633C17.0944 11.4433 18.3644 11.4433 19.1444 10.6633L22.3244 7.48332C23.1044 6.70332 23.1044 5.43332 22.3244 4.65332ZM6.06442 20.9133L2.52442 17.3833L3.58442 16.3233L7.12442 19.8633L6.06442 20.9133ZM8.18442 18.7933L4.64442 15.2533L5.70442 14.1933L9.24442 17.7333L8.18442 18.7933ZM17.7244 9.25332L14.1844 5.71332L15.2444 4.65332L18.7844 8.19332L17.7244 9.25332ZM19.8444 7.13332L16.3044 3.59332L17.3744 2.53332L20.9144 6.07332L19.8444 7.13332Z" />
</g>
<defs>
<clipPath id="clip0_2402_17668">
<rect width="24" height="24" fill="white"/>
</clipPath>
</defs>
</svg>
