<svg width="24" height="24" viewBox="0 0 24 24"  xmlns="http://www.w3.org/2000/svg">
<path d="M14.9378 13.5212C16.0678 11.9712 16.5678 9.94118 15.9178 7.78118C15.2378 5.55118 13.3478 3.80118 11.0678 3.34118C6.41778 2.41118 2.40778 6.43117 3.34778 11.0712C3.80778 13.3612 5.55778 15.2512 7.78778 15.9212C9.94778 16.5712 11.9778 16.0712 13.5278 14.9412L19.0878 20.5012C19.4778 20.8912 20.1078 20.8912 20.4978 20.5012C20.8878 20.1112 20.8878 19.4812 20.4978 19.0912L14.9378 13.5212ZM9.70778 14.2112C7.21778 14.2112 5.20778 12.2012 5.20778 9.71117C5.20778 7.22118 7.21778 5.21117 9.70778 5.21117C12.1978 5.21117 14.2078 7.22118 14.2078 9.71117C14.2078 12.2012 12.1978 14.2112 9.70778 14.2112Z" />
<path d="M10.4978 8.65117L9.70778 6.21117L8.91778 8.65117H6.45778L8.46778 10.2412L7.69778 12.7112L9.70778 11.1812L11.7178 12.7112L10.9478 10.2412L12.9578 8.65117H10.4978Z" />
</svg>
