<svg width="24" height="24" viewBox="0 0 24 24"  xmlns="http://www.w3.org/2000/svg">
<path d="M18.53 9.29086C19.16 9.92086 18.71 11.0009 17.82 11.0009C17.55 11.0009 17.3 10.8909 17.11 10.7109L10.4 4.00086L5.41 9.00086H7C7.55 9.00086 8 9.45086 8 10.0009C8 10.5509 7.55 11.0009 7 11.0009H3C2.45 11.0009 2 10.5509 2 10.0009V6.00086C2 5.45086 2.45 5.00086 3 5.00086C3.55 5.00086 4 5.45086 4 6.00086V7.59086L9 2.59086C9.78 1.81086 11.05 1.81086 11.83 2.59086L18.53 9.29086Z" />
<path d="M5.47 14.7109C4.84 14.0809 5.29 13.0009 6.18 13.0009C6.45 13.0009 6.7 13.1109 6.89 13.2909L13.6 20.0009L18.59 15.0009H17C16.45 15.0009 16 14.5509 16 14.0009C16 13.4509 16.45 13.0009 17 13.0009H21C21.55 13.0009 22 13.4509 22 14.0009V18.0009C22 18.5509 21.55 19.0009 21 19.0009C20.45 19.0009 20 18.5509 20 18.0009V16.4109L15 21.4109C14.22 22.1909 12.95 22.1909 12.17 21.4109L5.47 14.7109Z" />
</svg>
