<svg width="24" height="24" viewBox="0 0 24 24"  xmlns="http://www.w3.org/2000/svg">
<path d="M1.1322 12.5491C1.1322 11.4491 2.0322 10.5491 3.1322 10.5491C4.2322 10.5491 5.1322 11.4491 5.1322 12.5491C5.1322 13.6491 4.2322 14.5491 3.1322 14.5491C2.0322 14.5491 1.1322 13.6491 1.1322 12.5491ZM9.0222 9.65906L12.5822 8.70906C13.1122 8.56906 13.4322 8.01906 13.2922 7.48906L13.0322 6.51906C12.8922 5.98906 12.3422 5.66906 11.8122 5.80906L8.2422 6.75906C7.4422 6.96906 6.9622 7.79906 7.1822 8.59906C7.4022 9.39906 8.2222 9.87906 9.0222 9.65906ZM22.6522 2.06906C22.3622 1.77906 21.9022 1.77906 21.6122 2.06906L19.1322 4.54906L17.1322 8.54906L7.6522 11.4191C6.8322 11.6191 6.2622 12.3091 6.1522 13.0991L5.3722 17.5491L3.1322 20.5491C2.8022 20.9891 2.8922 21.6191 3.3322 21.9491C3.7722 22.2791 4.4022 22.1891 4.7322 21.7491L7.1322 18.5491L8.2722 15.4091L13.8422 13.6391C14.0322 13.5791 14.2222 13.4891 14.3822 13.3691L18.5822 10.4291C18.9422 10.1791 19.2022 9.81906 19.3322 9.40906L20.6322 5.44906L22.6922 3.06906C22.9422 2.76906 22.9222 2.33906 22.6522 2.06906Z" />
</svg>
