<svg width="24" height="24" viewBox="0 0 24 24"  xmlns="http://www.w3.org/2000/svg">
<path d="M11.9999 11.0001C13.6599 11.0001 14.9999 9.66007 14.9999 8.00007C14.9999 6.34007 13.6599 5.00007 11.9999 5.00007C10.3399 5.00007 8.99995 6.34007 8.99995 8.00007C8.99995 9.66007 10.3399 11.0001 11.9999 11.0001Z" />
<path d="M11.9999 12.0001C10.1599 12.0001 8.43995 12.5001 6.96995 13.3701C6.35995 13.7301 5.99995 14.3901 5.99995 15.0901V16.0001C5.99995 16.5501 6.44995 17.0001 6.99995 17.0001H16.9999C17.5499 17.0001 17.9999 16.5501 17.9999 16.0001V15.0901C17.9999 14.3901 17.6399 13.7301 17.0299 13.3701C15.5599 12.5001 13.8399 12.0001 11.9999 12.0001Z" />
<path d="M22.1099 7.79007C22.6599 7.56007 22.8899 6.91007 22.6099 6.38007C21.4799 4.26007 19.7399 2.52007 17.6199 1.39007C17.0999 1.11007 16.4499 1.35007 16.2199 1.89007C16.0299 2.36007 16.2099 2.91007 16.6499 3.14007C18.4399 4.08007 19.9099 5.56007 20.8599 7.35007C21.0899 7.80007 21.6399 7.98007 22.1099 7.79007Z" />
<path d="M7.78995 1.89007C7.55995 1.34007 6.90995 1.11007 6.38995 1.39007C4.26995 2.52007 2.51995 4.26007 1.39995 6.38007C1.11995 6.90007 1.34995 7.56007 1.89995 7.79007C2.36995 7.99007 2.91995 7.80007 3.14995 7.36007C4.08995 5.57007 5.56995 4.10007 7.35995 3.15007C7.79995 2.91007 7.97995 2.36007 7.78995 1.89007Z" />
<path d="M1.88995 16.2101C1.33995 16.4401 1.10995 17.0901 1.38995 17.6101C2.51995 19.7301 4.25995 21.4801 6.38995 22.6101C6.90995 22.8901 7.55995 22.6501 7.78995 22.1101C7.97995 21.6401 7.79995 21.0901 7.35995 20.8601C5.56995 19.9201 4.09995 18.4401 3.14995 16.6501C2.90995 16.2001 2.35995 16.0201 1.88995 16.2101Z" />
<path d="M16.2099 22.1101C16.4399 22.6601 17.0899 22.8901 17.6099 22.6101C19.7299 21.4801 21.4799 19.7401 22.6099 17.6101C22.8899 17.0901 22.6499 16.4401 22.1099 16.2101C21.6399 16.0201 21.0899 16.2001 20.8599 16.6401C19.9199 18.4301 18.4399 19.9001 16.6499 20.8501C16.1999 21.0901 16.0199 21.6401 16.2099 22.1101Z" />
</svg>
