<svg width="24" height="24" viewBox="0 0 24 24"  xmlns="http://www.w3.org/2000/svg">
<path d="M5.77625 17.6101C5.35625 18.0301 4.65625 18.0001 4.27625 17.5301C2.91625 15.8201 2.09625 13.6501 2.09625 11.2901C2.09625 9.25008 2.70625 7.36008 3.75625 5.78008L2.19625 4.22008C1.80625 3.83008 1.80625 3.20008 2.19625 2.81008C2.58625 2.42008 3.21625 2.42008 3.60625 2.81008L20.5762 19.7801C20.9662 20.1701 20.9662 20.8001 20.5762 21.1901C20.1862 21.5801 19.5562 21.5801 19.1662 21.1901L8.23625 10.2501C8.14625 10.5801 8.09625 10.9301 8.09625 11.2901C8.09625 12.0901 8.33625 12.8401 8.73625 13.4601C9.00625 13.8701 8.97625 14.4001 8.63625 14.7501C8.20625 15.1801 7.46625 15.1501 7.12625 14.6401C6.47625 13.6901 6.09625 12.5301 6.09625 11.2901C6.09625 10.3601 6.30625 9.49008 6.67625 8.70008L5.20625 7.23008C4.49625 8.42008 4.09625 9.81008 4.09625 11.2901C4.09625 13.1801 4.75625 14.9201 5.85625 16.2901C6.17625 16.6801 6.13625 17.2501 5.77625 17.6101ZM15.5562 7.83008C15.2062 8.18008 15.1862 8.71008 15.4462 9.12008C15.8562 9.74008 16.0962 10.4901 16.0962 11.2901C16.0962 11.6501 16.0462 12.0001 15.9562 12.3301L17.5062 13.8801C17.8862 13.0901 18.0962 12.2201 18.0962 11.2901C18.0962 10.0501 17.7162 8.89008 17.0662 7.93008C16.7262 7.43008 15.9962 7.39008 15.5562 7.83008ZM18.4162 4.97008C18.0562 5.33008 18.0162 5.89008 18.3362 6.29008C19.4362 7.66008 20.0962 9.40008 20.0962 11.2901C20.0962 12.7701 19.6962 14.1601 18.9862 15.3501L20.4362 16.8001C21.4862 15.2201 22.0962 13.3301 22.0962 11.2901C22.0962 8.93008 21.2762 6.76008 19.9162 5.05008C19.5362 4.58008 18.8362 4.55008 18.4162 4.97008Z" />
</svg>
