<svg width="24" height="24" viewBox="0 0 24 24"  xmlns="http://www.w3.org/2000/svg">
<g clip-path="url(#clip0_2402_23186)">
<path d="M12 10.9999C13.66 10.9999 15 9.65992 15 7.99992C15 6.33992 13.66 4.99992 12 4.99992C10.34 4.99992 9.00004 6.33992 9.00004 7.99992C9.00004 9.65992 10.34 10.9999 12 10.9999Z" />
<path d="M12 11.9999C10.16 11.9999 8.44004 12.4999 6.97004 13.3699C6.36004 13.7199 6.00004 14.3899 6.00004 15.0899V16.9999H18V15.0899C18 14.3899 17.64 13.7299 17.03 13.3699C15.56 12.4999 13.84 11.9999 12 11.9999Z" />
<path d="M21.23 8.14992L23.08 7.37992C21.86 4.46992 19.53 2.12992 16.62 0.919922L15.85 2.76992C18.27 3.78992 20.21 5.72992 21.23 8.14992Z" />
<path d="M8.15004 2.76992L7.38004 0.919922C4.47004 2.13992 2.14004 4.46992 0.920044 7.37992L2.77004 8.14992C3.79004 5.72992 5.73004 3.78992 8.15004 2.76992Z" />
<path d="M2.77004 15.8499L0.920044 16.6199C2.14004 19.5299 4.47004 21.8699 7.38004 23.0799L8.15004 21.2299C5.73004 20.2099 3.79004 18.2699 2.77004 15.8499Z" />
<path d="M15.85 21.2299L16.62 23.0799C19.53 21.8599 21.87 19.5299 23.08 16.6199L21.23 15.8499C20.21 18.2699 18.27 20.2099 15.85 21.2299Z" />
</g>
<defs>
<clipPath id="clip0_2402_23186">
<rect width="24" height="24" fill="white"/>
</clipPath>
</defs>
</svg>
