<svg width="24" height="24" viewBox="0 0 24 24"  xmlns="http://www.w3.org/2000/svg">
<path d="M8.445 10.255C8.355 10.585 8.305 10.935 8.305 11.295C8.305 12.395 8.755 13.395 9.475 14.125L8.055 15.545C6.975 14.455 6.305 12.955 6.305 11.295C6.305 10.365 6.515 9.49498 6.885 8.70498L5.415 7.23498C4.705 8.42498 4.305 9.81498 4.305 11.295C4.305 13.505 5.205 15.505 6.655 16.945L5.235 18.365C3.425 16.555 2.305 14.055 2.305 11.295C2.305 9.25498 2.915 7.36498 3.965 5.78498L1.695 3.51498L3.105 2.10498L21.485 20.485L20.075 21.895L8.445 10.255ZM17.725 13.885C18.095 13.095 18.305 12.225 18.305 11.295C18.305 9.63498 17.635 8.13498 16.545 7.05498L15.125 8.47498C15.855 9.19498 16.305 10.195 16.305 11.295C16.305 11.655 16.255 12.005 16.165 12.335L17.725 13.885ZM20.305 11.295C20.305 12.775 19.905 14.165 19.195 15.355L20.645 16.805C21.695 15.225 22.305 13.335 22.305 11.295C22.305 8.53498 21.185 6.03498 19.375 4.22498L17.955 5.64498C19.405 7.08498 20.305 9.08498 20.305 11.295Z" />
</svg>
