<svg width="24" height="24" viewBox="0 0 24 24"  xmlns="http://www.w3.org/2000/svg">
<path d="M11.7683 3.00142C9.11829 3.07142 6.76829 4.28142 5.16829 6.16142L3.84829 4.85142C3.53829 4.54142 2.99829 4.76142 2.99829 5.21142V9.50142C2.99829 9.78142 3.21829 10.0014 3.49829 10.0014H7.78829C8.23829 10.0014 8.45829 9.46142 8.13829 9.15142L6.58829 7.59142C7.87829 6.02142 9.81829 5.00142 11.9983 5.00142C16.3183 5.00142 19.7383 8.94142 18.8583 13.4114C18.3183 16.1814 16.0483 18.3914 13.2783 18.8814C9.47829 19.5614 6.09829 17.1414 5.22829 13.7214C5.10829 13.3014 4.70829 13.0014 4.26829 13.0014C3.61829 13.0014 3.12829 13.6114 3.28829 14.2314C4.27829 18.1214 7.79829 21.0014 11.9983 21.0014C17.0583 21.0014 21.1383 16.8314 20.9983 11.7414C20.8583 6.86142 16.6483 2.88142 11.7683 3.00142ZM13.9983 12.0014C13.9983 10.9014 13.0983 10.0014 11.9983 10.0014C10.8983 10.0014 9.99829 10.9014 9.99829 12.0014C9.99829 13.1014 10.8983 14.0014 11.9983 14.0014C13.0983 14.0014 13.9983 13.1014 13.9983 12.0014Z" />
</svg>
