<svg width="24" height="24" viewBox="0 0 24 24"  xmlns="http://www.w3.org/2000/svg">
<path d="M8.00108 23.5C8.55108 23.5 9.00108 23.05 9.00108 22.5C9.00108 21.95 8.55108 21.5 8.00108 21.5C7.45108 21.5 7.00108 21.95 7.00108 22.5C7.00108 23.05 7.45108 23.5 8.00108 23.5ZM12.0011 23.5C12.5511 23.5 13.0011 23.05 13.0011 22.5C13.0011 21.95 12.5511 21.5 12.0011 21.5C11.4511 21.5 11.0011 21.95 11.0011 22.5C11.0011 23.05 11.4511 23.5 12.0011 23.5ZM16.0011 23.5C16.5511 23.5 17.0011 23.05 17.0011 22.5C17.0011 21.95 16.5511 21.5 16.0011 21.5C15.4511 21.5 15.0011 21.95 15.0011 22.5C15.0011 23.05 15.4511 23.5 16.0011 23.5ZM9.00108 9.5V3.5C9.00108 1.84 10.3411 0.5 12.0011 0.5C13.6611 0.5 15.0011 1.84 15.0011 3.5V9.5C15.0011 11.16 13.6611 12.5 12.0011 12.5C10.3411 12.5 9.00108 11.16 9.00108 9.5ZM17.9111 9.5C18.5211 9.5 19.0011 10.04 18.9111 10.64C18.4211 13.64 16.0211 15.98 13.0011 16.42V18.5C13.0011 19.05 12.5511 19.5 12.0011 19.5C11.4511 19.5 11.0011 19.05 11.0011 18.5V16.42C7.98108 15.98 5.58108 13.64 5.09108 10.64C4.99108 10.04 5.48108 9.5 6.09108 9.5C6.58108 9.5 6.99108 9.86 7.07108 10.35C7.48108 12.71 9.53108 14.5 12.0011 14.5C14.4711 14.5 16.5211 12.71 16.9311 10.35C17.0111 9.86 17.4211 9.5 17.9111 9.5Z" />
</svg>
