<svg width="24" height="24" viewBox="0 0 24 24"  xmlns="http://www.w3.org/2000/svg">
<path d="M12.0006 10.9993C12.5529 10.9993 13.0006 10.5516 13.0006 9.99927C13.0006 9.44698 12.5529 8.99927 12.0006 8.99927C11.4483 8.99927 11.0006 9.44698 11.0006 9.99927C11.0006 10.5516 11.4483 10.9993 12.0006 10.9993Z" />
<path d="M16.0006 10.9993C16.5529 10.9993 17.0006 10.5516 17.0006 9.99927C17.0006 9.44698 16.5529 8.99927 16.0006 8.99927C15.4483 8.99927 15.0006 9.44698 15.0006 9.99927C15.0006 10.5516 15.4483 10.9993 16.0006 10.9993Z" />
<path d="M20.0006 10.9993C20.5529 10.9993 21.0006 10.5516 21.0006 9.99927C21.0006 9.44698 20.5529 8.99927 20.0006 8.99927C19.4483 8.99927 19.0006 9.44698 19.0006 9.99927C19.0006 10.5516 19.4483 10.9993 20.0006 10.9993Z" />
<path d="M15.6306 14.3993L13.1106 16.8993C10.6106 15.4693 8.54063 13.3993 7.11063 10.8993L9.61063 8.37927C9.84063 8.13927 9.94063 7.80927 9.88063 7.47927L9.13063 3.79927C9.04063 3.33927 8.63063 2.99927 8.15063 2.99927H4.00063C3.44063 2.99927 2.97063 3.46927 3.00063 4.02927C3.17063 6.91927 4.05063 9.62927 5.43063 11.9993C7.01063 14.7293 9.28063 16.9893 12.0006 18.5693C14.3706 19.9393 17.0806 20.8293 19.9706 20.9993C20.5306 21.0293 21.0006 20.5593 21.0006 19.9993V15.8493C21.0006 15.3693 20.6606 14.9593 20.2006 14.8693L16.5306 14.1393C16.2006 14.0693 15.8606 14.1693 15.6306 14.3993Z" />
</svg>
