<svg width="24" height="24" viewBox="0 0 24 24"  xmlns="http://www.w3.org/2000/svg">
<path d="M11.9993 5.50366C8.51929 5.50366 5.62929 8.04366 5.08929 11.3737C4.98929 11.9637 5.47929 12.5037 6.08929 12.5037C6.57929 12.5037 6.98929 12.1437 7.06929 11.6537C7.47929 9.29366 9.52929 7.50366 11.9993 7.50366C14.4693 7.50366 16.5193 9.29366 16.9293 11.6537C17.0093 12.1437 17.4193 12.5037 17.9093 12.5037C18.5193 12.5037 18.9993 11.9637 18.8993 11.3737C18.3693 8.04366 15.4793 5.50366 11.9993 5.50366ZM12.9993 14.7937C14.0693 14.3137 14.7593 13.1337 14.4093 11.8037C14.1893 10.9937 13.5393 10.3337 12.7293 10.1037C11.0393 9.62366 9.49929 10.8837 9.49929 12.5037C9.49929 13.5237 10.1193 14.4037 10.9993 14.7937V18.0937L8.28929 20.7937C7.89929 21.1837 7.89929 21.8137 8.28929 22.2037C8.67929 22.5937 9.30929 22.5937 9.69929 22.2037L11.9993 19.9037L14.2993 22.2037C14.6893 22.5937 15.3193 22.5937 15.7093 22.2037C16.0993 21.8137 16.0993 21.1837 15.7093 20.7937L12.9993 18.0937V14.7937ZM11.9993 1.50366C6.29929 1.50366 1.60929 5.84366 1.04929 11.4037C0.999285 11.9937 1.45929 12.5037 2.04929 12.5037C2.55929 12.5037 2.98929 12.1237 3.03929 11.6237C3.47929 7.06366 7.32929 3.50366 11.9993 3.50366C16.6693 3.50366 20.5193 7.06366 20.9593 11.6237C21.0093 12.1237 21.4393 12.5037 21.9493 12.5037C22.5393 12.5037 23.0093 11.9937 22.9493 11.4037C22.3893 5.84366 17.6993 1.50366 11.9993 1.50366Z" />
</svg>
