<svg width="24" height="24" viewBox="0 0 24 24"  xmlns="http://www.w3.org/2000/svg">
<path d="M8.00235 23C8.55235 23 9.00235 22.55 9.00235 22C9.00235 21.45 8.55235 21 8.00235 21C7.45235 21 7.00235 21.45 7.00235 22C7.00235 22.55 7.45235 23 8.00235 23ZM12.0023 23C12.5523 23 13.0023 22.55 13.0023 22C13.0023 21.45 12.5523 21 12.0023 21C11.4523 21 11.0023 21.45 11.0023 22C11.0023 22.55 11.4523 23 12.0023 23ZM12.0023 1C11.4523 1 11.0023 1.45 11.0023 2V10C11.0023 10.55 11.4523 11 12.0023 11C12.5523 11 13.0023 10.55 13.0023 10V2C13.0023 1.45 12.5523 1 12.0023 1ZM15.9423 4.06L15.9223 4.08C15.5123 4.49 15.5623 5.16 16.0023 5.54C17.5123 6.88 18.3323 8.97 17.8823 11.24C17.4223 13.52 15.5923 15.38 13.3223 15.86C9.43235 16.69 6.00235 13.74 6.00235 10C6.00235 8.22 6.78235 6.63 8.01235 5.53C8.44235 5.14 8.48235 4.49 8.08235 4.08L8.06235 4.06C7.69235 3.69 7.10235 3.67 6.70235 4.02C4.69235 5.79 3.58235 8.55 4.14235 11.54C4.73235 14.69 7.25235 17.24 10.4023 17.85C15.5223 18.84 20.0023 14.95 20.0023 10C20.0023 7.62 18.9523 5.48 17.2923 4.01C16.9023 3.67 16.3123 3.69 15.9423 4.06ZM16.0023 23C16.5523 23 17.0023 22.55 17.0023 22C17.0023 21.45 16.5523 21 16.0023 21C15.4523 21 15.0023 21.45 15.0023 22C15.0023 22.55 15.4523 23 16.0023 23Z" />
</svg>
