<svg width="24" height="24" viewBox="0 0 24 24"  xmlns="http://www.w3.org/2000/svg">
<path d="M20.5 2C19.95 2 19.5 2.45 19.5 3V6C19.5 6.55 19.95 7 20.5 7C21.05 7 21.5 6.55 21.5 6V3C21.5 2.45 21.05 2 20.5 2Z" />
<path d="M20.5 10C21.0523 10 21.5 9.55228 21.5 9C21.5 8.44772 21.0523 8 20.5 8C19.9477 8 19.5 8.44772 19.5 9C19.5 9.55228 19.9477 10 20.5 10Z" />
<path d="M12.5 10.41L15.79 7.12C16.18 6.73 16.18 6.1 15.79 5.71C15.4 5.32 14.77 5.32 14.38 5.71L12.5 7.59V5C12.5 4.45 12.05 4 11.5 4C10.95 4 10.5 4.45 10.5 5V7.59L8.62 5.71C8.23 5.32 7.6 5.32 7.21 5.71C6.82 6.1 6.82 6.73 7.21 7.12L10.5 10.41V12H8.91L5.62 8.71C5.23 8.32 4.6 8.32 4.21 8.71C3.82 9.1 3.82 9.73 4.21 10.12L6.09 12H3.5C2.95 12 2.5 12.45 2.5 13C2.5 13.55 2.95 14 3.5 14H6.09L4.21 15.88C3.82 16.27 3.82 16.9 4.21 17.29C4.6 17.68 5.23 17.68 5.62 17.29L8.91 14H10.5V15.59L7.21 18.88C6.82 19.27 6.82 19.9 7.21 20.29C7.6 20.68 8.23 20.68 8.62 20.29L10.5 18.41V21C10.5 21.55 10.95 22 11.5 22C12.05 22 12.5 21.55 12.5 21V18.41L14.38 20.29C14.77 20.68 15.4 20.68 15.79 20.29C16.18 19.9 16.18 19.27 15.79 18.88L12.5 15.59V14H14.09L17.38 17.29C17.77 17.68 18.4 17.68 18.79 17.29C19.18 16.9 19.18 16.27 18.79 15.88L16.91 14H19.5C20.05 14 20.5 13.55 20.5 13C20.5 12.45 20.05 12 19.5 12H12.5V10.41Z" />
</svg>
