<svg width="24" height="24" viewBox="0 0 24 24"  xmlns="http://www.w3.org/2000/svg">
<path d="M8.17267 18C7.07267 18 6.18267 18.9 6.18267 20C6.18267 21.1 7.07267 22 8.17267 22C9.27267 22 10.1727 21.1 10.1727 20C10.1727 18.9 9.27267 18 8.17267 18ZM18.1727 18C17.0727 18 16.1827 18.9 16.1827 20C16.1827 21.1 17.0727 22 18.1727 22C19.2727 22 20.1727 21.1 20.1727 20C20.1727 18.9 19.2727 18 18.1727 18ZM20.1727 16C20.1727 15.45 19.7227 15 19.1727 15H8.17267L9.27267 13H16.7227C17.4727 13 18.1327 12.59 18.4727 11.97L21.7127 5.83C21.9627 5.35 21.7927 4.75 21.3127 4.49C20.8227 4.22 20.2127 4.41 19.9527 4.9L16.7227 11H9.70267L5.71267 2.57C5.55267 2.22 5.19267 2 4.81267 2H3.17267C2.62267 2 2.17267 2.45 2.17267 3C2.17267 3.55 2.62267 4 3.17267 4H4.17267L7.77267 11.59L6.42267 14.03C5.69267 15.37 6.65267 17 8.17267 17H19.1727C19.7227 17 20.1727 16.55 20.1727 16ZM12.4627 2.71C12.8527 2.32 13.4827 2.32 13.8727 2.71L16.4627 5.3C16.8527 5.69 16.8527 6.32 16.4627 6.71L13.8727 9.3C13.4827 9.69 12.8527 9.69 12.4627 9.3C12.0727 8.91 12.0727 8.28 12.4627 7.89L13.3427 7H10.1727C9.62267 7 9.17267 6.55 9.17267 6C9.17267 5.45 9.62267 5 10.1727 5H13.3427L12.4627 4.12C12.0727 3.73 12.0727 3.1 12.4627 2.71Z" />
</svg>
