<svg width="24" height="24" viewBox="0 0 24 24"  xmlns="http://www.w3.org/2000/svg">
<path d="M17.65 18C16.55 18 15.66 18.9 15.66 20C15.66 21.1 16.55 22 17.65 22C18.75 22 19.65 21.1 19.65 20C19.65 18.9 18.75 18 17.65 18ZM7.64999 18C6.54999 18 5.65999 18.9 5.65999 20C5.65999 21.1 6.54999 22 7.64999 22C8.74999 22 9.64999 21.1 9.64999 20C9.64999 18.9 8.74999 18 7.64999 18ZM7.64999 15L8.74999 13H16.2C16.95 13 17.61 12.59 17.95 11.97L22.35 4H5.85999L4.91999 2H1.64999V4H3.64999L7.24999 11.59L4.26999 17H19.65V15H7.64999Z" />
</svg>
