<svg width="24" height="24" viewBox="0 0 24 24"  xmlns="http://www.w3.org/2000/svg">
<path d="M10.3862 9.17L5.91624 4.7C5.52624 4.31 4.89624 4.31 4.50624 4.7C4.11624 5.09 4.11624 5.72 4.50624 6.11L8.96624 10.57L10.3862 9.17ZM15.1462 4.85L16.3362 6.04L4.49624 17.88C4.10624 18.27 4.10624 18.9 4.49624 19.29C4.88624 19.68 5.51624 19.68 5.90624 19.29L17.7562 7.46L18.9462 8.65C19.2562 8.96 19.7962 8.74 19.7962 8.29V4.5C19.7962 4.22 19.5762 4 19.2962 4H15.5062C15.0562 4 14.8362 4.54 15.1462 4.85ZM14.6262 13.41L13.2162 14.82L16.3462 17.95L15.1462 19.15C14.8362 19.46 15.0562 20 15.5062 20H19.2962C19.5762 20 19.7962 19.78 19.7962 19.5V15.71C19.7962 15.26 19.2562 15.04 18.9462 15.36L17.7562 16.55L14.6262 13.41Z" />
</svg>
