<svg width="24" height="24" viewBox="0 0 24 24"  xmlns="http://www.w3.org/2000/svg">
<path d="M23.2101 7.93922C20.2201 5.29922 16.3001 3.69922 12.0001 3.69922C7.70007 3.69922 3.78007 5.29922 0.790073 7.93922C0.350073 8.32922 0.320073 8.99922 0.730072 9.40922L11.2901 19.9892C11.4801 20.1792 11.7401 20.2792 11.9901 20.2792V13.6992C11.9901 12.5992 12.8901 11.6992 13.9901 11.6992H20.9801L23.2701 9.40922C23.6801 8.99922 23.6501 8.32922 23.2101 7.93922Z" />
<path d="M20.3001 14.4092C19.9101 14.0192 19.2801 14.0192 18.8901 14.4092L17.5001 15.7892L16.1101 14.4092C15.7201 14.0192 15.0901 14.0192 14.7001 14.4092C14.3101 14.7992 14.3101 15.4292 14.7001 15.8192L16.0901 17.2092L14.7001 18.5992C14.3101 18.9892 14.3101 19.6192 14.7001 20.0092C15.0901 20.3992 15.7201 20.3992 16.1101 20.0092L17.5001 18.6292L18.8901 20.0092C19.2801 20.3992 19.9101 20.3992 20.3001 20.0092C20.6901 19.6192 20.6901 18.9892 20.3001 18.5992L18.9201 17.2092L20.3001 15.8192C20.6901 15.4292 20.6901 14.7992 20.3001 14.4092Z" />
</svg>
