<svg width="24" height="24" viewBox="0 0 24 24"  xmlns="http://www.w3.org/2000/svg">
<path d="M23.64 7.9866C23.19 7.6466 18.71 3.9866 12 3.9866C10.68 3.9866 9.45 4.1266 8.31 4.3666L18.43 14.4866L23.64 7.9866ZM4.12 2.9966C3.73 2.6066 3.1 2.6066 2.71 2.9966C2.32 3.3866 2.32 4.0166 2.71 4.4066L4.06 5.7566C1.91 6.7466 0.590001 7.8066 0.360001 7.9866L10.44 20.5466C11.24 21.5466 12.76 21.5466 13.56 20.5466L15.91 17.6166L18.52 20.2266C18.91 20.6166 19.54 20.6166 19.93 20.2266C20.32 19.8366 20.32 19.2066 19.93 18.8166L4.12 2.9966Z" />
</svg>
