<svg width="24" height="24" viewBox="0 0 24 24"  xmlns="http://www.w3.org/2000/svg">
<path d="M23.2092 7.74C20.2192 5.1 16.2992 3.5 11.9992 3.5C7.69922 3.5 3.77922 5.1 0.789218 7.74C0.349218 8.13 0.319218 8.8 0.729218 9.21L11.2892 19.79C11.6792 20.18 12.3092 20.18 12.7092 19.79L15.0492 17.45V14.5C15.0492 14.05 15.1392 13.62 15.2792 13.21C15.8192 11.64 17.2892 10.5 19.0492 10.5H21.9892L23.2792 9.21C23.6792 8.8 23.6492 8.13 23.2092 7.74Z" />
<path d="M21.9992 15.5V14.5C21.9992 13.4 21.0992 12.5 19.9992 12.5C18.8992 12.5 17.9992 13.4 17.9992 14.5V15.5C17.4492 15.5 16.9992 15.95 16.9992 16.5V19.5C16.9992 20.05 17.4492 20.5 17.9992 20.5H21.9992C22.5492 20.5 22.9992 20.05 22.9992 19.5V16.5C22.9992 15.95 22.5492 15.5 21.9992 15.5ZM20.9992 15.5H18.9992V14.5C18.9992 13.95 19.4492 13.5 19.9992 13.5C20.5492 13.5 20.9992 13.95 20.9992 14.5V15.5Z" />
</svg>
