<svg width="24" height="24" viewBox="0 0 24 24"  xmlns="http://www.w3.org/2000/svg">
<path d="M12.0001 2C11.4501 2 11.0001 2.45 11.0001 3V4H5.50005C4.67005 4 4.00005 4.67 4.00005 5.5V8.5C4.00005 9.33 4.67005 10 5.50005 10H11.0001V12H6.62005C6.22005 12 5.84005 12.16 5.56005 12.44L4.06005 13.94C3.47005 14.53 3.47005 15.48 4.06005 16.06L5.56005 17.56C5.84005 17.84 6.22005 18 6.62005 18H11.0001V21C11.0001 21.55 11.4501 22 12.0001 22C12.5501 22 13.0001 21.55 13.0001 21V18H18.5001C19.3301 18 20.0001 17.33 20.0001 16.5V13.5C20.0001 12.67 19.3301 12 18.5001 12H13.0001V10H17.3801C17.7801 10 18.1601 9.84 18.4401 9.56L19.9401 8.06C20.5301 7.47 20.5301 6.52 19.9401 5.94L18.4401 4.44C18.1601 4.16 17.7801 4 17.3801 4H13.0001V3C13.0001 2.45 12.5501 2 12.0001 2Z" />
</svg>
