<svg width="24" height="24" viewBox="0 0 24 24"  xmlns="http://www.w3.org/2000/svg">
<path d="M14.0072 3.75195C14.0072 4.85195 13.1072 5.75195 12.0072 5.75195C10.9072 5.75195 10.0072 4.85195 10.0072 3.75195C10.0072 2.65195 10.9072 1.75195 12.0072 1.75195C13.1072 1.75195 14.0072 2.65195 14.0072 3.75195ZM17.2272 17.152L19.1572 17.782L18.6972 19.212L15.3772 18.132L14.9072 19.552L18.2272 20.632C19.5372 21.062 20.9472 20.342 21.3772 19.022C21.8072 17.712 21.0872 16.302 19.7672 15.872L20.2272 14.442C22.3272 15.122 23.4772 17.382 22.7972 19.482C22.1172 21.582 19.8572 22.732 17.7572 22.052L1.0072 16.612L1.4672 15.182L5.3972 16.462L5.8572 15.032L1.9372 13.752L2.3972 12.322L4.0072 12.852V8.75195L9.4772 6.40195C9.8672 6.23195 10.3172 6.19195 10.7572 6.33195C11.7072 6.64195 12.2172 7.65195 11.9172 8.60195L10.8672 11.842L14.5072 11.252L17.2272 17.152ZM6.0072 13.502L6.4872 13.662L7.2372 11.352L7.9272 9.25195L6.0072 10.072V13.502ZM13.9472 17.662L7.2872 15.502L6.8272 16.932L13.4872 19.092L13.9472 17.662ZM14.6372 16.302L13.4572 13.742L9.4872 14.632L14.6372 16.302Z" />
</svg>
