<svg width="24" height="24" viewBox="0 0 24 24"  xmlns="http://www.w3.org/2000/svg">
<path d="M13.9068 3.75781C13.9068 4.85781 13.0068 5.75781 11.9068 5.75781C10.8068 5.75781 9.9068 4.85781 9.9068 3.75781C9.9068 2.65781 10.8068 1.75781 11.9068 1.75781C13.0068 1.75781 13.9068 2.65781 13.9068 3.75781ZM18.8268 18.4978C18.6968 18.8878 18.2768 19.1078 17.8768 18.9778L15.2668 18.1278L14.8068 19.5578L18.1268 20.6378C19.4368 21.0678 20.8468 20.3478 21.2768 19.0278C21.6368 17.9078 21.1668 16.7078 20.2068 16.1178C19.8868 15.9178 19.7568 15.5178 19.9068 15.1678C20.1068 14.7278 20.6168 14.5978 21.0268 14.8578C22.5468 15.8078 23.2768 17.7078 22.7068 19.4778C22.0268 21.5778 19.7668 22.7278 17.6668 22.0478L1.6468 16.8578C1.2568 16.7278 1.0168 16.3178 1.1268 15.9278C1.2468 15.5178 1.6768 15.2978 2.0768 15.4278L5.2968 16.4778L5.7568 15.0478L2.5668 14.0078C2.1768 13.8778 1.9368 13.4678 2.0468 13.0778C2.1668 12.6678 2.5968 12.4478 2.9968 12.5778L3.9068 12.8578V10.0778C3.9068 9.27781 4.3868 8.55781 5.1168 8.23781C5.8668 7.91781 9.2268 6.47781 9.3768 6.40781C9.7868 6.22781 10.2668 6.19781 10.7268 6.36781C11.6368 6.70781 12.0968 7.72781 11.7968 8.64781L10.7568 11.8478L12.9068 11.5078C13.7968 11.3578 14.6668 11.8278 15.0468 12.6478L17.1268 17.1578L18.3468 17.5578C18.7468 17.6778 18.9568 18.0978 18.8268 18.4978ZM5.9068 13.5078L6.9168 13.8378C6.6968 13.4178 6.6368 12.9178 6.7968 12.4378L7.8268 9.25781L5.9068 10.0778V13.5078ZM13.8468 17.6678L7.1868 15.5078L6.7268 16.9378L13.3868 19.0978L13.8468 17.6678ZM14.5368 16.3078L13.3568 13.7478L9.3868 14.6378L14.5368 16.3078Z" />
</svg>
