<svg width="24" height="24" viewBox="0 0 24 24"  xmlns="http://www.w3.org/2000/svg">
<path d="M9.89207 8.50523V15.5052C9.89207 15.9152 10.3621 16.1552 10.6921 15.9052L15.3621 12.4052C15.6321 12.2052 15.6321 11.8052 15.3621 11.6052L10.6921 8.10523C10.3621 7.85523 9.89207 8.09523 9.89207 8.50523ZM10.8921 3.23523C10.8921 2.59523 10.3021 2.10523 9.68207 2.24523C8.56207 2.50523 7.50207 2.94523 6.56207 3.54523C6.03207 3.88523 5.95207 4.64523 6.40207 5.09523C6.72207 5.41523 7.23207 5.49523 7.61207 5.25523C8.38207 4.76523 9.23207 4.40523 10.1521 4.20523C10.5921 4.10523 10.8921 3.69523 10.8921 3.23523ZM4.99207 6.51523C4.53207 6.06523 3.78207 6.13523 3.44207 6.67523C2.84207 7.61523 2.40207 8.67523 2.14207 9.79523C2.00207 10.4152 2.48207 11.0052 3.12207 11.0052C3.57207 11.0052 3.99207 10.7052 4.08207 10.2652C4.28207 9.35523 4.65207 8.49523 5.13207 7.73523C5.39207 7.34523 5.31207 6.83523 4.99207 6.51523ZM3.12207 13.0052C2.48207 13.0052 1.99207 13.5952 2.13207 14.2152C2.39207 15.3352 2.83207 16.3852 3.43207 17.3352C3.77207 17.8752 4.53207 17.9452 4.98207 17.4952C5.30207 17.1752 5.38207 16.6652 5.13207 16.2852C4.64207 15.5252 4.28207 14.6752 4.08207 13.7552C3.99207 13.3052 3.58207 13.0052 3.12207 13.0052ZM6.56207 20.4552C7.51207 21.0552 8.56207 21.4952 9.68207 21.7552C10.3021 21.8952 10.8921 21.4052 10.8921 20.7752C10.8921 20.3252 10.5921 19.9052 10.1521 19.8152C9.24207 19.6152 8.38207 19.2452 7.62207 18.7652C7.23207 18.5252 6.73207 18.5952 6.41207 18.9252C5.95207 19.3652 6.02207 20.1152 6.56207 20.4552ZM21.8921 12.0052C21.8921 16.7352 18.5921 20.7152 14.1621 21.7452C13.5421 21.8952 12.9421 21.4052 12.9421 20.7652C12.9421 20.3052 13.2521 19.9052 13.6921 19.7952C17.2421 18.9752 19.8921 15.7952 19.8921 12.0052C19.8921 8.21523 17.2421 5.03523 13.6921 4.21523C13.2521 4.11523 12.9421 3.70523 12.9421 3.24523C12.9421 2.60523 13.5421 2.11523 14.1621 2.26523C18.5921 3.29523 21.8921 7.27523 21.8921 12.0052Z" />
</svg>
