<svg width="24" height="24" viewBox="0 0 24 24"  xmlns="http://www.w3.org/2000/svg">
<path d="M22 8.35889V14.3589C22 15.4589 21.1 16.3589 20 16.3589H19V14.3589H20V8.35889H4V14.3589H10V16.3589H4C2.9 16.3589 2 15.4589 2 14.3589V8.35889C2 7.25889 2.9 6.35889 4 6.35889H20C21.1 6.35889 22 7.25889 22 8.35889ZM14.04 17.3489C14.22 17.7389 14.77 17.7389 14.95 17.3489L15.58 15.9489L16.98 15.3189C17.37 15.1389 17.37 14.5889 16.98 14.4089L15.58 13.7789L14.95 12.3789C14.77 11.9889 14.22 11.9889 14.04 12.3789L13.41 13.7789L12.01 14.4089C11.62 14.5889 11.62 15.1389 12.01 15.3189L13.41 15.9489L14.04 17.3489ZM16.74 12.7889C16.84 13.0089 17.16 13.0089 17.26 12.7889L17.62 11.9889L18.42 11.6289C18.64 11.5289 18.64 11.2089 18.42 11.1089L17.62 10.7489L17.26 9.94889C17.16 9.72889 16.84 9.72889 16.74 9.94889L16.38 10.7489L15.58 11.1089C15.36 11.2089 15.36 11.5289 15.58 11.6289L16.38 11.9889L16.74 12.7889Z" />
</svg>
