<svg width="24" height="24" viewBox="0 0 24 24"  xmlns="http://www.w3.org/2000/svg">
<path d="M8.99942 11.0948H12.6294L8.99942 15.2948V17.0948H14.9994V15.0948H11.3694L14.9994 10.8948V9.09479H8.99942V11.0948ZM16.0554 3.44079L17.3374 1.90579L21.9444 5.75578L20.6644 7.29579L16.0554 3.44079ZM3.33542 7.28479L2.05542 5.74879L6.66142 1.90479L7.94142 3.44079L3.33542 7.28479ZM11.9994 6.09479C15.8594 6.09479 18.9994 9.23479 18.9994 13.0948C18.9994 16.9548 15.8594 20.0948 11.9994 20.0948C8.13942 20.0948 4.99942 16.9548 4.99942 13.0948C4.99942 9.23479 8.13942 6.09479 11.9994 6.09479ZM11.9994 4.09479C7.02942 4.09479 2.99942 8.12479 2.99942 13.0948C2.99942 18.0648 7.02942 22.0948 11.9994 22.0948C16.9694 22.0948 20.9994 18.0648 20.9994 13.0948C20.9994 8.12479 16.9694 4.09479 11.9994 4.09479Z" />
</svg>
