<svg width="24" height="24" viewBox="0 0 24 24"  xmlns="http://www.w3.org/2000/svg">
<path d="M13.9976 3.25C13.9976 2.15 14.8976 1.25 15.9976 1.25C17.0976 1.25 17.9976 2.15 17.9976 3.25C17.9976 4.35 17.0976 5.25 15.9976 5.25C14.8976 5.25 13.9976 4.35 13.9976 3.25ZM6.34758 9.78C6.81758 10.07 7.43758 9.93 7.72758 9.46L9.09758 7.25H11.4476L8.93758 11.24C8.65758 11.69 8.56758 12.24 8.68758 12.76L9.49758 16.25L5.99758 18.6L5.52758 18.5C4.56758 18.3 3.81758 17.65 3.42758 16.83C3.32758 16.62 3.14758 16.46 2.91758 16.41C2.48758 16.32 2.09758 16.61 2.01758 16.99C1.97758 17.13 1.99758 17.3 2.06758 17.45C2.64758 18.69 3.77758 19.65 5.21758 19.96L17.8476 22.65C19.2876 22.96 20.7076 22.54 21.7476 21.64C21.8776 21.53 21.9576 21.38 21.9876 21.23C22.0676 20.85 21.8276 20.43 21.3976 20.34C21.1676 20.29 20.9376 20.36 20.7576 20.51C20.0676 21.11 19.1176 21.39 18.1576 21.18L16.9976 20.94L16.1176 15.51C16.0376 15.02 15.7776 14.58 15.3976 14.27L12.6776 12.08L14.4776 9.19C15.4376 10.72 17.0176 11.83 18.8676 12.15C19.4676 12.26 19.9976 11.76 19.9976 11.15C19.9976 10.67 19.6476 10.26 19.1676 10.17C17.6776 9.89 16.4476 8.88 15.8676 7.53L15.3476 6.32C15.1576 5.89 14.6076 5.25 13.6976 5.25H9.10758C8.41758 5.25 7.77758 5.61 7.40758 6.19L6.02758 8.4C5.73758 8.87 5.87758 9.49 6.34758 9.78ZM8.72758 19.18L10.9776 17.67C11.4476 17.35 11.7076 16.79 11.6276 16.23L11.3076 13.83L14.1476 15.85L14.8976 20.49L8.72758 19.18Z" />
</svg>
