<svg width="24" height="24" viewBox="0 0 24 24"  xmlns="http://www.w3.org/2000/svg">
<path d="M3.32995 16H10.9999V13H5.59995C4.65995 13 3.84995 13.65 3.64995 14.57L3.32995 16Z" />
<path d="M12.9999 16H20.6699L20.3499 14.57C20.1399 13.65 19.3299 13 18.3999 13H12.9999V16Z" />
<path d="M21.1099 18H12.9999V22H19.5099C20.7899 22 21.7399 20.82 21.4599 19.57L21.1099 18Z" />
<path d="M4.48995 22H10.9999V18H2.88995L2.53995 19.57C2.25995 20.82 3.20995 22 4.48995 22Z" />
<path d="M11.9999 8C11.4499 8 10.9999 8.45 10.9999 9V10C10.9999 10.55 11.4499 11 11.9999 11C12.5499 11 12.9999 10.55 12.9999 10V9C12.9999 8.45 12.5499 8 11.9999 8Z" />
<path d="M18.5899 8.62C18.9799 8.23 18.9799 7.6 18.5899 7.21L17.8799 6.5C17.4899 6.11 16.8599 6.11 16.4699 6.5C16.0799 6.89 16.0799 7.52 16.4699 7.91L17.1799 8.62C17.5699 9.01 18.1999 9.01 18.5899 8.62Z" />
<path d="M6.81995 8.62L7.52995 7.91C7.91995 7.52 7.91995 6.89 7.52995 6.5C7.13995 6.11 6.50994 6.11 6.11995 6.5L5.40995 7.2C5.01995 7.59 5.01995 8.22 5.40995 8.61C5.79994 9.01 6.42995 9.01 6.81995 8.62Z" />
<path d="M4.99995 2H3.99995C3.44995 2 2.99995 2.45 2.99995 3C2.99995 3.55 3.44995 4 3.99995 4H4.99995C5.54995 4 5.99995 3.55 5.99995 3C5.99995 2.45 5.54995 2 4.99995 2Z" />
<path d="M19.9999 2H18.9999C18.4499 2 17.9999 2.45 17.9999 3C17.9999 3.55 18.4499 4 18.9999 4H19.9999C20.5499 4 20.9999 3.55 20.9999 3C20.9999 2.45 20.5499 2 19.9999 2Z" />
<path d="M11.9999 7C14.7599 7 16.9999 4.76 16.9999 2H6.99995C6.99995 4.76 9.23994 7 11.9999 7Z" />
</svg>
