<svg width="24" height="24" viewBox="0 0 24 24"  xmlns="http://www.w3.org/2000/svg">
<path d="M21.625 8.95C19.735 8.72 16.055 7.12 15.535 2.86C15.475 2.36 15.055 2 14.555 2C13.955 2 13.485 2.53 13.555 3.13C13.865 5.56 15.935 10.25 21.355 10.93C21.955 11.01 22.485 10.53 22.485 9.93C22.485 9.43 22.115 9.01 21.625 8.95Z" />
<path d="M21.225 6.83C21.865 7 22.485 6.52 22.485 5.86C22.485 5.39 22.145 5.01 21.695 4.89C21.205 4.75 19.975 4.21 19.585 2.76C19.465 2.32 19.085 2 18.625 2H18.615C17.955 2 17.475 2.64 17.655 3.28C18.255 5.5 20.095 6.53 21.225 6.83Z" />
<path d="M9.51501 14C11.7242 14 13.515 12.2091 13.515 10C13.515 7.79086 11.7242 6 9.51501 6C7.30588 6 5.51501 7.79086 5.51501 10C5.51501 12.2091 7.30588 14 9.51501 14Z" />
<path d="M15.905 16.56C14.225 15.7 12.045 15 9.51501 15C6.98501 15 4.80501 15.7 3.12501 16.56C2.12501 17.07 1.51501 18.1 1.51501 19.22V22H17.515V19.22C17.515 18.1 16.905 17.07 15.905 16.56Z" />
</svg>
