<svg width="24" height="24" viewBox="0 0 24 24"  xmlns="http://www.w3.org/2000/svg">
<path d="M9.72729 13.7689C11.9364 13.7689 13.7273 11.9781 13.7273 9.76895C13.7273 7.55981 11.9364 5.76895 9.72729 5.76895C7.51816 5.76895 5.72729 7.55981 5.72729 9.76895C5.72729 11.9781 7.51816 13.7689 9.72729 13.7689Z" />
<path d="M16.1173 16.3289C14.4373 15.4689 12.2573 14.7689 9.72729 14.7689C7.1973 14.7689 5.01729 15.4689 3.33729 16.3289C2.33729 16.8389 1.72729 17.8689 1.72729 18.9889V21.7689H17.7273V18.9889C17.7273 17.8689 17.1173 16.8389 16.1173 16.3289Z" />
<path d="M19.1173 2.52895C18.6873 2.09895 17.9773 2.13895 17.6073 2.61895C16.1073 4.54895 14.2573 9.33895 17.6073 13.6489C17.9773 14.1289 18.6873 14.1689 19.1073 13.7389C19.4573 13.3889 19.4973 12.8289 19.1973 12.4389C18.0273 10.9389 16.5573 7.20895 19.1973 3.82895C19.5073 3.43895 19.4673 2.87895 19.1173 2.52895Z" />
<path d="M22.1273 6.62895C22.3573 6.22895 22.3173 5.72895 21.9873 5.40895C21.5173 4.92895 20.7273 5.03895 20.3973 5.61895C19.2473 7.61895 19.8273 9.64895 20.4073 10.6589C20.7373 11.2289 21.5173 11.3289 21.9873 10.8689C22.3173 10.5389 22.3473 10.0289 22.1173 9.61895C21.8673 9.17895 21.3773 7.92895 22.1273 6.62895Z" />
</svg>
