<svg width="24" height="24" viewBox="0 0 24 24"  xmlns="http://www.w3.org/2000/svg">
<path d="M9.50464 13.7689C11.7138 13.7689 13.5046 11.9781 13.5046 9.76895C13.5046 7.55981 11.7138 5.76895 9.50464 5.76895C7.2955 5.76895 5.50464 7.55981 5.50464 9.76895C5.50464 11.9781 7.2955 13.7689 9.50464 13.7689Z" />
<path d="M15.8946 16.3289C14.2146 15.4689 12.0346 14.7689 9.50464 14.7689C6.97464 14.7689 4.79464 15.4689 3.11464 16.3289C2.11464 16.8389 1.50464 17.8689 1.50464 18.9889V19.7689C1.50464 20.8689 2.40464 21.7689 3.50464 21.7689H15.5046C16.6046 21.7689 17.5046 20.8689 17.5046 19.7689V18.9889C17.5046 17.8689 16.8946 16.8389 15.8946 16.3289Z" />
<path d="M20.6146 2.61895C20.2446 2.13895 19.5346 2.09895 19.1146 2.52895C18.7646 2.87895 18.7246 3.43895 19.0246 3.82895C20.1946 5.32895 21.6646 9.05895 19.0246 12.4389C18.7246 12.8289 18.7646 13.3889 19.1146 13.7389C19.5446 14.1689 20.2446 14.1189 20.6146 13.6489C22.1146 11.7189 23.9646 6.92895 20.6146 2.61895Z" />
<path d="M17.8146 5.60895C17.4846 5.03895 16.7046 4.93895 16.2346 5.39895C15.9046 5.72895 15.8746 6.23895 16.1046 6.64895C16.3546 7.08895 16.8446 8.33895 16.0946 9.63895C15.8646 10.0389 15.9046 10.5389 16.2346 10.8589C16.7046 11.3289 17.4846 11.2089 17.8146 10.6389C18.9746 8.64895 18.3946 6.61895 17.8146 5.60895Z" />
</svg>
