<svg width="24" height="24" viewBox="0 0 24 24"  xmlns="http://www.w3.org/2000/svg">
<g clip-path="url(#clip0_2402_17925)">
<path d="M20.93 3.34018V15.3402H19.59L21.5 17.2502C22.32 17.0002 22.93 16.2402 22.93 15.3402V3.34018C22.93 2.24018 22.03 1.34018 20.93 1.34018H5.58999L7.58999 3.34018H20.93ZM6.92999 11.3402H8.92999V13.3402H6.92999V11.3402ZM18.93 8.34018H12.59L14.59 10.3402H18.93V8.34018ZM18.93 5.34018H10.93V6.68018L11.59 7.34018H18.93V5.34018ZM2.33999 0.930176L0.929993 2.34018L2.93999 4.35018L2.92999 21.3402L6.92999 17.3402H15.93L21.66 23.0702L23.07 21.6602L2.33999 0.930176ZM6.09999 15.3402L4.92999 16.5102V6.34018L6.92999 8.34018V10.3402H8.92999L13.93 15.3402H6.09999Z" />
</g>
<defs>
<clipPath id="clip0_2402_17925">
<rect width="24" height="24" fill="white"/>
</clipPath>
</defs>
</svg>
