<svg width="24" height="24" viewBox="0 0 24 24"  xmlns="http://www.w3.org/2000/svg">
<path opacity="0.3" d="M6 11V9L4 7V17.17L5.17 16H13L8 11H6ZM8 14H6V12H8V14ZM20 4H6.66L10 7.34V6H18V8H10.66L11.66 9H18V11H13.66L18.66 16H20V4Z" />
<path d="M20 3.99984V15.9998H18.66L20.57 17.9098C21.39 17.6598 22 16.8998 22 15.9998V3.99984C22 2.89984 21.1 1.99984 20 1.99984H4.66L6.66 3.99984H20ZM6 11.9998H8V13.9998H6V11.9998ZM18 10.9998V8.99984H11.66L13.66 10.9998H18ZM18 7.99984V5.99984H10V7.33984L10.66 7.99984H18ZM1.41 1.58984L0 2.99984L2 5.00984V21.9998L6 17.9998H15L20.73 23.7298L22.14 22.3198L1.41 1.58984ZM5.17 15.9998L4 17.1698V6.99984L6 8.99984V10.9998H8L13 15.9998H5.17Z" />
</svg>
