<svg width="24" height="24" viewBox="0 0 24 24"  xmlns="http://www.w3.org/2000/svg">
<path d="M7.75694 8.33L7.77694 8.35C8.12694 8.7 8.66694 8.73 9.07694 8.44C9.90694 7.87 10.9169 7.52 11.9969 7.52C13.0769 7.52 14.0869 7.87 14.9169 8.45C15.3169 8.74 15.8669 8.71 16.2169 8.36L16.2369 8.34C16.6569 7.92 16.6269 7.2 16.1469 6.85C14.9769 6 13.5469 5.5 11.9969 5.5C10.4469 5.5 9.01694 6 7.85694 6.84C7.36694 7.19 7.33694 7.91 7.75694 8.33Z" />
<path d="M11.9969 1.5C9.37694 1.5 6.96694 2.43 5.07694 3.97C4.61694 4.34 4.56694 5.03 4.99694 5.46C5.35694 5.82 5.92694 5.85 6.31694 5.53C7.85694 4.26 9.84694 3.5 11.9969 3.5C14.1469 3.5 16.1369 4.26 17.6869 5.53C18.0769 5.85 18.6469 5.82 19.0069 5.46C19.4269 5.04 19.3869 4.35 18.9269 3.97C17.0269 2.43 14.6169 1.5 11.9969 1.5Z" />
<path d="M14.9969 10.5H8.99694C8.44694 10.5 7.99694 10.95 7.99694 11.5V21.5C7.99694 22.05 8.44694 22.5 8.99694 22.5H14.9869C15.5369 22.5 15.9869 22.05 15.9869 21.5L15.9969 11.5C15.9969 10.95 15.5469 10.5 14.9969 10.5ZM14.9969 20.5H8.99694V12.5H14.9969V20.5Z" />
</svg>
