<svg width="24" height="24" viewBox="0 0 24 24"  xmlns="http://www.w3.org/2000/svg">
<path d="M19.4612 10.0095C19.3625 10.1553 19.3041 10.3245 19.2918 10.5001C19.2796 10.6757 19.3138 10.8514 19.3912 11.0095C19.6394 11.5888 19.8141 12.1969 19.9112 12.8195C20.1686 14.4297 19.9279 16.08 19.2212 17.5495C19.1354 17.7107 19.0071 17.8453 18.8502 17.9387C18.6933 18.0322 18.5138 18.0809 18.3312 18.0795H5.68119C5.49757 18.0799 5.31738 18.0297 5.16039 17.9345C5.00339 17.8392 4.87566 17.7026 4.79119 17.5395C4.15107 16.241 3.87533 14.793 3.99338 13.3501C4.11142 11.9071 4.61881 10.5233 5.46147 9.34602C6.30413 8.16876 7.45047 7.24224 8.77828 6.66522C10.1061 6.0882 11.5656 5.88232 13.0012 6.06953C13.7276 6.1549 14.4381 6.34347 15.1112 6.62952C15.2693 6.7069 15.445 6.74117 15.6206 6.72888C15.7962 6.71659 15.9654 6.65817 16.1112 6.55953C16.2631 6.45947 16.3848 6.31989 16.4632 6.1558C16.5417 5.99172 16.5739 5.80934 16.5564 5.62831C16.5389 5.44728 16.4724 5.27444 16.364 5.12841C16.2556 4.98237 16.1094 4.86866 15.9412 4.79953C14.0094 3.97118 11.8657 3.77261 9.8146 4.23202C7.76351 4.69143 5.90934 5.78546 4.51545 7.35871C3.12156 8.93195 2.25884 10.9044 2.04984 12.9959C1.84084 15.0874 2.29619 17.1916 3.35119 19.0095C3.5257 19.3118 3.77628 19.5631 4.07802 19.7386C4.37977 19.914 4.72217 20.0074 5.07119 20.0095H18.9212C19.2736 20.0109 19.6201 19.9192 19.9257 19.7436C20.2313 19.568 20.485 19.3147 20.6612 19.0095C21.4336 17.671 21.8852 16.1716 21.9806 14.6291C22.0761 13.0867 21.8127 11.5431 21.2112 10.1195C21.135 9.95728 21.0166 9.8185 20.8684 9.7177C20.7202 9.6169 20.5476 9.55778 20.3688 9.54654C20.1899 9.53529 20.0112 9.57233 19.8516 9.65378C19.6919 9.73523 19.5571 9.8581 19.4612 10.0095Z" />
<path d="M10.5912 12.5995C10.2159 12.9748 10.0051 13.4838 10.0051 14.0145C10.0051 14.2773 10.0568 14.5375 10.1574 14.7803C10.258 15.0231 10.4054 15.2437 10.5912 15.4295C10.777 15.6153 10.9976 15.7627 11.2404 15.8633C11.4832 15.9639 11.7434 16.0156 12.0062 16.0156C12.5369 16.0156 13.0459 15.8048 13.4212 15.4295L19.0812 6.93952L10.5912 12.5995Z" />
</svg>
