<svg width="24" height="24" viewBox="0 0 24 24"  xmlns="http://www.w3.org/2000/svg">
<path d="M12.3728 15.4536C13.0628 15.4536 13.5228 14.7636 13.2728 14.1336L9.02279 3.32361C8.81279 2.79361 8.31279 2.45361 7.75279 2.45361C7.19279 2.45361 6.69279 2.79361 6.48279 3.32361L2.23279 14.1336C1.98279 14.7636 2.45279 15.4536 3.13279 15.4536C3.53279 15.4536 3.89279 15.2036 4.04279 14.8236L4.92279 12.4536H10.5628L11.4628 14.8336C11.6128 15.2036 11.9728 15.4536 12.3728 15.4536ZM5.68279 10.4536L7.75279 4.93361L9.82279 10.4536H5.68279ZM20.1428 11.7436L12.7528 19.1336L9.78279 16.1636C9.39279 15.7736 8.76279 15.7736 8.37279 16.1636C7.98279 16.5536 7.98279 17.1836 8.37279 17.5736L12.0528 21.2536C12.4428 21.6436 13.0728 21.6436 13.4628 21.2536L21.5428 13.1636C21.9328 12.7736 21.9328 12.1436 21.5428 11.7536C21.1628 11.3636 20.5228 11.3636 20.1428 11.7436Z" />
</svg>
