<svg width="24" height="24" viewBox="0 0 24 24"  xmlns="http://www.w3.org/2000/svg">
<path d="M19.2378 2.89148L11.7778 8.99148L10.5678 7.95148L13.0478 6.52148C13.6178 6.19148 13.7178 5.41148 13.2578 4.95148L10.3078 2.00148C9.9178 1.61148 9.2878 1.61148 8.8978 2.00148C8.5078 2.39148 8.5078 3.02148 8.8978 3.41148L10.9278 5.44148L5.5278 8.55148C5.2978 8.68148 5.1378 8.90148 5.0678 9.15148L4.1078 12.6415C4.0378 12.9015 4.0678 13.1715 4.2078 13.4115L5.9478 16.4315C6.2278 16.9115 6.8378 17.0715 7.3178 16.8015C7.7978 16.5215 7.9578 15.9115 7.6878 15.4315L6.1578 12.7715L6.5178 11.4815L9.6778 13.2915L10.1178 21.2915C10.1478 21.8515 10.6078 22.2915 11.1678 22.2915C11.7278 22.2915 12.1878 21.8515 12.2178 21.2915L12.6678 12.2915L20.5378 4.33148C20.8978 3.97148 20.9178 3.40148 20.5878 3.01148C20.2478 2.61148 19.6478 2.56148 19.2378 2.89148Z" />
<path d="M5.1778 7.29148C6.28236 7.29148 7.1778 6.39605 7.1778 5.29148C7.1778 4.18691 6.28236 3.29148 5.1778 3.29148C4.07323 3.29148 3.1778 4.18691 3.1778 5.29148C3.1778 6.39605 4.07323 7.29148 5.1778 7.29148Z" />
</svg>
