<svg width="24" height="24" viewBox="0 0 24 24"  xmlns="http://www.w3.org/2000/svg">
<path d="M4.21765 5C4.21765 3.9 5.11765 3 6.21765 3C7.31765 3 8.21765 3.9 8.21765 5C8.21765 6.1 7.31765 7 6.21765 7C5.11765 7 4.21765 6.1 4.21765 5ZM13.2177 21C12.6577 21 12.1977 20.56 12.1677 20L11.7177 11L8.21765 10H2.21765C1.66765 10 1.21765 9.55 1.21765 9C1.21765 8.45 1.66765 8 2.21765 8H7.21765L13.4777 3.53C13.8977 3.23 14.4777 3.3 14.8177 3.69C15.1977 4.14 15.1177 4.81 14.6377 5.15L11.3577 7.5H14.2177L21.3077 3.41C21.7177 3.17 22.2377 3.26 22.5477 3.62C22.9077 4.05 22.8477 4.69 22.4077 5.03L14.7177 11L14.2677 20C14.2377 20.56 13.7777 21 13.2177 21Z" />
</svg>
