<svg width="24" height="24" viewBox="0 0 24 24"  xmlns="http://www.w3.org/2000/svg">
<path d="M14.0896 5.72231C13.5396 6.67231 13.8696 7.90231 14.8196 8.45231C15.7696 9.00231 16.9996 8.67231 17.5496 7.72231C18.0996 6.77231 17.7696 5.54231 16.8196 4.99231C15.8696 4.44231 14.6396 4.77231 14.0896 5.72231Z" />
<path d="M15.6596 10.1323C15.6596 10.1323 14.0296 9.19231 13.0596 8.63231C10.9296 7.39231 10.0496 4.80231 10.8796 2.56231C11.0496 2.10231 10.8696 1.59231 10.4496 1.35231C9.91956 1.05231 9.22956 1.28231 9.01956 1.85231C8.06956 4.36231 8.66956 7.20231 10.4796 9.12231L5.82956 17.1723C5.54956 17.6523 5.71956 18.2623 6.19956 18.5423C6.67956 18.8223 7.28956 18.6523 7.56956 18.1723L8.56956 16.4423L10.2996 17.4423L7.79956 21.7723C7.51956 22.2523 7.68956 22.8623 8.16956 23.1423C8.64956 23.4223 9.25956 23.2523 9.53956 22.7723L15.3296 12.7523C16.3096 14.0923 16.5896 15.8723 15.9896 17.4723C15.8196 17.9223 16.0096 18.4323 16.4196 18.6723C16.9496 18.9823 17.6396 18.7523 17.8596 18.1723C18.8296 15.5523 18.2696 12.3323 15.6596 10.1323Z" />
<path d="M12.5696 3.52231C13.2896 3.93231 14.1996 3.69231 14.6196 2.97231C15.0296 2.25231 14.7896 1.34231 14.0696 0.922311C13.3496 0.512311 12.4396 0.752311 12.0196 1.47231C11.6096 2.19231 11.8496 3.11231 12.5696 3.52231Z" />
</svg>
