<svg width="24" height="24" viewBox="0 0 24 24"  xmlns="http://www.w3.org/2000/svg">
<path d="M3.01997 15.6204C2.93997 18.0404 3.33997 19.9604 3.68997 20.3104C4.03997 20.6604 5.96997 21.0704 8.37997 20.9804L3.01997 15.6204Z" />
<path d="M13.08 3.28041C10.75 3.70041 8.28997 4.62041 6.45997 6.46041C4.62997 8.30041 3.69997 10.7504 3.27997 13.0804L10.91 20.7104C13.25 20.3004 15.7 19.3704 17.53 17.5304C19.36 15.6904 20.29 13.2404 20.71 10.9104L13.08 3.28041ZM14.8 10.6004L10.6 14.8004C10.21 15.1904 9.58997 15.1904 9.19997 14.8004C8.80997 14.4104 8.80997 13.7904 9.19997 13.4004L13.4 9.20041C13.79 8.81041 14.41 8.81041 14.8 9.20041C15.19 9.5904 15.19 10.2104 14.8 10.6004Z" />
<path d="M20.98 8.38041C21.06 5.96041 20.66 4.04041 20.31 3.69041C19.96 3.34041 18.03 2.93041 15.62 3.02041L20.98 8.38041Z" />
</svg>
