<svg width="24" height="24" viewBox="0 0 24 24"  xmlns="http://www.w3.org/2000/svg">
<path d="M19.5999 2.48971C17.2599 0.149714 12.9799 0.619713 10.0499 3.54971C8.44992 5.14971 7.52992 7.41971 7.50992 9.00971C7.48992 10.5897 7.76992 12.8997 6.15992 14.5097L1.91992 18.7497L3.33992 20.1697L7.57992 15.9297C9.18992 14.3197 11.4999 14.5997 13.0799 14.5797C14.6599 14.5597 16.9399 13.6397 18.5399 12.0397C21.4599 9.10971 21.9399 4.82971 19.5999 2.48971ZM10.3999 11.6797C8.86992 10.1497 9.34992 7.06971 11.4599 4.95971C13.5699 2.84971 16.6399 2.36971 18.1799 3.89971C19.7099 5.42971 19.2299 8.50971 17.1199 10.6197C15.0099 12.7297 11.9399 13.2097 10.3999 11.6797Z" />
<path d="M18.0799 16.9997C18.6099 16.9997 19.1199 17.2097 19.4899 17.5897C20.2699 18.3697 20.2699 19.6397 19.4899 20.4197C19.1199 20.7897 18.6099 20.9997 18.0799 20.9997C17.5499 20.9997 17.0399 20.7897 16.6699 20.4097C15.8899 19.6297 15.8899 18.3597 16.6699 17.5797C17.0399 17.2097 17.5499 16.9997 18.0799 16.9997ZM18.0799 14.9997C17.0599 14.9997 16.0299 15.3897 15.2499 16.1697C13.6899 17.7297 13.6899 20.2597 15.2499 21.8297C16.0299 22.6097 17.0599 22.9997 18.0799 22.9997C19.0999 22.9997 20.1299 22.6097 20.9099 21.8297C22.4699 20.2697 22.4699 17.7397 20.9099 16.1697C20.1299 15.3897 19.0999 14.9997 18.0799 14.9997Z" />
</svg>
