<svg width="24" height="24" viewBox="0 0 24 24"  xmlns="http://www.w3.org/2000/svg">
<path d="M17.09 11.0008H21.95C21.79 9.39078 21.24 7.89078 20.41 6.60078C18.68 7.43078 17.42 9.05078 17.09 11.0008Z" />
<path d="M6.90999 11.0008C6.57999 9.05078 5.31999 7.43078 3.58999 6.60078C2.75999 7.89078 2.20999 9.39078 2.04999 11.0008H6.90999Z" />
<path d="M15.07 11.0008C15.39 8.41078 16.95 6.21078 19.13 5.00078C17.53 3.37078 15.39 2.29078 13 2.05078V11.0008H15.07Z" />
<path d="M8.92999 11.0008H11V2.05078C8.60999 2.29078 6.45999 3.37078 4.86999 5.00078C7.04999 6.21078 8.60999 8.41078 8.92999 11.0008Z" />
<path d="M15.07 13.0008H13V21.9508C15.39 21.7108 17.54 20.6308 19.13 19.0008C16.95 17.7908 15.39 15.5908 15.07 13.0008Z" />
<path d="M3.58999 17.4008C5.30999 16.5708 6.57999 14.9408 6.90999 13.0008H2.04999C2.20999 14.6108 2.75999 16.1108 3.58999 17.4008Z" />
<path d="M17.09 13.0008C17.42 14.9508 18.68 16.5708 20.41 17.4008C21.24 16.1108 21.79 14.6108 21.95 13.0008H17.09Z" />
<path d="M8.92999 13.0008C8.60999 15.5908 7.04999 17.7908 4.86999 19.0008C6.46999 20.6308 8.60999 21.7108 11 21.9508V13.0008H8.92999Z" />
</svg>
