<svg width="24" height="24" viewBox="0 0 24 24"  xmlns="http://www.w3.org/2000/svg">
<path d="M6.035 3.98539C3.615 5.81539 2.035 8.70539 2.035 11.9754C2.035 13.4354 2.355 14.8254 2.925 16.0854L6.035 14.2854V3.98539Z" />
<path d="M11.035 11.3954V2.02539C9.975 2.13539 8.965 2.40539 8.035 2.81539V13.1354L11.035 11.3954Z" />
<path d="M12.035 13.1254L3.925 17.8054C4.535 18.6454 5.265 19.3954 6.105 20.0054L15.035 14.8654L12.035 13.1254Z" />
<path d="M13.035 7.93539V11.3954L21.145 16.0754C21.565 15.1454 21.845 14.1454 21.965 13.0954L13.035 7.93539Z" />
<path d="M8.105 21.1754C9.315 21.6854 10.635 21.9754 12.035 21.9754C15.375 21.9754 18.325 20.3254 20.145 17.8154L17.035 16.0154L8.105 21.1754Z" />
<path d="M21.955 10.7854C21.405 6.15539 17.695 2.48539 13.035 2.02539V5.62539L21.955 10.7854Z" />
</svg>
