<svg width="24" height="24" viewBox="0 0 24 24"  xmlns="http://www.w3.org/2000/svg">
<path d="M3 8.71553C3 8.39553 3.15 8.09553 3.41 7.90553L7.14 5.18553C7.54 4.89553 8.09 4.93553 8.44 5.28553L12.22 9.06553L19.42 3.83553C20.07 3.35553 21 3.82553 21 4.64553C21 4.96553 20.85 5.26553 20.59 5.45553L12.69 11.1855C12.29 11.4755 11.74 11.4355 11.4 11.0855L7.62 7.30553L4.59 9.52553C3.93 10.0055 3 9.53553 3 8.71553ZM21 15.6855C21 15.1355 20.55 14.6855 20 14.6855H16.65C16.42 14.6855 16.2 14.7655 16.03 14.9055L12.13 18.0255L6.6 12.6755C6.25 12.3355 5.72 12.2955 5.33 12.5755L3.43 13.9255C3.16 14.1155 3 14.4255 3 14.7455C3 15.5555 3.92 16.0355 4.58 15.5555L5.8 14.6855L11.37 20.0755C11.73 20.4255 12.3 20.4555 12.69 20.1355L17 16.6855H20C20.55 16.6855 21 16.2355 21 15.6855Z" />
</svg>
