<svg width="24" height="24" viewBox="0 0 24 24"  xmlns="http://www.w3.org/2000/svg">
<path d="M2.77599 14.7649L2.68599 14.6749C2.29599 14.2849 2.29599 13.6549 2.68599 13.2649L8.77599 7.16489C9.16599 6.77489 9.79599 6.77489 10.186 7.16489L13.476 10.4549L19.866 3.27489C20.246 2.84489 20.916 2.83489 21.316 3.23489C21.686 3.61489 21.706 4.21489 21.356 4.60489L14.186 12.6749C13.806 13.1049 13.146 13.1249 12.736 12.7149L9.48599 9.46489L4.18599 14.7649C3.80599 15.1549 3.16599 15.1549 2.77599 14.7649ZM4.18599 20.7649L9.48599 15.4649L12.736 18.7149C13.146 19.1249 13.806 19.1049 14.186 18.6749L21.356 10.6049C21.706 10.2149 21.686 9.61489 21.316 9.23489C20.916 8.83489 20.246 8.84489 19.866 9.27489L13.476 16.4549L10.186 13.1649C9.79599 12.7749 9.16599 12.7749 8.77599 13.1649L2.68599 19.2649C2.29599 19.6549 2.29599 20.2849 2.68599 20.6749L2.77599 20.7649C3.16599 21.1549 3.80599 21.1549 4.18599 20.7649Z" />
</svg>
