<svg width="24" height="24" viewBox="0 0 24 24"  xmlns="http://www.w3.org/2000/svg">
<path d="M6 20C7.1 20 8 19.1 8 18V9H4V18C4 19.1 4.9 20 6 20Z" />
<path d="M4 8H8V6C8 4.9 7.1 4 6 4C4.9 4 4 4.9 4 6V8Z" />
<path d="M10 11H14V9C14 7.9 13.1 7 12 7C10.9 7 10 7.9 10 9V11Z" />
<path d="M16 12V14H20V12C20 10.9 19.1 10 18 10C16.9 10 16 10.9 16 12Z" />
<path d="M18 20C19.1 20 20 19.1 20 18V15H16V18C16 19.1 16.9 20 18 20Z" />
<path d="M12 20C13.1 20 14 19.1 14 18V12H10V18C10 19.1 10.9 20 12 20Z" />
</svg>
