<svg width="24" height="24" viewBox="0 0 24 24"  xmlns="http://www.w3.org/2000/svg">
<path d="M6.11 5.35247L3.72 6.54247C3.39 6.70247 3 6.46247 3 6.09247V3.71247C3 3.34247 3.39 3.10247 3.72 3.26247L6.1 4.45247C6.47 4.64247 6.47 5.16247 6.11 5.35247ZM18 3.71247V6.09247C18 6.46247 18.39 6.70247 18.72 6.54247L21.1 5.35247C21.47 5.17247 21.47 4.64247 21.1 4.46247L18.72 3.27247C18.39 3.10247 18 3.34247 18 3.71247ZM11 2.71247V5.09247C11 5.46247 11.39 5.70247 11.72 5.54247L14.1 4.35247C14.47 4.17247 14.47 3.64247 14.1 3.46247L11.72 2.27247C11.39 2.10247 11 2.34247 11 2.71247ZM5 9.94247C6.38 10.4325 8.77 10.9025 12 10.9025C15.23 10.9025 17.62 10.4325 19 9.94247C19 9.76247 16.22 8.90247 12 8.90247C7.78 8.90247 5 9.76247 5 9.94247ZM14 16.9025H10C9.45 16.9025 9 17.3525 9 17.9025V21.7825C4.94 21.3925 2 20.2425 2 18.9025V9.90247C2 8.24247 6.48 6.90247 12 6.90247C17.52 6.90247 22 8.24247 22 9.90247V18.9025C22 20.2425 19.06 21.3825 15 21.7725V17.9025C15 17.3525 14.55 16.9025 14 16.9025Z" />
</svg>
