<svg width="24" height="24" viewBox="0 0 24 24"  xmlns="http://www.w3.org/2000/svg">
<path d="M21.79 17.8597L23.79 19.8597H24V17.8597H21.79ZM13 8.98969V6.85969L17 10.5997L15.72 11.7897L20.9 16.9697L22 15.8597V3.87969H7.8L12.93 9.00969C12.96 8.99969 12.98 8.98969 13 8.98969ZM1.11 2.83969L2 3.73969V15.8797L4 17.8697L0 17.8597V19.8597H18.13L20.84 22.5697L22.25 21.1597L2.52 1.42969L1.11 2.83969ZM9.08 10.8097L10.67 12.3997C9.13 12.7797 7.96 13.5697 7 14.8597C7.31 13.3797 7.94 11.9297 9.08 10.8097Z" />
</svg>
