<svg width="24" height="24" viewBox="0 0 24 24"  xmlns="http://www.w3.org/2000/svg">
<path d="M21.8983 7.89L20.8483 4.52C20.6283 3.62 19.8483 3 18.9383 3H5.04832C4.14832 3 3.35832 3.63 3.14832 4.52L2.09832 7.89C1.63832 9.86 2.94832 11 2.99832 11.06V19C2.99832 20.1 3.89832 21 4.99832 21H18.9983C20.0983 21 20.9983 20.1 20.9983 19V11.06C22.1183 9.94 22.0883 8.65 21.8983 7.89ZM12.9983 5H14.9583L15.4983 8.52C15.5883 9.23 15.1083 10 14.2183 10C13.5483 10 12.9983 9.41 12.9983 8.69V5ZM6.43832 8.86C6.35832 9.51 5.83832 10 5.22832 10C4.29832 10 3.87832 9.03 4.03832 8.36L5.04832 5H7.01832L6.43832 8.86ZM10.9983 8.69C10.9983 9.41 10.4483 10 9.70832 10C8.95832 10 8.40832 9.3 8.48832 8.52L9.03832 5H10.9983V8.69ZM18.7683 10C18.1583 10 17.6283 9.51 17.5583 8.86L16.9783 5L18.9083 4.99L19.9583 8.36C20.1183 9.03 19.7083 10 18.7683 10Z" />
</svg>
