<svg width="24" height="24" viewBox="0 0 24 24"  xmlns="http://www.w3.org/2000/svg">
<path d="M18.9322 8C16.7222 4.18 11.8222 2.87 8.00221 5.07C6.59221 5.89 5.52221 7.07 4.84221 8.44C4.74221 6.69 4.94221 4.94 5.43221 3.27C5.61221 2.63 5.14221 2 4.48221 2H4.47221C4.04221 2 3.64221 2.28 3.52221 2.7C2.24221 7.01 2.65221 11.81 5.07221 16C6.17221 17.91 7.95221 19.19 9.93221 19.72C11.9122 20.25 14.0922 20.03 16.0022 18.93C17.4122 18.11 18.4822 16.93 19.1622 15.56C19.2622 17.31 19.0722 19.06 18.5822 20.74C18.4022 21.37 18.8722 22 19.5322 22C19.9722 22 20.3622 21.72 20.4822 21.3C21.7522 16.99 21.3522 12.19 18.9322 8ZM15.0022 17.2C12.1322 18.85 8.46221 17.87 6.80221 15C6.69221 14.8 6.59221 14.6 6.50221 14.4C5.30221 11.64 6.33221 8.34 9.00221 6.8C11.8622 5.15 15.5422 6.13 17.2022 9C17.3122 9.2 17.4122 9.4 17.5022 9.6C18.7022 12.36 17.6722 15.66 15.0022 17.2ZM12.0022 10C13.1022 10 14.0022 10.9 14.0022 12C14.0022 13.1 13.1022 14 12.0022 14C10.9022 14 10.0022 13.1 10.0022 12C10.0022 10.9 10.9022 10 12.0022 10ZM12.0022 8C9.79221 8 8.00221 9.79 8.00221 12C8.00221 14.21 9.79221 16 12.0022 16C14.2122 16 16.0022 14.21 16.0022 12C16.0022 9.79 14.2122 8 12.0022 8Z" />
</svg>
