<svg width="24" height="24" viewBox="0 0 24 24"  xmlns="http://www.w3.org/2000/svg">
<path d="M5.00124 15.419L9.58124 19.999C9.97124 20.389 10.6112 20.389 11.0012 19.999C11.3912 19.609 11.3912 18.969 11.0012 18.579L8.12124 15.709H18.2912C18.8412 15.709 19.2912 15.259 19.2912 14.709V4.70898C19.2912 4.15898 18.8412 3.70898 18.2912 3.70898C17.7412 3.70898 17.2912 4.15898 17.2912 4.70898V13.709H8.12124L11.0012 10.839C11.3912 10.449 11.3912 9.80898 11.0012 9.41898C10.6112 9.02898 9.97124 9.02898 9.58124 9.41898L5.00124 13.999C4.61124 14.389 4.61124 15.029 5.00124 15.419Z" />
</svg>
