<svg width="24" height="24" viewBox="0 0 24 24"  xmlns="http://www.w3.org/2000/svg">
<path d="M7.60978 12.73L4.39978 7.72C3.91978 6.97 4.44978 6 5.32978 6C5.71978 6 6.06978 6.2 6.27978 6.53L9.03978 10.99H9.15978L11.8998 6.54C12.0998 6.2 12.4598 6 12.8498 6C13.7298 6 14.2698 6.98 13.7898 7.72L10.5598 12.72L14.1098 18.27C14.5998 19.02 14.0598 20 13.1798 20C12.7998 20 12.4398 19.8 12.2298 19.48L9.15978 14.59H9.03978L5.96978 19.48C5.75978 19.8 5.40978 20 5.01978 20C4.13978 20 3.59978 19.03 4.07978 18.28L7.60978 12.73ZM20.0998 8.5C20.0998 8.22 19.8798 8 19.5998 8H17.0998V7H19.0998C19.6498 7 20.0998 6.55 20.0998 6V5C20.0998 4.45 19.6498 4 19.0998 4H16.5998C16.3198 4 16.0998 4.22 16.0998 4.5C16.0998 4.78 16.3198 5 16.5998 5H19.0998V6H17.0998C16.5498 6 16.0998 6.45 16.0998 7V8C16.0998 8.55 16.5498 9 17.0998 9H19.5998C19.8798 9 20.0998 8.78 20.0998 8.5Z" />
</svg>
