<svg width="24" height="24" viewBox="0 0 24 24"  xmlns="http://www.w3.org/2000/svg">
<path opacity="0.3" d="M9.5 11C10.0523 11 10.5 10.5523 10.5 10C10.5 9.44772 10.0523 9 9.5 9C8.94772 9 8.5 9.44772 8.5 10C8.5 10.5523 8.94772 11 9.5 11Z" />
<path opacity="0.3" d="M11.5 17.2098C11.5 15.3298 14.48 14.5098 16 14.5098C16.88 14.5098 18.24 14.7798 19.24 15.3798C19.72 14.3598 19.99 13.2198 19.99 12.0098C19.99 7.59977 16.4 4.00977 11.99 4.00977C7.57999 4.00977 3.98999 7.59977 3.98999 12.0098C3.98999 13.2398 4.27999 14.3998 4.76999 15.4398C6.10999 14.4598 8.19999 14.0098 9.49999 14.0098C9.93999 14.0098 10.47 14.0598 11.03 14.1698C10.4 14.7398 9.96999 15.3898 9.72999 16.0298C9.64999 16.0298 9.57999 16.0198 9.49999 16.0198C8.11999 16.0198 6.51999 16.5898 5.83999 17.1298C7.20999 18.7798 9.22999 19.8598 11.5 19.9898V17.2098ZM16 8.99977C17.11 8.99977 18 9.88977 18 10.9998C18 12.1098 17.11 12.9998 16 12.9998C14.89 12.9998 14 12.1098 14 10.9998C13.99 9.88977 14.89 8.99977 16 8.99977ZM9.49999 12.9998C7.84999 12.9998 6.49999 11.6498 6.49999 9.99977C6.49999 8.34977 7.84999 6.99977 9.49999 6.99977C11.15 6.99977 12.5 8.34977 12.5 9.99977C12.5 11.6498 11.15 12.9998 9.49999 12.9998Z" />
<path d="M12.5 9.99977C12.5 8.34977 11.15 6.99977 9.49999 6.99977C7.84999 6.99977 6.49999 8.34977 6.49999 9.99977C6.49999 11.6498 7.84999 12.9998 9.49999 12.9998C11.15 12.9998 12.5 11.6498 12.5 9.99977ZM9.49999 10.9998C8.94999 10.9998 8.49999 10.5498 8.49999 9.99977C8.49999 9.44977 8.94999 8.99977 9.49999 8.99977C10.05 8.99977 10.5 9.44977 10.5 9.99977C10.5 10.5498 10.05 10.9998 9.49999 10.9998ZM16 12.9998C17.11 12.9998 18 12.1098 18 10.9998C18 9.88977 17.11 8.99977 16 8.99977C14.89 8.99977 13.99 9.88977 14 10.9998C14 12.1098 14.89 12.9998 16 12.9998ZM11.99 2.00977C6.46999 2.00977 1.98999 6.48977 1.98999 12.0098C1.98999 17.5298 6.46999 22.0098 11.99 22.0098C17.51 22.0098 21.99 17.5298 21.99 12.0098C21.99 6.48977 17.51 2.00977 11.99 2.00977ZM5.83999 17.1198C6.51999 16.5798 8.10999 16.0098 9.49999 16.0098C9.56999 16.0098 9.64999 16.0198 9.72999 16.0198C9.96999 15.3798 10.4 14.7298 11.03 14.1598C10.47 14.0598 9.93999 13.9998 9.49999 13.9998C8.19999 13.9998 6.10999 14.4498 4.76999 15.4298C4.26999 14.3898 3.98999 13.2298 3.98999 11.9998C3.98999 7.58977 7.57999 3.99977 11.99 3.99977C16.4 3.99977 19.99 7.58977 19.99 11.9998C19.99 13.1998 19.72 14.3398 19.24 15.3698C18.24 14.7798 16.88 14.4998 16 14.4998C14.48 14.4998 11.5 15.3098 11.5 17.1998V19.9798C9.22999 19.8498 7.20999 18.7698 5.83999 17.1198Z" />
</svg>
