<svg width="24" height="24" viewBox="0 0 24 24"  xmlns="http://www.w3.org/2000/svg">
<path d="M1.78241 6.00873L0.722412 4.94873L4.22241 1.44873L7.72241 4.94873L6.66241 6.00873L5.04241 4.38873C4.83241 5.20873 4.72241 6.06873 4.72241 6.94873C4.72241 9.36873 5.54241 11.5987 6.92241 13.3787L5.85241 14.4487C4.21241 12.3987 3.22241 9.78873 3.22241 6.94873C3.22241 6.02873 3.32241 5.12873 3.52241 4.26873L1.78241 6.00873ZM13.5724 12.0687L10.8924 6.69873C10.5224 5.95873 9.62241 5.65873 8.88241 6.02873C8.13241 6.40873 7.83241 7.30873 8.20241 8.04873L13.0124 17.6487L9.77241 18.4487C9.44241 18.5387 9.18241 18.7787 9.07241 19.1087L8.72241 20.2287L14.9124 22.4787C15.4124 22.6487 16.1924 22.4987 16.6624 22.2587L22.1724 19.5087C23.0624 19.0587 23.4924 18.0287 23.1724 17.0887L21.7424 12.8187C21.4724 11.9987 20.7024 11.4487 19.8424 11.4487H15.2824C14.9724 11.4487 14.6624 11.5187 14.3924 11.6587L13.5724 12.0687Z" />
</svg>
