<svg width="24" height="24" viewBox="0 0 24 24"  xmlns="http://www.w3.org/2000/svg">
<path d="M8.47962 18.9085C8.21962 18.3085 8.56962 17.6285 9.20962 17.4985L12.7896 16.7885L8.43962 6.9785C8.09962 6.2185 8.43962 5.3385 9.19962 4.9985C9.95962 4.6585 10.8396 4.9985 11.1796 5.7585L13.6096 11.2485L14.4496 10.8785C14.7296 10.7485 15.0396 10.6985 15.3496 10.7085L19.9096 10.9185C20.7696 10.9585 21.5096 11.5485 21.7396 12.3685L22.9696 16.6985C23.2396 17.6585 22.7696 18.6685 21.8596 19.0685L16.2296 21.5585C15.7496 21.7685 14.9696 21.8885 14.4696 21.6985L9.01962 19.4285C8.77962 19.3385 8.57962 19.1485 8.47962 18.9085ZM5.23962 2.5385C3.91962 4.4585 3.14962 6.7985 3.14962 9.3085C3.14962 10.2285 3.24962 11.1285 3.44962 11.9885L2.25962 10.7985C1.96962 10.5085 1.48962 10.4785 1.18962 10.7585C0.879622 11.0485 0.879622 11.5385 1.16962 11.8385L3.42962 14.0985C3.81962 14.4885 4.44962 14.4885 4.83962 14.0985L7.07962 11.8585C7.36962 11.5685 7.39962 11.0885 7.11962 10.7885C6.82962 10.4785 6.33962 10.4785 6.03962 10.7685L4.94962 11.8585C4.75962 11.0485 4.64962 10.1885 4.64962 9.3085C4.64962 7.1085 5.32962 5.0685 6.47962 3.3785C6.67962 3.0785 6.64962 2.6785 6.38962 2.4285C6.05962 2.0885 5.50962 2.1485 5.23962 2.5385Z" />
</svg>
