<svg width="24" height="24" viewBox="0 0 24 24"  xmlns="http://www.w3.org/2000/svg">
<path d="M3.40001 12.0701C3.20001 11.2101 3.10001 10.3101 3.10001 9.39014C3.10001 6.55014 4.09001 3.94014 5.73001 1.89014L6.80001 2.96014C5.42001 4.74014 4.60001 6.97014 4.60001 9.39014C4.60001 10.2701 4.71001 11.1301 4.92001 11.9501L6.54001 10.3301L7.60001 11.3901L4.10001 14.8901L0.600006 11.3901L1.66001 10.3301L3.40001 12.0701Z" />
<path d="M21.31 11.0701L23.4 18.4601L15.17 22.1101L8.33001 19.2601L8.94001 17.6401L12.74 16.8901L8.39001 7.06014C8.05001 6.30014 8.39001 5.42014 9.15001 5.08014C9.91001 4.74014 10.79 5.08014 11.13 5.84014L13.56 11.3301L14.82 10.7701L21.31 11.0701Z" />
</svg>
