<svg width="24" height="24" viewBox="0 0 24 24"  xmlns="http://www.w3.org/2000/svg">
<path d="M1.10001 3.39014H3.12001C1.23001 5.71014 0.100006 8.67014 0.100006 11.8901C0.100006 15.1101 1.23001 18.0701 3.12001 20.3901H1.10001V21.8901H6.10001V16.8901H4.60001V19.8001C2.74001 17.6901 1.60001 14.9201 1.60001 11.8901C1.60001 8.86014 2.74001 6.10014 4.60001 3.98014V6.89014H6.10001V1.89014H1.10001V3.39014ZM21.81 11.0701L23.9 18.4601L15.67 22.1101L8.83001 19.2601L9.44001 17.6401L13.24 16.8901L8.89001 7.06014C8.55001 6.30014 8.89001 5.42014 9.65001 5.08014C10.41 4.74014 11.29 5.08014 11.63 5.84014L14.06 11.3301L15.32 10.7701L21.81 11.0701Z" />
</svg>
