<svg width="24" height="24" viewBox="0 0 24 24"  xmlns="http://www.w3.org/2000/svg">
<path d="M13 6.62148L13.88 7.50148C14.27 7.89148 14.9 7.89148 15.29 7.50148C15.68 7.11148 15.68 6.48148 15.29 6.09148L12.7 3.50148C12.31 3.11148 11.68 3.11148 11.29 3.50148L8.71 6.09148C8.32 6.48148 8.32 7.11148 8.71 7.50148C9.1 7.89148 9.73 7.89148 10.12 7.50148L11 6.62148V10.8915C8.72 11.3515 7 13.3715 7 15.7915C7 18.5515 9.24 20.7915 12 20.7915C14.76 20.7915 17 18.5515 17 15.7915C17 13.3715 15.28 11.3515 13 10.8915V6.62148Z" />
</svg>
