<svg width="24" height="24" viewBox="0 0 24 24"  xmlns="http://www.w3.org/2000/svg">
<path d="M19.5 18.2949C20.05 18.2949 20.5 17.8449 20.5 17.2949V16.2949H21.5C22.05 16.2949 22.5 15.8449 22.5 15.2949C22.5 14.7449 22.05 14.2949 21.5 14.2949H20.5V13.2949C20.5 12.7449 20.05 12.2949 19.5 12.2949C18.95 12.2949 18.5 12.7449 18.5 13.2949V14.2949H17.5C16.95 14.2949 16.5 14.7449 16.5 15.2949C16.5 15.8449 16.95 16.2949 17.5 16.2949H18.5V17.2949C18.5 17.8449 18.95 18.2949 19.5 18.2949ZM5.56 9.23492L3.5 8.29492L5.56 7.35492L6.5 5.29492L7.44 7.35492L9.5 8.29492L7.44 9.23492L6.5 11.2949L5.56 9.23492ZM6.5 21.2949L7.44 19.2349L9.5 18.2949L7.44 17.3549L6.5 15.2949L5.56 17.3549L3.5 18.2949L5.56 19.2349L6.5 21.2949ZM2.87 12.6649L1.5 13.2949L2.87 13.9249L3.5 15.2949L4.13 13.9249L5.5 13.2949L4.13 12.6649L3.5 11.2949L2.87 12.6649ZM17.5 20.7049C17.5 21.4849 16.66 21.9549 15.99 21.5649C12.71 19.6549 10.5 16.0849 10.5 12.2949C10.5 9.56492 11.58 7.02492 13.25 5.04492L11.35 3.14492C11.04 2.83492 11.26 2.29492 11.71 2.29492H17C17.28 2.29492 17.5 2.51492 17.5 2.79492V8.08492C17.5 8.53492 16.96 8.75492 16.65 8.43492L14.68 6.46492C13.34 8.11492 12.5 10.1749 12.5 12.2949C12.5 15.4249 14.36 18.3049 17.01 19.8449C17.31 20.0249 17.5 20.3549 17.5 20.7049Z" />
</svg>
