<svg width="24" height="24" viewBox="0 0 24 24"  xmlns="http://www.w3.org/2000/svg">
<path d="M8.06 9.23492L6 8.29492L8.06 7.35492L9 5.29492L9.94 7.35492L12 8.29492L9.94 9.23492L9 11.2949L8.06 9.23492ZM9 21.2949L9.94 19.2349L12 18.2949L9.94 17.3549L9 15.2949L8.06 17.3549L6 18.2949L8.06 19.2349L9 21.2949ZM5.37 12.6649L4 13.2949L5.37 13.9249L6 15.2949L6.63 13.9249L8 13.2949L6.63 12.6649L6 11.2949L5.37 12.6649ZM20 20.7049C20 21.4849 19.16 21.9549 18.49 21.5649C15.21 19.6549 13 16.0849 13 12.2949C13 9.56492 14.08 7.02492 15.75 5.04492L13.85 3.14492C13.54 2.83492 13.76 2.29492 14.21 2.29492H19.5C19.78 2.29492 20 2.51492 20 2.79492V8.08492C20 8.53492 19.46 8.75492 19.15 8.43492L17.18 6.46492C15.84 8.11492 15 10.1749 15 12.2949C15 15.4249 16.86 18.3049 19.51 19.8449C19.81 20.0249 20 20.3549 20 20.7049Z" />
</svg>
