<svg width="24" height="24" viewBox="0 0 24 24"  xmlns="http://www.w3.org/2000/svg">
<path d="M10.5699 5.77969V3.68969C9.76993 3.89969 9.01993 4.22969 8.33993 4.64969L9.79993 6.10969C10.0499 5.98969 10.2999 5.86969 10.5699 5.77969ZM3.42993 4.83969L5.78993 7.19969C5.01993 8.41969 4.56993 9.86969 4.56993 11.4297C4.56993 13.6397 5.47993 15.6297 6.92993 17.0697L4.56993 19.4297H10.5699V13.4297L8.32993 15.6697C7.24993 14.5797 6.56993 13.0897 6.56993 11.4297C6.56993 10.4297 6.81993 9.48969 7.24993 8.65969L15.3299 16.7397C15.0799 16.8697 14.8299 16.9897 14.5599 17.0797V19.1697C15.3599 18.9597 16.1099 18.6297 16.7899 18.2097L19.1499 20.5697L20.4199 19.2997L4.70993 3.56969L3.42993 4.83969ZM20.5699 3.42969H14.5699V9.42969L16.8099 7.18969C17.8899 8.27969 18.5699 9.76969 18.5699 11.4297C18.5699 12.4297 18.3199 13.3697 17.8899 14.1997L19.3499 15.6597C20.1199 14.4397 20.5699 12.9897 20.5699 11.4297C20.5699 9.21969 19.6599 7.22969 18.2099 5.78969L20.5699 3.42969Z" />
</svg>
