<svg width="24" height="24" viewBox="0 0 24 24"  xmlns="http://www.w3.org/2000/svg">
<path d="M10.4601 5.67031V3.58031C9.80007 3.75031 9.17007 4.01031 8.58007 4.33031L10.0801 5.83031C10.2101 5.78031 10.3301 5.72031 10.4601 5.67031ZM20.4601 11.3203C20.4601 9.11031 19.5501 7.12031 18.1001 5.68031L20.4601 3.32031H14.4601V9.32031L16.7001 7.08031C17.7801 8.17031 18.4601 9.66031 18.4601 11.3203C18.4601 12.1703 18.2701 12.9703 17.9501 13.7003L19.4501 15.2003C20.0901 14.0603 20.4601 12.7303 20.4601 11.3203ZM4.73007 3.32031L3.32007 4.73031L5.68007 7.09031C4.91007 8.31031 4.46007 9.76031 4.46007 11.3203C4.46007 13.5303 5.37007 15.5203 6.82007 16.9603L4.46007 19.3203H10.4601V13.3203L8.22007 15.5603C7.14007 14.4703 6.46007 12.9803 6.46007 11.3203C6.46007 10.3203 6.71007 9.38031 7.14007 8.55031L15.2201 16.6303C14.9701 16.7603 14.7201 16.8703 14.4601 16.9703V19.0603C15.2601 18.8503 16.0101 18.5203 16.6901 18.1003L19.2701 20.6803L20.6801 19.2703L4.73007 3.32031Z" />
</svg>
