<svg width="24" height="24" viewBox="0 0 24 24"  xmlns="http://www.w3.org/2000/svg">
<path d="M22.2515 10V2C22.2515 1.45 21.8015 1 21.2515 1H15.2515C14.7015 1 14.2515 1.45 14.2515 2V10C14.2515 11.86 15.5315 13.41 17.2515 13.86V21H16.2515C15.7015 21 15.2515 21.45 15.2515 22C15.2515 22.55 15.7015 23 16.2515 23H20.2515C20.8015 23 21.2515 22.55 21.2515 22C21.2515 21.45 20.8015 21 20.2515 21H19.2515V13.86C20.9715 13.41 22.2515 11.86 22.2515 10ZM20.2515 3V6H16.2515V3H20.2515ZM10.1115 9H8.25151V8H10.1115C11.4215 8 12.6115 7.06 12.7415 5.76C12.8915 4.26 11.7215 3 10.2515 3H8.25151V2C8.25151 1.45 7.80151 1 7.25151 1C6.70151 1 6.25151 1.45 6.25151 2V3H4.39151C3.08151 3 1.89151 3.94 1.76151 5.24C1.61151 6.74 2.78151 8 4.25151 8H6.25151V9H4.39151C3.08151 9 1.89151 9.94 1.76151 11.24C1.61151 12.74 2.78151 14 4.25151 14H6.25151V22C6.25151 22.55 6.70151 23 7.25151 23C7.80151 23 8.25151 22.55 8.25151 22V14H10.2515C11.7215 14 12.8915 12.74 12.7415 11.24C12.6115 9.94 11.4215 9 10.1115 9Z" />
</svg>
