<svg width="24" height="24" viewBox="0 0 24 24"  xmlns="http://www.w3.org/2000/svg">
<path d="M2.367 19C2.847 19 3.277 18.7 3.427 18.25L4.437 15.42H10.087L11.077 18.24C11.237 18.7 11.667 19 12.147 19C12.937 19 13.477 18.21 13.197 17.48L8.947 6.17C8.687 5.47 8.007 5 7.257 5C6.507 5 5.827 5.47 5.567 6.17L1.317 17.48C1.037 18.21 1.587 19 2.367 19ZM7.197 7.6H7.317L9.347 13.39H5.167L7.197 7.6ZM14.757 12C14.757 11.45 15.207 11 15.757 11H21.757C22.307 11 22.757 11.45 22.757 12C22.757 12.55 22.307 13 21.757 13H15.757C15.207 13 14.757 12.55 14.757 12Z" />
</svg>
