<svg width="24" height="24" viewBox="0 0 24 24"  xmlns="http://www.w3.org/2000/svg">
<path d="M19.7544 18.004L17.9644 16.214C17.6444 15.894 17.1044 16.114 17.1044 16.564V17.354H5.10437C4.55437 17.354 4.10437 17.804 4.10437 18.354C4.10437 18.904 4.55437 19.354 5.10437 19.354H17.1044V20.144C17.1044 20.594 17.6444 20.814 17.9544 20.494L19.7444 18.704C19.9444 18.514 19.9444 18.194 19.7544 18.004ZM8.60437 12.154H13.6044L14.2644 13.754C14.4144 14.114 14.7644 14.354 15.1544 14.354C15.8444 14.354 16.3044 13.644 16.0344 13.014L12.1544 4.044C11.9744 3.624 11.5644 3.354 11.1044 3.354C10.6444 3.354 10.2344 3.624 10.0544 4.044L6.17437 13.014C5.90437 13.644 6.37437 14.354 7.06437 14.354C7.45437 14.354 7.80437 14.114 7.95437 13.754L8.60437 12.154ZM11.1044 5.334L12.9744 10.354H9.23437L11.1044 5.334Z" />
</svg>
