<svg width="24" height="24" viewBox="0 0 24 24"  xmlns="http://www.w3.org/2000/svg">
<path d="M15.1365 5.10498C14.6765 5.10498 14.2665 5.37498 14.0865 5.79498L10.2065 14.765C9.9365 15.395 10.4065 16.105 11.0965 16.105C11.4865 16.105 11.8365 15.865 11.9865 15.505L12.6465 13.905H17.6465L18.3065 15.505C18.4565 15.865 18.8065 16.105 19.1965 16.105C19.8865 16.105 20.3465 15.395 20.0765 14.765L16.1965 5.79498C16.0065 5.37498 15.5965 5.10498 15.1365 5.10498ZM13.2665 12.105L15.1365 7.08498L17.0065 12.105H13.2665ZM6.48651 19.745L8.27651 17.955C8.59651 17.645 8.3765 17.105 7.92651 17.105H7.13651V5.10498C7.13651 4.55498 6.68651 4.10498 6.13651 4.10498C5.58651 4.10498 5.13651 4.54498 5.13651 5.10498V17.105H4.34651C3.89651 17.105 3.67651 17.645 3.99651 17.955L5.78651 19.745C5.97651 19.945 6.2965 19.945 6.48651 19.745Z" />
</svg>
