<svg width="24" height="24" viewBox="0 0 24 24"  xmlns="http://www.w3.org/2000/svg">
<path d="M12.949 2.75235L7.40898 8.29235C7.03898 8.66235 6.82898 9.17235 6.82898 9.70235V19.6924C6.82898 20.7924 7.72898 21.6924 8.82898 21.6924H17.829C18.629 21.6924 19.349 21.2124 19.669 20.4824L22.929 12.8724C23.769 10.8924 22.319 8.69235 20.169 8.69235H14.519L15.469 4.11235C15.569 3.61235 15.419 3.10235 15.059 2.74235C14.469 2.16235 13.529 2.16235 12.949 2.75235ZM2.82898 21.6924C3.92898 21.6924 4.82898 20.7924 4.82898 19.6924V11.6924C4.82898 10.5924 3.92898 9.69235 2.82898 9.69235C1.72898 9.69235 0.828979 10.5924 0.828979 11.6924V19.6924C0.828979 20.7924 1.72898 21.6924 2.82898 21.6924Z" />
</svg>
