<svg width="24" height="24" viewBox="0 0 24 24"  xmlns="http://www.w3.org/2000/svg">
<path d="M17.92 6.02C17.45 3.18 14.97 1 12 1C9.82 1 7.83 2.18 6.78 4.06C4.09 4.41 2 6.74 2 9.5C2 12.53 4.47 15 7.5 15H17.5C19.98 15 22 12.98 22 10.5C22 8.16 20.21 6.23 17.92 6.02Z" />
<path d="M15.95 19.11L15.11 18.69L16.01 17.66C16.37 17.24 16.33 16.61 15.92 16.25C15.5 15.89 14.87 15.93 14.51 16.34L12.76 18.34C12.56 18.57 12.47 18.89 12.53 19.19C12.59 19.49 12.79 19.75 13.06 19.89L13.9 20.31L13 21.34C12.64 21.76 12.68 22.39 13.09 22.75C13.28 22.92 13.51 23 13.75 23C14.03 23 14.3 22.88 14.5 22.66L16.25 20.66C16.45 20.43 16.54 20.11 16.48 19.81C16.42 19.5 16.22 19.24 15.95 19.11Z" />
<path d="M9.95 19.11L9.1 18.68L10 17.65C10.36 17.23 10.32 16.6 9.91 16.24C9.49 15.88 8.86 15.92 8.5 16.33L6.75 18.33C6.55 18.56 6.46 18.88 6.52 19.18C6.58 19.48 6.78 19.74 7.05 19.88L7.89 20.3L7 21.34C6.64 21.76 6.68 22.39 7.09 22.75C7.28 22.92 7.52 23 7.75 23C8.03 23 8.3 22.88 8.5 22.66L10.25 20.66C10.45 20.43 10.54 20.11 10.48 19.81C10.42 19.5 10.22 19.24 9.95 19.11Z" />
</svg>
