<svg width="24" height="24" viewBox="0 0 24 24"  xmlns="http://www.w3.org/2000/svg">
<path d="M10.5963 3.4043H14.5963C15.1463 3.4043 15.5963 2.9543 15.5963 2.4043C15.5963 1.8543 15.1463 1.4043 14.5963 1.4043H10.5963C10.0463 1.4043 9.59631 1.8543 9.59631 2.4043C9.59631 2.9543 10.0463 3.4043 10.5963 3.4043Z" />
<path d="M12.5963 8.4043C13.1463 8.4043 13.5963 8.8543 13.5963 9.4043V10.5743L20.5763 17.5543C21.2263 16.3143 21.5963 14.9043 21.5963 13.4043C21.5963 11.2843 20.8563 9.3343 19.6263 7.7943L20.3763 7.0443C20.7563 6.6643 20.7663 6.0343 20.3763 5.6443L20.3663 5.6343C19.9763 5.2443 19.3563 5.2543 18.9663 5.6343L18.2163 6.3843C16.6663 5.1443 14.7163 4.4043 12.5963 4.4043C11.1163 4.4043 9.70631 4.7843 8.46631 5.4443L11.8263 8.8043C12.0063 8.5643 12.2763 8.4043 12.5963 8.4043Z" />
<path d="M2.69631 3.9143C2.30631 4.3043 2.30631 4.9343 2.69631 5.3243L5.41631 8.0443C4.32631 9.4943 3.64631 11.2643 3.59631 13.1643C3.46631 18.2443 7.53631 22.4043 12.5963 22.4043C14.6163 22.4043 16.4763 21.7343 17.9763 20.6143L19.6663 22.3043C20.0563 22.6943 20.6863 22.6943 21.0763 22.3043C21.4663 21.9143 21.4663 21.2843 21.0763 20.8943L4.10631 3.9143C3.71631 3.5243 3.08631 3.5243 2.69631 3.9143Z" />
</svg>
