<svg width="24" height="24" viewBox="0 0 24 24"  xmlns="http://www.w3.org/2000/svg">
<path d="M15.71 1.19531H9.70998V3.19531H15.71V1.19531Z" />
<path d="M13.71 8.19531V10.3653L20.69 17.3453C21.34 16.1053 21.71 14.6953 21.71 13.1953C21.71 11.0753 20.97 9.12531 19.74 7.58531L21.16 6.16531C20.73 5.65531 20.26 5.17531 19.75 4.75531L18.33 6.17531C16.78 4.93531 14.83 4.19531 12.71 4.19531C11.21 4.19531 9.79998 4.56531 8.55998 5.21531L11.54 8.19531H13.71Z" />
<path d="M3.51998 3.00531L2.09998 4.41531L5.49998 7.81531C4.37998 9.31531 3.70998 11.1753 3.70998 13.1953C3.70998 18.1653 7.72998 22.1953 12.71 22.1953C14.73 22.1953 16.59 21.5253 18.09 20.4053L20.49 22.8053L21.9 21.3953L3.51998 3.00531Z" />
</svg>
