<svg width="24" height="24" viewBox="0 0 24 24"  xmlns="http://www.w3.org/2000/svg">
<path d="M22.7196 10.5046C22.3796 9.68462 22.3796 8.78462 22.7196 7.96462C22.9096 7.51462 22.8196 7.00462 22.4796 6.66462L22.3796 6.56462C21.8196 6.00462 20.8696 6.12462 20.4996 6.82462C19.6996 8.30462 19.7096 10.0646 20.5296 11.6146C20.8996 12.3046 21.8396 12.4446 22.3896 11.8846L22.4896 11.7846C22.8296 11.4546 22.9096 10.9446 22.7196 10.5046ZM18.9996 15.3346C19.3996 14.9346 19.4596 14.3146 19.1296 13.8546C17.1596 11.1246 17.1696 7.46462 19.1396 4.62462C19.4596 4.15462 19.3996 3.52462 18.9996 3.12462C18.4996 2.62462 17.6596 2.66462 17.2196 3.22462C14.4896 6.76462 14.4896 11.5846 17.2396 15.2246C17.6696 15.7846 18.5096 15.8346 18.9996 15.3346ZM9.17964 13.2246C11.3896 13.2246 13.1796 11.4346 13.1796 9.22462C13.1796 7.01462 11.3896 5.22462 9.17964 5.22462C6.96964 5.22462 5.17964 7.01462 5.17964 9.22462C5.17964 11.4346 6.96964 13.2246 9.17964 13.2246ZM15.5696 15.7846C13.8896 14.9246 11.7096 14.2246 9.17964 14.2246C6.64964 14.2246 4.46964 14.9246 2.78964 15.7846C1.78964 16.2946 1.17964 17.3246 1.17964 18.4446V20.2246C1.17964 20.7746 1.62964 21.2246 2.17964 21.2246H16.1796C16.7296 21.2246 17.1796 20.7746 17.1796 20.2246V18.4446C17.1796 17.3246 16.5696 16.2946 15.5696 15.7846Z" />
</svg>
