<svg width="24" height="24" viewBox="0 0 24 24"  xmlns="http://www.w3.org/2000/svg">
<path d="M19.2588 16.9C19.8388 15.89 20.2088 14.67 19.7688 13.25C19.2388 11.53 17.7288 10.2 15.9288 10.03C13.0588 9.75 10.6988 12.1 10.9788 14.98C11.1588 16.77 12.4788 18.29 14.1988 18.82C15.6288 19.26 16.8388 18.89 17.8488 18.31L20.3488 20.81C20.7388 21.2 21.3588 21.2 21.7488 20.81C22.1388 20.42 22.1388 19.8 21.7488 19.41L19.2588 16.9ZM15.4588 17C14.0588 17 12.9588 15.9 12.9588 14.5C12.9588 13.1 14.0588 12 15.4588 12C16.8588 12 17.9588 13.1 17.9588 14.5C17.9588 15.9 16.8588 17 15.4588 17ZM11.9588 20V22C6.43876 22 1.95876 17.52 1.95876 12C1.95876 6.48 6.43876 2 11.9588 2C16.7988 2 20.8288 5.44 21.7588 10H19.6888C19.0488 7.54 17.2888 5.53 14.9588 4.59V5C14.9588 6.1 14.0588 7 12.9588 7H10.9588V9C10.9588 9.55 10.5088 10 9.95876 10H7.95876V12H9.95876V15H8.95876L4.16876 10.21C4.03876 10.79 3.95876 11.38 3.95876 12C3.95876 16.41 7.54876 20 11.9588 20Z" />
</svg>
