<svg width="24" height="24" viewBox="0 0 24 24"  xmlns="http://www.w3.org/2000/svg">
<path d="M16.6461 7.05361L18.0861 8.49361L13.2061 13.3736L9.91612 10.0836C9.52612 9.69361 8.89612 9.69361 8.50612 10.0836L2.50612 16.0936C2.11612 16.4836 2.11612 17.1136 2.50612 17.5036C2.89612 17.8936 3.52612 17.8936 3.91612 17.5036L9.20612 12.2036L12.4961 15.4936C12.8861 15.8836 13.5161 15.8836 13.9061 15.4936L19.4961 9.91361L20.9361 11.3536C21.2461 11.6636 21.7861 11.4436 21.7861 11.0036V6.70361C21.7961 6.42361 21.5761 6.20361 21.2961 6.20361H17.0061C16.5561 6.20361 16.3361 6.74361 16.6461 7.05361Z" />
</svg>
