<svg width="24" height="24" viewBox="0 0 24 24"  xmlns="http://www.w3.org/2000/svg">
<path d="M21.9987 19.5891L18.0187 15.6091C19.3187 13.9391 19.9787 11.7591 19.5987 9.40912C19.0587 5.99912 16.2687 3.26912 12.8487 2.78912C8.27874 2.14912 4.31874 5.39912 3.77874 9.70912H5.79874C6.32874 6.57912 9.27874 4.26912 12.6487 4.77912C15.2587 5.17912 17.3487 7.34912 17.6687 9.97912C18.0987 13.6091 15.2587 16.7091 11.7087 16.7091C9.28874 16.7091 7.20874 15.2691 6.25874 13.2091H4.10874C5.15874 16.3991 8.16874 18.7091 11.7087 18.7091C13.5587 18.7091 15.2587 18.0791 16.6087 17.0191L20.5887 20.9991C20.9787 21.3891 21.6087 21.3891 21.9987 20.9991C22.3887 20.6091 22.3887 19.9791 21.9987 19.5891Z" />
<path d="M9.13874 9.39912L10.1687 13.8691C10.2787 14.3591 10.7187 14.7091 11.2187 14.7091C11.6787 14.7091 12.0887 14.4091 12.2387 13.9691L13.2487 10.9291L13.9387 12.5891C14.0987 12.9591 14.4587 13.2091 14.8587 13.2091H15.4387C15.8487 13.2091 16.1887 12.8691 16.1887 12.4591C16.1887 12.0491 15.8487 11.7091 15.4387 11.7091H15.2087L14.2387 9.36912C14.0687 8.96912 13.6787 8.70912 13.2387 8.70912H13.1887C12.7287 8.70912 12.3187 9.00912 12.1687 9.44912L11.2887 12.0791L10.2487 7.53912C10.1387 7.05912 9.69874 6.70912 9.19874 6.70912C8.72874 6.70912 8.30874 7.01912 8.16874 7.46912L7.15874 10.7091H2.45874C2.04874 10.7091 1.70874 11.0491 1.70874 11.4591C1.70874 11.8691 2.04874 12.2091 2.45874 12.2091H7.52874C7.96874 12.2091 8.34874 11.9291 8.47874 11.5091L9.13874 9.39912Z" />
</svg>
