<svg width="24" height="24" viewBox="0 0 24 24"  xmlns="http://www.w3.org/2000/svg">
<path d="M18.155 17.9917C15.395 19.7517 13.485 18.7617 12.545 18.0717C12.205 17.8317 11.765 17.8417 11.425 18.0817C10.455 18.7817 8.595 19.7317 5.875 18.0217C5.545 17.8117 5.12499 17.7917 4.805 18.0117C3.89499 18.6217 3.275 18.8617 2.805 18.9517C2.335 19.0417 1.995 19.4517 1.995 19.9217C1.995 20.5217 2.535 21.0117 3.125 20.9017C3.895 20.7617 4.63499 20.4817 5.325 20.0717C7.365 21.2817 9.955 21.2817 11.995 20.0717C14.055 21.2917 16.605 21.2917 18.665 20.0717C19.355 20.4817 20.105 20.7617 20.875 20.9017C21.465 21.0117 22.005 20.5217 22.005 19.9217V19.9117C22.005 19.4417 21.675 19.0317 21.205 18.9417C20.715 18.8417 20.095 18.6017 19.185 18.0017C18.875 17.8017 18.465 17.7917 18.155 17.9917Z" />
<path d="M19.325 12.0117H20.995C21.545 12.0117 21.995 11.5617 21.995 11.0117C21.995 10.4617 21.545 10.0117 20.995 10.0117H19.385C17.525 10.0117 15.985 8.51172 15.995 6.65172C15.995 6.28172 16.055 5.95172 16.155 5.60172C16.525 4.31172 15.595 3.04172 14.265 3.01172C14.175 3.01172 14.085 3.01172 13.995 3.01172C7.355 3.01172 2.145 8.04172 2.005 14.5117V14.5417C1.965 15.6717 3.075 16.5217 4.145 16.1417C4.545 16.0017 4.925 15.8217 5.295 15.6017C7.375 16.8017 9.935 16.8217 11.995 15.5817C14.055 16.8017 16.605 16.8017 18.665 15.5817C19.345 15.9917 20.085 16.2617 20.845 16.4017C21.445 16.5117 22.005 16.0417 22.005 15.4217V15.4117C22.005 14.9517 21.685 14.5317 21.225 14.4417C20.735 14.3517 20.105 14.1117 19.195 13.5017C18.885 13.2917 18.465 13.2817 18.145 13.4917C15.415 15.2317 13.515 14.2617 12.565 13.5817C12.215 13.3317 11.755 13.3217 11.405 13.5717C11.255 13.6817 11.315 13.6317 11.085 13.7717C10.385 12.8317 9.995 11.7117 9.995 10.5117C9.995 7.93172 11.765 5.77172 14.205 5.18172C14.075 5.69172 13.995 6.20172 13.995 6.68172C13.995 9.62172 16.385 12.0117 19.325 12.0117Z" />
</svg>
