<svg width="24" height="24" viewBox="0 0 24 24"  xmlns="http://www.w3.org/2000/svg">
<path d="M14.9856 4.01367C15.5356 4.01367 15.9856 4.46367 15.9856 5.01367C15.9856 5.56367 15.5356 6.01367 14.9856 6.01367C14.4356 6.01367 13.9856 5.56367 13.9856 5.01367C13.9856 4.46367 14.4356 4.01367 14.9856 4.01367ZM13.9856 7.01367C14.5356 7.01367 14.9856 7.46367 14.9856 8.01367C14.9856 8.56367 14.5356 9.01367 13.9856 9.01367C13.4356 9.01367 12.9856 8.56367 12.9856 8.01367C12.9856 7.46367 13.4356 7.01367 13.9856 7.01367ZM11.9856 4.01367C12.5356 4.01367 12.9856 4.46367 12.9856 5.01367C12.9856 5.56367 12.5356 6.01367 11.9856 6.01367C11.4356 6.01367 10.9856 5.56367 10.9856 5.01367C10.9856 4.46367 11.4356 4.01367 11.9856 4.01367ZM16.9856 9.01367C16.4356 9.01367 15.9856 8.56367 15.9856 8.01367C15.9856 7.46367 16.4356 7.01367 16.9856 7.01367C17.5356 7.01367 17.9856 7.46367 17.9856 8.01367C17.9856 8.56367 17.5356 9.01367 16.9856 9.01367ZM17.9856 6.01367C17.4356 6.01367 16.9856 5.56367 16.9856 5.01367C16.9856 4.46367 17.4356 4.01367 17.9856 4.01367C18.5356 4.01367 18.9856 4.46367 18.9856 5.01367C18.9856 5.56367 18.5356 6.01367 17.9856 6.01367ZM19.9856 9.01367C19.4356 9.01367 18.9856 8.56367 18.9856 8.01367C18.9856 7.46367 19.4356 7.01367 19.9856 7.01367C20.5356 7.01367 20.9856 7.46367 20.9856 8.01367C20.9856 8.56367 20.5356 9.01367 19.9856 9.01367ZM20.9856 6.01367C20.4356 6.01367 19.9856 5.56367 19.9856 5.01367C19.9856 4.46367 20.4356 4.01367 20.9856 4.01367C21.5356 4.01367 21.9856 4.46367 21.9856 5.01367C21.9856 5.56367 21.5356 6.01367 20.9856 6.01367ZM14.6056 14.3937L12.0856 16.9137C9.58564 15.4837 7.51564 13.4137 6.08564 10.9137L8.60564 8.39367C8.84564 8.15367 8.94564 7.81367 8.88564 7.49367L8.14564 3.81367C8.05564 3.35367 7.64564 3.01367 7.16564 3.01367H3.01564C2.45564 3.01367 1.98564 3.48367 2.01564 4.04367C2.18564 6.93367 3.03564 9.64367 4.41564 12.0137C5.99564 14.7437 8.26564 17.0037 10.9856 18.5837C13.3556 19.9537 16.0656 20.8137 18.9556 20.9837C19.5156 21.0137 19.9856 20.5437 19.9856 19.9837V15.8337C19.9856 15.3537 19.6456 14.9437 19.1856 14.8537L15.5156 14.1237C15.1856 14.0537 14.8456 14.1537 14.6056 14.3937ZM14.9856 10.0137C15.5356 10.0137 15.9856 10.4637 15.9856 11.0137C15.9856 11.5637 15.5356 12.0137 14.9856 12.0137C14.4356 12.0137 13.9856 11.5637 13.9856 11.0137C13.9856 10.4637 14.4356 10.0137 14.9856 10.0137ZM11.9856 10.0137C12.5356 10.0137 12.9856 10.4637 12.9856 11.0137C12.9856 11.5637 12.5356 12.0137 11.9856 12.0137C11.4356 12.0137 10.9856 11.5637 10.9856 11.0137C10.9856 10.4637 11.4356 10.0137 11.9856 10.0137ZM17.9856 12.0137C17.4356 12.0137 16.9856 11.5637 16.9856 11.0137C16.9856 10.4637 17.4356 10.0137 17.9856 10.0137C18.5356 10.0137 18.9856 10.4637 18.9856 11.0137C18.9856 11.5637 18.5356 12.0137 17.9856 12.0137ZM20.9856 12.0137C20.4356 12.0137 19.9856 11.5637 19.9856 11.0137C19.9856 10.4637 20.4356 10.0137 20.9856 10.0137C21.5356 10.0137 21.9856 10.4637 21.9856 11.0137C21.9856 11.5637 21.5356 12.0137 20.9856 12.0137Z" />
</svg>
