<svg width="24" height="24" viewBox="0 0 24 24"  xmlns="http://www.w3.org/2000/svg">
<path d="M9.29124 6.62148L10.1712 7.50148C10.5612 7.89148 11.1912 7.89148 11.5812 7.50148C11.9712 7.11148 11.9712 6.48148 11.5812 6.09148L9.00124 3.50148C8.61124 3.11148 7.98124 3.11148 7.59124 3.50148L5.00124 6.08148C4.61124 6.47148 4.61124 7.10148 5.00124 7.49148C5.39124 7.88148 6.02124 7.88148 6.41124 7.49148L7.29124 6.62148V12.7915C7.29124 13.8915 8.19124 14.7915 9.29124 14.7915H17.2912V19.7915C17.2912 20.3415 17.7412 20.7915 18.2912 20.7915C18.8412 20.7915 19.2912 20.3415 19.2912 19.7915V14.7915C19.2912 13.6915 18.3912 12.7915 17.2912 12.7915H9.29124V6.62148Z" />
</svg>
