<svg width="24" height="24" viewBox="0 0 24 24"  xmlns="http://www.w3.org/2000/svg">
<path d="M14.4987 12.0856C14.8887 12.4756 15.5187 12.4756 15.9087 12.0856L18.4987 9.49563C18.8887 9.10563 18.8887 8.47563 18.4987 8.08563L15.9087 5.49562C15.5187 5.10563 14.8887 5.10563 14.4987 5.49562C14.1087 5.88563 14.1087 6.51562 14.4987 6.90562L15.3787 7.79563H7.20874C6.10874 7.79563 5.20874 8.69563 5.20874 9.79563V17.7956C5.20874 18.3456 5.65874 18.7956 6.20874 18.7956C6.75874 18.7956 7.20874 18.3456 7.20874 17.7956V9.79563H15.3787L14.4987 10.6756C14.1087 11.0656 14.1087 11.6956 14.4987 12.0856Z" />
</svg>
