<svg width="24" height="24" viewBox="0 0 24 24"  xmlns="http://www.w3.org/2000/svg">
<path d="M14.7037 6.62148L13.8237 7.50148C13.4337 7.89148 12.8037 7.89148 12.4137 7.50148C12.0237 7.11148 12.0237 6.48148 12.4137 6.09148L15.0037 3.50148C15.3937 3.11148 16.0237 3.11148 16.4137 3.50148L19.0037 6.09148C19.3937 6.48148 19.3937 7.11148 19.0037 7.50148C18.6137 7.89148 17.9837 7.89148 17.5937 7.50148L16.7037 6.62148V12.7915C16.7037 13.8915 15.8037 14.7915 14.7037 14.7915H6.70374V19.7915C6.70374 20.3415 6.25374 20.7915 5.70374 20.7915C5.15374 20.7915 4.70374 20.3415 4.70374 19.7915V14.7915C4.70374 13.6915 5.60374 12.7915 6.70374 12.7915H14.7037V6.62148Z" />
</svg>
