<svg width="24" height="24" viewBox="0 0 24 24"  xmlns="http://www.w3.org/2000/svg">
<path d="M9.50124 12.0856C9.11124 12.4756 8.48124 12.4756 8.09124 12.0856L5.50124 9.49563C5.11124 9.10563 5.11124 8.47563 5.50124 8.08563L8.09124 5.49562C8.48124 5.10563 9.11124 5.10563 9.50124 5.49562C9.89124 5.88563 9.89124 6.51562 9.50124 6.90562L8.62124 7.79563H16.7912C17.8912 7.79563 18.7912 8.69563 18.7912 9.79563V17.7956C18.7912 18.3456 18.3412 18.7956 17.7912 18.7956C17.2412 18.7956 16.7912 18.3456 16.7912 17.7956V9.79563H8.62124L9.50124 10.6756C9.89124 11.0656 9.89124 11.6956 9.50124 12.0856Z" />
</svg>
