<svg width="24" height="24" viewBox="0 0 24 24"  xmlns="http://www.w3.org/2000/svg">
<path d="M3 6C2.45 6 2 6.45 2 7V20C2 21.1 2.9 22 4 22H17C17.55 22 18 21.55 18 21C18 20.45 17.55 20 17 20H4V7C4 6.45 3.55 6 3 6Z" />
<path d="M20 2H8C6.9 2 6 2.9 6 4V16C6 17.1 6.9 18 8 18H20C21.1 18 22 17.1 22 16V4C22 2.9 21.1 2 20 2ZM16.46 14.01L15.83 12.19H12.2L11.55 14.01C11.45 14.3 11.17 14.49 10.87 14.49C10.36 14.49 10.01 13.98 10.19 13.51L12.92 6.24C13.08 5.8 13.52 5.5 14 5.5C14.48 5.5 14.92 5.8 15.09 6.25L17.82 13.52C18 13.99 17.65 14.5 17.14 14.5C16.83 14.5 16.56 14.31 16.46 14.01Z" />
<path d="M13.96 7.17L12.65 10.89H15.34L14.04 7.17H13.96Z" />
</svg>
