<svg width="24" height="24" viewBox="0 0 24 24"  xmlns="http://www.w3.org/2000/svg">
<path d="M5.00189 12.29C5.39189 11.9 6.02189 11.9 6.41189 12.29L7.29189 13.17V9C7.29189 5.69 9.98189 3 13.2919 3C16.6019 3 19.2919 5.69 19.2919 9V20C19.2919 20.55 18.8419 21 18.2919 21C17.7419 21 17.2919 20.55 17.2919 20V9C17.2919 6.79 15.5019 5 13.2919 5C11.0819 5 9.29189 6.79 9.29189 9V13.17L10.1719 12.29C10.5619 11.9 11.1919 11.9 11.5819 12.29C11.9719 12.68 11.9719 13.31 11.5819 13.7L8.99189 16.29C8.60189 16.68 7.97189 16.68 7.58189 16.29L4.99189 13.7C4.61189 13.32 4.61189 12.68 5.00189 12.29Z" />
</svg>
