<svg width="24" height="24" viewBox="0 0 24 24"  xmlns="http://www.w3.org/2000/svg">
<path d="M18.9981 12.29C18.6081 11.9 17.9781 11.9 17.5881 12.29L16.7081 13.17V9C16.7081 5.69 14.0181 3 10.7081 3C7.39813 3 4.70813 5.69 4.70813 9V20C4.70813 20.55 5.15813 21 5.70813 21C6.25813 21 6.70813 20.55 6.70813 20V9C6.70813 6.79 8.49813 5 10.7081 5C12.9181 5 14.7081 6.79 14.7081 9V13.17L13.8281 12.29C13.4381 11.9 12.8081 11.9 12.4181 12.29C12.0281 12.68 12.0281 13.31 12.4181 13.7L15.0081 16.29C15.3981 16.68 16.0281 16.68 16.4181 16.29L19.0081 13.7C19.3881 13.32 19.3881 12.68 18.9981 12.29Z" />
</svg>
