<svg width="24" height="24" viewBox="0 0 24 24"  xmlns="http://www.w3.org/2000/svg">
<path d="M12.4662 8C9.81619 8 7.41619 8.99 5.56619 10.6L3.67619 8.71C3.04619 8.08 1.96619 8.52 1.96619 9.41V15C1.96619 15.55 2.41619 16 2.96619 16H8.55619C9.44619 16 9.89619 14.92 9.26619 14.29L7.35619 12.38C8.74619 11.22 10.5162 10.5 12.4762 10.5C15.6362 10.5 18.3662 12.34 19.6662 15C19.9362 15.56 20.5762 15.84 21.1662 15.64C21.8762 15.41 22.2362 14.6 21.9162 13.92C20.1962 10.42 16.6162 8 12.4662 8Z" />
</svg>
