<svg width="24" height="24" viewBox="0 0 24 24"  xmlns="http://www.w3.org/2000/svg">
<path d="M9.53001 5.29022L12 2.83021L14.46 5.29022C14.85 5.68021 15.48 5.68021 15.87 5.29022C16.26 4.90022 16.26 4.27022 15.87 3.88021L12.7 0.700215C12.31 0.310215 11.68 0.310215 11.29 0.700215L8.12001 3.88021C7.73001 4.27022 7.73001 4.90022 8.12001 5.29022C8.51001 5.68021 9.14001 5.68021 9.53001 5.29022Z" />
<path d="M9.53001 10.2902L12 7.83021L14.46 10.2902C14.85 10.6802 15.48 10.6802 15.87 10.2902C16.26 9.90021 16.26 9.27022 15.87 8.88021L12.7 5.70021C12.31 5.31021 11.68 5.31021 11.29 5.70021L8.12001 8.88021C7.73001 9.27022 7.73001 9.90021 8.12001 10.2902C8.51001 10.6802 9.14001 10.6802 9.53001 10.2902Z" />
<path d="M14.47 13.7102L12 16.1702L9.54001 13.7102C9.15001 13.3202 8.52001 13.3202 8.13001 13.7102C7.74001 14.1002 7.74001 14.7302 8.13001 15.1202L11.3 18.3002C11.69 18.6902 12.32 18.6902 12.71 18.3002L15.88 15.1202C16.27 14.7302 16.27 14.1002 15.88 13.7102C15.49 13.3202 14.86 13.3202 14.47 13.7102Z" />
<path d="M14.47 18.7202L12 21.1702L9.54001 18.7102C9.15001 18.3202 8.52001 18.3202 8.13001 18.7102C7.74001 19.1002 7.74001 19.7302 8.13001 20.1202L11.3 23.3002C11.69 23.6902 12.32 23.6902 12.71 23.3002L15.88 20.1302C16.27 19.7402 16.27 19.1102 15.88 18.7202C15.49 18.3302 14.86 18.3302 14.47 18.7202Z" />
</svg>
