<svg width="24" height="24" viewBox="0 0 24 24"  xmlns="http://www.w3.org/2000/svg">
<path d="M14.46 5.70021L11.99 8.16021L9.53001 5.70021C9.14001 5.31021 8.51001 5.31021 8.12001 5.70021C7.73001 6.09021 7.73001 6.72022 8.12001 7.11022L11.29 10.2902C11.68 10.6802 12.31 10.6802 12.7 10.2902L15.87 7.11022C16.26 6.72022 16.26 6.09021 15.87 5.70021C15.48 5.31021 14.85 5.31021 14.46 5.70021Z" />
<path d="M14.46 0.700215L11.99 3.16021L9.53001 0.700215C9.14001 0.310215 8.51001 0.310215 8.12001 0.700215C7.73001 1.09021 7.73001 1.72021 8.12001 2.11021L11.29 5.29022C11.68 5.68021 12.31 5.68021 12.7 5.29022L15.87 2.11021C16.26 1.72021 16.26 1.09021 15.87 0.700215C15.48 0.310215 14.85 0.310215 14.46 0.700215Z" />
<path d="M9.54001 23.3002L12.01 20.8402L14.47 23.3002C14.86 23.6902 15.49 23.6902 15.88 23.3002C16.27 22.9102 16.27 22.2802 15.88 21.8902L12.71 18.7102C12.32 18.3202 11.69 18.3202 11.3 18.7102L8.13001 21.8902C7.74001 22.2802 7.74001 22.9102 8.13001 23.3002C8.52001 23.6902 9.15001 23.6902 9.54001 23.3002Z" />
<path d="M9.54001 18.2902L12.01 15.8402L14.47 18.3002C14.86 18.6902 15.49 18.6902 15.88 18.3002C16.27 17.9102 16.27 17.2802 15.88 16.8902L12.71 13.7102C12.32 13.3202 11.69 13.3202 11.3 13.7102L8.13001 16.8802C7.74001 17.2702 7.74001 17.9002 8.13001 18.2902C8.52001 18.6802 9.15001 18.6802 9.54001 18.2902Z" />
</svg>
