<svg width="24" height="24" viewBox="0 0 24 24"  xmlns="http://www.w3.org/2000/svg">
<path d="M8.24501 4.81482L6.79501 3.35482C8.37501 2.30482 10.265 1.69482 12.305 1.69482C17.825 1.69482 22.305 6.17482 22.305 11.6948C22.305 13.7348 21.695 15.6248 20.645 17.2048L19.185 15.7448C19.895 14.5548 20.305 13.1748 20.305 11.6948C20.305 7.28482 16.715 3.69482 12.305 3.69482C10.825 3.69482 9.44501 4.10482 8.24501 4.81482ZM17.965 9.22482L16.555 7.81482L13.905 10.4648L15.315 11.8748L17.965 9.22482ZM20.085 22.3048L17.815 20.0348C16.235 21.0848 14.345 21.6948 12.305 21.6948C6.78501 21.6948 2.30501 17.2148 2.30501 11.6948C2.30501 9.65482 2.91501 7.76482 3.96501 6.18482L1.69501 3.91482L3.10501 2.50482L21.485 20.8848L20.085 22.3048ZM16.365 18.5748L12.485 14.6948L10.895 16.2848L6.65501 12.0448L8.06501 10.6348L10.895 13.4648L11.075 13.2848L5.42501 7.63482C4.71501 8.83482 4.30501 10.2148 4.30501 11.6948C4.30501 16.1048 7.89501 19.6948 12.305 19.6948C13.785 19.6948 15.165 19.2848 16.365 18.5748Z" />
</svg>
