<svg width="24" height="24" viewBox="0 0 24 24"  xmlns="http://www.w3.org/2000/svg">
<path d="M10.9984 8.74829V12.4283C10.9984 12.7783 11.1884 13.1083 11.4884 13.2883L14.6084 15.1383C14.9684 15.3483 15.4284 15.2283 15.6384 14.8783C15.8484 14.5183 15.7384 14.0583 15.3784 13.8483L12.5084 12.1383V8.73829C12.4984 8.33829 12.1584 7.99829 11.7484 7.99829C11.3384 7.99829 10.9984 8.33829 10.9984 8.74829ZM20.9984 9.49829V4.20829C20.9984 3.75829 20.4584 3.53829 20.1484 3.85829L18.3684 5.63829C16.5584 3.82829 13.9784 2.78829 11.1584 3.03829C6.96842 3.41829 3.51842 6.78829 3.05842 10.9783C2.45842 16.3983 6.68842 20.9983 11.9984 20.9983C16.5884 20.9983 20.3784 17.5583 20.9284 13.1183C20.9984 12.5183 20.5284 11.9983 19.9284 11.9983C19.4284 11.9983 19.0084 12.3683 18.9484 12.8583C18.5184 16.3483 15.5084 19.0483 11.8984 18.9983C8.18842 18.9483 5.05842 15.8183 4.99842 12.0983C4.93842 8.19829 8.10842 4.99829 11.9984 4.99829C13.9284 4.99829 15.6784 5.78829 16.9484 7.04829L14.8584 9.13829C14.5384 9.45829 14.7584 9.99829 15.2084 9.99829H20.4984C20.7784 9.99829 20.9984 9.77829 20.9984 9.49829Z" />
</svg>
