<svg width="24" height="24" viewBox="0 0 24 24"  xmlns="http://www.w3.org/2000/svg">
<path d="M21.0863 19.895L4.10631 2.91498C3.71631 2.52498 3.08631 2.52498 2.69631 2.91498C2.30631 3.30498 2.30631 3.93498 2.69631 4.32498L5.00631 6.63498C4.16631 7.96498 3.64631 9.49498 3.59631 11.145C3.45631 16.235 7.53631 20.405 12.5963 20.405C14.3563 20.405 15.9863 19.885 17.3763 19.015L19.6663 21.305C20.0563 21.695 20.6863 21.695 21.0763 21.305C21.4763 20.915 21.4763 20.285 21.0863 19.895ZM11.3163 18.295C8.53631 17.805 6.27631 15.585 5.73631 12.825C5.39631 11.105 5.70631 9.46498 6.45631 8.09498L15.9163 17.555C14.5763 18.275 12.9963 18.585 11.3163 18.295ZM13.5963 7.40498V9.57498L11.5963 7.57498V7.40498C11.5963 6.85498 12.0463 6.40498 12.5963 6.40498C13.1463 6.40498 13.5963 6.85498 13.5963 7.40498ZM21.3163 13.635C21.0863 14.555 20.7063 15.405 20.2163 16.185L18.7463 14.715C19.0163 14.215 19.2363 13.685 19.3763 13.125C19.4863 12.705 19.8863 12.405 20.3263 12.405C20.9763 12.405 21.4763 13.015 21.3163 13.635ZM7.83631 3.81498C9.29631 2.88498 11.0163 2.36498 12.8363 2.40498C15.4863 2.47498 17.8363 3.68498 19.4363 5.56498L20.7463 4.25498C21.0563 3.94498 21.5963 4.16498 21.5963 4.61498V8.90498C21.5963 9.18498 21.3763 9.40498 21.0963 9.40498H16.8063C16.3563 9.40498 16.1363 8.86498 16.4563 8.55498L18.0063 7.00498C16.7163 5.42498 14.7763 4.40498 12.5963 4.40498C11.3963 4.40498 10.2663 4.71498 9.27631 5.25498L7.83631 3.81498Z" />
</svg>
