<svg width="24" height="24" viewBox="0 0 24 24"  xmlns="http://www.w3.org/2000/svg">
<path d="M21.655 12.2901C21.505 13.6701 21.035 14.9601 20.325 16.0801L18.855 14.6101C19.235 13.9001 19.505 13.1201 19.625 12.2901H21.655ZM9.38498 5.1301C10.375 4.6001 11.515 4.2901 12.715 4.2901C15.085 4.2901 17.185 5.4801 18.455 7.2901H15.715V9.2901H21.715V3.2901H19.715V5.6501C18.065 3.6101 15.545 2.2901 12.715 2.2901C10.955 2.2901 9.31498 2.8001 7.93498 3.6801L9.38498 5.1301ZM11.715 6.2901V7.4601L13.715 9.4601V6.2901H11.715ZM20.495 21.9001L17.495 18.9001C16.105 19.7701 14.475 20.2901 12.715 20.2901C7.74498 20.2901 3.71498 16.2601 3.71498 11.2901C3.71498 9.5301 4.22498 7.8901 5.10498 6.5101L2.10498 3.5101L3.51498 2.1001L21.895 20.4801L20.495 21.9001ZM16.035 17.4401L6.55498 7.9601C6.02498 8.9501 5.71498 10.0901 5.71498 11.2901C5.71498 15.1501 8.85498 18.2901 12.715 18.2901C13.915 18.2901 15.055 17.9801 16.035 17.4401Z" />
</svg>
