<svg width="24" height="24" viewBox="0 0 24 24"  xmlns="http://www.w3.org/2000/svg">
<path d="M15.1 7.40039V11.4004H16.1V13.4004H13.1V5.40039H15.1L12.1 1.40039L9.10002 5.40039H11.1V13.4004H8.10002V11.3304C8.80002 10.9604 9.30002 10.2504 9.30002 9.40039C9.30002 8.19039 8.31002 7.20039 7.10002 7.20039C5.89002 7.20039 4.90002 8.19039 4.90002 9.40039C4.90002 10.2504 5.40002 10.9604 6.10002 11.3304V13.4004C6.10002 14.5104 6.99002 15.4004 8.10002 15.4004H11.1V18.4504C10.39 18.8204 9.90002 19.5504 9.90002 20.4004C9.90002 21.6204 10.89 22.6004 12.1 22.6004C13.31 22.6004 14.3 21.6204 14.3 20.4004C14.3 19.5504 13.81 18.8204 13.1 18.4504V15.4004H16.1C17.21 15.4004 18.1 14.5104 18.1 13.4004V11.4004H19.1V7.40039H15.1Z" />
</svg>
