<svg width="24" height="24" viewBox="0 0 24 24"  xmlns="http://www.w3.org/2000/svg">
<path d="M20.5863 21.7495C20.1963 22.1395 19.5663 22.1395 19.1763 21.7495L16.2763 18.8495H8.09631V15.8495H13.2663L2.19631 4.77946C1.80631 4.38946 1.80631 3.75946 2.19631 3.36946C2.58631 2.97946 3.21631 2.97946 3.60631 3.36946L20.5763 20.3395C20.9763 20.7295 20.9763 21.3595 20.5863 21.7495ZM18.9263 15.8495H20.5963C21.4263 15.8495 22.0963 16.5195 22.0963 17.3495C22.0963 17.8095 21.8863 18.2195 21.5663 18.4895L18.9263 15.8495ZM10.5963 16.8495C10.3163 16.8495 10.0963 17.0695 10.0963 17.3495C10.0963 17.6295 10.3163 17.8495 10.5963 17.8495C10.8763 17.8495 11.0963 17.6295 11.0963 17.3495C11.0963 17.0695 10.8763 16.8495 10.5963 16.8495ZM18.9463 7.57946C19.5663 6.96946 19.9463 6.12946 19.9463 5.19946C19.9463 3.68946 18.9463 2.40946 17.5663 1.98946C17.0863 1.84946 16.5963 2.20946 16.5963 2.70946C16.5963 3.03946 16.8063 3.32946 17.1163 3.41946C17.8863 3.64946 18.4463 4.35946 18.4463 5.19946C18.4463 6.01946 17.9163 6.70946 17.1763 6.95946C16.8463 7.06946 16.5963 7.34946 16.5963 7.69946V7.84946C16.5963 8.21946 16.8663 8.53946 17.2363 8.59946C19.1663 8.90946 20.5963 10.5995 20.5963 12.6195V14.0995C20.5963 14.5095 20.9363 14.8495 21.3463 14.8495C21.7563 14.8495 22.0963 14.5095 22.0963 14.0995V12.6095C22.0963 10.3895 20.8163 8.46946 18.9463 7.57946ZM14.5763 11.4995C14.6163 11.4995 14.6663 11.4995 14.7063 11.4995H16.1263C17.1763 11.4995 18.0963 12.2395 18.0963 13.5495V14.0995C18.0963 14.5095 18.4363 14.8495 18.8563 14.8495C19.2663 14.8495 19.6063 14.5195 19.6063 14.0995V13.2095C19.5963 11.3995 17.9963 10.0495 16.1263 10.0495H14.8263C13.8063 10.0495 12.8863 9.31946 12.7563 8.29946C12.6363 7.34946 13.2163 6.59946 14.0563 6.36946C14.3763 6.27946 14.5963 5.98946 14.5963 5.64946C14.5963 5.15946 14.1363 4.78946 13.6663 4.92946C12.2563 5.33946 11.2363 6.63945 11.2463 8.16946L14.5763 11.4995ZM3.09631 18.3495C4.42631 18.3495 5.80631 18.5295 7.09631 18.8495V15.8495C5.80631 16.1695 4.42631 16.3495 3.09631 16.3495C2.54631 16.3495 2.09631 16.7995 2.09631 17.3495C2.09631 17.8995 2.54631 18.3495 3.09631 18.3495Z" />
</svg>
