<svg width="24" height="24" viewBox="0 0 24 24"  xmlns="http://www.w3.org/2000/svg">
<path d="M2.30495 16.1992H3.30495C4.63495 16.1992 6.01495 16.0192 7.30495 15.6992V18.6992C6.01495 18.3792 4.63495 18.1992 3.30495 18.1992H2.30495V16.1992ZM16.4749 18.6992H8.30495V15.6992H13.4749L1.69495 3.91922L3.10495 2.50922L21.4849 20.8892L20.0749 22.2992L16.4749 18.6992ZM19.1349 15.6992H22.3049V18.6992H22.1349L19.1349 15.6992ZM11.3049 17.1992C11.3049 16.9192 11.0849 16.6992 10.8049 16.6992C10.5249 16.6992 10.3049 16.9192 10.3049 17.1992C10.3049 17.4792 10.5249 17.6992 10.8049 17.6992C11.0849 17.6992 11.3049 17.4792 11.3049 17.1992ZM22.3049 12.4592V14.6992H20.8049V12.4692C20.8049 10.2292 19.0449 8.39922 16.8049 8.39922V6.89922C17.8249 6.89922 18.6549 6.06922 18.6549 5.04922C18.6549 4.02922 17.8249 3.19922 16.8049 3.19922V1.69922C18.6549 1.69922 20.1549 3.19922 20.1549 5.04922C20.1549 5.97922 19.7749 6.81922 19.1549 7.42922C21.0249 8.31922 22.3049 10.2392 22.3049 12.4592ZM11.4549 8.01922C11.4549 8.00922 11.4549 8.00922 11.4549 7.99922C11.4549 6.14922 12.9549 4.64922 14.8049 4.64922V6.14922C13.7849 6.14922 12.9549 6.87922 12.9549 7.89922C12.9549 8.91922 13.7849 9.89922 14.8049 9.89922H16.3349C18.2049 9.89922 19.8049 11.2492 19.8049 13.0592V14.6992H18.3049V13.3992C18.3049 12.0892 17.3849 11.3492 16.3349 11.3492H14.8049C14.7949 11.3492 14.7949 11.3492 14.7849 11.3492L11.4549 8.01922Z" />
</svg>
