<svg width="24" height="24" viewBox="0 0 24 24"  xmlns="http://www.w3.org/2000/svg">
<path d="M20.7963 17.1652C21.5563 16.8852 22.0963 16.1452 22.0963 15.2952V7.2952C22.0963 6.1952 21.1963 5.2952 20.0963 5.2952H8.92631L20.7963 17.1652ZM17.5963 8.2952C18.4263 8.2952 19.0963 8.9652 19.0963 9.7952C19.0963 10.6252 18.4263 11.2952 17.5963 11.2952C16.7663 11.2952 16.0963 10.6252 16.0963 9.7952C16.0963 8.9652 16.7663 8.2952 17.5963 8.2952ZM20.5863 19.7852L3.60631 2.8052C3.21631 2.4152 2.58631 2.4152 2.19631 2.8052C1.80631 3.1952 1.80631 3.8252 2.19631 4.2152L3.39631 5.4152C2.63631 5.7052 2.09631 6.4452 2.09631 7.2952V15.2952C2.09631 16.3952 2.99631 17.2952 4.09631 17.2952H15.2663L19.1663 21.1952C19.5563 21.5852 20.1863 21.5852 20.5763 21.1952C20.9763 20.8052 20.9763 20.1752 20.5863 19.7852ZM10.0963 12.2952H9.09631V13.2952C9.09631 13.8452 8.64631 14.2952 8.09631 14.2952C7.54631 14.2952 7.09631 13.8452 7.09631 13.2952V12.2952H6.09631C5.54631 12.2952 5.09631 11.8452 5.09631 11.2952C5.09631 10.7452 5.54631 10.2952 6.09631 10.2952H7.09631V9.2952C7.09631 9.24519 7.10631 9.1852 7.10631 9.1352L10.2463 12.2752C10.2063 12.2852 10.1463 12.2952 10.0963 12.2952Z" />
</svg>
