<svg width="24" height="24" viewBox="0 0 24 24"  xmlns="http://www.w3.org/2000/svg">
<path d="M20 2.70703H4C2.9 2.70703 2.01 3.60703 2.01 4.70703L2 20.287C2 21.177 3.08 21.627 3.71 20.997L6 18.707H20C21.1 18.707 22 17.807 22 16.707V4.70703C22 3.60703 21.1 2.70703 20 2.70703ZM16.15 12.857L15 11.717V13.707C15 14.257 14.55 14.707 14 14.707H8C7.45 14.707 7 14.257 7 13.707V7.70703C7 7.15703 7.45 6.70703 8 6.70703H14C14.55 6.70703 15 7.15703 15 7.70703V9.69703L16.15 8.55703C16.46 8.23703 17 8.46703 17 8.90703V12.497C17 12.947 16.46 13.177 16.15 12.857Z" />
</svg>
