<svg width="24" height="24" viewBox="0 0 24 24"  xmlns="http://www.w3.org/2000/svg">
<path d="M9.99005 8.57018L7.99005 6.57018L3.84005 2.43018L2.43005 3.84018L5.16005 6.57018H4.43005C3.88005 6.57018 3.43005 7.02018 3.43005 7.57018V17.5702C3.43005 18.1202 3.88005 18.5702 4.43005 18.5702H16.4301C16.6401 18.5702 16.8201 18.4902 16.9801 18.3902L20.1601 21.5702L21.5701 20.1602L12.7101 11.3002L9.99005 8.57018ZM5.43005 16.5702V8.57018H7.16005L15.1601 16.5702H5.43005ZM15.4301 8.57018V11.1802L21.4301 17.1802V7.07018L17.4301 11.0702V7.57018C17.4301 7.02018 16.9801 6.57018 16.4301 6.57018H10.8201L12.8201 8.57018H15.4301Z" />
</svg>
