<svg width="24" height="24" viewBox="0 0 24 24"  xmlns="http://www.w3.org/2000/svg">
<path d="M16.2778 8.5H12.1378C11.3178 8.5 10.5878 9 10.2778 9.76L8.78779 13.5H7.08779C6.29779 13.5 5.57779 13.97 5.25779 14.69L3.03779 19.69C2.44779 21.01 3.41779 22.5 4.86779 22.5H19.1378C20.4678 22.5 21.4278 21.23 21.0578 19.95L18.1978 9.95C17.9578 9.09 17.1678 8.5 16.2778 8.5Z" />
<path d="M13.7878 1.5C13.2378 1.5 12.7878 1.95 12.7878 2.5V4.5C12.7878 5.05 13.2378 5.5 13.7878 5.5C14.3378 5.5 14.7878 5.05 14.7878 4.5V2.5C14.7878 1.95 14.3378 1.5 13.7878 1.5Z" />
<path d="M19.4478 3.84C19.0578 3.45 18.4278 3.45 18.0378 3.84L16.6278 5.25C16.2378 5.64 16.2378 6.27 16.6278 6.66C17.0178 7.05 17.6478 7.05 18.0378 6.66L19.4478 5.25C19.8378 4.87 19.8378 4.23 19.4478 3.84Z" />
<path d="M10.9578 5.26L9.54779 3.84C9.15779 3.45 8.52779 3.45 8.13779 3.84C7.74779 4.23 7.74779 4.86 8.13779 5.25L9.54779 6.66C9.93779 7.05 10.5678 7.05 10.9578 6.66C11.3478 6.28 11.3478 5.65 10.9578 5.26Z" />
</svg>
