<svg width="24" height="24" viewBox="0 0 24 24"  xmlns="http://www.w3.org/2000/svg">
<path opacity="0.3" d="M7.83 11.0001H5V13.0001H7.83L10 15.1701V11.4101L8.71 10.1201L7.83 11.0001Z" />
<path d="M4.33999 2.93018L2.92999 4.34018L7.28999 8.70018L6.99999 9.00018H2.99999V15.0002H6.99999L12 20.0002V13.4102L16.18 17.5902C15.53 18.0802 14.8 18.4702 14 18.7002V20.7602C15.34 20.4602 16.57 19.8402 17.61 19.0102L19.66 21.0602L21.07 19.6502L4.33999 2.93018ZM9.99999 15.1702L7.82999 13.0002H4.99999V11.0002H7.82999L8.70999 10.1202L9.99999 11.4102V15.1702ZM19 12.0002C19 12.8202 18.85 13.6102 18.59 14.3402L20.12 15.8702C20.68 14.7002 21 13.3902 21 12.0002C21 7.72018 18.01 4.14018 14 3.23018V5.29018C16.89 6.15018 19 8.83018 19 12.0002ZM12 4.00018L10.12 5.88018L12 7.76018V4.00018ZM16.5 12.0002C16.5 10.2302 15.48 8.71018 14 7.97018V9.76018L16.48 12.2402C16.49 12.1602 16.5 12.0802 16.5 12.0002Z" />
</svg>
