<svg width="24" height="24" viewBox="0 0 24 24"  xmlns="http://www.w3.org/2000/svg">
<path d="M4.33999 2.93506L2.92999 4.34506L7.28999 8.70506L6.99999 9.00506H2.99999V15.0051H6.99999L12 20.0051V13.4151L16.18 17.5951C15.53 18.0851 14.8 18.4751 14 18.7051V20.7651C15.34 20.4651 16.57 19.8451 17.61 19.0151L19.66 21.0651L21.07 19.6551L4.33999 2.93506ZM19 12.0051C19 12.8251 18.85 13.6151 18.59 14.3451L20.12 15.8751C20.68 14.7051 21 13.3951 21 12.0051C21 7.72506 18.01 4.14506 14 3.23506V5.29506C16.89 6.15506 19 8.83506 19 12.0051ZM12 4.00506L10.12 5.88506L12 7.76506V4.00506ZM16.5 12.0051C16.5 10.2351 15.48 8.71506 14 7.97506V9.76506L16.48 12.2451C16.49 12.1651 16.5 12.0851 16.5 12.0051Z" />
</svg>
