<svg width="24" height="24" viewBox="0 0 24 24"  xmlns="http://www.w3.org/2000/svg">
<path d="M3.98 6.1052C2.2 7.1452 1 9.0852 1 11.2952C1 14.6052 3.69 17.2952 7 17.2952C9.21 17.2952 11.15 16.0952 12.18 14.3052L19.07 21.1952C19.46 21.5852 20.09 21.5852 20.48 21.1952C20.87 20.8052 20.87 20.1752 20.48 19.7852L3.51 2.8052C3.12 2.4152 2.49 2.4152 2.1 2.8052C1.71 3.1952 1.71 3.8252 2.1 4.2152L3.98 6.1052ZM8.99 11.1152C9 11.1752 9 11.2352 9 11.2952C9 12.3952 8.1 13.2952 7 13.2952C5.9 13.2952 5 12.3952 5 11.2952C5 10.1952 5.9 9.2952 7 9.2952C7.06 9.2952 7.12 9.2952 7.18 9.3052L8.99 11.1152ZM20.32 16.7952C20.74 16.4252 21 15.8852 21 15.2952V13.2952C22.1 13.2952 23 12.3952 23 11.2952C23 10.1952 22.1 9.2952 21 9.2952H12.83L20.32 16.7952Z" />
</svg>
