<svg width="24" height="24" viewBox="0 0 24 24"  xmlns="http://www.w3.org/2000/svg">
<path d="M2.43635 11.6542C1.83635 12.2142 1.49635 13.0042 1.49635 13.8342V19.8642C1.49635 21.5242 2.83635 22.8642 4.49635 22.8642H18.1764C18.8264 22.8642 19.4264 22.3942 19.4964 21.7442C19.5764 20.9942 18.9864 20.3642 18.2564 20.3642H12.9964C12.7164 20.3642 12.4964 20.1442 12.4964 19.8642C12.4964 19.5842 12.7164 19.3642 12.9964 19.3642H20.1764C20.8264 19.3642 21.4264 18.8942 21.4964 18.2442C21.5764 17.4942 20.9864 16.8642 20.2564 16.8642H12.9964C12.7164 16.8642 12.4964 16.6442 12.4964 16.3642C12.4964 16.0842 12.7164 15.8642 12.9964 15.8642H21.1764C21.8264 15.8642 22.4264 15.3942 22.4964 14.7442C22.5764 13.9942 21.9864 13.3642 21.2564 13.3642H12.9964C12.7164 13.3642 12.4964 13.1442 12.4964 12.8642C12.4964 12.5842 12.7164 12.3642 12.9964 12.3642H19.1764C19.8264 12.3642 20.4264 11.8942 20.4964 11.2442C20.5764 10.4942 19.9864 9.86422 19.2564 9.86422H9.35635L10.8464 7.25422C10.9364 7.09422 10.9864 6.92422 10.9864 6.72422C10.9864 6.46422 10.8964 6.22422 10.7264 6.02422L10.3064 5.57422C9.92635 5.18422 9.29635 5.16422 8.89635 5.54422L2.43635 11.6542ZM18.9964 7.86422C20.3764 7.86422 21.4964 6.74422 21.4964 5.36422C21.4964 4.11422 20.0864 2.20422 19.3864 1.32422C19.1864 1.07422 18.8164 1.07422 18.6164 1.32422C17.9064 2.20422 16.4964 4.11422 16.4964 5.36422C16.4964 6.74422 17.6164 7.86422 18.9964 7.86422ZM13.9964 8.86422C14.8264 8.86422 15.4964 8.19422 15.4964 7.36422C15.4964 6.80422 14.8264 5.87422 14.3864 5.32422C14.1864 5.07422 13.8064 5.07422 13.6164 5.32422C13.1664 5.87422 12.4964 6.80422 12.4964 7.36422C12.4964 8.19422 13.1664 8.86422 13.9964 8.86422Z" />
</svg>
