<svg width="24" height="24" viewBox="0 0 24 24"  xmlns="http://www.w3.org/2000/svg">
<path d="M6.9501 12.65H9.2501L8.1001 9L6.9501 12.65ZM22.1001 7L20.9001 13.29L19.4001 7H17.8001L16.3101 13.29L15.1001 7H14.3401C12.8701 5.17 10.6301 4 8.1001 4C3.6801 4 0.100098 7.58 0.100098 12C0.100098 16.42 3.6801 20 8.1001 20C11.2301 20 13.9401 18.19 15.2501 15.57L15.3501 16H17.1001L18.6001 9.9L20.1001 16H21.8501L23.9001 7H22.1001ZM10.4001 16L9.7001 14H6.5001L5.8001 16H3.9001L7.1001 7H9.1001L12.3001 16H10.4001Z" />
</svg>
