<svg width="24" height="24" viewBox="0 0 24 24"  xmlns="http://www.w3.org/2000/svg">
<path d="M7.1001 7L3.9001 16H5.8001L6.5001 14H9.7001L10.4001 16H12.3001L9.1001 7H7.1001ZM6.9501 12.65L8.1001 9L9.2501 12.65H6.9501ZM22.1001 7L20.9001 13.29L19.4001 7H17.8001L16.3101 13.29L15.1001 7H14.3401L14.3301 7.01C12.8601 5.18 10.6301 4 8.1001 4C3.6801 4 0.100098 7.58 0.100098 12C0.100098 16.42 3.6801 20 8.1001 20C11.0601 20 13.6501 18.39 15.0301 16C15.0601 15.94 15.0801 15.88 15.1101 15.82C15.1601 15.74 15.2001 15.65 15.2501 15.57L15.3501 16H17.1001L18.6001 9.9L20.1001 16H21.8501L23.9001 7H22.1001ZM13.4701 14.67C12.4801 16.64 10.4501 18 8.1001 18C4.7901 18 2.1001 15.31 2.1001 12C2.1001 8.69 4.7901 6 8.1001 6C11.4101 6 14.1001 8.69 14.1001 12C14.1001 12.96 13.8701 13.86 13.4701 14.67Z" />
</svg>
