<svg width="24" height="24" viewBox="0 0 24 24"  xmlns="http://www.w3.org/2000/svg">
<path d="M4.99498 15.0008H18.995V9.00078H4.99498V15.0008ZM10.995 1.05078V4.00078H12.995V1.05078H10.995ZM19.035 3.55078L17.245 5.34078L18.655 6.75078L20.455 4.96078L19.035 3.55078ZM12.995 22.9508V20.0008H10.995V22.9508H12.995ZM20.445 19.0408L18.645 17.2508L17.235 18.6608L19.025 20.4608L20.445 19.0408ZM3.54498 4.96078L5.33498 6.75078L6.74498 5.34078L4.95498 3.55078L3.54498 4.96078ZM4.95498 20.4508L6.74498 18.6508L5.33498 17.2408L3.54498 19.0308L4.95498 20.4508Z" />
</svg>
