<svg width="24" height="24" viewBox="0 0 24 24"  xmlns="http://www.w3.org/2000/svg">
<path d="M5.99624 15H17.9962C18.5462 15 18.9962 14.55 18.9962 14V10.05C18.9962 9.5 18.5462 9.05 17.9962 9.05H5.99624C5.44624 9.05 4.99624 9.5 4.99624 10.05V14C4.99624 14.55 5.44624 15 5.99624 15ZM10.9962 2V3.05C10.9962 3.6 11.4462 4 11.9962 4C12.5462 4 12.9962 3.6 12.9962 3.05V2C12.9962 1.45 12.5462 1 11.9962 1C11.4462 1 10.9962 1.45 10.9962 2ZM18.3362 4.3L17.9562 4.68C17.5662 5.07 17.5662 5.7 17.9562 6.09C18.3462 6.48 18.9762 6.48 19.3662 6.09L19.7462 5.71C20.1362 5.32 20.1362 4.69 19.7462 4.3C19.3562 3.91 18.7262 3.91 18.3362 4.3ZM12.9962 22V21.04C12.9962 20.49 12.5462 20.04 11.9962 20.04C11.4462 20.04 10.9962 20.49 10.9962 21.04V22C10.9962 22.55 11.4462 23 11.9962 23C12.5462 23 12.9962 22.55 12.9962 22ZM19.7362 18.39L19.3462 18C18.9562 17.61 18.3262 17.61 17.9362 18C17.5462 18.39 17.5462 19.02 17.9362 19.41L18.3162 19.8C18.7062 20.19 19.3362 20.19 19.7262 19.8L19.7362 19.79C20.1262 19.41 20.1262 18.77 19.7362 18.39ZM4.24624 5.71L4.63624 6.1C5.02624 6.49 5.65624 6.49 6.04624 6.1C6.43624 5.71 6.43624 5.08 6.04624 4.69L5.65624 4.3C5.26624 3.91 4.63624 3.91 4.24624 4.3C3.86624 4.69 3.86624 5.33 4.24624 5.71ZM5.66624 19.79L6.04624 19.41C6.43624 19.02 6.43624 18.39 6.04624 18C5.65624 17.61 5.02624 17.61 4.63624 18L4.25624 18.38C3.86624 18.77 3.86624 19.4 4.25624 19.79C4.63624 20.18 5.27624 20.18 5.66624 19.79Z" />
</svg>
