<svg width="24" height="24" viewBox="0 0 24 24"  xmlns="http://www.w3.org/2000/svg">
<path d="M14.2753 14.026C14.2753 14.256 14.3653 14.486 14.5353 14.656L19.5153 19.636C19.6853 19.806 19.9053 19.896 20.1353 19.896C20.9253 19.896 21.3153 18.946 20.7553 18.386L15.7753 13.406C15.2253 12.846 14.2753 13.246 14.2753 14.026ZM15.2753 19.896H17.2753L14.2753 16.896V18.896C14.2753 19.446 14.7253 19.896 15.2753 19.896ZM7.92533 4.24602L3.12533 9.04602C2.81533 9.35602 3.03533 9.89602 3.48533 9.89602H4.27533V18.896C4.27533 19.446 4.72533 19.896 5.27533 19.896H11.2753C11.8253 19.896 12.2753 19.446 12.2753 18.896V9.89602H13.0653C13.5153 9.89602 13.7353 9.35602 13.4153 9.04602L8.62533 4.24602C8.43533 4.05602 8.11533 4.05602 7.92533 4.24602ZM9.27533 13.896H7.27533V9.89602H9.27533V13.896Z" />
</svg>
