<svg width="24" height="24" viewBox="0 0 24 24"  xmlns="http://www.w3.org/2000/svg">
<path d="M19.07 9.37L19.78 8.66C20.17 8.27 20.17 7.64 19.78 7.25C19.39 6.86 18.76 6.86 18.37 7.25L17.66 7.96C17.27 8.35 17.27 8.98 17.66 9.37C18.04 9.76 18.68 9.76 19.07 9.37Z" />
<path d="M21 18H3C2.45 18 2 18.45 2 19C2 19.55 2.45 20 3 20H21C21.55 20 22 19.55 22 19C22 18.45 21.55 18 21 18Z" />
<path d="M12 7C12.56 7 13 6.55 13 6V5C13 4.45 12.55 4 12 4C11.45 4 11 4.45 11 5V6C11 6.55 11.45 7 12 7Z" />
<path d="M4.96 9.34C5.35 9.73 5.98 9.73 6.37 9.34C6.76 8.95 6.76 8.32 6.37 7.93L5.66 7.22C5.27 6.83 4.64 6.83 4.25 7.22C3.86 7.61 3.86 8.24 4.25 8.63L4.96 9.34Z" />
<path d="M19 16C19 12.13 15.87 9 12 9C8.13 9 5 12.13 5 16H19Z" />
</svg>
