<svg width="24" height="24" viewBox="0 0 24 24"  xmlns="http://www.w3.org/2000/svg">
<path d="M7.28121 3.29061H20.4512C21.5612 3.29061 22.4512 4.19061 22.4512 5.29061V17.2906C22.4512 17.6306 22.3612 17.9506 22.2212 18.2306L20.4512 16.4606V7.29061H11.2812L7.28121 3.29061ZM20.2312 21.9006L17.6212 19.2906H4.45121C3.34121 19.2906 2.45121 18.3906 2.45121 17.2906V5.29061C2.45121 4.95061 2.53121 4.63061 2.68121 4.35061L1.84121 3.51061C1.45121 3.12061 1.45121 2.49061 1.84121 2.10061C2.23121 1.71061 2.86121 1.71061 3.25121 2.10061L21.6312 20.4806C22.0212 20.8706 22.0212 21.5006 21.6312 21.8906C21.2512 22.2906 20.6212 22.2906 20.2312 21.9006ZM15.6212 17.2906L5.62121 7.29061H4.45121V17.2906H15.6212Z" />
</svg>
