<svg width="24" height="24" viewBox="0 0 24 24"  xmlns="http://www.w3.org/2000/svg">
<path d="M2 16.5C2 14.66 3 13.05 4.48 12.18C5.15 11.79 6 12.26 6 13.04C6 13.4 5.81 13.72 5.5 13.9C4.6 14.42 4 15.39 4 16.5C4 18.35 5.68 19.81 7.6 19.44C9.02 19.16 10 17.83 10 16.38C10 15.89 10.39 15.5 10.88 15.5H15.88C16.15 15.19 16.55 15 17 15C17.83 15 18.5 15.67 18.5 16.5C18.5 17.33 17.83 18 17 18C16.56 18 16.16 17.81 15.88 17.5H11.9C11.44 19.78 9.42 21.5 7 21.5C4.24 21.5 2 19.26 2 16.5ZM16.37 7.5C17.02 7.5 17.51 6.88 17.34 6.25C16.79 4.09 14.83 2.5 12.5 2.5C9.74 2.5 7.5 4.74 7.5 7.5C7.5 8.93 8.1 10.21 9.05 11.12L6.7 15.02C6.02 15.16 5.5 15.77 5.5 16.5C5.5 17.33 6.17 18 7 18C7.83 18 8.5 17.33 8.5 16.5C8.5 16.34 8.48 16.19 8.43 16.05L11.29 11.3C11.54 10.89 11.42 10.35 11.01 10.11C10.11 9.58 9.5 8.61 9.5 7.5C9.5 5.85 10.85 4.5 12.5 4.5C13.88 4.5 15.04 5.43 15.39 6.7C15.52 7.16 15.9 7.5 16.37 7.5ZM17 13.5C16.62 13.5 16.25 13.57 15.91 13.7C15.51 13.86 15.05 13.66 14.83 13.29L12.23 8.97C11.53 8.85 11 8.24 11 7.5C11 6.67 11.67 6 12.5 6C13.33 6 14 6.67 14 7.5C14 7.65 13.98 7.79 13.94 7.93L16.13 11.58C16.41 11.53 16.7 11.5 17 11.5C19.76 11.5 22 13.74 22 16.5C22 19.26 19.76 21.5 17 21.5C16.14 21.5 15.32 21.28 14.61 20.89C13.69 20.39 14.03 19 15.08 19C15.25 19 15.42 19.05 15.57 19.14C15.99 19.37 16.48 19.5 17 19.5C18.65 19.5 20 18.15 20 16.5C20 14.85 18.65 13.5 17 13.5Z" />
</svg>
