<svg width="24" height="24" viewBox="0 0 24 24"  xmlns="http://www.w3.org/2000/svg">
<path d="M3.8927 4C3.8927 2.89 4.7827 2 5.8927 2C7.0027 2 7.8927 2.89 7.8927 4C7.8927 5.11 7.0027 6 5.8927 6C4.7827 6 3.8927 5.11 3.8927 4ZM9.3927 10.95V9C9.3927 7.9 8.4927 7 7.3927 7H4.3927C3.2927 7 2.3927 7.9 2.3927 9V14C2.3927 14.55 2.8427 15 3.3927 15H4.3927V21C4.3927 21.55 4.8427 22 5.3927 22H7.8927V21.89C6.6527 20.63 5.8927 18.9 5.8927 17C5.8927 14.42 7.3027 12.16 9.3927 10.95ZM15.8927 17C15.8927 18.65 14.5427 20 12.8927 20C11.2427 20 9.8927 18.65 9.8927 17C9.8927 15.89 10.5027 14.94 11.3927 14.42V12.26C9.3727 12.9 7.8927 14.77 7.8927 17C7.8927 19.76 10.1327 22 12.8927 22C15.6527 22 17.8927 19.76 17.8927 17H15.8927ZM18.3927 14H14.3927V9C14.3927 8.45 13.9427 8 13.3927 8C12.8427 8 12.3927 8.45 12.3927 9V15C12.3927 15.55 12.8427 16 13.3927 16H17.8527L19.7727 18.88C20.0827 19.34 20.7027 19.46 21.1627 19.16C21.6227 18.85 21.7427 18.23 21.4427 17.77L19.2327 14.45C19.0427 14.17 18.7227 14 18.3927 14Z" />
</svg>
