<svg width="24" height="24" viewBox="0 0 24 24"  xmlns="http://www.w3.org/2000/svg">
<path d="M12.5488 14.4462V20.4462C12.5488 20.9962 12.9988 21.4462 13.5488 21.4462H19.5488C20.0988 21.4462 20.5488 20.9962 20.5488 20.4462V14.4462C20.5488 13.8962 20.0988 13.4462 19.5488 13.4462H13.5488C12.9988 13.4462 12.5488 13.8962 12.5488 14.4462ZM3.54883 21.4462H9.54883C10.0988 21.4462 10.5488 20.9962 10.5488 20.4462V14.4462C10.5488 13.8962 10.0988 13.4462 9.54883 13.4462H3.54883C2.99883 13.4462 2.54883 13.8962 2.54883 14.4462V20.4462C2.54883 20.9962 2.99883 21.4462 3.54883 21.4462ZM2.54883 4.44621V10.4462C2.54883 10.9962 2.99883 11.4462 3.54883 11.4462H9.54883C10.0988 11.4462 10.5488 10.9962 10.5488 10.4462V4.44621C10.5488 3.89621 10.0988 3.44621 9.54883 3.44621H3.54883C2.99883 3.44621 2.54883 3.89621 2.54883 4.44621ZM15.4988 2.84621L11.2488 7.08621C10.8588 7.47621 10.8588 8.10621 11.2488 8.49621L15.4988 12.7462C15.8888 13.1362 16.5188 13.1362 16.9088 12.7462L21.1588 8.49621C21.5488 8.10621 21.5488 7.47621 21.1588 7.08621L16.9188 2.84621C16.5288 2.45621 15.8888 2.45621 15.4988 2.84621Z" />
</svg>
