<svg width="24" height="24" viewBox="0 0 24 24"  xmlns="http://www.w3.org/2000/svg">
<path d="M18.1549 10.13C16.3349 8.79 14.0949 8 11.6649 8C9.23494 8 6.99494 8.79 5.17494 10.13C4.45494 10.66 4.41494 11.73 5.04494 12.37C5.57494 12.91 6.41494 12.94 7.02494 12.49C8.33494 11.55 9.93494 11 11.6649 11C13.3949 11 14.9949 11.55 16.3049 12.49C16.9249 12.93 17.7549 12.9 18.2849 12.37C18.9249 11.73 18.8849 10.66 18.1549 10.13ZM22.4649 5.89C19.5249 3.46 15.7649 2 11.6649 2C7.56494 2 3.80494 3.46 0.864939 5.89C0.194939 6.44 0.154939 7.47 0.774939 8.1C1.32494 8.65 2.19494 8.68 2.79494 8.19C5.21494 6.2 8.30494 5 11.6649 5C15.0249 5 18.1149 6.2 20.5349 8.19C21.1349 8.68 22.0049 8.65 22.5549 8.1C23.1749 7.47 23.1349 6.44 22.4649 5.89ZM11.6649 14C10.5649 14 9.66494 14.9 9.66494 16C9.66494 17.1 10.5649 18 11.6649 18C12.7649 18 13.6649 17.1 13.6649 16C13.6649 14.9 12.7649 14 11.6649 14ZM22.6649 17V16C22.6649 14.9 21.7649 14 20.6649 14C19.5649 14 18.6649 14.9 18.6649 16V17C18.1149 17 17.6649 17.45 17.6649 18V21C17.6649 21.55 18.1149 22 18.6649 22H22.6649C23.2149 22 23.6649 21.55 23.6649 21V18C23.6649 17.45 23.2149 17 22.6649 17ZM21.6649 17H19.6649V16C19.6649 15.45 20.1149 15 20.6649 15C21.2149 15 21.6649 15.45 21.6649 16V17Z" />
</svg>
