<svg width="24" height="24" viewBox="0 0 24 24"  xmlns="http://www.w3.org/2000/svg">
<path d="M12 13C10.9 13 9.99999 13.9 9.99999 15C9.99999 16.1 10.9 17 12 17C13.1 17 14 16.1 14 15C14 13.9 13.1 13 12 13ZM5.37999 11.37C4.74999 10.74 4.78999 9.66 5.50999 9.13C7.32999 7.79 9.56999 7 12 7C14.43 7 16.67 7.79 18.49 9.13C19.21 9.66 19.25 10.73 18.62 11.37C18.09 11.91 17.25 11.94 16.64 11.49C15.33 10.55 13.73 10 12 10C10.27 10 8.66999 10.55 7.35999 11.49C6.74999 11.93 5.90999 11.9 5.37999 11.37Z" />
</svg>
