<svg width="24" height="24" viewBox="0 0 24 24"  xmlns="http://www.w3.org/2000/svg">
<path d="M2.05703 10.04C2.56703 10.55 3.37703 10.6 3.92703 10.14C8.59703 6.3 15.377 6.3 20.057 10.13C20.617 10.59 21.437 10.55 21.947 10.04C22.537 9.45 22.497 8.47 21.847 7.94C16.137 3.27 7.87703 3.27 2.15703 7.94C1.50703 8.46 1.45703 9.44 2.05703 10.04ZM9.81703 17.8L11.287 19.27C11.677 19.66 12.307 19.66 12.697 19.27L14.167 17.8C14.637 17.33 14.537 16.52 13.937 16.21C12.717 15.58 11.257 15.58 10.027 16.21C9.45703 16.52 9.34703 17.33 9.81703 17.8ZM6.08703 14.07C6.57703 14.56 7.34703 14.61 7.91703 14.2C10.357 12.47 13.637 12.47 16.077 14.2C16.647 14.6 17.417 14.56 17.907 14.07L17.917 14.06C18.517 13.46 18.477 12.44 17.787 11.95C14.347 9.46 9.65703 9.46 6.20703 11.95C5.51703 12.45 5.47703 13.46 6.08703 14.07Z" />
</svg>
