<svg width="24" height="24" viewBox="0 0 24 24"  xmlns="http://www.w3.org/2000/svg">
<path d="M10.6608 7.63949C8.42082 8.11949 6.62082 9.93949 6.14082 12.1795C5.77082 13.9295 6.16082 15.5595 7.03082 16.8395C7.37082 17.3495 8.11082 17.3895 8.54082 16.9495C8.89082 16.5995 8.91082 16.0695 8.64082 15.6695C8.14082 14.9095 7.89082 13.9595 8.03082 12.9395C8.26082 11.1995 9.70082 9.76949 11.4408 9.53949C13.9008 9.20949 16.0008 11.1095 16.0008 13.4995C16.0008 14.2995 15.7608 15.0395 15.3608 15.6595C15.0908 16.0695 15.1108 16.6095 15.4608 16.9495C15.8908 17.3795 16.6308 17.3495 16.9708 16.8395C17.6208 15.8995 18.0008 14.7495 18.0008 13.4995C18.0008 9.74949 14.5508 6.79949 10.6608 7.63949ZM10.2508 3.64949C6.20082 4.33949 3.06082 7.33949 2.22082 11.3695C1.56082 14.5395 2.42082 17.5295 4.19082 19.7495C4.56082 20.2095 5.26081 20.2395 5.68081 19.8195C6.04081 19.4595 6.07082 18.8895 5.75082 18.4995C4.41082 16.8295 3.72082 14.5995 4.09082 12.2195C4.64082 8.74949 7.51082 5.97949 11.0108 5.56949C13.7708 5.23949 16.2808 6.30949 17.9408 8.15949C18.1408 8.36949 18.4108 8.49949 18.7008 8.49949C19.5508 8.49949 20.0408 7.48949 19.4708 6.84949C17.2808 4.39949 13.9108 3.02949 10.2508 3.64949ZM12.0008 11.4995C10.9008 11.4995 10.0008 12.3995 10.0008 13.4995C10.0008 14.0495 10.2308 14.5495 10.5908 14.9095C10.9508 15.2695 11.4508 15.4995 12.0008 15.4995C12.5508 15.4995 13.0508 15.2695 13.4108 14.9095C13.7708 14.5495 14.0008 14.0495 14.0008 13.4995C14.0008 12.3995 13.1008 11.4995 12.0008 11.4995ZM21.0008 10.4995C21.5508 10.4995 22.0008 10.9495 22.0008 11.4995V15.4995C22.0008 16.0495 21.5508 16.4995 21.0008 16.4995C20.4508 16.4995 20.0008 16.0495 20.0008 15.4995V11.4995C20.0008 10.9495 20.4508 10.4995 21.0008 10.4995ZM21.0008 18.4995C21.5508 18.4995 22.0008 18.9495 22.0008 19.4995C22.0008 20.0495 21.5508 20.4995 21.0008 20.4995C20.4508 20.4995 20.0008 20.0495 20.0008 19.4995C20.0008 18.9495 20.4508 18.4995 21.0008 18.4995Z" />
</svg>
