<svg width="24" height="24" viewBox="0 0 24 24"  xmlns="http://www.w3.org/2000/svg">
<path d="M4.08495 21C4.58495 21 5.00495 20.62 5.07495 20.13C5.72495 15.24 7.02495 11.12 7.95495 10.13C8.86495 11.11 10.145 15.14 10.815 19.95C10.895 20.55 11.405 21 12.005 21C12.545 21 13.025 20.64 13.165 20.11C13.785 17.73 15.065 15 15.955 15C16.855 15 18.145 17.83 18.765 20.2C18.885 20.68 19.325 21 19.815 21C20.435 21 20.935 20.48 20.905 19.86C20.705 15.89 19.765 3 15.955 3C13.445 3 12.185 8.61 11.555 13.57C10.745 10.66 9.56495 8 7.95495 8C5.03495 8 3.54495 16.71 3.10495 19.87C3.01495 20.47 3.48495 21 4.08495 21ZM15.955 13C14.965 13 14.135 13.62 13.455 14.5C14.025 9.73 14.995 5.88 15.955 5.06C16.925 5.87 17.865 9.73 18.445 14.49C17.765 13.62 16.935 13 15.955 13Z" />
</svg>
