<svg width="24" height="24" viewBox="0 0 24 24"  xmlns="http://www.w3.org/2000/svg">
<path d="M15.925 3C13.715 3 11.715 3.9 10.265 5.34L11.325 6.4C12.505 5.22 14.125 4.49 15.915 4.49C17.705 4.49 19.335 5.22 20.505 6.4L21.565 5.34C20.135 3.9 18.135 3 15.925 3Z" />
<path d="M19.465 7.46C18.555 6.56 17.305 6 15.925 6C14.545 6 13.295 6.56 12.385 7.46L13.445 8.52C14.075 7.89 14.955 7.49 15.915 7.49C16.875 7.49 17.755 7.88 18.385 8.52L19.465 7.46Z" />
<path d="M14.515 9.59L15.925 11L17.335 9.59C16.975 9.22 16.475 9 15.925 9C15.375 9 14.875 9.22 14.515 9.59Z" />
<path d="M20.435 15L15.435 14L12.535 16.9C10.035 15.47 7.965 13.4 6.535 10.9L9.435 8L8.435 3H2.435C2.435 6.28 3.325 9.35 4.865 12C6.445 14.73 8.715 16.99 11.435 18.57C14.085 20.1 17.155 21 20.435 21V15Z" />
</svg>
