<svg width="24" height="24" viewBox="0 0 24 24"  xmlns="http://www.w3.org/2000/svg">
<path d="M10 3H4V5H10V3Z" />
<path d="M6 7H1V9H6V7Z" />
<path d="M8 19H3V21H8V19Z" />
<path d="M15.32 12.09L20.74 3.05L17.32 1L12 5.97V10.71C12.31 10.58 12.64 10.5 13 10.5C14.06 10.5 14.96 11.16 15.32 12.09Z" />
<path d="M10.5 13C10.5 12.18 10.9 11.46 11.51 11H1V15L8 17L11.44 14.94C10.87 14.48 10.5 13.79 10.5 13Z" />
<path d="M20.17 23L23 20.17L19.46 13.81L15.48 12.81C15.48 12.87 15.5 12.93 15.5 13C15.5 14.38 14.38 15.5 13 15.5C12.64 15.5 12.31 15.42 12 15.29V21C10.9 21 10 21.9 10 23H16C16 21.9 15.1 21 14 21V16.83L20.17 23Z" />
<path d="M13 14.5C13.8284 14.5 14.5 13.8284 14.5 13C14.5 12.1716 13.8284 11.5 13 11.5C12.1716 11.5 11.5 12.1716 11.5 13C11.5 13.8284 12.1716 14.5 13 14.5Z" />
</svg>
