<svg width="24" height="24" viewBox="0 0 24 24"  xmlns="http://www.w3.org/2000/svg">
<path d="M10.2501 2.7477H4.25012V4.7477H10.2501V2.7477Z" />
<path d="M6.25012 6.7477H1.25012V8.7477H6.25012V6.7477Z" />
<path d="M8.25012 18.7477H3.25012V20.7477H8.25012V18.7477Z" />
<path d="M13.9801 10.3577C14.7301 10.5877 15.2801 11.1377 15.5501 11.8177L19.8201 4.7077C20.4701 3.6277 20.1201 2.2277 19.0401 1.5777C18.1701 1.0577 17.0501 1.1677 16.3101 1.8677L12.8801 5.0777C12.4801 5.4477 12.2501 5.9777 12.2501 6.5277V10.4577C12.6101 10.3077 13.2301 10.1277 13.9801 10.3577Z" />
<path d="M10.8601 12.0177C11.0201 11.4977 11.3401 11.0577 11.7501 10.7477H3.53012C2.27012 10.7477 1.25012 11.7677 1.25012 13.0277C1.25012 14.0477 1.92012 14.9377 2.90012 15.2177L7.41012 16.5077C7.94012 16.6577 8.51012 16.5877 8.99012 16.2977L11.6801 14.6877C10.9101 14.0677 10.5501 13.0177 10.8601 12.0177Z" />
<path d="M22.4601 18.3577L20.1801 14.2577C19.9101 13.7777 19.4501 13.4277 18.9201 13.2877L15.7401 12.4877C15.7701 12.8077 15.7401 13.1477 15.6401 13.4777C15.3201 14.5377 14.3601 15.2477 13.2501 15.2477C12.6401 15.2477 12.2601 15.0277 12.2501 15.0277V20.7477C11.1501 20.7477 10.2501 21.6477 10.2501 22.7477H16.2501C16.2501 21.6477 15.3501 20.7477 14.2501 20.7477V16.4677L18.8601 21.0777C19.7501 21.9677 21.1901 21.9677 22.0801 21.0777C22.8001 20.3577 22.9601 19.2477 22.4601 18.3577Z" />
<path d="M12.8101 14.1777C13.6001 14.4177 14.4401 13.9777 14.6801 13.1777C14.9201 12.3877 14.4801 11.5477 13.6801 11.3077C12.8901 11.0677 12.0501 11.5077 11.8101 12.3077C11.5701 13.0977 12.0201 13.9377 12.8101 14.1777Z" />
</svg>
