<svg width="24" height="24" viewBox="0 0 24 24"  xmlns="http://www.w3.org/2000/svg">
<path d="M13.9369 8.31C13.5569 7.35 12.5169 6.79 11.4569 7.07C10.7969 7.24 10.2769 7.77 10.0269 8.41L7.54689 14.63C7.27689 15.29 7.76689 16 8.46689 16H10.4969V21C10.4969 21.55 10.9469 22 11.4969 22H12.4969C13.0469 22 13.4969 21.55 13.4969 21V16H15.5269C16.2369 16 16.7169 15.29 16.4569 14.63L13.9369 8.31Z" />
<path d="M11.9969 6C13.1015 6 13.9969 5.10457 13.9969 4C13.9969 2.89543 13.1015 2 11.9969 2C10.8923 2 9.99689 2.89543 9.99689 4C9.99689 5.10457 10.8923 6 11.9969 6Z" />
</svg>
