<svg width="24" height="24" viewBox="0 0 24 24"  xmlns="http://www.w3.org/2000/svg">
<path d="M3.74379 2.24898C3.35379 1.85898 2.72379 1.85898 2.33379 2.24898C1.94379 2.63898 1.94379 3.26898 2.33379 3.65898L4.37379 5.70898H3.63379C2.52379 5.70898 1.64379 6.59898 1.64379 7.70898L1.63379 18.709C1.63379 19.819 2.52379 20.709 3.63379 20.709H19.3738L20.6638 21.999C21.0538 22.389 21.6838 22.389 22.0738 21.999C22.4638 21.609 22.4638 20.979 22.0738 20.589L3.74379 2.24898ZM9.63379 3.70898H13.6338V5.70898H10.0338L21.6338 17.309V7.70898C21.6338 6.59898 20.7438 5.70898 19.6338 5.70898H15.6338V3.70898C15.6338 2.59898 14.7438 1.70898 13.6338 1.70898H9.63379C8.64379 1.70898 7.83379 2.40898 7.67379 3.34898L9.63379 5.30898V3.70898Z" />
</svg>
