<svg width="24" height="24" viewBox="0 0 24 24"  xmlns="http://www.w3.org/2000/svg">
<path d="M16.16 10.63C18.16 10.26 20.04 10.74 21.5 11.76V5.5H15.5V1.5H7.5V5.5H1.5V20.5H11.18C10.55 19.17 10.31 17.62 10.66 15.99C11.25 13.29 13.44 11.13 16.16 10.63ZM9.5 3.5H13.5V5.5H9.5V3.5Z" />
<path d="M17.5 12.5C14.74 12.5 12.5 14.74 12.5 17.5C12.5 20.26 14.74 22.5 17.5 22.5C20.26 22.5 22.5 20.26 22.5 17.5C22.5 14.74 20.26 12.5 17.5 12.5ZM19.15 19.85L17 17.7V14.5H18V17.29L19.85 19.14L19.15 19.85Z" />
</svg>
